<svg width="104" height="104" viewBox="0 0 104 104" fill="none" xmlns="http://www.w3.org/2000/svg">
<path d="M95.8728 29.4969C95.3191 28.3377 93.9059 28.4878 94.5113 29.6469C96.4321 33.3705 97.8254 37.3432 98.6512 41.4508C97.2385 41.7043 94.7132 41.9682 93.0986 42.1545C91.9394 34.5423 88.9127 29.7349 84.7262 24.9068C83.0806 22.9817 90.2116 20.7669 87.3136 17.5429C86.0411 16.1991 84.6561 14.9665 83.1738 13.8584C81.761 12.8235 80.3535 13.2582 81.5126 14.2155C87.4844 19.1471 87.148 18.8315 86.051 20.3167C84.5865 22.1848 81.9623 23.7476 83.6286 25.6623C95.0444 38.3976 91.1839 49.8858 92.9434 49.6736C93.9783 49.5494 93.4976 44.5764 93.2958 43.5155C94.9103 43.3137 97.4817 42.998 98.8944 42.8118C99.9294 48.6593 98.8944 50.6517 99.9553 50.781C101.114 50.781 100.473 44.5712 100.008 41.8544C99.2422 37.5549 97.8491 33.3912 95.8728 29.4969Z" fill="#A259FF"/>
<path d="M70.3557 95.8438C64.1459 98.5192 55.2244 99.8284 48.4143 99.4662C47.607 99.3679 47.4052 100.677 49.3716 100.827C55.8454 101.262 65.2326 99.6059 69.8485 97.3962C71.2095 96.8063 71.1112 95.5436 70.3557 95.8438Z" fill="#A259FF"/>
<path d="M86.1389 74.2593C83.1158 78.9655 79.1475 82.9918 74.4856 86.0828C69.824 89.1743 64.5706 91.2629 59.0589 92.2161C57.8221 92.392 57.9468 93.7685 60.0633 93.3235C66.9129 92.0005 73.3194 88.9752 78.6928 84.5262C79.8002 85.7889 81.0365 87.0205 82.2733 88.2107C83.1996 89.0956 84.2397 89.3181 85.1971 88.3608C93.5389 79.8533 98.6517 69.4312 97.3528 68.4376C96.9492 68.1375 96.6547 68.4894 96.546 68.7895C93.9715 75.8708 89.7746 82.251 84.2915 87.419C83.774 87.9365 83.774 88.0607 79.6341 83.6827C82.547 81.1204 85.0928 78.1689 87.1997 74.9113C90.9825 76.2723 92.8507 70.4713 89.2697 69.219C86.0923 68.1064 83.8723 72.0393 86.1389 74.2593ZM86.496 71.5839C87.2515 69.1621 90.8796 70.549 89.6738 72.9967C88.8924 74.575 85.9888 73.6539 86.496 71.5839Z" fill="black"/>
<path d="M79.887 20.8964C80.6425 21.5019 81.1445 20.5963 80.2906 19.789C76.7096 16.4616 70.0754 13.3412 66.1684 12.1199C64.616 11.5144 64.1502 12.4718 65.0093 12.8289C69.0922 14.49 72.3736 15.8044 75.0438 17.5173C70.1018 27.1684 71.6383 22.0142 78.9762 30.6821C78.5378 31.1126 78.2369 31.6634 78.1117 32.265C77.9866 32.8665 78.0427 33.4916 78.2729 34.0613C77.2637 34.764 76.2012 35.3869 75.0951 35.9242C74.3861 35.0186 71.4106 30.8839 70.1996 31.4894C68.7352 32.2242 74.2619 33.9888 76.927 42.8741C76.9423 42.9542 76.9799 43.0284 77.0356 43.0881C77.0913 43.1478 77.1627 43.1906 77.2416 43.2115C77.3204 43.2324 77.4035 43.2309 77.4815 43.2069C77.5594 43.1829 77.6291 43.1375 77.6825 43.0759C78.2879 42.5584 77.1293 38.936 75.8149 37.0265C76.9239 36.486 77.9958 35.8723 79.0233 35.1894C79.4316 35.5958 79.9496 35.8745 80.5138 35.9912C81.078 36.1079 81.664 36.0577 82.2001 35.8466C85.2429 42.0564 84.6944 45.596 85.8225 45.0268C87.1318 44.3178 83.6548 35.7121 83.3029 35.1428C85.6212 32.9228 83.1989 29.0882 80.1716 30.0973C72.4921 20.8809 72.0631 27.0545 76.1875 18.3452C77.4955 19.0817 78.7337 19.9356 79.887 20.8964ZM79.4321 32.1932C80.2445 30.0559 83.4685 31.4376 82.8113 33.4041C82.1282 35.5723 78.5058 34.5943 79.4321 32.1932Z" fill="black"/>
<path d="M4.02983 55.2936C3.55455 49.2151 4.16969 43.1006 5.8462 37.2385C6.53023 37.447 7.26612 37.4053 7.92221 37.1209C8.5783 36.8364 9.11178 36.3279 9.4272 35.6861C10.9383 36.1363 13.8155 37.756 14.6021 35.2307C15.5077 32.3069 16.9204 30.1852 18.7885 27.3649C19.5389 26.273 16.6616 25.4761 13.2411 35.2307C12.884 36.2657 10.8192 34.7132 9.75839 34.3717C9.76378 33.9286 9.67181 33.4897 9.48899 33.086C9.30617 32.6823 9.03695 32.3237 8.70035 32.0355C8.36375 31.7472 7.96797 31.5364 7.54097 31.4179C7.11397 31.2994 6.66615 31.276 6.22914 31.3496C3.70899 31.6497 2.90171 35.1324 4.67669 36.6434C3.03596 42.3564 2.35397 48.3019 2.65849 54.2379C2.76717 56.0491 4.08158 56.1526 4.02983 55.2936ZM5.33907 33.2539C6.60173 31.5876 9.42203 33.435 8.21629 35.2721C6.90187 37.2592 3.98843 35.3238 5.33907 33.2539Z" fill="black"/>
<path d="M33.0816 80.0607C27.9895 76.8316 24.1032 71.9879 21.4796 66.5439C22.5922 66.0265 25.014 64.8259 26.5768 64.3239C26.8252 64.7276 27.1305 65.333 27.3841 65.7367C24.9623 68.1068 27.9895 72.1897 30.9133 70.6269C31.6171 71.1806 33.2834 73.4524 34.1424 73.2143C35.0015 72.9763 33.1334 71.8533 31.8707 69.8352C32.2786 69.3232 32.5079 68.6919 32.5236 68.0375C32.5393 67.3831 32.3406 66.7416 31.9576 66.2107C31.5749 65.6797 31.0291 65.2884 30.4033 65.0963C29.7776 64.9042 29.1062 64.9219 28.4915 65.1467C26.9391 62.135 26.5716 62.7094 20.9259 65.3951C20.39 64.2344 19.9352 63.0378 19.5649 61.8141C19.3631 61.0069 18.0538 61.0069 18.7059 63.2786C20.7241 70.2388 25.6195 76.4434 31.6171 80.5264C32.7297 81.3182 34.0027 80.6661 33.0816 80.0607ZM27.9067 67.2995C28.9676 64.976 32.5641 66.9476 30.8305 69.1158C29.6041 70.5752 27.1823 69.1158 27.886 67.2995H27.9067Z" fill="black"/>
<path d="M79.6338 54.8541C79.6338 52.2667 78.4492 52.5358 78.4234 53.5449C78.2474 60.9657 75.3185 66.482 69.9987 71.2998C68.9948 72.2054 70.5571 72.5573 71.3644 71.8173C73.8513 69.6293 75.8598 66.9515 77.2642 63.9515C78.6252 64.7071 80.9487 65.9697 82.1544 66.8236C80.6446 69.6332 78.8366 72.2721 76.7617 74.6945C75.9544 75.7036 77.5328 75.7709 78.4746 74.7463C81.2535 71.7138 83.1635 68.1897 84.7781 64.3034C85.6371 62.1869 84.6275 61.0226 84.1721 62.337C83.7634 63.4715 83.2917 64.5824 82.7594 65.6644C81.3984 64.7071 79.2819 63.5945 77.8174 62.7924C78.1693 62.1559 79.6855 57.514 79.6338 54.8541Z" fill="#A259FF"/>
<path d="M17.8975 76.0708C19.6466 75.8741 14.3838 73.3333 11.341 58.616C11.2271 58.0675 10.9373 57.9122 10.6372 58.1658C9.67984 58.9731 11.7446 65.3278 12.0499 66.3369C10.7355 66.7871 7.91005 67.6979 6.39899 68.1998C5.80229 66.381 5.31329 64.5287 4.9345 62.6524C4.73268 61.545 3.67701 62.0469 3.97716 63.5114C4.78443 68.1015 5.79353 71.1288 7.59955 74.3062C8.25676 75.4136 9.25033 75.1186 8.86222 74.3527C8.04386 72.7687 7.36845 71.1148 6.84403 69.4107C8.45858 68.857 11.2323 67.998 12.5364 67.5478C13.059 68.7121 16.283 76.2778 17.8975 76.0708Z" fill="#A259FF"/>
<path d="M61.1749 85.7583C63.5967 84.8527 62.8463 83.9057 62.0805 84.2058C60.0181 84.9621 57.8632 85.4373 55.674 85.6185C55.4774 84.1023 55.0737 81.282 55.0737 79.7658C56.2329 79.4656 60.2486 79.2121 60.6212 77.8511C60.7712 77.2974 59.9122 77.5458 59.5603 77.6493C53.868 79.3984 52.9313 76.1693 54.4165 85.6703C49.7591 86.2809 47.5288 85.1528 48.0618 86.224C48.3516 86.9899 54.9909 88.0093 61.1749 85.7583Z" fill="#A259FF"/>
<path d="M24.1699 51.5107C24.6253 52.0282 24.9254 51.5107 24.9254 51.1588C25.1096 45.2219 27.2162 39.5052 30.9283 34.8683C31.1301 34.563 29.8674 34.0093 28.5582 36.0275C27.1467 38.224 25.9953 40.5771 25.1273 43.0394C25.1273 43.0394 21.3962 42.0821 20.1335 41.725C19.4763 41.5232 19.5281 41.5232 19.616 41.0212C20.0663 39.0031 21.7843 35.7222 22.4881 34.5165C23.1919 33.3107 22.0844 33.2538 21.0754 34.9667C19.6626 37.3885 17.9704 40.8712 18.4879 42.1287C18.8502 42.9308 19.4504 42.8687 24.7443 44.2969C23.9008 47.0914 23.6524 50.957 24.1699 51.5107Z" fill="#A259FF"/>
<path d="M29.4018 17.414C39.6687 9.46021 43.0789 14.987 38.9339 5.56355C38.4785 4.55445 37.1641 4.30088 37.723 5.71362C40.9314 13.8899 39.7567 8.50804 29.4432 15.8046C27.8856 16.912 28.7446 17.9211 29.4018 17.414Z" fill="black"/>
<path d="M13.5093 23.0651C17.1938 18.5267 20.5213 14.5938 25.0596 12.0219C26.6121 14.3403 30.6071 13.2328 30.5605 10.3039C30.4829 5.9156 23.8332 6.31924 24.5059 10.8576C20.0355 13.4296 16.1941 16.9651 13.2609 21.2073C12.0966 22.8115 13.0074 23.6705 13.5093 23.0651ZM26.2705 9.04638C27.3521 7.7061 29.4479 8.79282 29.3754 10.3039C29.0443 13.533 24.1954 11.6183 26.2705 9.04638Z" fill="#A259FF"/>
<path d="M20.8738 89.7426C22.4262 90.85 22.835 89.7012 22.3382 89.339C18.0666 86.1709 14.438 82.2174 11.647 77.6904C11.1916 76.9814 10.0945 77.4368 11.4452 79.6568C13.8945 83.6058 17.0985 87.0331 20.8738 89.7426Z" fill="#A259FF"/>
<path d="M58.8418 10.2054C55.2874 9.51699 51.6561 9.31331 48.047 9.59991C45.9771 9.74998 46.329 10.9609 47.188 10.9092C51.2761 10.609 55.5097 11.0126 59.396 11.5146C60.9122 11.7164 60.6219 10.5573 58.8418 10.2054Z" fill="#A259FF"/>
<path d="M71.815 7.02792C66.3193 4.25419 60.6678 2.58789 53.8629 2.58789C51.943 2.58789 51.4928 3.74706 52.4967 3.85055C59.2956 3.87765 65.9953 5.48258 72.0685 8.53897C73.1294 9.04611 73.4813 7.83519 71.815 7.02792Z" fill="black"/>
<path d="M53.6089 24.8809C54.2144 24.8809 54.6444 24.6843 54.365 24.2237C53.6146 23.0335 46.375 23.6183 41.6555 25.4346C40.9983 24.2755 39.8185 21.9364 39.0681 20.6945C38.8249 20.2857 38.9646 20.089 39.2182 19.9389C41.3347 18.6763 44.9105 18.1226 46.8356 18.0191C47.9947 22.0037 54.2511 19.8872 52.5279 15.8508C51.4205 13.0771 46.9287 13.7809 46.7269 16.7098C44.9105 16.9634 38.5558 17.8172 37.6502 19.7889C37.3966 20.3426 37.7485 20.8963 38.0021 21.3413C43.0579 31.0856 39.0164 24.4928 53.6089 24.8809ZM48.817 15.649C51.1353 14.3915 52.6987 17.8172 50.4316 18.7798C48.491 19.6336 46.9385 16.8082 48.817 15.649Z" fill="#A259FF"/>
<path d="M39.1357 97.764C36.895 97.1637 32.9725 96.5789 33.3347 95.4922C33.9998 93.8974 34.7566 92.3423 35.6013 90.8349C38.2714 91.9347 41.0452 92.7634 43.8811 93.3084C44.1812 96.3357 48.4194 97.0913 49.6303 94.5194C51.395 90.633 45.5939 88.1129 44.0829 92.0975C34.2507 90.2501 29.2983 85.2046 28.6981 86.4052C28.0978 87.6058 33.5935 89.8827 34.4473 90.3898C30.8249 97.0447 30.8249 97.2362 38.1318 98.7627C39.3375 99.0215 40.3466 98.0641 39.1357 97.764ZM45.4387 92.3666C46.4995 90.2501 49.4751 91.8491 48.5126 93.9812C47.5086 95.8959 44.4814 94.4314 45.4387 92.3666Z" fill="black"/>
<circle cx="63.8068" cy="24.6183" r="5.52654" fill="#A259FF"/>
<path d="M63.6952 25.1755C64.0883 25.1755 64.407 24.8666 64.407 24.4855C64.407 24.1044 64.0883 23.7954 63.6952 23.7954C63.3021 23.7954 62.9834 24.1044 62.9834 24.4855C62.9834 24.8666 63.3021 25.1755 63.6952 25.1755Z" fill="white"/>
<path d="M66.3996 23.3473C66.2622 23.2989 66.1186 23.2505 65.9687 23.2081C66.0062 23.0628 66.0374 22.9175 66.0624 22.7783C66.1935 21.9793 66.0499 21.4163 65.6503 21.1984C65.5316 21.1318 65.4005 21.1016 65.2506 21.1016C64.8136 21.1016 64.2578 21.4163 63.6959 21.943C63.1339 21.4163 62.5782 21.1016 62.1411 21.1016C61.9913 21.1016 61.8601 21.1318 61.7415 21.1984C61.3419 21.4224 61.1983 21.9853 61.3294 22.7783C61.3544 22.9175 61.3856 23.0628 61.423 23.2081C61.2732 23.2505 61.1296 23.2928 60.9922 23.3473C60.2117 23.6379 59.7871 24.0374 59.7871 24.4853C59.7871 24.9333 60.2179 25.3328 60.9922 25.6233C61.1296 25.6717 61.2732 25.7202 61.423 25.7625C61.3856 25.9078 61.3544 26.0531 61.3294 26.1923C61.1983 26.9913 61.3419 27.5543 61.7415 27.7722C61.8601 27.8388 61.9913 27.8691 62.1411 27.8691C62.5844 27.8691 63.1402 27.5543 63.6959 27.0277C64.2578 27.5543 64.8136 27.8691 65.2506 27.8691C65.4005 27.8691 65.5316 27.8388 65.6503 27.7722C66.0499 27.5482 66.1935 26.9853 66.0624 26.1923C66.0374 26.0531 66.0062 25.9078 65.9687 25.7625C66.1186 25.7202 66.2622 25.6778 66.3996 25.6233C67.1801 25.3328 67.6047 24.9333 67.6047 24.4853C67.6047 24.0374 67.1801 23.6379 66.3996 23.3473V23.3473ZM65.4754 21.5011C65.7314 21.6464 65.8189 22.0943 65.7127 22.7299C65.694 22.857 65.6628 22.9902 65.6253 23.1294C65.3006 23.0568 64.9572 23.0083 64.595 22.9781C64.3827 22.6875 64.1642 22.4272 63.9456 22.1911C64.4077 21.7493 64.876 21.4466 65.2569 21.4466C65.3381 21.4466 65.413 21.4648 65.4754 21.5011V21.5011ZM64.7761 25.0906C64.6637 25.2843 64.5326 25.478 64.3952 25.6717C64.1642 25.6899 63.9332 25.696 63.6959 25.696C63.4524 25.696 63.2213 25.6899 62.9965 25.6717C62.8592 25.478 62.7343 25.2843 62.6219 25.0906C62.5033 24.8909 62.3909 24.6851 62.291 24.4853C62.3909 24.2856 62.5033 24.0797 62.6219 23.88C62.7343 23.6863 62.8654 23.4926 63.0028 23.2989C63.2338 23.2807 63.4649 23.2747 63.7021 23.2747C63.9456 23.2747 64.1767 23.2807 64.4015 23.2989C64.5388 23.4926 64.6637 23.6863 64.7761 23.88C64.8947 24.0797 65.0071 24.2856 65.107 24.4853C65.0009 24.6851 64.8947 24.8848 64.7761 25.0906ZM65.2944 24.8909C65.388 25.1027 65.4629 25.3086 65.5316 25.5144C65.3193 25.5628 65.0945 25.5991 64.8573 25.6294C64.9322 25.5144 65.0134 25.3933 65.0821 25.2662C65.157 25.1391 65.2257 25.0119 65.2944 24.8909ZM63.6959 26.5313C63.546 26.3739 63.4024 26.2044 63.265 26.0289C63.4087 26.0349 63.5523 26.041 63.6959 26.041C63.8395 26.041 63.9831 26.0349 64.1267 26.0289C63.9894 26.2044 63.8457 26.3739 63.6959 26.5313ZM62.5345 25.6233C62.2972 25.5931 62.0724 25.5567 61.8601 25.5083C61.9288 25.3086 62.0037 25.0967 62.0974 24.8848C62.1661 25.0059 62.2348 25.133 62.3097 25.2541C62.3846 25.3872 62.4596 25.5023 62.5345 25.6233V25.6233ZM62.0974 24.0797C62.0037 23.8679 61.9288 23.6621 61.8601 23.4563C62.0724 23.4078 62.2972 23.3715 62.5345 23.3413C62.4596 23.4563 62.3784 23.5773 62.3097 23.7044C62.2348 23.8316 62.1661 23.9587 62.0974 24.0797V24.0797ZM63.6959 22.4393C63.8457 22.5967 63.9894 22.7662 64.1267 22.9417C63.9831 22.9357 63.8395 22.9296 63.6959 22.9296C63.5523 22.9296 63.4087 22.9357 63.265 22.9417C63.4024 22.7662 63.546 22.5967 63.6959 22.4393ZM65.0821 23.7105L64.8573 23.3473C65.0945 23.3776 65.3193 23.4139 65.5316 23.4623C65.4629 23.6621 65.388 23.8739 65.2944 24.0858C65.2257 23.9587 65.157 23.8316 65.0821 23.7105ZM61.6791 22.7299C61.5729 22.0943 61.6603 21.6464 61.9163 21.5011C61.9788 21.4648 62.0537 21.4466 62.1349 21.4466C62.5095 21.4466 62.9778 21.7432 63.4461 22.1911C63.2276 22.4212 63.009 22.6875 62.7967 22.9781C62.4346 23.0083 62.0912 23.0628 61.7665 23.1294C61.729 22.9902 61.704 22.857 61.6791 22.7299V22.7299ZM60.1368 24.4853C60.1368 24.2008 60.4927 23.8982 61.1171 23.6742C61.242 23.6258 61.3793 23.5834 61.5167 23.5471C61.6166 23.8497 61.7415 24.1705 61.8914 24.4914C61.7415 24.8122 61.6104 25.127 61.5167 25.4296C60.655 25.1875 60.1368 24.8243 60.1368 24.4853ZM61.9163 27.4696C61.6603 27.3243 61.5729 26.8763 61.6791 26.2407C61.6978 26.1136 61.729 25.9805 61.7665 25.8412C62.0912 25.9139 62.4346 25.9623 62.7967 25.9926C63.009 26.2831 63.2276 26.5434 63.4461 26.7795C62.9841 27.2214 62.5158 27.524 62.1349 27.524C62.0537 27.524 61.9788 27.5059 61.9163 27.4696ZM65.7127 26.2407C65.8189 26.8763 65.7314 27.3243 65.4754 27.4696C65.413 27.5059 65.3381 27.524 65.2569 27.524C64.8823 27.524 64.4139 27.2274 63.9456 26.7795C64.1642 26.5495 64.3827 26.2831 64.595 25.9926C64.9572 25.9623 65.3006 25.9078 65.6253 25.8412C65.6628 25.9805 65.6877 26.1136 65.7127 26.2407V26.2407ZM66.2747 25.2964C66.1498 25.3449 66.0124 25.3872 65.8751 25.4236C65.7751 25.1209 65.6503 24.8001 65.5004 24.4793C65.6503 24.1584 65.7814 23.8437 65.8751 23.541C66.7367 23.7831 67.255 24.1463 67.255 24.4853C67.255 24.7698 66.8928 25.0725 66.2747 25.2964Z" fill="white"/>
<circle cx="68.3283" cy="78.8791" r="5.52654" fill="#A259FF"/>
<path d="M69.452 75.8265L66.6585 76.0716C66.4834 76.0884 66.3197 76.2036 66.2438 76.3634L65.0541 78.9209C64.9773 79.0858 64.9878 79.2869 65.0927 79.4361L66.7099 81.7345C66.8148 81.8837 67.0025 81.9602 67.184 81.944L67.9226 81.8737C68.2631 81.8204 68.3332 81.7711 68.4482 81.6901C68.8228 81.4266 68.858 81.0633 68.58 80.6683L66.9835 78.3992C66.961 78.3671 66.9475 78.3053 66.916 78.3275L66.6633 78.5053C66.6313 78.5278 66.6015 78.6201 66.624 78.6521L68.2205 80.9212C68.3437 81.0963 68.3038 81.3849 67.9037 81.4451L67.1371 81.5132C67.1109 81.5163 67.0848 81.5035 67.0694 81.4815L65.4523 79.1831C65.437 79.1615 65.4425 79.1251 65.4539 79.1004L66.6401 76.5484C66.6463 76.5363 66.6553 76.5259 66.6663 76.5181C66.6774 76.5103 66.6903 76.5053 66.7037 76.5037L69.4876 76.262C69.5145 76.2601 69.5263 76.2833 69.542 76.3056L71.1592 78.604C71.1746 78.626 71.1938 78.6444 71.1825 78.6681L70.0079 81.213C69.998 81.2352 69.9759 81.2507 69.9501 81.2537L69.2281 81.3082C69.2065 81.3101 69.1858 81.3199 69.1768 81.3385C69.0919 81.5181 69.0731 81.5472 68.9729 81.6864C68.9482 81.7208 68.9139 81.7744 69.0522 81.7602L69.9941 81.6857C70.0834 81.6777 70.169 81.6464 70.2423 81.5948C70.316 81.5431 70.3748 81.4729 70.4126 81.3913L71.5801 78.851C71.6562 78.6851 71.6237 78.5002 71.5187 78.3511L69.9016 76.0526C69.7966 75.9035 69.6335 75.8103 69.452 75.8265V75.8265ZM69.4974 79.2287C68.9704 79.5995 68.752 79.5358 68.529 79.301C68.5045 79.276 68.4569 79.259 68.4281 79.2793L68.1706 79.4605C68.1387 79.4829 68.1403 79.5396 68.1626 79.5713C68.3987 79.9069 68.8672 80.185 69.7388 79.5718C70.3697 79.1279 70.559 78.6282 70.2537 78.1943C69.951 77.7641 69.5809 77.8557 68.9121 78.2052C68.2361 78.5587 68.1442 78.5616 68.0422 78.4167C67.9582 78.2972 67.8993 78.1005 68.3573 77.7782C68.7664 77.4904 68.979 77.4721 69.2351 77.7042C69.2587 77.7264 69.2955 77.7283 69.3223 77.7095L69.5809 77.5275C69.5968 77.5164 69.6074 77.4993 69.6105 77.4801C69.6128 77.4602 69.6076 77.4409 69.5947 77.4254C69.2203 76.9787 68.7491 76.9793 68.111 77.4283C67.5433 77.8277 67.3733 78.3057 67.6561 78.7075C67.9627 79.1434 68.3844 79.0267 68.9672 78.6972C69.6641 78.3025 69.7818 78.3621 69.872 78.4903C70.0287 78.713 69.9167 78.9337 69.4974 79.2287Z" fill="white"/>
<circle cx="93.9513" cy="58.28" r="5.52654" fill="black"/>
<path d="M94.0735 61.1823L93.8159 61.3196L91.1666 56.3494L91.4241 56.2122L94.0735 61.1823Z" fill="white"/>
<path d="M93.4541 61.1626L96.4337 56.383L96.6814 56.5374L93.7017 61.317L93.4541 61.1626Z" fill="white"/>
<path d="M96.5233 59.6246L93.6528 61.1547L93.5154 60.8971L96.3862 59.367L96.5233 59.6246ZM94.2206 55.3052L91.3499 56.8352L91.2127 56.5777L94.0832 55.0475L94.2206 55.3052Z" fill="white"/>
<path d="M91.5119 59.6476L91.2201 59.6378L91.3303 56.3865L91.6219 56.3963L91.5119 59.6476Z" fill="white"/>
<path d="M96.7251 56.9283L91.0961 56.7376L91.106 56.446L96.7349 56.6364L96.7251 56.9283ZM91.1143 59.4411L91.2688 59.1934L94.0296 60.9145L93.8752 61.1622L91.1143 59.4411Z" fill="white"/>
<path d="M93.7041 55.2866L93.8585 55.0389L96.6193 56.76L96.4649 57.0077L93.7041 55.2866Z" fill="white"/>
<path d="M96.392 59.6013L96.1371 59.5927L96.2327 56.7651L96.4876 56.7738L96.392 59.6013Z" fill="white"/>
<path d="M96.9047 56.482C97.0647 56.7805 96.9506 57.1529 96.6522 57.3128C96.3535 57.4726 95.9811 57.3586 95.8211 57.0601C95.6613 56.7614 95.7753 56.389 96.0739 56.2291C96.3749 56.0687 96.7458 56.1818 96.9047 56.482M91.9121 59.1423C92.072 59.441 91.9579 59.8134 91.6594 59.9733C91.3607 60.1332 90.9884 60.0192 90.8284 59.7206C90.6686 59.4219 90.7826 59.0496 91.0811 58.8896C91.3813 58.7307 91.7522 58.8438 91.9121 59.1423ZM93.7512 61.5404C93.4126 61.5285 93.1479 61.2452 93.1583 60.9058C93.1705 60.5673 93.4537 60.3025 93.7932 60.313C94.1317 60.3252 94.3965 60.6084 94.386 60.9479C94.3729 61.2878 94.0897 61.5526 93.7512 61.5404M93.9418 55.8865C93.6034 55.8743 93.3386 55.5911 93.3491 55.2516C93.3613 54.9132 93.6445 54.6483 93.984 54.6589C94.3224 54.6711 94.5873 54.9542 94.5767 55.2937C94.5645 55.6322 94.2804 55.8985 93.9418 55.8865ZM96.7889 59.9219C96.7463 59.9904 96.6906 60.0498 96.6251 60.0967C96.5595 60.1436 96.4853 60.1771 96.4068 60.1953C96.3283 60.2135 96.2469 60.2161 96.1674 60.2028C96.0879 60.1896 96.0118 60.1608 95.9434 60.1181C95.875 60.0755 95.8156 60.0198 95.7687 59.9543C95.7218 59.8887 95.6882 59.8145 95.67 59.736C95.6518 59.6575 95.6493 59.5761 95.6625 59.4966C95.6758 59.4171 95.7046 59.341 95.7473 59.2726C95.7899 59.2042 95.8455 59.1448 95.9111 59.0979C95.9767 59.051 96.0508 59.0175 96.1293 58.9992C96.2079 58.981 96.2892 58.9785 96.3687 58.9917C96.4482 59.005 96.5244 59.0338 96.5927 59.0765C96.8793 59.2551 96.9684 59.6339 96.7889 59.9219ZM91.9869 56.9284C91.9443 56.9968 91.8886 57.0562 91.8231 57.1031C91.7575 57.15 91.6834 57.1835 91.6048 57.2017C91.5263 57.22 91.445 57.2225 91.3654 57.2092C91.2859 57.196 91.2098 57.1672 91.1414 57.1245C91.073 57.0819 91.0136 57.0262 90.9667 56.9607C90.9198 56.8951 90.8863 56.8209 90.868 56.7424C90.8498 56.6639 90.8473 56.5825 90.8605 56.503C90.8738 56.4235 90.9026 56.3474 90.9453 56.279C90.9879 56.2106 91.0436 56.1512 91.1091 56.1043C91.1747 56.0574 91.2488 56.0239 91.3274 56.0056C91.4059 55.9874 91.4872 55.9849 91.5668 55.9981C91.6463 56.0114 91.7224 56.0402 91.7908 56.0829C91.8592 56.1255 91.9186 56.1812 91.9655 56.2467C92.0124 56.3123 92.0459 56.3864 92.0641 56.465C92.0824 56.5435 92.0849 56.6248 92.0717 56.7043C92.0584 56.7839 92.0296 56.86 91.9869 56.9284" fill="white"/>
<circle cx="30.1447" cy="26.6281" r="5.52654" fill="black"/>
<path d="M29.701 27.852C29.659 27.852 29.624 27.8403 29.596 27.817C29.568 27.789 29.554 27.7517 29.554 27.705C29.554 27.6583 29.554 27.6117 29.554 27.565C29.554 27.5183 29.554 27.4717 29.554 27.425C29.5633 27.2243 29.6077 27.047 29.687 26.893C29.7663 26.739 29.862 26.599 29.974 26.473C30.0907 26.347 30.2073 26.228 30.324 26.116C30.4407 25.9993 30.5387 25.8827 30.618 25.766C30.702 25.6493 30.7533 25.5257 30.772 25.395C30.7907 25.227 30.758 25.087 30.674 24.975C30.59 24.8583 30.4757 24.7697 30.331 24.709C30.1863 24.6483 30.037 24.618 29.883 24.618C29.6357 24.618 29.4233 24.6833 29.246 24.814C29.0733 24.94 28.959 25.1547 28.903 25.458C28.889 25.514 28.8657 25.5537 28.833 25.577C28.8003 25.6003 28.763 25.612 28.721 25.612H28.385C28.343 25.612 28.3057 25.598 28.273 25.57C28.245 25.542 28.231 25.5047 28.231 25.458C28.2357 25.2667 28.2777 25.0847 28.357 24.912C28.4363 24.7393 28.5483 24.5877 28.693 24.457C28.8423 24.3263 29.0173 24.2237 29.218 24.149C29.4233 24.0697 29.652 24.03 29.904 24.03C30.1887 24.03 30.4313 24.0697 30.632 24.149C30.8373 24.2237 31.0007 24.3263 31.122 24.457C31.248 24.583 31.339 24.723 31.395 24.877C31.451 25.031 31.4743 25.185 31.465 25.339C31.451 25.5257 31.4043 25.6937 31.325 25.843C31.2457 25.9877 31.15 26.123 31.038 26.249C30.926 26.3703 30.8117 26.4917 30.695 26.613C30.583 26.7297 30.485 26.8533 30.401 26.984C30.3217 27.11 30.2773 27.2477 30.268 27.397C30.2633 27.4483 30.2587 27.4997 30.254 27.551C30.254 27.5977 30.254 27.6443 30.254 27.691C30.2447 27.7423 30.226 27.782 30.198 27.81C30.17 27.838 30.1303 27.852 30.079 27.852H29.701ZM29.645 29C29.5983 29 29.5587 28.986 29.526 28.958C29.498 28.9253 29.484 28.8857 29.484 28.839V28.412C29.484 28.3653 29.498 28.328 29.526 28.3C29.5587 28.2673 29.5983 28.251 29.645 28.251H30.1C30.1513 28.251 30.191 28.2673 30.219 28.3C30.2517 28.328 30.268 28.3653 30.268 28.412V28.839C30.268 28.8857 30.2517 28.9253 30.219 28.958C30.191 28.986 30.1513 29 30.1 29H29.645Z" fill="white"/>
<circle cx="41.1974" cy="81.8932" r="5.52654" fill="black"/>
<circle cx="14.5695" cy="50.2414" r="5.52654" fill="#A259FF"/>
<path fill-rule="evenodd" clip-rule="evenodd" d="M38.6695 83.4431V83.0616C38.6695 83.0098 38.7025 82.9721 38.7543 82.9721H38.7684C38.8202 82.9721 38.8532 83.0145 38.8532 83.0616V83.8623C38.8532 84.0555 38.759 84.2109 38.5894 84.3098C38.5094 84.3569 38.4246 84.3805 38.3351 84.3805H38.2974C38.1043 84.3805 37.9489 84.2863 37.8499 84.1167C37.8028 84.0366 37.7793 83.9518 37.7793 83.8623V83.8247C37.7793 83.6315 37.8735 83.4761 38.0431 83.3772C38.1231 83.3301 38.2079 83.3065 38.2974 83.3065H38.3351C38.4623 83.3113 38.5753 83.3584 38.6695 83.4431V83.4431ZM37.9583 83.8435C37.9583 83.9848 38.0289 84.0884 38.1514 84.1591C38.2032 84.1873 38.255 84.2015 38.3115 84.2015C38.4481 84.2015 38.5518 84.1355 38.6224 84.0178C38.6554 83.9613 38.6695 83.9047 38.6695 83.8388C38.6695 83.7163 38.613 83.6221 38.5141 83.5515C38.4528 83.5091 38.3869 83.4855 38.3163 83.4855C38.1655 83.4855 38.0572 83.5609 37.9913 83.6975C37.9677 83.7446 37.9583 83.7964 37.9583 83.8435V83.8435ZM39.4749 83.3113H39.4985C39.7057 83.3113 39.8659 83.4102 39.9648 83.5939C40.0072 83.6645 40.026 83.7446 40.026 83.8294V83.8671C40.026 84.0602 39.9318 84.2156 39.7623 84.3145C39.6822 84.3616 39.5974 84.3852 39.5079 84.3852H39.4702C39.2771 84.3852 39.1217 84.291 39.0228 84.1214C38.9757 84.0413 38.9521 83.9565 38.9521 83.8671V83.8294C38.9521 83.6363 39.051 83.4808 39.2159 83.3819C39.296 83.3301 39.3854 83.3113 39.4749 83.3113ZM39.1358 83.8435C39.1358 83.9801 39.2018 84.079 39.3195 84.1497C39.376 84.1826 39.4325 84.1968 39.4985 84.1968C39.6351 84.1968 39.734 84.1261 39.8046 84.0131C39.8376 83.9565 39.8518 83.9 39.8518 83.8341C39.8518 83.7069 39.7905 83.608 39.6869 83.5373C39.6304 83.4997 39.5644 83.4808 39.4985 83.4808C39.3478 83.4808 39.2394 83.5562 39.1735 83.6928C39.1452 83.7446 39.1358 83.7964 39.1358 83.8435ZM40.7749 83.5044C40.7467 83.4902 40.6949 83.4855 40.6666 83.4855C40.5159 83.4808 40.4075 83.5656 40.3416 83.6975C40.3181 83.7446 40.3086 83.7917 40.3086 83.8435C40.3086 83.9989 40.3887 84.1073 40.5253 84.1732C40.5771 84.1968 40.6383 84.2015 40.6949 84.2015C40.742 84.2015 40.8126 84.1732 40.855 84.1497L40.8644 84.1449H40.9021C40.9445 84.1544 40.9728 84.1779 40.9728 84.225V84.2439C40.9728 84.3522 40.7702 84.3805 40.6949 84.3852C40.4264 84.404 40.2239 84.258 40.1485 83.9989C40.1344 83.9565 40.1296 83.9094 40.1296 83.8623V83.8247C40.1296 83.6315 40.2286 83.4761 40.3934 83.3772C40.4735 83.3301 40.5583 83.3065 40.6478 83.3065H40.6854C40.7796 83.3065 40.8691 83.3348 40.9492 83.3866L40.9539 83.3913L40.9586 83.396C40.968 83.4102 40.9728 83.4243 40.9728 83.4431V83.462C40.9728 83.5091 40.9398 83.5326 40.8974 83.5421H40.8833C40.8597 83.5421 40.7985 83.5138 40.7749 83.5044ZM41.359 83.6268C41.4296 83.5562 41.5003 83.4855 41.5709 83.4196C41.5898 83.4007 41.6651 83.3207 41.6934 83.3207H41.7311C41.7735 83.3301 41.8017 83.3536 41.8017 83.4007V83.4196C41.8017 83.4479 41.7688 83.4855 41.7452 83.5044L41.618 83.6315L41.4014 83.8529C41.4956 83.9471 41.5898 84.0413 41.6793 84.1355L41.7546 84.2156C41.7641 84.225 41.7782 84.2344 41.7829 84.2486C41.7923 84.2627 41.797 84.2768 41.797 84.291V84.3145C41.7876 84.3569 41.7594 84.3899 41.717 84.3899H41.7028C41.6746 84.3899 41.6416 84.3569 41.618 84.3381C41.5757 84.3004 41.5333 84.258 41.4956 84.2156L41.359 84.079V84.2957C41.359 84.3475 41.326 84.3852 41.2742 84.3852H41.2601C41.2083 84.3852 41.1753 84.3428 41.1753 84.2957V83.0663C41.1753 83.0145 41.2083 82.9768 41.2601 82.9768H41.2742C41.326 82.9768 41.359 83.0145 41.359 83.0663V83.6268V83.6268ZM43.601 83.316H43.6198C43.6717 83.316 43.7093 83.3536 43.7093 83.4055C43.7093 83.4808 43.6387 83.4997 43.5775 83.4997C43.4974 83.4997 43.4173 83.5468 43.3655 83.6033C43.2948 83.6739 43.2666 83.7587 43.2666 83.8576V84.291C43.2666 84.3428 43.2336 84.3805 43.1818 84.3805H43.1677C43.1159 84.3805 43.0829 84.3381 43.0829 84.291V83.8294C43.0829 83.6504 43.1677 83.5091 43.3137 83.4055C43.3985 83.3489 43.4974 83.316 43.601 83.316V83.316ZM42.3246 84.1779C42.3905 84.2015 42.4659 84.1968 42.5318 84.1873C42.5648 84.1732 42.6543 84.1355 42.6872 84.1402H42.6967C42.7155 84.1497 42.7343 84.1638 42.7438 84.1826C42.7673 84.2297 42.7579 84.2768 42.7108 84.3051L42.6967 84.3145C42.5271 84.4134 42.3434 84.3993 42.1738 84.3051C42.0938 84.2627 42.0325 84.1968 41.9854 84.1167L41.976 84.0978C41.8677 83.9094 41.8818 83.7069 42.0043 83.5279C42.0467 83.4667 42.1032 83.4196 42.1691 83.3819L42.1927 83.3678C42.3528 83.2736 42.5271 83.283 42.692 83.3631C42.7814 83.4055 42.8521 83.4714 42.9039 83.5562L42.9133 83.5703C42.951 83.6315 42.9039 83.6881 42.8568 83.7257C42.8003 83.7681 42.7438 83.82 42.692 83.8671C42.5648 83.9707 42.4423 84.0743 42.3246 84.1779ZM42.1691 84.0696L42.5695 83.7257C42.6166 83.6881 42.6637 83.6457 42.7108 83.6033C42.6731 83.5562 42.6119 83.5232 42.5648 83.5044C42.4612 83.4667 42.3575 83.4761 42.2633 83.5326C42.1409 83.6033 42.0843 83.721 42.0891 83.8623C42.0891 83.9189 42.1079 83.9707 42.1362 84.0225C42.1456 84.0413 42.155 84.0555 42.1691 84.0696M41.1988 80.4663H41.7311V81.008H41.9996C42.122 81.008 42.2492 80.9845 42.367 80.9468C42.4235 80.9279 42.4894 80.8997 42.5459 80.8667C42.4706 80.7678 42.4329 80.6453 42.4235 80.5229C42.4093 80.358 42.4423 80.1413 42.5554 80.0142L42.6119 79.9482L42.6778 80C42.8474 80.1366 42.984 80.3203 43.0122 80.537C43.2148 80.4758 43.4503 80.4899 43.6293 80.5935L43.6999 80.6359L43.6622 80.7113C43.5115 81.0033 43.1959 81.0975 42.8898 81.0787C42.4282 82.2232 41.4296 82.7649 40.2144 82.7649C39.588 82.7649 39.0133 82.5294 38.6836 81.9736L38.6789 81.9642L38.6318 81.8652C38.5188 81.6203 38.4858 81.3518 38.5094 81.0834L38.5188 81.0033H38.971V80.4663H39.5032V79.9341H40.563V79.4019H41.1988V80.4663V80.4663Z" fill="white"/>
<path d="M42.9184 80.6641C42.956 80.3862 42.7488 80.1695 42.6169 80.0659C42.4709 80.2355 42.4474 80.6877 42.6781 80.8761C42.5463 80.9891 42.2778 81.0974 41.9952 81.0974H38.5945C38.5662 81.3895 38.618 81.6579 38.7358 81.8887L38.7735 81.9594C38.797 82.0018 38.8253 82.0395 38.8535 82.0819C38.9948 82.0913 39.122 82.096 39.2398 82.0913C39.4706 82.0866 39.659 82.0583 39.805 82.0112C39.8285 82.0018 39.8474 82.0159 39.8568 82.0347C39.8662 82.0583 39.8521 82.0771 39.8332 82.0866C39.8144 82.0913 39.7956 82.1007 39.772 82.1054C39.659 82.1384 39.5365 82.1572 39.3811 82.1666H39.3528C39.2916 82.1713 39.2256 82.1713 39.155 82.1713C39.0796 82.1713 39.009 82.1713 38.9242 82.1666C39.2068 82.4869 39.6495 82.6753 40.2053 82.6753C41.3829 82.6753 42.3814 82.1525 42.8195 80.9844C43.135 81.0174 43.4365 80.9373 43.5731 80.6688C43.3611 80.5464 43.0785 80.584 42.9184 80.6641V80.6641Z" fill="white"/>
<path d="M42.9179 80.6641C42.9556 80.3862 42.7484 80.1695 42.6165 80.0659C42.4705 80.2355 42.4469 80.6877 42.6777 80.8761C42.5458 80.9891 42.2773 81.0974 41.9947 81.0974H38.7919C38.7777 81.5449 38.9426 81.884 39.2393 82.0866C39.4701 82.0819 39.6585 82.0536 39.8045 82.0065C39.8281 81.9971 39.8469 82.0112 39.8563 82.03C39.8658 82.0536 39.8516 82.0724 39.8328 82.0819C39.814 82.0866 39.7951 82.096 39.7716 82.1007C39.6585 82.1337 39.5266 82.1572 39.3712 82.1666L39.3665 82.1619C39.7669 82.3692 40.3462 82.3645 41.015 82.1101C41.7592 81.8228 42.4563 81.2764 42.9415 80.6547C42.9321 80.6594 42.9273 80.6641 42.9179 80.6641V80.6641Z" fill="white"/>
<path d="M38.5986 81.4507C38.6175 81.6061 38.6646 81.7521 38.7352 81.8887L38.7729 81.9594C38.7965 82.0018 38.8247 82.0394 38.853 82.0818C38.9943 82.0913 39.1215 82.096 39.2392 82.0913C39.47 82.0865 39.6584 82.0583 39.8044 82.0112C39.828 82.0018 39.8468 82.0159 39.8562 82.0347C39.8657 82.0583 39.8515 82.0771 39.8327 82.0865C39.8138 82.0913 39.795 82.1007 39.7715 82.1054C39.6584 82.1384 39.5265 82.1619 39.3711 82.1713H39.3523C39.291 82.176 39.2251 82.176 39.1591 82.176C39.0838 82.176 39.0084 82.176 38.9283 82.1713C39.2109 82.4916 39.6584 82.68 40.2142 82.68C41.2222 82.68 42.0983 82.2985 42.6069 81.4554H38.5986V81.4507Z" fill="white"/>
<path d="M38.8252 81.4507C38.8864 81.7239 39.0277 81.9405 39.2397 82.0865C39.4705 82.0818 39.6589 82.0536 39.8049 82.0065C39.8285 81.9971 39.8473 82.0112 39.8567 82.03C39.8661 82.0536 39.852 82.0724 39.8332 82.0818C39.8143 82.0866 39.7955 82.096 39.7719 82.1007C39.6589 82.1337 39.527 82.1572 39.3669 82.1666C39.7672 82.3739 40.3466 82.3692 41.0107 82.1148C41.4111 81.9594 41.802 81.7286 42.1505 81.4507H38.8252Z" fill="white"/>
<path fill-rule="evenodd" clip-rule="evenodd" d="M39.0557 80.551H39.5173V81.0126H39.0557V80.551ZM39.0933 80.5934H39.131V80.9749H39.0933V80.5934ZM39.164 80.5934H39.2017V80.9749H39.164V80.5934ZM39.2346 80.5934H39.2723V80.9749H39.2346V80.5934ZM39.3006 80.5934H39.3383V80.9749H39.3006V80.5934ZM39.3712 80.5934H39.4089V80.9749H39.3712V80.5934ZM39.4419 80.5934H39.4796V80.9749H39.4419V80.5934ZM39.5879 80.0234H40.0495V80.4803H39.5879V80.0234V80.0234ZM39.6256 80.0611H39.6633V80.4426H39.6256V80.0611V80.0611ZM39.6962 80.0611H39.7339V80.4426H39.6962V80.0611V80.0611ZM39.7622 80.0611H39.7999V80.4426H39.7622V80.0611V80.0611ZM39.8328 80.0611H39.8705V80.4426H39.8328V80.0611V80.0611ZM39.9035 80.0611H39.9412V80.4426H39.9035V80.0611V80.0611ZM39.9741 80.0611H40.0118V80.4426H39.9741V80.0611V80.0611Z" fill="white"/>
<path fill-rule="evenodd" clip-rule="evenodd" d="M39.5879 80.5508H40.0495V81.0124H39.5879V80.5508ZM39.6256 80.5932H39.6633V80.9747H39.6256V80.5932ZM39.6962 80.5932H39.7339V80.9747H39.6962V80.5932ZM39.7622 80.5932H39.7998V80.9747H39.7622V80.5932ZM39.8328 80.5932H39.8705V80.9747H39.8328V80.5932ZM39.9035 80.5932H39.9411V80.9747H39.9035V80.5932ZM39.9741 80.5932H40.0118V80.9747H39.9741V80.5932Z" fill="white"/>
<path fill-rule="evenodd" clip-rule="evenodd" d="M40.1201 80.5508H40.5817V81.0124H40.1201V80.5508ZM40.1578 80.5932H40.1955V80.9747H40.1578V80.5932ZM40.2237 80.5932H40.2614V80.9747H40.2237V80.5932V80.5932ZM40.2944 80.5932H40.3321V80.9747H40.2944V80.5932ZM40.365 80.5932H40.4027V80.9747H40.365V80.5932V80.5932ZM40.4357 80.5932H40.4734V80.9747H40.4357V80.5932ZM40.5016 80.5932H40.5393V80.9747H40.5016V80.5932Z" fill="white"/>
<path fill-rule="evenodd" clip-rule="evenodd" d="M40.1201 80.0234H40.5817V80.4803H40.1201V80.0234ZM40.1578 80.0611H40.1955V80.4426H40.1578V80.0611ZM40.2237 80.0611H40.2614V80.4426H40.2237V80.0611V80.0611ZM40.2944 80.0611H40.3321V80.4426H40.2944V80.0611ZM40.365 80.0611H40.4027V80.4426H40.365V80.0611V80.0611ZM40.4357 80.0611H40.4734V80.4426H40.4357V80.0611ZM40.5016 80.0611H40.5393V80.4426H40.5016V80.0611ZM40.6477 80.551H41.1092V81.0126H40.6477V80.551ZM40.69 80.5934H40.7277V80.9749H40.69V80.5934ZM40.756 80.5934H40.7937V80.9749H40.756V80.5934ZM40.8266 80.5934H40.8643V80.9749H40.8266V80.5934ZM40.8973 80.5934H40.935V80.9749H40.8973V80.5934ZM40.9632 80.5934H41.0009V80.9749H40.9632V80.5934ZM41.0339 80.5934H41.0716V80.9749H41.0339V80.5934Z" fill="white"/>
<path fill-rule="evenodd" clip-rule="evenodd" d="M40.6475 80.0234H41.1091V80.4803H40.6475V80.0234ZM40.6899 80.0611H40.7275V80.4426H40.6899V80.0611ZM40.7558 80.0611H40.7935V80.4426H40.7558V80.0611ZM40.8264 80.0611H40.8641V80.4426H40.8264V80.0611ZM40.8971 80.0611H40.9348V80.4426H40.8971V80.0611ZM40.963 80.0611H41.0007V80.4426H40.963V80.0611ZM41.0337 80.0611H41.0714V80.4426H41.0337V80.0611Z" fill="white"/>
<path fill-rule="evenodd" clip-rule="evenodd" d="M40.6475 79.4912H41.1091V79.9528H40.6475V79.4912ZM40.6899 79.5289H40.7275V79.9151H40.6899V79.5289ZM40.7558 79.5289H40.7935V79.9151H40.7558V79.5289ZM40.8264 79.5289H40.8641V79.9151H40.8264V79.5289ZM40.8971 79.5289H40.9348V79.9151H40.8971V79.5289ZM40.963 79.5289H41.0007V79.9151H40.963V79.5289ZM41.0337 79.5289H41.0714V79.9151H41.0337V79.5289Z" fill="white"/>
<path fill-rule="evenodd" clip-rule="evenodd" d="M41.1797 80.5508H41.6413V81.0124H41.1797V80.5508ZM41.2174 80.5932H41.255V80.9747H41.2174V80.5932ZM41.288 80.5932H41.3257V80.9747H41.288V80.5932ZM41.3587 80.5932H41.3964V80.9747H41.3587V80.5932ZM41.4246 80.5932H41.4623V80.9747H41.4246V80.5932ZM41.4953 80.5932H41.5329V80.9747H41.4953V80.5932ZM41.5659 80.5932H41.6036V80.9747H41.5659V80.5932Z" fill="white"/>
<path fill-rule="evenodd" clip-rule="evenodd" d="M40.0168 81.7617C40.0875 81.7617 40.144 81.8182 40.144 81.8889C40.144 81.9595 40.0875 82.0161 40.0168 82.0161C39.9462 82.0161 39.8896 81.9595 39.8896 81.8889C39.8944 81.8182 39.9509 81.7617 40.0168 81.7617Z" fill="black"/>
<path fill-rule="evenodd" clip-rule="evenodd" d="M40.0164 81.7946C40.0259 81.7946 40.04 81.7946 40.0494 81.7993C40.04 81.804 40.0306 81.8181 40.0306 81.8323C40.0306 81.8511 40.0494 81.87 40.0682 81.87C40.0824 81.87 40.0965 81.8605 40.1012 81.8511C40.1059 81.8605 40.1059 81.8747 40.1059 81.8841C40.1059 81.9359 40.0635 81.9736 40.0164 81.9736C39.9646 81.9736 39.9269 81.9312 39.9269 81.8841C39.9269 81.837 39.9693 81.7946 40.0164 81.7946M37.7744 81.4979H43.6762C43.549 81.4649 43.2711 81.4225 43.3135 81.2529C43.078 81.5214 42.5175 81.4413 42.3715 81.3095C42.2113 81.5402 41.2882 81.4508 41.2269 81.2718C41.0291 81.5073 40.4121 81.5073 40.2143 81.2718C40.1483 81.4508 39.2251 81.5402 39.0697 81.3095C38.9284 81.4413 38.3632 81.5214 38.1277 81.2529C38.1795 81.4178 37.9016 81.4649 37.7744 81.4979" fill="white"/>
<path d="M40.3554 82.6752C40.0398 82.5245 39.8702 82.322 39.7713 82.1006C39.6536 82.1336 39.5122 82.1571 39.3521 82.1665C39.2909 82.1712 39.2249 82.1712 39.159 82.1712C39.0789 82.1712 38.9988 82.1712 38.9141 82.1665C39.2014 82.4538 39.5593 82.6752 40.2141 82.6799C40.2612 82.6752 40.3083 82.6752 40.3554 82.6752V82.6752Z" fill="white"/>
<path d="M39.8895 82.3031C39.8471 82.2419 39.8047 82.1712 39.7717 82.1006C39.654 82.1336 39.5127 82.1571 39.3525 82.1665C39.4656 82.2278 39.6257 82.2843 39.8895 82.3031V82.3031Z" fill="black"/>
<path d="M12.7859 47.0447L12.776 47.0259C12.7079 47.0542 12.6437 47.1007 12.6089 47.1503L10.681 49.8053C10.6468 49.8491 10.6283 49.9122 10.6208 49.9825C10.6133 50.0527 10.6241 50.119 10.6425 50.1683L11.9776 53.152C12.0256 53.2578 12.1645 53.3436 12.2758 53.3554L15.5369 53.7016C15.6013 53.7084 15.6728 53.7042 15.7415 53.67L15.7461 53.6823C15.7961 53.658 15.8414 53.6214 15.8692 53.5829L17.8022 50.9343C17.8365 50.8906 17.855 50.8274 17.8625 50.7572C17.87 50.6869 17.8592 50.6207 17.8408 50.5713L16.5057 47.5876C16.4577 47.4819 16.3188 47.3961 16.2075 47.3843L12.9406 47.0375C12.8944 47.0266 12.841 47.0269 12.7859 47.0447ZM14.468 49.3252L14.2338 49.3003L14.2649 49.0076L13.9722 48.9765L14.0032 48.6838L14.296 48.7148L14.327 48.4221L14.5612 48.447L14.5302 48.7397L14.8229 48.7708L14.7918 49.0635L14.4991 49.0324L14.468 49.3252ZM13.6689 49.0449C13.2036 49.2442 12.8612 49.6815 12.8046 50.2143C12.7207 51.0047 13.2964 51.7171 14.0868 51.801C14.8771 51.8849 15.5895 51.3093 15.6734 50.5189C15.73 49.9861 15.487 49.4866 15.0798 49.1947L15.605 48.4867C16.2536 48.9582 16.6424 49.7573 16.5517 50.6121C16.4162 51.8884 15.2699 52.8147 13.9935 52.6792C12.7172 52.5437 11.7909 51.3974 11.9264 50.1211C12.0178 49.2604 12.5716 48.5614 13.3105 48.2372L13.6689 49.0449ZM14.6731 47.3931L14.642 47.6858L14.9348 47.7169L14.9099 47.9511L14.6172 47.92L14.5799 48.2713L14.3457 48.2465L14.383 47.8952L14.0902 47.8641L14.1151 47.6299L14.4078 47.661L14.4389 47.3682L14.6731 47.3931Z" fill="white"/>
<path fill-rule="evenodd" clip-rule="evenodd" d="M50.6194 73.7177C56.5019 74.1427 61.9103 70.5523 65.8731 66.2079C69.6431 62.0748 71.3043 56.6181 71.3069 51.0377C71.3095 45.4544 70.0198 39.6326 65.8871 35.8535C61.8766 32.1862 55.9821 31.1643 50.6194 32.1204C46.0003 32.9438 43.4584 37.3224 39.9933 40.4697C36.2243 43.8931 30.3381 45.9904 29.7921 51.0377C29.2273 56.2599 33.8701 60.275 37.4316 64.1534C41.2457 68.3068 44.9784 73.3102 50.6194 73.7177Z" fill="#C99EFF" fill-opacity="0.2"/>
<path d="M42.0617 60.4027C42.0062 60.1626 42.6527 58.9437 42.431 58.704C42.2093 58.4643 41.2309 59.3873 41.0461 59.4051C40.843 59.424 40.1784 58.4448 39.8274 58.6472C39.4765 58.8495 39.7896 59.9767 39.7352 60.2721C39.6808 60.5675 38.3503 61.4908 38.4795 61.8417C38.5718 62.1001 39.8274 61.8417 39.9006 61.9709C40.0482 62.2663 40.0482 63.5775 40.3252 63.5958C40.6947 63.6148 41.0262 62.2294 41.2301 62.1001C41.434 61.9709 43.3166 62.451 43.5197 62.1191C43.8166 61.6945 42.1364 60.6421 42.0617 60.4027Z" fill="#A259FF"/>
<path d="M60.5084 62.636C58.422 62.1561 57.8863 63.1531 56.9263 64.2242C56.3353 64.8889 56.3169 65.1842 57.1663 65.2765C57.4801 65.3144 57.6463 64.9258 57.8863 64.9442C58.1965 64.9772 58.5047 65.0265 58.8096 65.092C58.9758 65.1473 58.8651 65.5166 59.0866 65.6274C59.3081 65.7383 60.0838 65.7197 60.2869 65.6644C60.4345 65.6089 60.693 64.1133 60.8038 63.2823C60.8777 62.9316 60.8593 62.7285 60.5084 62.636Z" fill="#A259FF"/>
<path d="M50.7955 54.1237C50.1861 54.4007 50.1677 57.2074 50.7401 57.5581C51.5895 58.186 55.5224 58.629 56.1134 58.0198C56.538 57.5211 56.4457 54.9731 56.0026 54.5115C55.4671 54.1421 51.571 53.8467 50.7955 54.1237Z" fill="#A259FF"/>
<path d="M67.3038 45.0574C66.7128 43.3586 66.3619 42.1774 64.9956 42.5275C64.7726 42.5812 64.5722 42.7041 64.4232 42.8784C63.8322 41.8075 62.7981 41.8445 62.152 42.2875C61.1734 41.2166 56.4093 39.0562 54.9141 39.2777C54.1201 38.2437 51.9962 39.4624 52.2181 37.1726C52.2371 37.025 52.2181 36.8589 52.0703 36.9142C51.8119 36.9881 51.738 38.4099 52.1812 38.7976C52.6982 39.2407 54.1384 39.1115 54.5447 39.5555C53.566 40.3134 50.0761 40.571 49.3192 39.9986C49.596 39.5738 50.9439 39.3893 51.1656 38.9277C51.461 38.2998 51.0733 37.155 50.7594 37.0997C50.6301 37.0808 50.6671 37.2473 50.7215 37.3767C50.9062 37.8197 50.899 38.4067 50.7404 38.7061C50.6823 38.8154 50.2972 38.9645 50.0394 39.057C49.3383 39.3154 48.9683 39.5738 48.876 39.8325C44.5916 41.493 41.3602 45.2419 43.0406 47.8824C42.8423 47.8704 42.6435 47.8985 42.4563 47.9652C42.2691 48.0318 42.0973 48.1356 41.9511 48.2703C40.1601 48.7318 38.7383 49.9689 38.4059 51.3354C38.1103 52.5357 38.9967 53.8836 40.2893 53.8836C40.3943 54.0675 40.5395 54.2253 40.7141 54.3452C40.4187 54.3073 35.9685 53.8097 34.4728 53.7728C33.0518 53.7349 32.4231 53.8283 32.1832 54.4738C31.7954 55.5633 32.497 62.1738 33.2911 63.5217C34.03 64.7588 35.9502 65.1836 37.7782 65.7006C39.5763 66.2165 41.4299 66.5141 43.2991 66.587C43.8106 66.6128 44.3216 66.5245 44.7948 66.3284C50.205 63.8542 51.8854 63.2263 52.347 62.1369C52.7532 61.1582 51.3867 60.438 46.568 59.4225C45.9032 59.2749 45.6631 59.5886 46.051 59.6811C48.0637 60.1057 52.0152 61.0474 51.9227 61.7676C51.8121 62.7092 48.9315 63.8726 45.4049 65.5159C45.6265 64.6851 45.4121 63.2974 45.2573 61.158C45.2004 60.3622 45.1095 59.2561 45.0172 58.2221C47.2164 59.0217 47.7581 56.4601 47.3621 54.1597C47.2145 53.3658 46.8267 53.3474 46.9006 53.735C47.1776 55.0831 47.0667 57.3729 46.2359 57.779C45.7558 58.019 45.1834 57.779 44.9617 57.6681C44.8508 56.6156 44.6904 55.6879 44.4077 55.323C44.2374 55.131 44.0215 54.985 43.7799 54.8984C44.4065 54.7118 44.9815 54.3832 45.4604 53.9382C45.7004 54.4367 45.9394 54.8274 46.0881 54.8798C46.2533 54.9384 46.439 54.9177 46.3096 54.5845C46.1989 54.2891 46.1065 54.1229 45.848 53.495C46.195 53.0567 46.4525 52.5546 46.6059 52.0171C47.4104 49.4848 45.2209 46.9023 44.0577 48.4171C41.1955 45.9058 44.5748 42.0836 48.9325 40.2925C49.2834 40.6248 50.1512 40.7726 51.0925 40.7543C52.0527 40.7353 54.4346 40.6248 54.8778 39.7387C57.4445 40.0157 60.1404 41.4373 61.7469 42.6187C61.5808 42.822 61.4895 43.0761 61.4883 43.3387C60.805 43.1539 59.845 43.5971 59.808 44.4467C59.7891 44.8899 60.1959 46.404 60.6574 47.2164C59.1985 47.3087 58.9031 48.6013 60.1587 49.4321C60.6942 49.783 61.5068 50.097 62.7439 50.097C63.0948 51.4449 63.2794 52.3127 63.3349 52.9406C62.0607 51.685 60.7867 49.8569 59.5126 52.3866C58.8478 53.753 60.1959 55.2486 61.8392 56.098C62.7439 56.5781 63.8703 56.7075 64.5719 56.7259C67.268 56.8182 67.5633 54.1223 65.8829 49.1737C67.3038 48.1778 67.8392 46.6088 67.3038 45.0574ZM39.2368 52.868C39.0501 52.68 38.9161 52.4464 38.848 52.1903C38.78 51.9343 38.7804 51.6649 38.8491 51.4091C39.1445 50.3566 40.1417 49.3595 41.508 48.8609C41.1017 49.8764 41.2495 51.5569 41.8773 52.5177C41.7596 52.6979 41.6093 52.8545 41.4341 52.9794C41.0005 52.7347 40.6476 52.369 40.4187 51.9269C40.3632 51.8161 40.2523 51.7052 40.1786 51.8161C40.0125 52.0561 40.3446 52.8316 40.9541 53.2371C40.0125 53.6805 39.5323 53.1818 39.2368 52.868ZM44.0378 55.5824C44.5177 56.0625 44.5177 57.6875 44.6655 59.46C44.7764 60.8632 45.1087 63.707 44.9609 65.0919C44.923 65.4612 44.7764 66.1444 43.4099 66.1074C40.6032 66.0336 34.1958 64.5195 33.6973 63.2638C33.328 62.6545 32.9963 60.8632 32.811 59.2938C32.6264 57.7981 32.3678 55.1946 32.6448 54.5113C32.7556 54.2898 33.0698 54.1629 34.0297 54.142C34.8796 54.1231 38.0366 54.456 39.8086 54.6961C43.4283 55.1762 43.7053 55.2315 44.0378 55.5824ZM43.89 48.8067C43.8345 50.136 44.7211 50.7086 45.2379 50.7086C45.2793 50.7061 45.3186 50.6896 45.3493 50.6617C45.38 50.6339 45.4002 50.5964 45.4067 50.5555C45.4132 50.5145 45.4055 50.4726 45.3849 50.4366C45.3643 50.4007 45.332 50.3728 45.2935 50.3577C44.2407 49.9331 44.0562 48.2166 45.0534 48.4374C45.8658 48.6036 46.6412 49.9698 46.1612 51.872C45.6625 53.8292 43.5024 54.6045 42.5423 54.5492C42.218 54.5456 41.898 54.4749 41.6024 54.3414C41.3069 54.2079 41.0422 54.0146 40.8251 53.7737C41.3642 53.6424 41.8485 53.3453 42.21 52.9243C42.4435 53.1344 42.7453 53.2526 43.0594 53.2568C44.1307 53.2379 44.4257 52.4258 44.2779 51.4288C44.1487 50.6531 43.724 50.6163 43.7794 50.967C43.8902 51.687 43.9669 52.6043 43.3548 52.7397C43.2314 52.7793 43.1005 52.7899 42.9723 52.7706C42.8442 52.7514 42.7222 52.7029 42.6158 52.6289C41.8219 52.1674 41.3103 49.5134 42.1912 48.6589C42.5006 48.3578 43.1329 48.1409 43.89 48.8067ZM63.4076 42.5471C64.2385 42.9717 64.3124 43.9681 64.5155 44.9105C63.9381 44.9196 63.3701 45.0584 62.8536 45.3168C62.7058 44.9475 62.3839 44.222 62.1147 43.7102C61.8305 43.168 62.4296 42.1766 63.4076 42.5461V42.5471ZM59.9177 48.1409C60.01 47.6609 60.996 47.5031 62.4658 48.0855C62.7593 48.2017 63.0937 47.587 61.2471 47.2177C60.8594 46.4978 60.287 45.0009 60.324 44.448C60.3619 43.9679 60.8225 43.8201 60.9701 43.7832C61.2656 43.7093 61.5796 43.7832 61.6711 43.931C61.947 44.4369 62.1878 44.9613 62.3917 45.5004C62.2762 45.5465 62.1746 45.6218 62.097 45.7189C62.0193 45.816 61.9681 45.9316 61.9485 46.0544C61.9485 46.1468 62.004 46.3498 62.2255 46.1836C63.1674 45.4447 64.5706 45.1866 65.5492 45.4826C65.6785 45.5195 65.8079 45.5015 65.7893 45.3533C65.7707 45.2052 65.5678 44.9471 64.9954 44.8732C64.6998 43.4522 64.6076 43.0082 65.1246 42.916C65.9371 42.7498 66.3064 43.5069 66.8049 45.1502C67.2111 46.4612 67.1003 48.4923 64.3306 49.3603C61.6349 50.1898 59.7885 48.7498 59.9177 48.1409ZM66.0112 55.8409C64.8662 57.3187 58.9944 55.1019 60.01 52.5171C60.8964 50.2459 62.2812 52.6649 63.4076 53.6066C63.3946 53.7743 63.3699 53.941 63.3337 54.1053C63.2958 54.2529 63.3906 54.4215 63.4999 54.3637C63.8362 54.1864 64.0723 53.0342 63.2968 50.0428C64.0788 49.9874 64.8403 49.7672 65.5311 49.3965C66.7685 52.8864 66.7875 54.8253 66.0106 55.8409H66.0112Z" fill="black"/>
<path d="M45.8471 57.1701C46.5118 57.1332 46.5482 56.2838 46.3273 56.2652C46.1242 56.2463 46.2164 56.7084 45.7363 56.8378C45.4779 56.9115 45.4225 57.1885 45.8471 57.1701Z" fill="black"/>
<path d="M53.972 53.9757C53.5288 53.9946 52.7164 55.8037 52.4941 55.7668C52.3463 55.7298 52.1802 54.5667 51.7552 54.5481C51.275 54.5291 50.9245 55.266 50.8133 55.2491C50.6661 55.2277 50.481 55.0091 50.3517 54.8615C50.2225 54.6953 50.0564 54.8994 50.1672 55.1015C50.4442 55.5817 50.6471 55.7478 50.8319 55.7478C51.1828 55.7289 51.4412 55.0646 51.6627 55.0832C51.8842 55.1017 51.8658 56.3572 52.4568 56.3939C53.0106 56.4129 53.8778 54.5291 54.0448 54.5291C54.2663 54.5291 54.3587 55.0832 54.4696 55.5078C54.5065 55.637 54.5988 55.7293 54.7094 55.6923C54.9692 55.6376 54.6552 53.9387 53.972 53.9757Z" fill="black"/>
<path d="M49.9838 52.9971C49.4297 53.2557 49.4483 54.1051 49.4114 54.8067C49.3744 55.6006 49.3375 56.45 49.8729 56.8377C50.7223 57.4286 52.5689 57.5956 53.8799 57.6318C55.5971 57.6873 55.8049 56.9849 55.8555 55.2497C55.8783 54.4729 55.8555 53.7718 55.357 53.3663C54.9324 53.0156 50.7223 52.6462 49.9838 52.9971ZM55.0806 56.8748C54.6558 57.3917 50.9258 56.9855 50.1317 56.4316C49.7626 56.173 49.8549 53.6987 50.2426 53.4948C50.9258 53.1255 54.748 53.6057 54.9697 53.7349C55.5048 54.0496 55.4309 56.4316 55.0802 56.8748H55.0806Z" fill="black"/>
<path d="M51.2391 36.8403C52.901 36.8403 52.7348 34.5138 51.1838 34.5877C49.7434 34.643 49.762 36.8403 51.2391 36.8403ZM51.2021 35.0492C52.1808 35.0113 52.1808 36.2679 51.313 36.3418C50.4081 36.4151 50.3158 35.0862 51.2021 35.0492Z" fill="black"/>
<path d="M60.6746 63.4299C60.527 63.9284 60.4345 64.353 60.2684 64.7778C60.2438 64.8398 60.2038 64.8945 60.1521 64.9365C60.1003 64.9785 60.0387 65.0066 59.973 65.0179C59.1975 65.0369 59.1605 64.98 59.0866 64.8148C59.0497 64.6856 59.0313 64.4639 58.8282 64.4271C58.2558 64.3163 57.7387 64.1132 57.4071 64.4639C57.1487 64.7225 56.7792 64.4828 56.7061 64.3902C56.633 64.2975 56.7798 64.0577 57.0568 63.6702C57.3338 63.3009 57.1307 63.227 56.743 63.5963C56.3552 63.9841 55.9851 64.538 56.4475 64.778C57.0199 65.0734 57.1864 65.0734 57.6476 64.7591C57.9432 64.5562 58.3308 64.7038 58.6817 64.778C58.6817 65.3135 58.8665 65.406 59.6789 65.406C60.1219 65.406 60.3252 65.4613 60.4544 65.3135C60.6206 65.1289 60.7684 64.0395 60.8421 63.7071C60.9327 63.393 60.7854 63.0976 60.6746 63.4299Z" fill="black"/>
<path d="M46.6045 63.2447C48.691 62.2477 49.5034 61.989 50.1497 61.7306C50.4453 61.6199 50.5006 61.2505 48.5432 62.026C48.2664 62.1368 47.5092 62.4324 47.1583 62.5986C46.2905 62.987 46.4381 63.3379 46.6045 63.2447Z" fill="black"/>
<path d="M58.9573 50.1351C56.5938 51.4646 52.3837 52.351 47.9891 51.077C47.8599 51.04 47.8413 51.1692 47.9338 51.2615C48.4323 51.7416 51.0728 52.1664 52.4946 52.1664C55.2827 52.1854 57.6461 51.3723 58.9935 50.3384C59.2343 50.1537 59.2343 49.9689 58.9573 50.1351Z" fill="black"/>
<path d="M58.2184 61.6571C57.129 61.7865 55.3006 63.6883 55.0425 64.7224C54.8947 65.2948 54.95 65.7194 55.1901 66.0334C55.8178 66.9013 59.271 67.289 60.3059 67.1228C61.4692 66.9197 62.2078 63.1714 61.8199 62.4696C61.4499 61.8233 59.1601 61.5463 58.2184 61.6571ZM60.2312 66.3843C59.6588 66.5319 56.0846 66.2808 55.6335 65.6264C55.4819 65.4072 55.4303 65.2387 55.5226 64.8139C55.7259 63.9645 57.4431 61.9703 58.5693 61.9887C59.7882 62.0076 61.2098 62.3949 61.376 62.6897C61.6523 63.2822 60.8589 66.2191 60.2312 66.3843Z" fill="black"/>
<path d="M45.9022 55.1944C45.8454 55.1035 45.6959 55.1387 45.6807 55.3053C45.6613 55.4476 45.6026 55.5817 45.5113 55.6925C45.42 55.8034 45.2996 55.8867 45.1637 55.933C44.9791 56.0069 44.9975 56.1731 45.2016 56.1731C45.3229 56.1848 45.4452 56.1645 45.5563 56.114C45.6673 56.0636 45.7631 55.9849 45.834 55.8857C45.905 55.7866 45.9487 55.6705 45.9606 55.5492C45.9726 55.4279 45.9525 55.3055 45.9022 55.1944Z" fill="black"/>
<path d="M36.0797 54.9546C35.7471 54.9179 34.2145 55.3978 34.0116 55.9518C33.8638 56.4503 34.4178 57.5951 34.9532 57.5951C36.0427 57.4475 37.6491 56.8372 36.8182 55.564C36.7258 55.4162 36.4488 54.9916 36.0797 54.9546ZM36.6521 56.4873C36.5412 56.7273 35.1931 57.2997 34.9347 57.2262C34.6948 57.1339 34.2941 56.3236 34.3808 56.0814C34.4991 55.7517 35.8019 55.3059 36.0427 55.3235C36.3205 55.3247 36.7998 56.3025 36.6521 56.4873Z" fill="black"/>
<path d="M38.9039 60.4943C38.6455 60.919 37.445 61.75 37.6669 62.1746C37.7591 62.5439 38.6639 62.3961 39.1258 62.3961C39.255 62.8764 39.2364 64.1135 39.7166 64.058C40.1597 64.1135 40.4745 62.9687 40.6954 62.5439C43.5943 62.9687 43.8897 62.5069 41.6185 60.605C42.3017 58.7955 42.2095 58.0568 40.3998 59.4602C38.9409 57.9461 38.6822 58.8509 38.9039 60.4943ZM39.8826 59.4972C40.4735 60.3466 41.0273 59.294 41.6738 59.1095C41.6928 59.4788 41.1751 60.4205 41.2676 60.6975C41.3229 61.0298 42.7265 61.9345 42.7455 62.2854C42.4499 62.47 40.7327 62.0454 40.4927 62.2115C40.2342 62.3408 39.9758 63.4119 39.7348 63.6515C39.4761 63.2084 39.7916 61.9899 39.0699 62.0082C38.726 62.0363 38.3807 62.0426 38.0359 62.0272C38.1837 61.6577 39.2546 60.9008 39.2916 60.5682C39.384 60.0326 38.8116 58.297 39.8818 59.4972H39.8826Z" fill="black"/>
<path d="M64.8665 51.206C65.2359 51.0952 65.5457 50.7655 65.4389 50.5967C65.382 50.5057 65.2359 50.5412 65.1619 50.6156C64.9959 50.8002 64.5527 50.9663 64.1279 50.9663C63.8141 50.9476 63.8509 51.5014 64.8665 51.206Z" fill="black"/>
<path d="M62.4469 53.4772C62.0776 53.6248 61.8006 54.5297 62.096 54.8804C62.1699 54.9729 62.3544 54.9729 62.3177 54.622C62.331 54.3047 62.4334 53.9975 62.6131 53.7356C62.7423 53.6064 62.7053 53.3663 62.4469 53.4772Z" fill="black"/>
<path d="M61.3574 52.4617C60.545 52.6831 60.4358 53.7311 60.6926 53.8096C60.9158 53.8785 60.8404 53.2188 61.3936 52.8679C61.8376 52.5909 61.6344 52.3876 61.3574 52.4617Z" fill="black"/>
<path d="M46.826 43.894C46.3829 44.9279 46.4751 48.9349 47.565 49.8766C49.5039 51.557 57.6654 50.726 58.6071 48.9165C59.4751 47.2361 59.0688 43.7092 58.3301 42.6937C57.0557 40.9395 47.7493 41.752 46.826 43.894ZM48.7465 46.1282C48.1925 46.0543 48.137 44.5586 49.3373 44.3555C50.3529 44.1894 51.2023 45.1866 50.9992 45.7036C50.8514 46.0727 49.3004 46.2021 48.7465 46.1282ZM55.0062 48.1224C54.7198 48.409 54.3756 48.6313 53.9967 48.7746C53.6177 48.9178 53.2126 48.9788 52.8083 48.9535C52.0326 48.9156 50.1492 48.6948 50.5371 47.6978C50.8694 46.8484 52.1434 47.9193 52.8083 47.8454C54.1376 47.6978 54.461 46.3948 55.1162 46.996C55.4728 47.3229 55.6612 47.5226 55.0062 48.1224ZM56.9634 45.4819C56.4463 45.6851 54.9506 45.8882 54.6736 45.6112C54.249 45.2049 54.7475 44.0232 55.7631 43.9309C57.2219 43.7831 57.4803 45.2788 56.9634 45.4819Z" fill="black"/>
<path d="M48.4694 57.9828C49.8904 58.98 52.31 59.6816 55.0613 59.7C57.868 59.7189 60.3423 58.5183 61.2656 57.0042C61.6165 56.4318 61.5057 56.3031 61.2287 56.6533C60.343 57.7779 59.109 58.5767 57.7204 58.9245C54.6367 59.7553 50.6114 59.0537 48.0262 57.2442C47.6753 57.0042 47.7676 57.4845 48.4694 57.9828Z" fill="black"/>
<path d="M64.7554 55.6194C64.6072 55.5373 64.477 55.4264 64.3723 55.2931C64.2677 55.1599 64.1907 55.0071 64.1461 54.8437C64.1091 54.6961 64.0167 54.493 63.8691 54.6408C63.7582 54.7514 63.7398 55.2132 63.9983 55.5269C64.0842 55.6402 64.1925 55.7346 64.3163 55.8045C64.4401 55.8744 64.5769 55.9181 64.7183 55.9332C64.9402 55.9517 65.0322 55.7486 64.7554 55.6194Z" fill="black"/>
<path d="M64.4419 52.2772C64.2204 52.2402 64.1649 52.6465 64.8112 52.665C65.5867 52.7029 65.9006 52.2958 65.8637 52.0926C65.8447 51.9818 65.6975 51.9449 65.5867 52.0557C65.4021 52.2772 64.8112 52.3511 64.4419 52.2772Z" fill="black"/>
<path d="M34.6019 59.7372C33.254 60.1434 33.6786 62.0084 34.9343 62.0268C36.7439 62.0454 36.3201 59.1832 34.6019 59.7372ZM35.1929 61.6022C34.1957 61.8792 33.6786 60.4204 34.7128 60.1065C35.7287 59.7673 36.2007 61.3292 35.1929 61.6022Z" fill="black"/>
<path d="M64.3862 53.6437C64.2938 53.6058 64.1878 53.7866 64.4052 54.013C64.6136 54.2301 64.9408 54.3084 65.3654 54.3084C65.9194 54.3084 66.2516 53.9761 66.1593 53.8099C66.0485 53.6068 65.3832 54.0314 64.3862 53.6437Z" fill="black"/>
</svg>
