<svg width="155" height="155" viewBox="0 0 155 155" fill="none" xmlns="http://www.w3.org/2000/svg">
<path d="M80.2711 30.8834C76.6967 31.169 74.4424 31.2694 73.5006 32.9909C72.5587 34.7125 70.7908 37.8777 68.7605 42.0157C67.7877 44.0461 68.8377 44.3317 70.3045 44.3317C74.373 44.3317 75.5696 44.71 76.2489 43.2818C77.7929 40.1243 79.4064 36.6271 81.3673 32.52C81.8151 31.4778 81.1589 30.783 80.2711 30.8834Z" fill="#6016F3"/>
<path d="M130.59 131.476C128.483 132.302 128.483 139.15 129.61 139.744C130.737 140.338 137.554 138.339 138.488 136.587C139.044 135.552 132.096 130.874 130.59 131.476Z" fill="#6016F3"/>
<path d="M101.177 31.9331C98.8613 31.1611 97.2633 35.0983 91.9133 45.1807C90.7861 47.2806 94.7002 47.5817 98.761 49.3187C99.8881 49.7664 100.938 49.9903 101.918 49.1643C105.244 45.7961 108.312 42.1832 111.098 38.3562C113.36 34.9439 111.484 34.9439 101.177 31.9331Z" fill="#6016F3"/>
<path d="M94.1055 30.5823C88.385 30.204 86.2002 30.6595 85.1503 31.1844C84.1003 31.7094 82.1394 35.4691 79.3525 41.7146C78.5264 43.6755 79.4297 44.5016 80.3329 44.5788C85.0731 45.0265 88.1842 45.6441 88.825 44.5788C91.9594 39.4526 93.1174 36.6039 95.4488 32.1649C95.8348 31.4083 95.7113 30.6595 94.1055 30.5823Z" fill="#6016F3"/>
<path d="M82.5869 76.1773C81.3825 76.7022 82.2858 77.8293 83.3589 77.3816C84.2656 76.9806 85.2466 76.7751 86.238 76.7785C87.2294 76.7819 88.209 76.9941 89.1129 77.4014C90.0168 77.8086 90.8248 78.4016 91.4843 79.1419C92.1437 79.8822 92.6398 80.7531 92.9403 81.6979C93.3417 82.9612 93.3788 84.3122 93.0476 85.5957C92.8237 86.5762 94.1747 86.8773 94.5916 85.1402C96.1433 79.0723 88.5236 72.7881 82.5869 76.1773Z" fill="#6016F3"/>
<path d="M86.9565 80.9172C89.7358 81.6892 88.6086 84.7309 89.6663 84.7772C91.3956 84.8158 90.5695 80.1838 87.1804 79.5044C84.9956 79.0567 82.5484 80.2764 82.9652 81.3109C83.3821 82.3454 85.2272 80.4617 86.9565 80.9172Z" fill="#6016F3"/>
<path d="M128.908 126.736C129.719 126.188 132.143 120.938 130.56 120.336C128.676 119.564 123.11 123.57 123.612 124.968C124.121 126.056 128.174 127.284 128.908 126.736Z" fill="#6016F3"/>
<path d="M116.223 39.6069C115.243 40.209 90.191 70.1552 89.0639 71.3595C87.9367 72.5639 88.4617 73.7682 89.2106 73.166C90.6388 71.9617 115.845 41.5678 116.594 40.8884C117.342 40.209 117.728 41.2667 117.427 41.7144C116.37 43.3743 98.243 69.5067 94.7072 74.6714C93.4257 76.5474 94.63 77.2268 95.2322 76.4007C98.768 71.2128 117.427 44.2775 118.477 42.5482C119.458 40.9656 117.952 38.5029 116.223 39.6069Z" fill="#6016F3"/>
<path d="M139.468 137.644C137.131 139.492 134.359 140.71 131.416 141.18C130.59 141.249 130.814 142.454 132.397 142.384C134.651 142.307 140.518 140.2 140.372 137.945C140.372 137.49 139.762 137.405 139.468 137.644Z" fill="#001434"/>
<path d="M42.5662 137.791C39.7792 137.567 39.2543 138.47 41.0222 138.771C42.7901 139.072 61.3337 142.631 65.9271 142.153C67.2781 142.006 66.8998 140.995 64.7228 140.802C60.2451 140.408 49.5297 138.339 42.5662 137.791Z" fill="#001434"/>
<path d="M143.529 135.838C140.596 130.434 140.441 125.532 133.146 126.574C137.662 123.185 134.952 119.279 132.474 114.84C132.922 112.732 134.018 110.547 130.289 110.478C131.193 107.768 132.474 104.904 132.544 102.503C135.331 102.572 136.759 103.406 138.565 100.395C143.769 91.6022 155.017 76.0076 148.601 77.2969C144.988 77.9762 141.383 77.7446 139.198 76.0925C130.475 69.5459 133.177 62.2505 118.207 61.6483C118.732 60.9689 119.188 60.444 119.412 60.1043C120.184 59.1315 118.64 58.0121 117.868 58.9771C112.464 65.7554 99.1388 82.9094 95.1475 88.7689C90.8629 86.5146 85.3662 85.9125 79.7074 87.0396C80.7815 82.0154 80.8837 76.832 80.0085 71.7693C81.5525 70.1095 81.815 62.7368 80.9889 60.1043C78.9585 54.762 76.7738 53.8587 75.801 53.7121C74.3728 49.4197 68.9533 44.5329 64.4371 46.9416C63.9531 46.5687 63.4364 46.2405 62.8931 45.9611C67.031 39.6384 76.7352 26.6609 73.431 24.592C76.8523 23.852 80.3182 23.3362 83.8067 23.0479C83.8916 23.0394 83.9773 23.0485 84.0585 23.0747C84.1396 23.1009 84.2145 23.1437 84.2783 23.2003C84.3421 23.2568 84.3935 23.326 84.4293 23.4034C84.4651 23.4808 84.4844 23.5648 84.4861 23.6501C84.6328 29.0928 90.6622 29.1314 91.2566 23.9512C91.2673 23.7413 91.3414 23.5397 91.4692 23.3729C91.597 23.2061 91.7724 23.082 91.9723 23.0171C92.1051 22.9738 92.2448 22.9584 92.3837 22.9707C100.936 23.8687 109.196 26.588 116.609 30.9456C116.91 31.1 116.687 31.3239 116.54 31.6249C113.29 36.4963 118.431 39.8931 121.805 35.7629C122.183 35.3074 122.407 35.0835 122.855 35.4618C128.948 40.7046 133.914 47.1285 137.454 54.3451C135.138 55.3178 134.597 56.4527 134.898 58.3287C135.122 59.8341 136.442 60.8145 138.357 60.6447C141.136 60.5752 145.305 59.8727 144.07 56.2828C131.957 21.4344 87.8752 8.65772 60.7855 23.2564C51.8379 16.262 51.3052 6.48066 36.7143 6.62734C37.4863 4.82085 36.2588 3.9948 35.0545 5.19913C28.2145 12.0468 14.5963 31.5323 12.7126 34.0182C8.27355 39.6538 2.18242 47.6286 4.29 48.1613C5.56381 48.4624 5.94209 46.432 13.0137 36.8746C22.4939 33.941 27.6818 38.1561 33.2557 44.3245C32.7301 44.9922 32.3442 45.7588 32.1209 46.5787C28.1373 46.131 22.8568 48.1613 23.7755 53.8047C17.6766 53.5036 13.4692 56.8927 15.2834 65.1609C7.46295 68.6195 12.427 82.0138 18.3714 86.7771C-9.76826 105.213 7.30854 138.162 36.4287 127.778C40.7133 134.178 53.2816 130.341 56.0608 125.462C63.9662 133.592 70.3584 124.034 66.5215 115.233C70.2812 110.269 68.8375 103.723 60.8781 100.789C62.8279 100.538 64.7632 100.185 66.6759 99.7314C67.1237 104.024 71.0377 106.432 75.0985 105.599C75.8705 109.212 76.079 114.631 79.9853 115.38C77.8855 123.355 63.6651 145.326 79.7614 144.346C88.7167 143.821 103.385 140.733 113.39 137.398C113.497 137.693 113.542 138.007 113.524 138.321C113.505 138.635 113.423 138.942 113.283 139.223C113.142 139.504 112.946 139.753 112.705 139.956C112.465 140.158 112.186 140.31 111.885 140.401C102.621 143.219 93.094 145.897 74.6507 147.627C66.2204 148.453 36.8224 142.586 34.2439 141.536C33.7189 141.304 33.6417 140.177 33.7189 139.351C34.3056 135.823 62.6769 131.932 67.6486 131.53C69.679 131.376 68.9302 130.025 66.2976 130.172C59.0022 130.396 45.8317 133.182 38.158 135.136C33.8733 136.193 31.8352 136.942 31.6885 139.274C31.6113 141.003 32.0745 142.925 33.6417 143.334C35.2089 143.744 62.4607 150.035 73.1453 149.657C87.6591 149.132 104.798 144.77 113.467 141.605C115.119 141.003 115.575 138.224 115.011 136.564C117.42 135.136 119.149 133.028 121.481 128.967C122.909 130.172 124.939 129.793 126.522 129.793C121.89 133.653 126.144 139.057 127.95 143.566C122.006 154.698 142.472 143.334 145.853 140.933C149.852 138.015 146.54 136.286 143.529 135.838ZM132.397 100.627C132.173 99.8549 131.718 98.0716 129.764 97.6933C130.59 96.1493 131.571 94.3042 132.621 92.4282C135.137 93.1482 137.727 93.5756 140.341 93.702C136.581 99.6542 137.114 101.268 132.397 100.627ZM140.488 78.7328C143.114 79.5743 145.912 79.731 148.617 79.1883C147.823 81.1807 146.892 83.1154 145.83 84.9783C142.991 85.027 140.159 84.6973 137.407 83.9979C138.642 81.9675 139.716 80.1919 140.488 78.7328ZM136.882 84.0751C135.338 86.6304 134.25 88.5913 132.366 91.8955C129.389 91.0632 126.637 89.5725 124.314 87.5337C127.471 82.9016 129.054 80.5856 129.579 79.8136C131.63 81.8184 134.152 83.2758 136.913 84.0519L136.882 84.0751ZM126.198 65.0374C130.058 66.7744 131.988 70.0091 133.57 72.7575C132.513 74.3401 131.084 76.5172 129.432 79.003C128.375 77.652 124.993 73.2824 121.234 71.4065C123.141 69.0287 124.87 66.7744 126.229 65.0374H126.198ZM123.712 87.5337C121.759 90.3206 119.852 92.876 118.37 94.6825C115.436 91.8955 113.629 89.3402 109.491 87.0859C111.228 84.9011 113.104 82.4925 114.895 80.0838C118.258 82.0306 121.252 84.5521 123.743 87.5337H123.712ZM112.054 69.1754C115.011 69.3125 117.895 70.1372 120.477 71.584C118.671 73.846 116.563 76.9263 114.61 79.4817C111.854 78.0317 108.766 77.3315 105.655 77.4513C106.666 76.2469 110.804 70.8352 112.085 69.1754H112.054ZM98.6138 87.14C107.947 85.264 113.058 92.4823 119.682 98.1256C114.417 98.9594 108.249 99.9321 102.752 100.835C102.756 98.6364 102.207 96.4717 101.156 94.54C100.105 92.6084 98.5861 90.9717 96.7379 89.7802C97.34 88.8924 97.9422 88.0587 98.6138 87.14ZM76.7197 56.445C79.3523 58.761 80.0316 63.8948 79.2828 68.0251C78.5083 64.7469 77.4253 61.5494 76.0481 58.4753C76.4016 57.8541 76.6298 57.1695 76.7197 56.4604V56.445ZM70.1036 49.0028C74.9209 51.867 76.1176 58.4753 72.8828 57.1243C70.0264 55.92 67.996 50.8788 65.8885 48.3235C67.3312 48.0328 68.8305 48.28 70.1036 49.0183V49.0028ZM60.8395 56.2983C60.6928 52.1603 57.8287 48.9256 54.7484 46.2622C66.9538 43.5602 73.4387 65.0837 60.8472 56.3137L60.8395 56.2983ZM142.472 56.445C142.566 56.6193 142.62 56.813 142.628 57.0112C142.636 57.2094 142.599 57.4068 142.519 57.5883C142.439 57.7698 142.318 57.9308 142.167 58.0591C142.016 58.1875 141.838 58.2799 141.646 58.3294C139.6 58.8853 136.241 59.8734 136.241 57.0479C136.241 55.6969 139.623 55.6969 139.098 54.3459C136.604 48.0309 123.735 30.8691 121.272 33.9572C119.535 36.2114 118.339 36.2732 117.736 35.8331C115.251 34.1811 120.137 31.3169 118.408 30.1898C111.892 25.8511 101.517 22.1146 91.3879 21.5433C88.9792 21.3426 90.4383 26.2834 87.9215 26.2834C85.1964 26.2834 86.9488 21.3271 84.9184 21.6128C78.1479 21.9911 70.7675 23.8748 66.3903 25.0019C65.0275 24.9353 63.6835 24.6566 62.4067 24.1758C91.9823 10.658 130.073 24.392 142.479 56.4612L142.472 56.4457V56.445ZM26.6705 35.9868C28.7009 33.5781 31.1095 30.6445 33.6186 27.4947C30.3787 25.0724 26.3743 23.8993 22.3395 24.1905C24.7405 21.1025 27.0719 18.1689 29.2876 15.5363C31.8429 15.3124 36.5831 16.7406 40.2733 19.0721C42.8286 15.7602 45.0134 12.8266 46.4493 10.8734C50.209 12.981 51.9383 15.9841 54.347 19.296C53.0731 21.7664 51.2589 24.6074 49.3366 27.6028C51.7144 30.1195 54.8102 32.2348 58.6007 32.5282C60.0289 30.2739 61.3027 28.0197 62.2832 26.0665C66.2667 27.2708 69.3548 26.5992 72.4351 26.2981C71.6509 28.3065 70.6953 30.2437 69.5787 32.0881C66.3903 32.4587 62.0284 32.8601 58.7705 32.5513C58.5698 32.8833 55.2039 38.3182 53.8143 40.2714C57.528 40.7096 61.2877 40.5585 64.9543 39.8237C63.75 41.6996 62.4685 43.4289 61.3413 44.9343C58.7783 44.0311 55.698 43.3903 53.2121 44.8649C52.6099 44.5638 51.9383 44.1855 51.3361 43.8844C52.0078 42.8345 52.8801 41.6301 53.8143 40.2714C50.016 39.7542 46.6578 37.8242 43.6701 35.5931C43.894 35.3151 47.6382 30.2662 49.3521 27.6028C46.65 24.8236 44.2491 21.5271 40.4277 19.0567L33.881 27.4793C37.0154 29.7181 40.1497 32.8833 43.5774 35.539C41.9254 37.7238 40.3505 39.7465 38.845 41.5529C37.4332 41.6524 36.0665 42.0921 34.8615 42.8345C32.2598 40.4413 29.5501 37.5076 26.6936 36.0022L26.6705 35.9868ZM13.5464 76.3087C12.0023 71.3447 13.2453 67.8861 16.48 66.5274C18.3637 65.7554 14.604 60.1352 18.2093 57.1243C20.3169 55.3178 23.706 54.9395 25.8136 56.746C25.9168 56.8205 26.0338 56.8738 26.1577 56.9028C26.2816 56.9319 26.4101 56.9361 26.5357 56.9153C26.6612 56.8945 26.7815 56.849 26.8894 56.7816C26.9973 56.7141 27.0908 56.6259 27.1646 56.5222C27.5351 55.9895 26.3385 54.7929 25.6206 54.3451C24.1923 49.1495 28.477 48.3235 32.0128 48.2463C32.6921 48.2463 33.3715 48.0996 33.5954 47.4202C35.4019 41.854 42.2496 43.2822 47.893 44.8649C53.2353 46.4089 60.1524 53.5113 58.8014 56.5994C57.2574 60.359 45.1832 55.2406 39.0149 51.4038C35.4791 49.2267 35.8497 51.4038 36.8301 52.1758C40.8214 55.1866 41.4621 57.4408 40.2192 59.1701C38.9763 60.8994 35.2475 61.2777 30.1368 58.7224C29.6813 58.4985 28.9325 58.4985 28.9325 58.9463C28.7781 60.3745 33.8965 64.6668 32.8465 68.1254C31.3025 73.6144 14.936 68.0482 18.6262 84.6001C16.8351 82.5079 14.5809 79.4199 13.6004 76.3319L13.5464 76.3087ZM19.6375 87.9737C26.7168 93.841 34.3056 98.6583 43.5697 100.326C30.3298 103.036 25.2191 119.209 33.1167 126.574C4.72232 133.406 -4.32561 102.372 19.6915 87.9892L19.6375 87.9737ZM66.0583 107.529C66.5138 109.412 66.3594 111.821 65.6105 113.103C63.171 106.587 61.4417 108.872 62.1519 109.937C65.24 115.882 66.4366 120.846 65.24 123.71C63.7346 127.392 60.0521 127.47 56.8174 123.332C58.0217 121.147 56.5163 115.017 54.8565 115.056C54.3315 115.056 54.0845 115.828 54.3315 116.337C56.3619 120.846 54.9337 126.373 49.2903 127.917C49.6813 126.145 49.5771 124.3 48.9892 122.583C48.1632 120.475 46.3567 121.224 46.8816 122.282C46.8816 122.282 48.4257 125.74 47.1055 128.597C41.0144 131.005 34.0972 125.586 37.1775 119.641C37.4014 119.194 37.3319 118.445 36.7992 118.368C34.7688 118.144 33.6417 122.73 35.0699 125.362C32.2907 123.633 29.5038 118.592 32.7539 110.918C37.7488 98.7201 63.1015 98.0716 66.1123 107.544L66.0583 107.529ZM66.5138 97.6779C45.2681 102.989 27.2032 93.8178 22.0462 86.6922C19.568 83.2336 19.6375 77.4281 22.8182 75.0349C25.2268 73.2284 28.4615 73.4909 31.3102 72.4718C35.8265 70.8197 36.3515 66.6818 33.1167 61.8645C36.7297 62.6905 40.2655 62.7677 41.8404 60.7373C42.3639 59.9867 42.6815 59.1119 42.7614 58.2003C42.8413 57.2886 42.6808 56.372 42.2959 55.5417C48.8425 58.6297 56.4391 62.3199 60.276 58.3287C63.2096 60.5134 68.6986 61.8645 69.5401 57.0471C71.2693 58.6297 72.9214 59.4558 74.2802 59.3631C75.7746 62.6697 76.9083 66.1277 77.6616 69.6772C73.2225 68.3184 66.1509 70.2793 63.8967 74.1162C63.0629 73.4368 61.7891 72.7575 61.488 73.514C61.1097 74.4868 63.032 75.5444 63.5956 76.5172C64.2672 77.652 64.5683 78.6247 63.8195 79.7519C62.8351 81.0472 61.4644 81.9962 59.9054 82.4616C59.3804 82.616 58.9327 83.2336 59.226 83.5887C60.0598 84.6464 62.9162 83.6659 64.4988 81.9366C67.6563 85.5496 76.6116 82.7627 78.7115 79.9835C78.6569 82.5478 78.3045 85.097 77.6616 87.58C71.9101 89.263 67.0928 93.702 66.5678 97.6933L66.5138 97.6779ZM65.2323 75.7065C66.1355 72.6957 70.5745 71.5686 73.9637 71.198C72.3638 74.6006 70.9565 78.0904 69.7485 81.651C67.7876 81.7282 66.2127 81.651 65.5333 80.2228C65.9128 79.5232 66.0906 78.7321 66.0469 77.9374C66.0033 77.1428 65.74 76.3758 65.2863 75.722L65.2323 75.7065ZM74.4114 99.6388C73.5854 100.411 74.3342 101.824 74.5658 103.63C70.9528 104.232 68.3203 102.086 68.3203 98.4344C68.3203 95.3464 72.6821 90.7607 78.5494 89.1703C88.7785 86.3834 100.745 90.2203 100.822 101.052C98.7142 101.353 96.7533 101.731 94.7229 102.032C94.5745 101.101 94.3153 100.191 93.9509 99.3223C93.3488 97.7782 91.4651 97.9712 91.9205 99.0984C92.2627 100.158 92.5386 101.239 92.7466 102.333C91.0534 102.594 89.3905 103.023 87.7826 103.615C87.4815 102.071 87.1032 101.052 86.7249 99.7005C86.2772 98.1565 84.3163 97.6702 84.7718 99.3223C85.2272 100.974 85.7522 102.858 86.0533 104.587C83.7373 106.131 82.4403 108.579 80.5566 113.319C76.3569 113.952 77.1829 97.5003 74.4655 99.6465L74.4114 99.6388ZM105.408 137.56C97.9576 139.501 90.3958 140.983 82.7645 141.999C75.5386 142.825 74.1875 140.941 74.1875 137.637C74.1875 132.596 78.6266 124.621 80.2015 119.58C87.9215 101.862 80.0162 107.49 124.144 99.3377C129.347 98.3804 132.119 100.164 129.857 105.807C129.332 107.243 128.73 108.895 128.05 110.624C123.611 111.752 113.838 115.588 113.761 119.279C113.761 121.533 116.077 120.823 117.296 121.008C118.068 122.552 119.551 125.972 120.23 127.03C116.146 134.858 113.514 135.614 105.462 137.567L105.408 137.56ZM137.909 143.049C133.624 145.234 129.788 146.283 129.185 145.982C128.583 145.681 129.556 144.932 129.633 143.126C129.71 141.999 126.398 137.035 126.175 134.325C126.02 131.839 129.108 131.09 128.653 128.983C128.128 126.667 124.067 128.759 122.716 127.439C120.979 125.787 120.006 121.95 118.949 120.066C118.177 118.785 115.953 119.834 115.637 119.086C114.926 117.403 130.552 110.524 131.077 112.392C131.308 113.442 130.104 114.423 130.776 115.704C133.709 121.494 135.091 121.672 132.204 124.729C131.432 125.547 130.328 126.69 131.308 127.74C132.659 129.284 135.593 127.887 137.4 128.79C139.206 129.562 140.951 136.811 142.587 137.521C143.421 137.884 145.22 137.899 145.22 138.424C145.259 139.636 141.877 141.026 137.963 143.056L137.909 143.049Z" fill="#110F0F"/>
<path d="M127.803 115.148C125.267 115.421 122.878 116.473 120.963 118.159C119.774 119.077 120.732 120.189 121.566 119.587C123.665 118.081 124.499 117.556 129.008 116.499C129.764 116.352 129.61 114.932 127.803 115.148Z" fill="#001434"/>
<path d="M46.1791 62.5587C47.368 63.1145 54.9028 67.1907 56.1072 65.7934C57.3115 64.3961 53.9996 63.6858 51.2203 62.6359C49.3366 61.8639 46.7041 60.4511 45.7237 61.2772C45.4226 61.5783 45.7237 62.3425 46.1791 62.5587Z" fill="#001434"/>
<path d="M49.2363 27.6179C49.2363 27.6568 49.2363 27.6646 49.2907 27.6179C49.3452 27.5713 49.2674 27.5635 49.2363 27.6179Z" fill="#001434"/>
<path d="M65.9656 67.6002C68.5985 66.7092 71.1632 65.6282 73.6394 64.3655C74.0872 64.1339 74.4114 62.7057 72.3579 63.0839C69.9449 63.6805 67.6122 64.5643 65.4098 65.7165C64.0588 66.4731 64.9852 67.6697 65.9656 67.6002Z" fill="#001434"/>
<path d="M57.6898 88.0586C54.154 87.688 50.541 84.3761 46.928 84.8239C43.9944 85.2021 42.4195 88.213 43.068 90.9999C44.0484 95.439 53.1813 97.6701 57.3656 96.0411C61.3337 94.5048 62.8082 88.5913 57.6898 88.0586ZM58.9713 91.9726C57.3038 96.9598 44.226 94.389 44.8977 89.1162C46.0248 90.0967 47.2137 90.5444 47.6846 90.0967C48.3562 89.4173 46.4803 88.1358 45.8009 87.3869C48.1169 84.6849 53.7526 89.4636 57.2343 89.9423C59.0408 90.1661 59.3419 90.4672 58.9713 91.9726Z" fill="#001434"/>
<path d="M51.3671 81.589C55.2271 81.0641 58.6625 74.2164 56.4855 70.4567C54.5323 67.2992 46.3258 64.2806 41.6629 65.6394C37.6022 66.8437 35.703 73.6605 37.7488 77.0805C40.0726 80.9637 46.928 82.1217 51.3671 81.589ZM41.7401 78.2076C37.1467 76.6636 38.1271 68.8046 42.1879 67.5231C45.1987 66.5426 48.8117 67.7469 51.6681 69.0671C48.2064 71.9441 44.8928 74.9949 41.7401 78.2076Z" fill="#001434"/>
</svg>
