<svg width="112" height="14" viewBox="0 0 112 14" fill="none" xmlns="http://www.w3.org/2000/svg">
<path d="M17.12 11.1C16.54 11.1 16.0533 11.0133 15.66 10.84C15.2667 10.66 14.9633 10.43 14.75 10.15C14.5433 9.86333 14.4333 9.56 14.42 9.24C14.42 9.18667 14.44 9.14 14.48 9.1C14.5267 9.05333 14.58 9.03 14.64 9.03H15.15C15.23 9.03 15.29 9.05 15.33 9.09C15.37 9.13 15.3967 9.17667 15.41 9.23C15.4433 9.39 15.5233 9.55 15.65 9.71C15.7833 9.86333 15.9667 9.99333 16.2 10.1C16.44 10.2 16.7467 10.25 17.12 10.25C17.6933 10.25 18.1133 10.15 18.38 9.95C18.6533 9.74333 18.79 9.47 18.79 9.13C18.79 8.89667 18.7167 8.71 18.57 8.57C18.43 8.42333 18.2133 8.29333 17.92 8.18C17.6267 8.06667 17.2467 7.94333 16.78 7.81C16.2933 7.67 15.89 7.51667 15.57 7.35C15.25 7.18333 15.01 6.97667 14.85 6.73C14.6967 6.48333 14.62 6.17 14.62 5.79C14.62 5.43 14.7167 5.11 14.91 4.83C15.1033 4.54333 15.38 4.31667 15.74 4.15C16.1067 3.98333 16.55 3.9 17.07 3.9C17.4833 3.9 17.8433 3.95667 18.15 4.07C18.4633 4.17667 18.7233 4.32333 18.93 4.51C19.1367 4.69 19.2933 4.88667 19.4 5.1C19.5067 5.30667 19.5633 5.51 19.57 5.71C19.57 5.75667 19.5533 5.80333 19.52 5.85C19.4867 5.89 19.4333 5.91 19.36 5.91H18.83C18.7833 5.91 18.7333 5.89667 18.68 5.87C18.6333 5.84333 18.5967 5.79333 18.57 5.72C18.53 5.44667 18.3767 5.21667 18.11 5.03C17.8433 4.84333 17.4967 4.75 17.07 4.75C16.6367 4.75 16.2833 4.83333 16.01 5C15.7433 5.16667 15.61 5.42667 15.61 5.78C15.61 6.00667 15.6733 6.19667 15.8 6.35C15.9267 6.49667 16.1267 6.62667 16.4 6.74C16.6733 6.85333 17.03 6.97333 17.47 7.1C18.0033 7.24667 18.44 7.40333 18.78 7.57C19.12 7.73 19.37 7.93333 19.53 8.18C19.6967 8.42 19.78 8.73 19.78 9.11C19.78 9.53 19.67 9.89 19.45 10.19C19.23 10.4833 18.92 10.71 18.52 10.87C18.1267 11.0233 17.66 11.1 17.12 11.1ZM21.2007 11C21.134 11 21.0774 10.98 21.0307 10.94C20.9907 10.8933 20.9707 10.8367 20.9707 10.77V4.13C20.9707 4.06333 20.9907 4.01 21.0307 3.97C21.0774 3.92333 21.134 3.9 21.2007 3.9H21.6707C21.7374 3.9 21.7907 3.92333 21.8307 3.97C21.8774 4.01 21.9007 4.06333 21.9007 4.13V7.61L23.8707 5.97C23.9507 5.90333 24.0107 5.86 24.0507 5.84C24.0974 5.81333 24.1707 5.8 24.2707 5.8H24.8007C24.8607 5.8 24.9107 5.82 24.9507 5.86C24.9907 5.9 25.0107 5.95 25.0107 6.01C25.0107 6.03667 25.0007 6.06667 24.9807 6.1C24.9674 6.13333 24.9374 6.16667 24.8907 6.2L22.5807 8.12L25.1407 10.61C25.2207 10.6767 25.2607 10.7367 25.2607 10.79C25.2607 10.85 25.2407 10.9 25.2007 10.94C25.1607 10.98 25.1107 11 25.0507 11H24.5307C24.4307 11 24.3574 10.99 24.3107 10.97C24.264 10.9433 24.204 10.8967 24.1307 10.83L21.9007 8.7V10.77C21.9007 10.8367 21.8774 10.8933 21.8307 10.94C21.7907 10.98 21.7374 11 21.6707 11H21.2007ZM26.347 11C26.2803 11 26.2236 10.98 26.177 10.94C26.137 10.8933 26.117 10.8367 26.117 10.77V6.03C26.117 5.96333 26.137 5.91 26.177 5.87C26.2236 5.82333 26.2803 5.8 26.347 5.8H26.827C26.8936 5.8 26.947 5.82333 26.987 5.87C27.027 5.91 27.047 5.96333 27.047 6.03V10.77C27.047 10.8367 27.027 10.8933 26.987 10.94C26.947 10.98 26.8936 11 26.827 11H26.347ZM26.267 4.83C26.2003 4.83 26.1436 4.81 26.097 4.77C26.057 4.72333 26.037 4.66667 26.037 4.6V4.06C26.037 3.99333 26.057 3.94 26.097 3.9C26.1436 3.85333 26.2003 3.83 26.267 3.83H26.897C26.9636 3.83 27.017 3.85333 27.057 3.9C27.1036 3.94 27.127 3.99333 27.127 4.06V4.6C27.127 4.66667 27.1036 4.72333 27.057 4.77C27.017 4.81 26.9636 4.83 26.897 4.83H26.267ZM28.7788 11C28.7122 11 28.6555 10.98 28.6088 10.94C28.5688 10.8933 28.5488 10.8367 28.5488 10.77V4.13C28.5488 4.06333 28.5688 4.01 28.6088 3.97C28.6555 3.92333 28.7122 3.9 28.7788 3.9H29.2488C29.3222 3.9 29.3788 3.92333 29.4188 3.97C29.4588 4.01 29.4788 4.06333 29.4788 4.13V10.77C29.4788 10.8367 29.4588 10.8933 29.4188 10.94C29.3788 10.98 29.3222 11 29.2488 11H28.7788ZM31.2105 11C31.1438 11 31.0871 10.98 31.0405 10.94C31.0005 10.8933 30.9805 10.8367 30.9805 10.77V4.13C30.9805 4.06333 31.0005 4.01 31.0405 3.97C31.0871 3.92333 31.1438 3.9 31.2105 3.9H31.6805C31.7538 3.9 31.8105 3.92333 31.8505 3.97C31.8905 4.01 31.9105 4.06333 31.9105 4.13V10.77C31.9105 10.8367 31.8905 10.8933 31.8505 10.94C31.8105 10.98 31.7538 11 31.6805 11H31.2105ZM36.1721 11.1C35.6121 11.1 35.1288 11 34.7221 10.8C34.3221 10.6 34.0121 10.2967 33.7921 9.89C33.5788 9.47667 33.4721 8.94667 33.4721 8.3V4.24C33.4721 4.16667 33.4921 4.11 33.5321 4.07C33.5721 4.02333 33.6288 4 33.7021 4H34.2121C34.2854 4 34.3421 4.02333 34.3821 4.07C34.4288 4.11 34.4521 4.16667 34.4521 4.24V8.32C34.4521 8.97333 34.6054 9.45667 34.9121 9.77C35.2188 10.0833 35.6388 10.24 36.1721 10.24C36.6988 10.24 37.1154 10.0833 37.4221 9.77C37.7354 9.45667 37.8921 8.97333 37.8921 8.32V4.24C37.8921 4.16667 37.9121 4.11 37.9521 4.07C37.9988 4.02333 38.0554 4 38.1221 4H38.6421C38.7088 4 38.7621 4.02333 38.8021 4.07C38.8488 4.11 38.8721 4.16667 38.8721 4.24V8.3C38.8721 8.94667 38.7621 9.47667 38.5421 9.89C38.3288 10.2967 38.0221 10.6 37.6221 10.8C37.2221 11 36.7388 11.1 36.1721 11.1ZM40.7738 11C40.7005 11 40.6438 10.98 40.6038 10.94C40.5638 10.8933 40.5438 10.8367 40.5438 10.77V4.24C40.5438 4.16667 40.5638 4.11 40.6038 4.07C40.6438 4.02333 40.7005 4 40.7738 4H43.3138C43.8072 4 44.2338 4.08 44.5938 4.24C44.9605 4.4 45.2438 4.64 45.4438 4.96C45.6438 5.27333 45.7438 5.66667 45.7438 6.14C45.7438 6.61333 45.6438 7.00667 45.4438 7.32C45.2438 7.63333 44.9605 7.87 44.5938 8.03C44.2338 8.19 43.8072 8.27 43.3138 8.27H41.5438V10.77C41.5438 10.8367 41.5205 10.8933 41.4738 10.94C41.4338 10.98 41.3772 11 41.3038 11H40.7738ZM41.5338 7.43H43.2638C43.7572 7.43 44.1272 7.32 44.3738 7.1C44.6205 6.88 44.7438 6.56 44.7438 6.14C44.7438 5.72667 44.6238 5.40667 44.3838 5.18C44.1438 4.95333 43.7705 4.84 43.2638 4.84H41.5338V7.43Z" fill="url(#paint0_linear_895_1462)"/>
<g clip-path="url(#clip0_895_1462)">
<mask id="mask0_895_1462" style="mask-type:luminance" maskUnits="userSpaceOnUse" x="0" y="1" width="11" height="12">
<path d="M11 1H0V13H11V1Z" fill="white"/>
</mask>
<g mask="url(#mask0_895_1462)">
<path d="M10.7727 6.9H5.54399L0.227324 1.1H5.45601L10.7727 6.9ZM5.45601 7.1L10.7727 12.9H5.54399L0.227324 7.1H5.45601Z" fill="url(#paint1_linear_895_1462)" stroke="#595959" stroke-width="0.2"/>
</g>
</g>
<path d="M51.14 10L53.42 7.04L53.41 7.53L51.24 4.7H52.31L53.97 6.88H53.56L55.22 4.7H56.27L54.07 7.55L54.08 7.04L56.38 10H55.29L53.54 7.68L53.93 7.74L52.21 10H51.14Z" fill="#212121"/>
<path fill-rule="evenodd" clip-rule="evenodd" d="M65.944 0.151251C65.0761 0.48555 64.4467 1.0707 64.0034 1.95548L63.7955 2.37041L63.472 2.47306C62.4747 2.78968 61.6919 3.50548 61.2783 4.47913C60.9508 5.24983 60.9083 6.28031 61.1723 7.04508C61.3021 7.42126 61.5687 7.91857 61.7876 8.19321C61.8784 8.30711 61.879 8.31998 61.8063 8.63289C61.7002 9.08952 61.7103 9.83022 61.8289 10.2974C62.0849 11.3061 62.806 12.1912 63.7493 12.6544C64.4044 12.9761 65.1285 13.106 65.7579 13.0146L66.0568 12.9712L66.3244 13.2079C66.6387 13.4859 67.0572 13.7489 67.4187 13.8954C67.6607 13.9935 67.7428 14 68.7395 14C69.7847 14 69.807 13.998 70.0924 13.8776C70.9758 13.5047 71.7348 12.7693 72.0517 11.9791C72.1774 11.6656 72.1946 11.6501 72.5284 11.5505C72.923 11.4328 73.3696 11.1882 73.7233 10.8959C74.2465 10.4637 74.6076 9.92691 74.8422 9.2329C75.0225 8.69936 75.0519 7.87849 74.9117 7.29089C74.7945 6.79983 74.5659 6.30317 74.3048 5.9723L74.1161 5.7332L74.1947 5.42348C74.3081 4.97685 74.2977 4.20259 74.1719 3.72528C73.9989 3.06848 73.7457 2.63079 73.2463 2.12497C72.7526 1.62484 72.3586 1.36751 71.8027 1.18196C71.3598 1.03414 70.7604 0.970082 70.302 1.02155L69.9529 1.0608L69.6928 0.836186C69.3513 0.541413 68.9988 0.322126 68.6009 0.156944C68.2831 0.0249926 68.2606 0.0224933 67.3071 0.0113392L66.3368 0L65.944 0.151251ZM67.9078 0.974571C68.2966 1.07274 68.9423 1.41347 68.8698 1.48234C68.849 1.50215 68.2081 1.87565 67.4457 2.31232C66.6833 2.74895 66.0024 3.16091 65.9325 3.2277L65.8054 3.34919L65.8008 5.01827C65.7983 5.93629 65.7827 6.85819 65.7662 7.06697L65.7361 7.44658L65.1945 7.13639L64.653 6.82621L64.6516 4.97306C64.6501 2.93922 64.662 2.82532 64.9308 2.28779C65.2417 1.66599 65.9618 1.11286 66.6371 0.977163C66.7769 0.949069 66.9328 0.916625 66.9837 0.905055C67.1132 0.875573 67.6865 0.918708 67.9078 0.974571ZM71.2996 2.06096C71.7411 2.16519 72.115 2.38642 72.5165 2.78084C72.9037 3.16124 73.1371 3.57523 73.2394 4.0631C73.2994 4.34968 73.3084 4.99805 73.2522 4.99805C73.2189 4.99805 71.5534 4.04662 70.5885 3.47633C70.411 3.3714 70.2144 3.2856 70.1516 3.2856C70.0889 3.2856 69.7559 3.44995 69.4116 3.65081C69.0674 3.85168 68.3179 4.28197 67.7461 4.60701C67.1743 4.93205 66.6591 5.22863 66.6012 5.26616L66.496 5.33434L66.5088 4.65038L66.5216 3.96641L67.6537 3.31799C69.4245 2.30362 69.7382 2.13668 70.0102 2.06383C70.3429 1.97474 70.9288 1.97339 71.2996 2.06096ZM63.6799 5.21914C63.6799 6.68778 63.6909 6.98325 63.7483 7.0654C63.7859 7.11918 64.1862 7.37239 64.6378 7.6281C65.4471 8.08639 67.0565 9.02421 67.1916 9.11627C67.2532 9.15825 67.2532 9.16885 67.1916 9.2118C66.9867 9.35467 66.1903 9.80953 66.1436 9.81041C66.1136 9.81097 65.8329 9.65967 65.5198 9.47417C65.2067 9.28867 64.514 8.88902 63.9803 8.58606C62.8578 7.94875 62.5527 7.68563 62.2708 7.11182C61.745 6.04144 61.9271 4.89054 62.7519 4.07138C63.0477 3.77758 63.4914 3.48012 63.6453 3.47244C63.6644 3.47151 63.6799 4.25753 63.6799 5.21914ZM70.2682 4.43252C70.4694 4.5542 71.1628 4.9551 71.8092 5.32346C73.0856 6.05084 73.3722 6.27531 73.6536 6.76803C73.9756 7.33166 74.1007 8.02497 73.9873 8.61646C73.9062 9.03921 73.6128 9.6189 73.3193 9.93616C73.087 10.1873 72.5578 10.552 72.4255 10.552C72.379 10.552 72.3667 10.1989 72.3667 8.86033C72.3667 7.46408 72.3548 7.14579 72.2989 7.03744C72.2522 6.94696 72.0617 6.80946 71.6867 6.59545C70.486 5.91042 68.7627 4.88938 68.7633 4.86351C68.7642 4.8287 69.785 4.22143 69.8524 4.2156C69.88 4.21319 70.0671 4.3108 70.2682 4.43252ZM69.0052 5.84576L69.5019 6.12771V7.015V7.90223L68.7604 8.32595C68.3526 8.55898 68.0043 8.74235 67.9864 8.73337C67.9686 8.72439 67.6265 8.53232 67.2263 8.30651L66.4985 7.89589L66.4986 7.01393L66.4987 6.13197L67.2495 5.70636L68.0002 5.28074L68.2543 5.42228C68.3941 5.50008 68.732 5.69067 69.0052 5.84576ZM70.9458 6.98528L71.3501 7.22317V9.07758C71.3501 10.6192 71.3378 10.98 71.277 11.2164C71.049 12.1019 70.2676 12.858 69.3585 13.0726C68.6334 13.2438 67.8177 13.0898 67.2228 12.6694L67.0923 12.5771L67.3152 12.4473C67.4378 12.3759 68.0995 11.9949 68.7857 11.6007C69.4888 11.1968 70.0736 10.8303 70.1257 10.7609C70.2143 10.6429 70.2186 10.5548 70.2315 8.60212L70.2449 6.56638L70.3932 6.65686C70.4748 6.70666 70.7235 6.85444 70.9458 6.98528ZM69.5009 9.40646L69.4998 10.066L68.6807 10.525C68.2302 10.7774 67.5809 11.1512 67.2378 11.3555C66.3008 11.9135 66.0749 11.9982 65.455 12.0233C64.618 12.0572 64.0841 11.8464 63.4828 11.2447C62.9435 10.705 62.7096 10.1363 62.7096 9.36453C62.7096 9.1034 62.7243 9.02051 62.7674 9.0375C62.7991 9.04999 63.3761 9.37786 64.0496 9.76608C64.723 10.1543 65.378 10.5312 65.5051 10.6037C65.6321 10.6761 65.7948 10.7358 65.8666 10.7362C65.9487 10.7368 66.2742 10.5754 66.7445 10.3011C68.1072 9.50638 69.4321 8.75115 69.4672 8.74902C69.4863 8.74786 69.5014 9.0437 69.5009 9.40646Z" fill="url(#paint2_linear_895_1462)"/>
<path d="M81.38 11.1C80.8133 11.1 80.3267 11.0033 79.92 10.81C79.5133 10.61 79.2 10.3067 78.98 9.9C78.76 9.48667 78.6367 8.97 78.61 8.35C78.6033 8.05667 78.6 7.77667 78.6 7.51C78.6 7.23667 78.6033 6.95333 78.61 6.66C78.6367 6.04667 78.7633 5.53667 78.99 5.13C79.2233 4.71667 79.5433 4.41 79.95 4.21C80.3633 4.00333 80.84 3.9 81.38 3.9C81.9267 3.9 82.4033 4.00333 82.81 4.21C83.2233 4.41 83.5467 4.71667 83.78 5.13C84.0133 5.53667 84.14 6.04667 84.16 6.66C84.1733 6.95333 84.18 7.23667 84.18 7.51C84.18 7.77667 84.1733 8.05667 84.16 8.35C84.14 8.97 84.0167 9.48667 83.79 9.9C83.57 10.3067 83.2567 10.61 82.85 10.81C82.4433 11.0033 81.9533 11.1 81.38 11.1ZM81.38 10.25C81.8933 10.25 82.31 10.0967 82.63 9.79C82.9567 9.48333 83.1333 8.98667 83.16 8.3C83.1733 8 83.18 7.73333 83.18 7.5C83.18 7.26 83.1733 6.99333 83.16 6.7C83.1467 6.24 83.06 5.86667 82.9 5.58C82.7467 5.29333 82.54 5.08333 82.28 4.95C82.02 4.81667 81.72 4.75 81.38 4.75C81.0533 4.75 80.76 4.81667 80.5 4.95C80.24 5.08333 80.03 5.29333 79.87 5.58C79.7167 5.86667 79.63 6.24 79.61 6.7C79.6033 6.99333 79.6 7.26 79.6 7.5C79.6 7.73333 79.6033 8 79.61 8.3C79.6367 8.98667 79.8133 9.48333 80.14 9.79C80.4667 10.0967 80.88 10.25 81.38 10.25ZM85.7476 12.9C85.6809 12.9 85.6242 12.8767 85.5776 12.83C85.5376 12.79 85.5176 12.7367 85.5176 12.67V6.03C85.5176 5.96333 85.5376 5.91 85.5776 5.87C85.6242 5.82333 85.6809 5.8 85.7476 5.8H86.2076C86.2742 5.8 86.3276 5.82333 86.3676 5.87C86.4142 5.91 86.4376 5.96333 86.4376 6.03V6.47C86.5976 6.25 86.8109 6.06667 87.0776 5.92C87.3442 5.77333 87.6776 5.7 88.0776 5.7C88.4509 5.7 88.7676 5.76333 89.0276 5.89C89.2942 6.01667 89.5109 6.19 89.6776 6.41C89.8509 6.63 89.9809 6.88 90.0676 7.16C90.1542 7.44 90.2009 7.74 90.2076 8.06C90.2142 8.16667 90.2176 8.28 90.2176 8.4C90.2176 8.52 90.2142 8.63333 90.2076 8.74C90.2009 9.05333 90.1542 9.35333 90.0676 9.64C89.9809 9.92 89.8509 10.17 89.6776 10.39C89.5109 10.6033 89.2942 10.7767 89.0276 10.91C88.7676 11.0367 88.4509 11.1 88.0776 11.1C87.6909 11.1 87.3642 11.03 87.0976 10.89C86.8376 10.7433 86.6242 10.5633 86.4576 10.35V12.67C86.4576 12.7367 86.4376 12.79 86.3976 12.83C86.3576 12.8767 86.3009 12.9 86.2276 12.9H85.7476ZM87.8676 10.29C88.2142 10.29 88.4842 10.2167 88.6776 10.07C88.8776 9.91667 89.0209 9.72 89.1076 9.48C89.1942 9.23333 89.2442 8.97 89.2576 8.69C89.2642 8.49667 89.2642 8.30333 89.2576 8.11C89.2442 7.83 89.1942 7.57 89.1076 7.33C89.0209 7.08333 88.8776 6.88667 88.6776 6.74C88.4842 6.58667 88.2142 6.51 87.8676 6.51C87.5409 6.51 87.2742 6.58667 87.0676 6.74C86.8676 6.89333 86.7176 7.09 86.6176 7.33C86.5242 7.56333 86.4709 7.80333 86.4576 8.05C86.4509 8.15667 86.4476 8.28333 86.4476 8.43C86.4476 8.57667 86.4509 8.70667 86.4576 8.82C86.4642 9.05333 86.5176 9.28333 86.6176 9.51C86.7242 9.73667 86.8809 9.92333 87.0876 10.07C87.2942 10.2167 87.5542 10.29 87.8676 10.29ZM93.5346 11.1C92.8479 11.1 92.3013 10.89 91.8946 10.47C91.4879 10.0433 91.2646 9.46333 91.2246 8.73C91.2179 8.64333 91.2146 8.53333 91.2146 8.4C91.2146 8.26 91.2179 8.14667 91.2246 8.06C91.2513 7.58667 91.3613 7.17333 91.5546 6.82C91.7479 6.46 92.0113 6.18333 92.3446 5.99C92.6846 5.79667 93.0813 5.7 93.5346 5.7C94.0413 5.7 94.4646 5.80667 94.8046 6.02C95.1513 6.23333 95.4146 6.53667 95.5946 6.93C95.7746 7.32333 95.8646 7.78333 95.8646 8.31V8.48C95.8646 8.55333 95.8413 8.61 95.7946 8.65C95.7546 8.69 95.7013 8.71 95.6346 8.71H92.1746C92.1746 8.71667 92.1746 8.73 92.1746 8.75C92.1746 8.77 92.1746 8.78667 92.1746 8.8C92.1879 9.07333 92.2479 9.33 92.3546 9.57C92.4613 9.80333 92.6146 9.99333 92.8146 10.14C93.0146 10.2867 93.2546 10.36 93.5346 10.36C93.7746 10.36 93.9746 10.3233 94.1346 10.25C94.2946 10.1767 94.4246 10.0967 94.5246 10.01C94.6246 9.91667 94.6913 9.84667 94.7246 9.8C94.7846 9.71333 94.8313 9.66333 94.8646 9.65C94.8979 9.63 94.9513 9.62 95.0246 9.62H95.5046C95.5713 9.62 95.6246 9.64 95.6646 9.68C95.7113 9.71333 95.7313 9.76333 95.7246 9.83C95.7179 9.93 95.6646 10.0533 95.5646 10.2C95.4646 10.34 95.3213 10.48 95.1346 10.62C94.9479 10.76 94.7213 10.8767 94.4546 10.97C94.1879 11.0567 93.8813 11.1 93.5346 11.1ZM92.1746 8.02H94.9146V7.99C94.9146 7.69 94.8579 7.42333 94.7446 7.19C94.6379 6.95667 94.4813 6.77333 94.2746 6.64C94.0679 6.5 93.8213 6.43 93.5346 6.43C93.2479 6.43 93.0013 6.5 92.7946 6.64C92.5946 6.77333 92.4413 6.95667 92.3346 7.19C92.2279 7.42333 92.1746 7.69 92.1746 7.99V8.02ZM97.2903 11C97.2236 11 97.167 10.98 97.1203 10.94C97.0803 10.8933 97.0603 10.8367 97.0603 10.77V6.03C97.0603 5.96333 97.0803 5.91 97.1203 5.87C97.167 5.82333 97.2236 5.8 97.2903 5.8H97.7603C97.827 5.8 97.8803 5.82333 97.9203 5.87C97.967 5.91 97.9903 5.96333 97.9903 6.03V6.47C98.1636 6.24333 98.3803 6.06 98.6403 5.92C98.907 5.77333 99.247 5.7 99.6603 5.7C100.094 5.7 100.46 5.79667 100.76 5.99C101.067 6.17667 101.297 6.44 101.45 6.78C101.604 7.11333 101.68 7.50333 101.68 7.95V10.77C101.68 10.8367 101.66 10.8933 101.62 10.94C101.58 10.98 101.527 11 101.46 11H100.96C100.894 11 100.837 10.98 100.79 10.94C100.75 10.8933 100.73 10.8367 100.73 10.77V8C100.73 7.53333 100.617 7.17 100.39 6.91C100.164 6.64333 99.8303 6.51 99.3903 6.51C98.977 6.51 98.6436 6.64333 98.3903 6.91C98.1436 7.17 98.0203 7.53333 98.0203 8V10.77C98.0203 10.8367 97.997 10.8933 97.9503 10.94C97.9103 10.98 97.857 11 97.7903 11H97.2903ZM102.785 11C102.731 11 102.685 10.98 102.645 10.94C102.605 10.9 102.585 10.8533 102.585 10.8C102.585 10.7667 102.588 10.73 102.595 10.69L105.075 4.22C105.101 4.15333 105.138 4.1 105.185 4.06C105.231 4.02 105.301 4 105.395 4H106.075C106.161 4 106.228 4.02 106.275 4.06C106.328 4.1 106.368 4.15333 106.395 4.22L108.865 10.69C108.878 10.73 108.885 10.7667 108.885 10.8C108.885 10.8533 108.865 10.9 108.825 10.94C108.785 10.98 108.738 11 108.685 11H108.175C108.095 11 108.035 10.98 107.995 10.94C107.961 10.9 107.938 10.8633 107.925 10.83L107.375 9.41H104.095L103.545 10.83C103.538 10.8633 103.515 10.9 103.475 10.94C103.435 10.98 103.375 11 103.295 11H102.785ZM104.385 8.55H107.085L105.735 5L104.385 8.55ZM110.184 11C110.111 11 110.054 10.98 110.014 10.94C109.974 10.8933 109.954 10.8367 109.954 10.77V4.23C109.954 4.16333 109.974 4.11 110.014 4.07C110.054 4.02333 110.111 4 110.184 4H110.714C110.781 4 110.834 4.02333 110.874 4.07C110.921 4.11 110.944 4.16333 110.944 4.23V10.77C110.944 10.8367 110.921 10.8933 110.874 10.94C110.834 10.98 110.781 11 110.714 11H110.184Z" fill="url(#paint3_linear_895_1462)"/>
<defs>
<linearGradient id="paint0_linear_895_1462" x1="24" y1="5" x2="74.5" y2="7" gradientUnits="userSpaceOnUse">
<stop/>
<stop offset="1" stop-color="#999999"/>
</linearGradient>
<linearGradient id="paint1_linear_895_1462" x1="1.1275" y1="1.96" x2="6.18005" y2="12.6795" gradientUnits="userSpaceOnUse">
<stop stop-color="#AAFFC2"/>
<stop offset="1" stop-color="#CAA0FF"/>
</linearGradient>
<linearGradient id="paint2_linear_895_1462" x1="68" y1="-1.32015e-08" x2="68" y2="67" gradientUnits="userSpaceOnUse">
<stop/>
<stop offset="1" stop-color="#F7F7F8" stop-opacity="0"/>
</linearGradient>
<linearGradient id="paint3_linear_895_1462" x1="84.8472" y1="2.00001" x2="176.493" y2="-0.263452" gradientUnits="userSpaceOnUse">
<stop/>
<stop offset="1" stop-color="white" stop-opacity="0"/>
</linearGradient>
<clipPath id="clip0_895_1462">
<rect width="11" height="12" fill="white" transform="translate(0 1)"/>
</clipPath>
</defs>
</svg>
