<svg width="44" height="44" viewBox="0 0 44 44" fill="none" xmlns="http://www.w3.org/2000/svg">
<path d="M40.3906 11.5156L40.4938 11.4468C40.2875 11.0687 39.9781 10.725 39.6688 10.5531L23.0656 0.996851C22.7906 0.824976 22.4125 0.756226 22 0.756226C21.5875 0.756226 21.2094 0.859351 20.9344 0.996851L4.43437 10.5875C3.85 10.9312 3.4375 11.7906 3.4375 12.4437V31.5906C3.4375 31.9687 3.50625 32.3812 3.74687 32.7594L3.67812 32.7937C3.85 33.0687 4.09063 33.3094 4.33125 33.4469L20.9 43.0375C21.175 43.2094 21.5531 43.2781 21.9656 43.2781C22.3781 43.2781 22.7563 43.175 23.0312 43.0375L39.5312 33.4469C40.1156 33.1031 40.5281 32.2437 40.5281 31.5906V12.4093C40.5625 12.1343 40.5281 11.825 40.3906 11.5156ZM28.1875 22.6875V21.3125H29.9062V19.5937H31.625V21.3125H33.3438V22.6875H31.625V24.4062H29.9062V22.6875H28.1875ZM29.3219 17.875C27.8781 15.2969 25.1281 13.5781 22 13.5781C17.3594 13.5781 13.5781 17.3594 13.5781 22C13.5781 26.6406 17.3594 30.4219 22 30.4219C25.1281 30.4219 27.8781 28.7031 29.3219 26.1594L33.7562 28.7719C31.4187 32.8281 27.0187 35.5781 22 35.5781C14.5063 35.5781 8.42188 29.4937 8.42188 22C8.42188 14.5062 14.5063 8.42185 22 8.42185C27.0531 8.42185 31.4531 11.2062 33.7906 15.2969L29.3219 17.875ZM39.5312 22.6875H37.8125V24.4062H36.4375V22.6875H34.375V21.3125H36.4375V19.5937H37.8125V21.3125H39.5312V22.6875Z" fill="#001434"/>
</svg>
