<svg width="144" height="148" viewBox="0 0 144 148" fill="none" xmlns="http://www.w3.org/2000/svg">
<path d="M54.0428 107.088C52.8377 105.28 51.1053 102.192 51.1053 102.192C49.674 102.114 48.167 102.042 46.7357 101.891C46.7357 101.891 45.079 103.699 43.4215 105.205C44.6274 106.411 46.9619 107.39 46.8871 107.992C46.8122 108.595 41.3881 115.073 39.5051 118.011L40.183 118.689C46.4362 114.697 51.1053 120.647 48.2427 125.393C48.1251 125.616 48.0702 125.867 48.0838 126.119C48.0974 126.371 48.179 126.615 48.3199 126.824C49.9184 129.252 50.6843 132.134 50.5024 135.035C52.1599 134.81 57.5832 128.03 57.8094 125.544C58.0356 122.983 51.7831 110.705 51.8588 109.425C51.9337 108.595 52.5366 108.143 54.0428 107.088Z" fill="#A259FF"/>
<path d="M138.183 112.436C136.15 111.533 132.986 121.778 131.781 120.874C130.576 119.97 133.362 106.486 131.479 105.732C129.596 104.979 128.993 113.039 127.864 112.588C126.734 112.136 127.637 99.9321 126.056 99.4056C124.474 98.8791 123.495 106.712 122.289 106.259C121.083 105.807 115.058 90.5924 113.25 91.7975C111.518 93.0026 116.866 107.013 116.188 107.917C115.586 108.821 111.668 104.979 110.538 106.712C109.409 108.444 117.393 114.697 117.242 116.053C117.092 117.41 110.237 112.513 109.258 114.245C108.278 115.977 116.565 123.21 116.037 125.093C115.51 126.976 109.367 122.391 108.806 124.189C108.238 126.007 119.05 140.987 129.596 138.048C140.214 135.261 140.214 113.342 138.183 112.436Z" fill="#A259FF"/>
<path d="M112.874 90.4408C113.853 90.1397 113.099 86.5993 111.894 83.285C110.689 79.9708 85.3795 9.61468 85.3795 9.61468C85.204 9.17627 84.9288 8.78476 84.5757 8.47119C84.2226 8.15762 83.8013 7.93062 83.3453 7.80819C82.8832 7.71281 82.4055 7.72429 81.9486 7.84177C81.4916 7.95925 81.0676 8.1796 80.7089 8.48601C77.319 11.7995 66.9239 21.7421 63.1573 25.2826L54.4197 15.5653C54.1304 15.219 53.7747 14.934 53.3737 14.727C52.9726 14.5201 52.5343 14.3954 52.0844 14.3602C51.6367 14.3547 51.1949 14.4622 50.7999 14.6729C50.4049 14.8835 50.0695 15.1905 49.8247 15.5653C47.3388 18.4279 40.5606 26.2622 38.1489 29.0492C36.2659 28.2957 32.6499 26.8652 30.2397 25.9612C27.5284 24.9066 26.5487 24.8309 23.3093 27.919C19.694 31.3845 17.5093 33.3431 15.2496 35.5271C12.9899 37.7111 15.4758 40.1229 17.2838 38.3897C20.4491 35.3789 24.892 31.5351 27.2265 29.2028C27.3248 29.1087 27.4477 29.0442 27.581 29.0169C27.7143 28.9896 27.8526 29.0005 27.98 29.0484L36.4914 32.3626C37.3954 32.7394 38.5256 33.1161 39.354 32.7394C40.0212 32.3806 40.5903 31.8637 41.0115 31.234C43.1962 28.823 49.8247 21.2149 52.16 18.5785L60.8976 28.2208C61.4678 28.834 62.2476 29.2104 63.0824 29.2754C63.9255 29.2847 64.738 28.9596 65.342 28.3714L82.3664 12.1005C82.3664 12.1005 107.826 81.7032 108.806 84.3396C109.936 87.4276 111.894 90.8175 112.874 90.4408Z" fill="#A259FF"/>
<path d="M40.2579 81.9288C52.2356 82.0832 52.9126 64.5285 40.7103 64.0769C26.097 63.5473 26.4729 81.779 40.2579 81.9288ZM39.8063 65.8849C43.874 65.6587 46.3598 67.8427 47.2639 70.4791C43.3467 72.6639 38.2244 75.9032 34.4578 78.3135C29.2607 74.5468 31.2185 65.8849 39.8063 65.8849Z" fill="#001434"/>
<path d="M143.833 20.6885C143.607 6.90358 139.539 1.70565 128.315 0.952176C122.666 0.651093 34.684 1.17837 26.097 1.25403C15.4 1.40843 8.9978 7.58449 8.92214 17.8259C8.92214 23.3998 8.47051 42.006 8.62105 48.3334C8.77546 54.5866 10.2778 56.3182 10.4283 53.0789C10.7302 45.6213 10.7302 23.3249 10.7302 17.8259C10.8846 4.79446 21.5769 3.21184 26.1703 3.13696C34.7574 2.98256 122.589 2.45913 128.239 2.83587C138.408 3.5137 141.798 7.88249 142.024 20.6885C142.476 50.2163 141.722 93.2287 140.818 95.6389C140.366 96.844 138.257 98.5015 133.889 98.7269C132.758 98.8041 132.984 100.234 135.395 100.083C139.388 99.7815 141.571 98.6513 142.476 96.3167C143.607 93.5298 144.285 47.505 143.833 20.6885Z" fill="#001434"/>
<path d="M61.8015 62.1934C63.2266 62.4558 65.4924 62.5701 67.6772 63.0225C69.4096 63.3985 69.4096 62.1185 68.7318 61.6661C67.2256 60.6115 62.856 60.0842 61.8771 60.3861C60.3702 60.691 60.3632 61.9262 61.8015 62.1934Z" fill="#001434"/>
<path d="M127.336 121.249C122.365 120.647 117.841 126.372 120.481 131.193C121.03 132.323 121.887 133.277 122.953 133.943C124.019 134.609 125.251 134.961 126.508 134.959C134.793 135.112 135.848 122.304 127.336 121.249ZM122.138 130.289C119.201 124.865 128.165 119.517 131.027 126.07C131.304 126.654 131.463 127.286 131.496 127.932C131.529 128.577 131.434 129.222 131.217 129.831C131 130.439 130.665 130.999 130.232 131.478C129.799 131.958 129.276 132.347 128.692 132.624C128.108 132.901 127.476 133.06 126.831 133.093C126.185 133.125 125.54 133.03 124.931 132.813C124.323 132.597 123.763 132.262 123.284 131.829C122.805 131.396 122.415 130.872 122.138 130.289Z" fill="#001434"/>
<path d="M44.778 93.4535C46.661 94.6586 53.064 94.0564 53.7418 93.0018C54.344 90.516 51.4814 92.324 53.7418 86.903C54.1185 85.9241 56.152 86.0746 55.3993 84.8695C54.9469 84.1917 50.7287 83.5139 48.3933 84.7923C46.1337 86.0715 42.5933 92.0222 44.778 93.4535Z" fill="#001434"/>
<path d="M113.928 65.6585C118.297 65.5813 126.512 65.5813 128.842 65.5813C131.173 65.5813 133.513 64.5268 131.102 64.3762C126.658 64.2257 118.596 64.299 114.003 64.3762C113.852 58.2774 113.25 37.7103 113.099 34.9234C118.372 35.0778 121.159 35.0778 127.035 35.3001C132.911 35.5224 132.91 33.9445 129.822 33.8688C126.734 33.7932 114.228 33.4921 113.024 33.4921C112.798 24.8294 112.647 16.4678 112.572 13.6059C112.572 11.4212 111.518 12.4757 111.442 14.7354C111.292 18.4263 111.292 26.788 111.597 33.418C105.193 33.4952 103.461 33.4952 100.222 33.5724C99.0923 33.5724 99.9207 34.7018 101.578 34.7775C105.043 34.9319 106.098 34.7003 111.671 34.9319C111.826 38.3966 111.898 41.5603 111.898 43.7451C112.124 50.9765 112.35 58.3584 112.501 64.3847C111.446 64.3847 110.391 64.3847 109.186 64.4619C107.981 64.5391 108.508 65.9681 112.501 65.7419C112.578 70.0358 112.501 72.446 112.501 75.6853C112.578 78.9278 114.007 77.945 113.932 73.1995C113.857 68.454 114.003 69.9547 113.928 65.6585Z" fill="#001434"/>
<path d="M53.5174 74.5466C54.6476 75.0738 55.6265 75.2244 55.8527 76.1284C56.0789 77.1081 53.593 80.1212 55.5508 80.3474C56.8316 80.4972 57.9618 77.105 57.6607 75.6019C57.4345 74.2455 55.6991 73.1415 54.3457 72.9647C52.8334 72.7679 52.3848 74.0949 53.5174 74.5466Z" fill="#001434"/>
<path d="M37.5465 61.214C40.1829 60.3099 45.4557 60.9129 46.4346 60.8372C47.4136 60.7616 47.8659 58.4262 45.5306 58.2765C43.1953 58.1267 37.0192 58.4262 35.9647 60.0837C35.4374 60.9129 36.0396 61.7412 37.5465 61.214Z" fill="#001434"/>
<path d="M63.3084 22.119C59.8498 21.8102 57.2095 25.8856 59.0145 29.0493C59.3726 29.8236 59.9473 30.4776 60.6692 30.9322C61.3911 31.3867 62.2292 31.6225 63.0822 31.6108C69.259 31.6857 69.2737 22.6532 63.3084 22.119ZM60.3701 28.3722C60.1491 27.9962 60.0091 27.5781 59.959 27.1448C59.909 26.7115 59.95 26.2725 60.0795 25.856C60.209 25.4395 60.4241 25.0546 60.711 24.726C60.9978 24.3975 61.3502 24.1325 61.7455 23.948C62.1407 23.7636 62.5702 23.6637 63.0063 23.6549C63.4424 23.6461 63.8755 23.7285 64.2779 23.8968C64.6803 24.0651 65.0431 24.3156 65.3431 24.6323C65.643 24.949 65.8735 25.3249 66.0197 25.7358C67.8277 29.5017 62.1782 32.0624 60.3701 28.3715V28.3722Z" fill="#001434"/>
<path d="M81.6875 65.0558C82.3661 65.5074 83.948 65.7336 88.1662 65.7336C98.034 65.7336 98.7119 64.3023 95.6987 64.1518C91.4805 63.9974 85.4542 64.0746 83.7218 64.1518C81.9894 64.229 81.0097 64.6034 81.6875 65.0558Z" fill="#001434"/>
<path d="M41.6892 39.143C41.6892 40.9511 41.5348 43.8886 42.5184 43.8129C43.5019 43.7372 43.2317 40.6477 43.1962 39.143C43.1584 37.5596 43.2734 35.4521 42.5184 35.8288C41.7633 36.2055 41.6892 37.335 41.6892 39.143Z" fill="#001434"/>
<path d="M40.6347 28.7481C40.2576 28.4421 39.812 28.2319 39.336 28.1354C38.86 28.039 38.3677 28.0591 37.9012 28.194C37.4347 28.329 37.0077 28.5748 36.6567 28.9105C36.3058 29.2462 36.0412 29.6619 35.8857 30.1219C35.7301 30.582 35.6882 31.0729 35.7634 31.5527C35.8386 32.0325 36.0288 32.487 36.3178 32.8774C36.6067 33.2678 36.9858 33.5825 37.4226 33.7946C37.8595 34.0068 38.3412 34.1101 38.8267 34.0958C41.3882 34.3976 42.8944 30.3299 40.6347 28.7481ZM40.258 31.3845C39.882 33.3431 37.0928 32.8158 37.2472 30.9321C37.2487 30.7483 37.2874 30.5667 37.3607 30.3982C37.4341 30.2297 37.5407 30.0777 37.6742 29.9514C37.8077 29.825 37.9653 29.7269 38.1376 29.6629C38.3099 29.5989 38.4933 29.5703 38.6769 29.5788C39.5802 29.656 40.4093 30.1037 40.258 31.3845Z" fill="#001434"/>
<path d="M41.2376 8.48508C41.1604 11.4959 41.1604 18.9558 41.1604 21.8176C41.1604 24.6795 42.5168 23.7013 42.5917 20.3107C42.6666 16.92 42.8179 13.3812 42.7461 10.0669C42.6743 6.7527 41.3133 5.47194 41.2376 8.48508Z" fill="#001434"/>
<path d="M67.5265 35.0754C69.7862 35.1526 73.7025 35.1526 77.0932 35.3016C77.016 56.3928 76.4903 57.7492 77.8459 56.6939C78.5994 56.0917 78.4488 55.9412 78.675 43.7381C78.7522 41.1765 78.675 37.938 78.5978 35.3016C83.2685 35.0754 87.4111 35.7532 86.206 34.3219C85.9798 34.0208 85.5282 33.6441 84.1725 33.6441C82.1383 33.6441 80.3302 33.7985 78.5222 33.7213C78.445 29.503 78.5222 24.4572 78.445 21.2147C78.445 20.0853 77.0893 20.5369 77.1642 23.5501C77.2414 25.8854 76.8631 29.8033 77.0098 33.6441C73.6956 33.6441 71.4352 33.6441 69.1755 33.7213C66.0195 33.7946 65.3417 34.9997 67.5265 35.0754Z" fill="#001434"/>
<path d="M26.5486 22.044C19.5434 22.7218 20.527 32.6136 27.1516 32.7402C35.067 32.8907 34.2324 21.0643 26.5486 22.044ZM26.6258 23.4753C32.0677 22.7805 33.174 30.9105 27.4542 31.234C22.3242 31.5235 21.441 24.1331 26.6243 23.4753H26.6258Z" fill="#001434"/>
<path d="M53.4407 10.5189C44.9548 8.61048 43.1861 21.7423 52.3105 21.7423C58.7884 21.6674 60.2575 12.0544 53.4407 10.5189ZM51.4065 20.1605C45.1532 18.9554 47.3148 10.6957 52.9883 11.8745C58.5429 13.0295 56.9055 21.0645 51.4065 20.1605Z" fill="#001434"/>
<path d="M85.2279 4.79731C76.566 1.25688 74.3056 15.0411 83.1945 15.1924C88.6935 15.1136 91.1037 7.12877 85.2279 4.79731ZM81.6126 13.3843C80.7223 13.1097 79.9586 12.5276 79.4577 11.7419C78.9568 10.9563 78.7514 10.0182 78.8781 9.09512C79.0048 8.17204 79.4554 7.32402 80.1494 6.70239C80.8434 6.08075 81.7358 5.72596 82.6672 5.70133C89.2208 5.47204 87.957 15.7305 81.6126 13.3813V13.3843Z" fill="#001434"/>
<path d="M47.565 33.192C45.7569 33.192 45.5307 34.699 48.6195 34.699C51.7083 34.699 54.8728 34.6218 57.3571 34.699C59.8414 34.7762 59.6924 33.192 56.0771 33.1172C53.3635 33.0423 49.373 33.192 47.565 33.192Z" fill="#001434"/>
<path d="M90.3507 95.7134C86.8852 90.3657 80.1811 94.1316 80.855 99.5549C78.5954 100.308 77.3903 100.76 76.4106 100.308C75.8833 100.007 73.1682 94.5832 71.9661 93.3032C74.9631 89.367 76.5546 84.54 76.4862 79.5932C76.5141 78.361 76.4625 77.1284 76.3318 75.903C76.2507 74.7434 76.125 73.5873 75.9551 72.4374C79.1203 61.8169 72.339 52.8524 66.464 49.7643C66.464 46.5219 63.4532 42.6078 60.288 41.8551C59.6786 41.7158 59.04 41.7892 58.4782 42.0633C57.9164 42.3373 57.4653 42.7953 57.2 43.3613C54.7897 48.4079 52.5301 47.8058 47.3322 46.3721C34.7484 43.0579 15.0924 44.6398 10.6479 62.1157C9.74389 65.8066 6.8064 64.2997 5.67619 69.3471C4.47108 74.4693 7.63477 80.7211 11.775 83.2069C12.3297 84.3037 12.9588 85.3613 13.658 86.3721C8.99455 90.3313 5.22373 95.2343 2.59433 100.758C0.952891 104.292 0.236891 108.186 0.513596 112.073C0.7903 115.96 2.05063 119.714 4.17617 122.98C11.1065 133.526 25.2674 147.761 35.2881 147.537C41.8416 147.46 46.6628 141.812 47.7174 138.497C57.9619 139.175 66.7752 137.217 67.0762 129.608C70.0871 131.718 76.4947 133.224 77.547 132.923C80.8425 132.84 84.0606 131.906 86.8883 130.211C109.26 117.859 109.034 109.195 105.416 101.662C102.252 95.0356 97.0587 93.0021 90.3507 95.7134ZM10.5792 79.895C8.24388 77.1829 6.66204 73.3414 7.49117 70.0272C8.54574 65.2817 11.4083 67.0936 12.4629 62.7958C16.2288 47.3557 35.2116 44.9431 47.038 48.333C52.8381 50.0654 56.7553 49.9898 58.8644 44.8683C60.0224 41.9802 65.1385 46.3042 64.6645 50.216C64.6344 50.4143 64.6696 50.6171 64.7647 50.7938C64.8598 50.9704 65.0097 51.1115 65.1918 51.1956C69.9913 53.2584 75.5869 59.9332 74.9839 68.2192C74.3765 66.1351 73.6213 64.097 72.7242 62.1203C70.0786 56.5217 63.3351 53.3519 61.3495 55.3382C59.1647 57.2968 54.0424 56.0917 49.598 54.3593C44.099 52.3251 38.9775 49.613 33.5534 51.3493C31.3694 52.0271 29.1846 53.0068 27.2229 57.8272C25.6411 61.82 27.1457 68.9757 23.3814 70.1021C20.0672 70.4781 16.9035 68.2184 14.0401 69.8002C10.353 71.9101 9.59953 75.903 10.5792 79.895ZM74.0791 72.6636C70.69 74.6979 66.6972 77.4091 63.7597 79.4434C59.9931 75.6768 60.0687 68.2948 69.112 67.4657C70.4728 67.394 71.8203 67.7642 72.9535 68.521C73.3985 69.882 73.7742 71.2646 74.0791 72.6636ZM12.4621 75.3757C12.9138 72.7393 15.0985 70.9312 17.2833 71.3829C25.0412 73.1152 27.6027 72.8983 27.8289 64.0766C28.0798 54.2868 34.3825 49.9898 43.4235 53.7564C50.8062 56.8444 55.3255 57.8997 58.1125 57.9746C59.6806 58.1376 61.25 57.6776 62.482 56.6939C65.1933 56.3928 68.9599 58.8787 70.9934 63.0243C71.4605 64.0533 71.863 65.1105 72.1985 66.1896C67.1519 64.231 62.3307 66.344 60.5983 69.9554C57.9619 75.3039 59.5438 83.2131 68.9599 83.2888C70.953 83.3779 72.9253 82.8521 74.6095 81.7826C73.9317 89.3143 69.864 95.4162 61.7278 98.2788C56.2295 100.237 46.7377 101.819 33.2546 97.3748C21.6521 93.5294 11.8592 85.2404 12.4621 75.3757ZM14.8723 88.1053C20.3713 94.8094 31.7453 100.234 42.6646 101.815C42.1381 102.343 39.1998 105.883 38.1453 105.958C37.0907 106.033 36.1867 104.753 35.0572 104.226C34.3794 103.925 34.1532 104.979 34.6048 105.506C35.5089 106.561 37.0158 107.841 38.2209 107.841C38.522 107.841 39.1998 107.69 41.309 105.807C42.0617 106.41 43.1919 106.862 43.7192 107.389C42.89 109.122 38.7474 113.189 37.2412 115.901C34.5292 113.34 31.9677 109.951 31.8171 109.424C31.7399 108.896 32.1182 106.636 31.6627 105.431C31.6141 105.298 31.522 105.186 31.4013 105.113C31.2806 105.039 31.1386 105.009 30.9986 105.027C30.8585 105.045 30.7287 105.11 30.6304 105.211C30.5321 105.313 30.4712 105.445 30.4576 105.585C30.1093 106.937 29.9569 108.332 30.0052 109.728C30.1264 111.537 37.1617 118.465 37.2374 118.541C30.6082 122.458 23.4524 130.668 21.2676 139.256C-0.569352 120.421 -4.93891 107.011 14.8723 88.1053ZM46.6605 136.993C43.3463 135.11 41.3877 132.624 41.0866 133.982C40.7848 135.413 42.9695 136.92 45.907 138.652C45.0245 140.22 43.9068 141.642 42.5928 142.871C39.2786 140.912 36.8684 137.673 36.6422 139.406C36.3411 141.289 39.0524 142.494 41.0866 144.151C36.3411 147.541 30.314 146.335 22.7823 140.611C24.3634 133.003 30.4653 125.395 36.416 121.251C37.4705 120.499 40.5586 118.241 43.1957 118.464C47.1878 118.841 45.2084 123.88 44.8525 124.795C44.6816 125.179 44.6065 125.6 44.6333 126.019C44.6602 126.439 44.7884 126.846 45.0069 127.206C46.8174 130.126 47.4111 133.64 46.6605 136.993ZM46.5061 125.995C47.0334 124.564 48.6152 121.099 46.8072 118.387C44.4719 114.847 38.8223 117.181 38.7474 117.107C39.9525 115.224 46.0545 107.992 45.8283 107.389C46.0545 106.259 43.8697 105.356 42.8175 104.527C43.4196 103.925 45.0771 102.191 45.1528 102.191C45.9055 102.269 49.6721 102.346 49.747 102.346C50.0488 102.873 50.651 103.777 51.2539 104.831C44.6463 108.678 48.0362 106.109 53.8904 124.642C53.966 124.939 53.966 125.25 53.8904 125.546C52.8683 128.281 51.2468 130.752 49.1448 132.778C48.9958 132.097 48.9958 128.255 46.51 125.995H46.5061ZM86.1278 128.782C79.4994 132.398 74.2266 132.097 67.3719 127.577C67.8984 121.099 68.7276 111.834 66.3174 104.678C65.7144 102.946 64.2831 103.095 64.6599 104.226C65.7144 108.745 66.3922 111.909 65.9406 124.262C65.7862 129.083 65.5639 132.022 63.1529 133.98C60.0649 136.465 53.1346 137.222 48.389 136.692C48.5396 136.089 48.6152 135.562 48.7658 134.959C51.2516 133.905 55.1688 127.878 56.0728 125.392C56.5244 124.112 50.8 111.608 49.3687 107.917C49.8203 107.314 51.176 106.862 52.2313 106.259C54.1142 109.047 54.5659 109.047 55.2421 109.122C57.3513 109.199 59.9877 105.506 59.1593 105.13C59.0728 105.045 58.9697 104.98 58.8564 104.938C58.7432 104.896 58.6224 104.878 58.5018 104.885C58.3813 104.892 58.2635 104.925 58.1562 104.98C58.0488 105.035 57.9543 105.113 57.8785 105.207C56.9745 106.186 55.7694 107.392 55.3935 107.241C54.8662 107.164 52.2282 102.722 51.853 102.119C60.6663 101.591 66.8431 98.8046 70.7595 94.7368C72.4926 97.2227 74.0019 101.29 75.7312 102.496C76.5603 102.948 79.0454 102.496 80.8535 101.591C82.3604 109.576 87.4071 119.745 94.1868 123.738C91.5929 125.561 88.9041 127.244 86.1317 128.782L86.1278 128.782ZM95.7694 122.684C90.3469 119.673 83.1904 109.2 82.5125 99.6337C82.2863 96.2438 86.053 92.7034 88.9156 96.8467C89.1821 97.2175 89.5813 97.4713 90.0302 97.5554C90.479 97.6395 90.943 97.5475 91.3258 97.2984C95.3178 95.7165 98.4815 96.0933 100.967 98.4286C99.8472 99.163 98.6621 99.7933 97.4269 100.312C96.2218 100.839 96.5237 102.421 97.6531 101.969C99.2005 101.357 100.71 100.653 102.172 99.8599C103.455 101.298 104.361 103.032 104.809 104.907C102.022 106.639 100.764 107.009 101.118 108.221C101.36 109.045 102.248 108.597 105.337 106.865C106.168 111.156 104.587 116.203 95.7733 122.683L95.7694 122.684Z" fill="#001434"/>
</svg>
