<svg width="51" height="51" viewBox="0 0 51 51" fill="none" xmlns="http://www.w3.org/2000/svg">
<path d="M6.01282 16.5909H8.80188V29.5015C7.37149 29.7732 6.32081 29.882 5.18009 29.882C1.77504 29.882 0 28.3425 0 25.39C0 22.5468 1.88381 20.6996 4.79958 20.6996C5.2522 20.6996 5.59645 20.7355 6.01282 20.8443V16.5909ZM6.01282 23.0895C5.6869 22.9811 5.41516 22.9448 5.07131 22.9448C3.65845 22.9448 2.84365 23.8142 2.84365 25.3355C2.84365 26.8204 3.6222 27.6356 5.05298 27.6356C5.36098 27.6356 5.61478 27.6173 6.01322 27.5631L6.01282 23.0895Z" fill="#001434"/>
<path d="M13.2388 20.8981V27.3639C13.2388 29.5912 13.0758 30.6598 12.5869 31.5834C12.1339 32.4715 11.5363 33.0325 10.3047 33.6485L7.71484 32.4169C8.94641 31.8372 9.54367 31.3304 9.92418 30.5514C10.3226 29.7545 10.4501 28.831 10.4501 26.4037V20.8981H13.2388ZM10.4497 16.6057H13.2388V19.4673H10.4497V16.6057ZM14.9238 21.532C16.1549 20.9527 17.3323 20.6993 18.6185 20.6993C20.0489 20.6993 20.9908 21.0794 21.4075 21.8221C21.6426 22.2384 21.7151 22.7819 21.7151 23.9409V29.6095C20.4656 29.7908 18.8902 29.9175 17.7308 29.9175C15.3947 29.9175 14.344 29.1023 14.344 27.2914C14.344 25.3351 15.7386 24.4298 19.1616 24.1398V23.5242C19.1616 23.017 18.9081 22.8361 18.2017 22.8361C17.1698 22.8361 16.0103 23.1257 14.9234 23.6875V21.532H14.9238ZM19.2883 25.9694C17.4411 26.1503 16.8434 26.4403 16.8434 27.1647C16.8434 27.7078 17.1877 27.9616 17.9483 27.9616C18.3647 27.9616 18.7452 27.9257 19.2883 27.8349V25.9694ZM23.0742 21.3328C24.7221 20.8985 26.0804 20.6993 27.457 20.6993C28.8878 20.6993 29.9202 21.0248 30.5361 21.6591C31.1159 22.2568 31.2968 22.9082 31.2968 24.3031V29.7725H28.5077V24.4123C28.5077 23.3437 28.1451 22.9453 27.149 22.9453C26.7689 22.9453 26.4251 22.9811 25.8633 23.1445V29.7729H23.0742V21.3328ZM32.3805 31.2937C33.3587 31.8009 34.3364 32.0364 35.3688 32.0364C37.1976 32.0364 37.9766 31.2937 37.9766 29.5187V29.4645C37.4335 29.7362 36.89 29.845 36.1657 29.845C33.7205 29.845 32.163 28.2329 32.163 25.6793C32.163 22.5098 34.4631 20.7168 38.538 20.7168C39.7333 20.7168 40.8381 20.8435 42.1785 21.1152L41.2234 23.1273C40.4807 22.9823 41.1637 23.1074 40.6027 23.0532V23.3433L40.6385 24.5203L40.6569 26.0415C40.6752 26.422 40.6752 26.8025 40.6931 27.1826V27.9437C40.6931 30.3343 40.4939 31.4567 39.8962 32.3803C39.0269 33.7389 37.5239 34.4091 35.3867 34.4091C34.2998 34.4091 33.3587 34.2457 32.3801 33.8656V31.2933L32.3805 31.2937ZM37.9228 22.9624H37.6327C37.0896 22.9445 36.4557 23.0891 36.0206 23.3608C35.3509 23.7413 35.0066 24.4294 35.0066 25.4076C35.0066 26.8021 35.6947 27.599 36.9263 27.599C37.3068 27.599 37.6148 27.5265 37.9766 27.4181V26.4579C37.9766 26.1324 37.9586 25.7698 37.9586 25.3897L37.9407 24.1039L37.9224 23.1799V22.9628L37.9228 22.9624ZM46.5083 20.663C49.2974 20.663 50.9999 22.4197 50.9999 25.263C50.9999 28.1791 49.2253 30.0084 46.3995 30.0084C43.6105 30.0084 41.89 28.2512 41.89 25.4263C41.89 22.4918 43.6651 20.6626 46.5083 20.6626V20.663ZM46.4537 27.7624C47.5223 27.7624 48.1566 26.8746 48.1566 25.3355C48.1566 23.8142 47.5407 22.9086 46.4725 22.9086C45.3672 22.9086 44.7333 23.7963 44.7333 25.3351C44.7333 26.875 45.3672 27.7624 46.4537 27.7624Z" fill="#001434"/>
</svg>
