<svg width="51" height="51" viewBox="0 0 51 51" fill="none" xmlns="http://www.w3.org/2000/svg">
<path fill-rule="evenodd" clip-rule="evenodd" d="M7.9687 38.6085V35.3812C7.9687 34.9429 8.24761 34.6242 8.68589 34.6242H8.80542C9.2437 34.6242 9.52261 34.9828 9.52261 35.3812V42.1546C9.52261 43.7882 8.72573 45.1031 7.29136 45.9398C6.61401 46.3382 5.89683 46.5375 5.13979 46.5375H4.82104C3.18745 46.5375 1.87261 45.7406 1.03589 44.3062C0.637451 43.6289 0.438232 42.9117 0.438232 42.1546V41.8359C0.438232 40.2023 1.23511 38.8875 2.66948 38.0507C3.34683 37.6523 4.06401 37.4531 4.82104 37.4531H5.13979C6.21558 37.4929 7.17183 37.8914 7.9687 38.6085ZM1.95229 41.9953C1.95229 43.1906 2.54995 44.0671 3.58589 44.6648C4.02417 44.9039 4.46245 45.0234 4.94058 45.0234C6.09604 45.0234 6.97261 44.4656 7.57026 43.4695C7.84917 42.9914 7.9687 42.5132 7.9687 41.9554C7.9687 40.9195 7.49058 40.1226 6.65386 39.525C6.13589 39.1664 5.57808 38.9671 4.98042 38.9671C3.70542 38.9671 2.78901 39.6046 2.2312 40.7601C2.03198 41.1585 1.95229 41.5968 1.95229 41.9953ZM14.782 37.4929H14.9812C16.7343 37.4929 18.089 38.3296 18.9257 39.8835C19.2843 40.4812 19.4437 41.1585 19.4437 41.8757V42.1945C19.4437 43.8281 18.6468 45.1429 17.2125 45.9796C16.5351 46.3781 15.8179 46.5773 15.0609 46.5773H14.7421C13.1085 46.5773 11.7937 45.7804 10.957 44.346C10.5585 43.6687 10.3593 42.9515 10.3593 42.1945V41.8757C10.3593 40.2421 11.196 38.9273 12.5906 38.0906C13.2679 37.6523 14.025 37.4929 14.782 37.4929ZM11.9132 41.9953C11.9132 43.1507 12.471 43.9875 13.4671 44.5851C13.9453 44.864 14.4234 44.9835 14.9812 44.9835C16.1367 44.9835 16.9734 44.3859 17.571 43.4296C17.85 42.9515 17.9695 42.4734 17.9695 41.9156C17.9695 40.8398 17.4515 40.0031 16.575 39.4054C16.0968 39.0867 15.539 38.9273 14.9812 38.9273C13.7062 38.9273 12.7898 39.5648 12.232 40.7203C11.9929 41.1585 11.9132 41.5968 11.9132 41.9953ZM25.7789 39.1265C25.5398 39.007 25.1015 38.9671 24.8625 38.9671C23.5875 38.9273 22.671 39.6445 22.1132 40.7601C21.914 41.1585 21.8343 41.557 21.8343 41.9953C21.8343 43.3101 22.5117 44.2265 23.6671 44.7843C24.1054 44.9835 24.6234 45.0234 25.1015 45.0234C25.5 45.0234 26.0976 44.7843 26.4562 44.5851L26.5359 44.5453H26.8546C27.2132 44.625 27.4523 44.8242 27.4523 45.2226V45.382C27.4523 46.2984 25.739 46.5375 25.1015 46.5773C22.8304 46.7367 21.1171 45.5015 20.4796 43.3101C20.3601 42.9515 20.3203 42.5531 20.3203 42.1546V41.8359C20.3203 40.2023 21.157 38.8875 22.5515 38.0507C23.2289 37.6523 23.946 37.4531 24.7031 37.4531H25.0218C25.8187 37.4531 26.5757 37.6921 27.2531 38.1304L27.2929 38.1703L27.3328 38.2101C27.4125 38.3296 27.4523 38.4492 27.4523 38.6085V38.7679C27.4523 39.1664 27.1734 39.3656 26.8148 39.4453H26.6953C26.496 39.4453 25.9781 39.2062 25.7789 39.1265ZM30.7195 40.1625C31.3171 39.5648 31.9148 38.9671 32.5125 38.4093C32.6718 38.25 33.3093 37.5726 33.5484 37.5726H33.8671C34.2257 37.6523 34.4648 37.8515 34.4648 38.25V38.4093C34.4648 38.6484 34.1859 38.9671 33.9867 39.1265L32.9109 40.2023L31.0781 42.075C31.875 42.8718 32.6718 43.6687 33.4289 44.4656L34.0664 45.1429C34.146 45.2226 34.2656 45.3023 34.3054 45.4218C34.3851 45.5414 34.425 45.6609 34.425 45.7804V45.9796C34.3453 46.3382 34.1062 46.6171 33.7476 46.6171H33.6281C33.389 46.6171 33.1101 46.3382 32.9109 46.1789C32.5523 45.8601 32.1937 45.5015 31.875 45.1429L30.7195 43.9875V45.8203C30.7195 46.2585 30.4406 46.5773 30.0023 46.5773H29.8828C29.4445 46.5773 29.1656 46.2187 29.1656 45.8203V35.421C29.1656 34.9828 29.4445 34.664 29.8828 34.664H30.0023C30.4406 34.664 30.7195 34.9828 30.7195 35.421V40.1625ZM49.6851 37.5328H49.8445C50.2828 37.5328 50.6015 37.8515 50.6015 38.2898C50.6015 38.9273 50.0039 39.0867 49.4859 39.0867C48.8085 39.0867 48.1312 39.4851 47.6929 39.9632C47.0953 40.5609 46.8562 41.2781 46.8562 42.1148V45.7804C46.8562 46.2187 46.5773 46.5375 46.139 46.5375H46.0195C45.5812 46.5375 45.3023 46.1789 45.3023 45.7804V41.8757C45.3023 40.3617 46.0195 39.1664 47.2546 38.2898C47.9718 37.8117 48.8085 37.5328 49.6851 37.5328ZM38.8875 44.8242C39.4453 45.0234 40.0828 44.9835 40.6406 44.9039C40.9195 44.7843 41.6765 44.4656 41.9554 44.5054H42.0351C42.1945 44.5851 42.3539 44.7046 42.4335 44.864C42.6328 45.2625 42.5531 45.6609 42.1546 45.9L42.0351 45.9796C40.6007 46.8164 39.0468 46.6968 37.6125 45.9C36.9351 45.5414 36.4171 44.9835 36.0187 44.3062L35.939 44.1468C35.0226 42.5531 35.1421 40.8398 36.1781 39.3257C36.5367 38.8078 37.0148 38.4093 37.5726 38.0906L37.7718 37.971C39.1265 37.1742 40.6007 37.2539 41.9953 37.9312C42.7523 38.2898 43.35 38.8476 43.7882 39.5648L43.8679 39.6843C44.1867 40.2023 43.7882 40.6804 43.3898 40.9992C42.9117 41.3578 42.4335 41.796 41.9953 42.1945C40.9195 43.071 39.8835 43.9476 38.8875 44.8242ZM37.5726 43.9078L40.9593 40.9992C41.3578 40.6804 41.7562 40.3218 42.1546 39.9632C41.8359 39.5648 41.3179 39.2859 40.9195 39.1265C40.0429 38.8078 39.1664 38.8875 38.3695 39.3656C37.3335 39.9632 36.8554 40.9593 36.8953 42.1546C36.8953 42.6328 37.0546 43.071 37.2937 43.5093C37.3734 43.6687 37.4531 43.7882 37.5726 43.9078ZM29.3648 13.4273H33.8671V18.0093H36.1382C37.1742 18.0093 38.25 17.8101 39.246 17.4914C39.7242 17.332 40.282 17.0929 40.7601 16.814C40.1226 15.9773 39.8039 14.9414 39.7242 13.9054C39.6046 12.5109 39.8835 10.6781 40.8398 9.60229L41.3179 9.04448L41.8757 9.48276C43.3101 10.6382 44.4656 12.1921 44.7046 14.025C46.4179 13.507 48.4101 13.6265 49.9242 14.5031L50.5218 14.8617L50.2031 15.4992C48.9281 17.9695 46.2585 18.7664 43.6687 18.607C39.764 28.289 31.3171 32.871 21.0375 32.871C15.7382 32.871 10.8773 30.8789 8.08823 26.1773L8.04839 26.0976L7.64995 25.2609C6.6937 23.189 6.41479 20.9179 6.61401 18.6468L6.6937 17.9695H10.5187V13.4273H15.021V8.92495H23.9859V4.42261H29.3648V13.4273Z" fill="#001434"/>
<path d="M43.9078 15.1008C44.2266 12.75 42.4735 10.9172 41.3579 10.0406C40.1227 11.475 39.9235 15.3 41.8758 16.8938C40.7602 17.85 38.4891 18.7664 36.0985 18.7664H7.33129C7.09223 21.2367 7.53051 23.5078 8.5266 25.4602L8.84535 26.0578C9.04457 26.4164 9.28363 26.7352 9.52269 27.0938C10.718 27.1735 11.7938 27.2133 12.7899 27.1735C14.7422 27.1336 16.336 26.8946 17.5711 26.4961C17.7704 26.4164 17.9297 26.536 18.0094 26.6953C18.0891 26.8946 17.9696 27.0539 17.8102 27.1336C17.6508 27.1735 17.4914 27.2531 17.2922 27.293C16.336 27.5719 15.3 27.7313 13.9852 27.811H13.7461C13.2282 27.8508 12.6704 27.8508 12.0727 27.8508C11.4352 27.8508 10.8375 27.8508 10.1204 27.811C12.511 30.5203 16.2563 32.1141 20.9579 32.1141C30.9188 32.1141 39.3657 27.6914 43.0711 17.8102C45.7407 18.0891 48.2907 17.4117 49.4461 15.1406C47.6532 14.1047 45.2625 14.4235 43.9078 15.1008Z" fill="#001434"/>
<path d="M43.9078 15.1008C44.2265 12.75 42.4734 10.9172 41.3578 10.0406C40.1226 11.475 39.9234 15.3 41.8758 16.8938C40.7601 17.85 38.489 18.7664 36.0984 18.7664H9.00466C8.88513 22.5516 10.2797 25.4203 12.7898 27.1336C14.7422 27.0938 16.3359 26.8547 17.5711 26.4563C17.7703 26.3766 17.9297 26.4961 18.0093 26.6555C18.089 26.8547 17.9695 27.0141 17.8101 27.0938C17.6508 27.1336 17.4914 27.2133 17.2922 27.2532C16.3359 27.5321 15.2203 27.7313 13.9054 27.811L13.8656 27.7711C17.2523 29.5242 22.1531 29.4844 27.8109 27.3328C34.1062 24.9024 40.0031 20.2805 44.107 15.0211C44.0273 15.061 43.9875 15.1008 43.9078 15.1008Z" fill="#001434"/>
<path d="M7.37109 21.7546C7.53047 23.0695 7.92891 24.3046 8.52656 25.4601L8.84531 26.0578C9.04453 26.4164 9.28359 26.7351 9.52266 27.0937C10.718 27.1734 11.7937 27.2132 12.7898 27.1734C14.7422 27.1335 16.3359 26.8945 17.5711 26.496C17.7703 26.4164 17.9297 26.5359 18.0094 26.6953C18.0891 26.8945 17.9695 27.0539 17.8102 27.1335C17.6508 27.1734 17.4914 27.2531 17.2922 27.2929C16.3359 27.5718 15.2203 27.771 13.9055 27.8507H13.7461C13.2281 27.8906 12.6703 27.8906 12.1125 27.8906C11.475 27.8906 10.8375 27.8906 10.1602 27.8507C12.5508 30.5601 16.3359 32.1539 21.0375 32.1539C29.5641 32.1539 36.975 28.9265 41.2781 21.7945H7.37109V21.7546Z" fill="#001434"/>
<path d="M9.28369 21.7546C9.80166 24.0656 10.997 25.8984 12.7899 27.1335C14.7423 27.0937 16.336 26.8546 17.5712 26.4562C17.7704 26.3765 17.9298 26.496 18.0095 26.6554C18.0892 26.8546 17.9696 27.014 17.8103 27.0937C17.6509 27.1335 17.4915 27.2132 17.2923 27.2531C16.336 27.532 15.2204 27.7312 13.8657 27.8109C17.2524 29.564 22.1532 29.5242 27.7712 27.3726C31.1579 26.0578 34.4649 24.1054 37.4134 21.7546H9.28369Z" fill="#001434"/>
<path fill-rule="evenodd" clip-rule="evenodd" d="M11.2358 14.1445H15.1405V18.0492H11.2358V14.1445ZM11.5546 14.5031H11.8733V17.7304H11.5546V14.5031ZM12.1522 14.5031H12.471V17.7304H12.1522V14.5031ZM12.7499 14.5031H13.0687V17.7304H12.7499V14.5031ZM13.3077 14.5031H13.6265V17.7304H13.3077V14.5031ZM13.9054 14.5031H14.2241V17.7304H13.9054V14.5031ZM14.503 14.5031H14.8218V17.7304H14.503V14.5031ZM15.7382 9.68201H19.6429V13.5469H15.7382V9.68201ZM16.0569 10.0008H16.3757V13.2281H16.0569V10.0008ZM16.6546 10.0008H16.9733V13.2281H16.6546V10.0008ZM17.2124 10.0008H17.5312V13.2281H17.2124V10.0008ZM17.8101 10.0008H18.1288V13.2281H17.8101V10.0008ZM18.4077 10.0008H18.7265V13.2281H18.4077V10.0008ZM19.0054 10.0008H19.3241V13.2281H19.0054V10.0008Z" fill="#001434"/>
<path fill-rule="evenodd" clip-rule="evenodd" d="M15.7383 14.1445H19.643V18.0492H15.7383V14.1445ZM16.057 14.5031H16.3758V17.7305H16.057V14.5031ZM16.6547 14.5031H16.9734V17.7305H16.6547V14.5031ZM17.2125 14.5031H17.5313V17.7305H17.2125V14.5031ZM17.8102 14.5031H18.1289V17.7305H17.8102V14.5031ZM18.4078 14.5031H18.7266V17.7305H18.4078V14.5031ZM19.0055 14.5031H19.3242V17.7305H19.0055V14.5031Z" fill="#001434"/>
<path fill-rule="evenodd" clip-rule="evenodd" d="M20.2407 14.1445H24.1454V18.0492H20.2407V14.1445ZM20.5595 14.5031H20.8782V17.7305H20.5595V14.5031ZM21.1173 14.5031H21.436V17.7305H21.1173V14.5031ZM21.7149 14.5031H22.0337V17.7305H21.7149V14.5031ZM22.3126 14.5031H22.6313V17.7305H22.3126V14.5031ZM22.9103 14.5031H23.229V17.7305H22.9103V14.5031ZM23.4681 14.5031H23.7868V17.7305H23.4681V14.5031Z" fill="#001434"/>
<path fill-rule="evenodd" clip-rule="evenodd" d="M20.2407 9.68201H24.1454V13.5469H20.2407V9.68201ZM20.5595 10.0008H20.8782V13.2281H20.5595V10.0008ZM21.1173 10.0008H21.436V13.2281H21.1173V10.0008ZM21.7149 10.0008H22.0337V13.2281H21.7149V10.0008ZM22.3126 10.0008H22.6313V13.2281H22.3126V10.0008ZM22.9103 10.0008H23.229V13.2281H22.9103V10.0008ZM23.4681 10.0008H23.7868V13.2281H23.4681V10.0008ZM24.7032 14.1445H28.6079V18.0492H24.7032V14.1445ZM25.0618 14.5031H25.3806V17.7304H25.0618V14.5031ZM25.6196 14.5031H25.9384V17.7304H25.6196V14.5031ZM26.2173 14.5031H26.536V17.7304H26.2173V14.5031ZM26.8149 14.5031H27.1337V17.7304H26.8149V14.5031ZM27.3728 14.5031H27.6915V17.7304H27.3728V14.5031ZM27.9704 14.5031H28.2892V17.7304H27.9704V14.5031Z" fill="#001434"/>
<path fill-rule="evenodd" clip-rule="evenodd" d="M24.7031 9.68201H28.6078V13.5469H24.7031V9.68201ZM25.0617 10.0008H25.3805V13.2281H25.0617V10.0008ZM25.6195 10.0008H25.9383V13.2281H25.6195V10.0008ZM26.2172 10.0008H26.5359V13.2281H26.2172V10.0008ZM26.8148 10.0008H27.1336V13.2281H26.8148V10.0008ZM27.3727 10.0008H27.6914V13.2281H27.3727V10.0008ZM27.9703 10.0008H28.2891V13.2281H27.9703V10.0008Z" fill="#001434"/>
<path fill-rule="evenodd" clip-rule="evenodd" d="M24.7031 5.17969H28.6078V9.08437H24.7031V5.17969ZM25.0617 5.49844H25.3805V8.76562H25.0617V5.49844ZM25.6195 5.49844H25.9383V8.76562H25.6195V5.49844ZM26.2172 5.49844H26.5359V8.76562H26.2172V5.49844ZM26.8148 5.49844H27.1336V8.76562H26.8148V5.49844ZM27.3727 5.49844H27.6914V8.76562H27.3727V5.49844ZM27.9703 5.49844H28.2891V8.76562H27.9703V5.49844Z" fill="#001434"/>
<path fill-rule="evenodd" clip-rule="evenodd" d="M29.2056 14.1445H33.1103V18.0492H29.2056V14.1445ZM29.5243 14.5031H29.8431V17.7305H29.5243V14.5031ZM30.122 14.5031H30.4407V17.7305H30.122V14.5031ZM30.7196 14.5031H31.0384V17.7305H30.7196V14.5031ZM31.2774 14.5031H31.5962V17.7305H31.2774V14.5031ZM31.8751 14.5031H32.1938V17.7305H31.8751V14.5031ZM32.4728 14.5031H32.7915V17.7305H32.4728V14.5031Z" fill="#001434"/>
<path fill-rule="evenodd" clip-rule="evenodd" d="M19.3641 24.3844C19.9618 24.3844 20.4399 24.8625 20.4399 25.4602C20.4399 26.0578 19.9618 26.536 19.3641 26.536C18.7665 26.536 18.2883 26.0578 18.2883 25.4602C18.3282 24.8625 18.8063 24.3844 19.3641 24.3844Z" fill="#D4EEF1"/>
<path fill-rule="evenodd" clip-rule="evenodd" d="M19.3641 24.6633C19.4437 24.6633 19.5633 24.6633 19.643 24.7032C19.5633 24.743 19.4836 24.8625 19.4836 24.9821C19.4836 25.1415 19.643 25.3008 19.8023 25.3008C19.9219 25.3008 20.0414 25.2211 20.0813 25.1415C20.1211 25.2211 20.1211 25.3407 20.1211 25.4204C20.1211 25.8586 19.7625 26.1774 19.3641 26.1774C18.9258 26.1774 18.607 25.8188 18.607 25.4204C18.607 25.0219 18.9656 24.6633 19.3641 24.6633ZM0.398438 22.1532H50.3227C49.2469 21.8743 46.8961 21.5157 47.2547 20.0813C45.2625 22.3524 40.5211 21.675 39.2859 20.5594C37.9312 22.5118 30.1219 21.7547 29.6039 20.2407C27.9305 22.2329 22.7109 22.2329 21.0375 20.2407C20.4797 21.7547 12.6703 22.5118 11.3555 20.5594C10.1602 21.675 5.37891 22.3524 3.38672 20.0813C3.825 21.4758 1.47422 21.8743 0.398438 22.1532Z" fill="#001434"/>
<path d="M22.2327 32.1141C19.5632 30.8391 18.1288 29.1258 17.2921 27.2532C16.296 27.5321 15.1007 27.7313 13.746 27.811C13.228 27.8508 12.6702 27.8508 12.1124 27.8508C11.4351 27.8508 10.7577 27.8508 10.0405 27.811C12.471 30.2415 15.4991 32.1141 21.0374 32.154C21.4358 32.1141 21.8343 32.1141 22.2327 32.1141Z" fill="#001434"/>
<path d="M18.2883 28.9665C17.9297 28.4485 17.5711 27.8508 17.2922 27.2532C16.2961 27.5321 15.1008 27.7313 13.7461 27.811C14.7023 28.329 16.057 28.8071 18.2883 28.9665Z" fill="#D4EEF1"/>
</svg>
