<svg width="155" height="155" viewBox="0 0 155 155" fill="none" xmlns="http://www.w3.org/2000/svg">
<path d="M68.7574 87.2544C70.7631 87.101 72.7519 86.7756 74.7018 86.2817C75.9756 85.9806 77.2572 84.7377 75.2268 84.7377C72.8751 84.9184 70.5366 85.2433 68.2247 85.7104C67.1748 85.9806 67.1748 87.2544 68.7574 87.2544Z" fill="#6016F3"/>
<path d="M66.7202 69.2743C68.0789 69.1971 71.8386 68.6412 73.0429 68.4405C74.0929 68.2707 74.2473 66.7884 72.2709 66.9428C63.5704 67.4832 65.3538 69.3515 66.7202 69.2743Z" fill="#6016F3"/>
<path d="M23.4566 62.4266C27.0696 62.1255 29.1772 61.8244 28.8607 59.6397C28.4824 56.7832 28.4052 54.2974 25.9965 54.5212C21.3645 54.8995 19.6043 55.1234 20.8086 60.2418C21.048 61.2223 21.4957 62.5733 23.4566 62.4266ZM23.0011 56.4049C25.3172 55.9649 26.6836 55.5094 27.0696 57.177C27.4633 59.7786 27.7876 60.5197 26.0892 60.7205C24.5452 60.898 22.4762 61.3921 22.2291 59.8172C22.0979 58.6438 21.5729 56.6751 23.0011 56.4049Z" fill="#6016F3"/>
<path d="M12.9962 45.0409C17.057 44.4387 19.4656 44.6626 19.0179 40.9801C18.6396 37.9693 18.4929 36.1628 15.4049 36.3481C12.5484 36.4948 9.306 36.8808 9.83869 40.1155C10.2093 42.1073 10.0626 45.4192 12.9962 45.0409ZM15.3122 37.8149C17.3426 37.591 17.1959 39.5519 17.497 41.204C17.7209 42.6322 16.972 42.9488 16.5166 43.0877C15.4101 43.3891 14.2732 43.5652 13.1274 43.6127C11.6992 43.6899 11.5062 41.5051 11.3287 39.9997C11.0816 37.7995 13.5212 38.0465 15.3277 37.7995L15.3122 37.8149Z" fill="#6016F3"/>
<path d="M20.1441 93.1293C20.6691 91.5853 21.3098 82.6686 21.194 80.2599C21.1899 79.7074 20.9773 79.1768 20.5988 78.7743C20.2203 78.3718 19.7038 78.127 19.1526 78.0889C18.6013 78.0509 18.0561 78.2224 17.6259 78.5691C17.1956 78.9158 16.9122 79.4121 16.8322 79.9588C16.3844 82.5914 15.404 92.0716 16.23 93.4998C17.0561 94.928 19.6191 94.5575 20.1441 93.1293Z" fill="#6016F3"/>
<path d="M25.564 72.3544C31.246 71.9298 31.9717 71.4357 30.6825 65.885C30.0803 63.4763 26.8224 64.3796 24.8847 64.7579C22.7771 65.2056 22.6999 66.711 22.8543 67.9154C23.1168 69.7219 23.4565 72.5397 25.564 72.3544ZM27.8801 65.6611C29.6788 65.3909 29.4627 67.2051 29.6866 68.5947C29.9954 70.4321 28.4436 70.5711 25.7725 70.7795C24.7226 70.849 24.491 69.2355 24.2671 67.6915C24.1358 66.0394 26.1585 65.9159 27.8955 65.6611H27.8801Z" fill="#6016F3"/>
<path d="M63.7168 55.2003C62.9448 54.1272 60.5516 54.7525 59.2006 55.2003C57.8495 55.648 58.1429 56.5513 59.3472 56.7057C60.5516 56.8601 64.4193 56.2348 63.7168 55.2003Z" fill="#6016F3"/>
<path d="M13.9757 91.6932C13.3735 91.091 11.1424 89.933 9.76052 88.8368C7.9849 87.4394 11.8681 84.6988 12.5475 83.039C13.3195 81.2402 10.3627 79.3565 8.93447 81.2402C6.74969 83.9423 1.75481 87.949 5.39868 90.7205C6.46405 91.4925 10.5866 94.704 12.4703 94.8584C14.1224 95.0051 14.9484 92.8281 13.9757 91.6932Z" fill="#6016F3"/>
<path d="M123.384 80.3371C126.395 80.036 136.323 78.9011 137.682 78.5306C138.684 78.3718 139.62 77.9343 140.385 77.268C141.149 76.6017 141.711 75.7337 142.005 74.7632C143.279 71.6057 145.765 62.5732 146.143 61.0678C147.278 55.9493 143.31 58.8753 128.757 60.1645C127.553 60.2417 126.727 59.1146 126.048 57.8485L141.102 56.042C141.102 56.042 140.276 53.973 138.786 54.166C137.296 54.359 127.654 55.517 126.225 55.6714C124.797 55.8258 125.994 53.2628 122.69 53.6333C119.385 54.0039 115.008 53.7877 114.707 61.8398C114.56 65.4528 114.637 75.3808 116.367 78.2449C117.139 79.6577 119.926 80.7076 123.384 80.3371Z" fill="#6016F3"/>
<path d="M37.5994 120.404C39.182 120.628 46.7786 119.123 47.9829 115.363C47.1569 111.225 47.0102 107.689 45.7287 103.011C36.7734 96.6188 25.4866 105.952 28.4975 114.753C32.8593 110.507 41.2896 112.615 37.5994 120.404Z" fill="#6016F3"/>
<path d="M93.5074 59.493C90.7281 59.493 88.7672 59.7941 88.6206 60.4657C88.3195 61.2377 89.0683 61.4462 89.6705 61.4462C90.2727 61.4462 93.0596 61.1451 94.3411 60.9984C95.6227 60.8517 96.2943 59.493 93.5074 59.493Z" fill="#6016F3"/>
<path d="M79.8131 76.724C80.9479 76.724 84.8543 76.1218 86.0586 75.952C87.263 75.7822 87.4946 74.408 85.9119 74.408C83.8353 74.4924 81.7694 74.7506 79.7359 75.18C78.2382 75.6278 78.7014 76.724 79.8131 76.724Z" fill="#6016F3"/>
<path d="M79.5118 57.7559C79.2879 56.2505 72.9652 57.532 71.9925 57.9103C71.0197 58.2886 70.8653 59.3385 72.0619 59.3385C73.2585 59.3385 79.7434 59.1918 79.5118 57.7559Z" fill="#6016F3"/>
<path d="M80.4155 90.9445C81.396 90.9445 86.9853 90.3269 86.1361 89.4005C85.2869 88.4741 81.1721 89.1766 80.346 89.4777C79.52 89.7788 79.4737 90.9445 80.4155 90.9445Z" fill="#6016F3"/>
<path d="M121.802 23.2935C121.802 9.68297 102.942 10.7175 99.9854 20.5837C112.669 19.2713 110.214 29.9173 102.24 27.9641C105.552 30.8514 121.802 30.365 121.802 23.2935Z" fill="#6016F3"/>
<path d="M12.9182 30.3651C13.0956 30.0301 13.1687 29.6498 13.128 29.273C13.0874 28.8961 12.9349 28.5401 12.6902 28.2507C12.4454 27.9613 12.1197 27.7518 11.7548 27.6491C11.39 27.5464 11.0028 27.5553 10.6431 27.6746C10.4043 27.7537 10.1837 27.8793 9.99389 28.0443C9.80412 28.2093 9.649 28.4103 9.53754 28.6358C8.67289 30.504 11.6451 32.7042 12.9189 30.3651H12.9182Z" fill="#6016F3"/>
<path d="M83.2026 105.319C85.7574 105.056 88.2959 104.654 90.8069 104.115C92.0807 103.814 92.3509 102.455 90.5753 102.571C88.7997 102.687 84.7003 103.219 83.2798 103.544C81.8593 103.868 81.5505 105.389 83.2026 105.319Z" fill="#6016F3"/>
<path d="M70.6331 97.4912C72.3624 97.6378 77.2029 96.7963 76.5081 95.8313C75.8133 94.8663 71.6135 95.6847 70.8647 95.9857C70.1158 96.2868 69.6604 97.414 70.6331 97.4912Z" fill="#6016F3"/>
<path d="M58.2191 43.7592C60.4734 43.9136 61.4538 40.3006 58.5974 39.8992C55.741 39.4977 55.4322 43.5353 58.2191 43.7592Z" fill="#6016F3"/>
<path d="M28.0422 42.9336C29.7376 42.7868 31.4216 42.5289 33.0834 42.1616C34.2182 41.9378 34.3649 40.5018 32.7823 40.6176C31.1997 40.7334 29.4009 40.9959 27.8955 41.3896C26.5367 41.8065 26.915 42.9336 28.0422 42.9336Z" fill="#6016F3"/>
<path d="M18.2607 48.8775C18.5232 50.4215 18.94 53.0927 20.9704 52.8688C27.4398 52.2666 27.2932 51.7416 25.9344 46.6232C25.2628 44.3613 22.0281 45.2645 20.1444 45.72C18.0368 46.2449 18.06 47.6732 18.2607 48.8775ZM23.078 46.5615C24.7378 46.2449 24.6606 47.8353 24.9617 49.1786C25.1856 50.3057 24.9617 50.4601 24.5062 50.6068C23.4532 50.9399 22.3696 51.1675 21.2715 51.2862C20.4455 51.3634 20.2216 51.1395 19.6889 48.7308C19.3183 47.0015 20.0286 47.0633 23.1166 46.546L23.078 46.5615Z" fill="#6016F3"/>
<path d="M49.1175 43.69C50.0208 45.7204 53.8576 44.5933 52.8 41.9607C51.7423 39.3282 47.9132 41.2042 49.1175 43.69Z" fill="#6016F3"/>
<path d="M20.2213 27.7635C19.2409 25.2082 15.7437 26.9915 16.8322 29.3075C17.7123 31.1835 21.194 30.2185 20.2213 27.7635Z" fill="#6016F3"/>
<path d="M25.5642 25.7794C25.3171 25.7338 25.0633 25.7398 24.8187 25.797C24.574 25.8542 24.3438 25.9614 24.1426 26.1118C23.9414 26.2623 23.7734 26.4527 23.6493 26.6712C23.5253 26.8897 23.4477 27.1314 23.4215 27.3813C23.3954 27.6312 23.4212 27.8838 23.4973 28.1232C23.5735 28.3627 23.6983 28.5838 23.864 28.7726C24.0297 28.9615 24.2327 29.1141 24.4602 29.2207C24.6877 29.3274 24.9348 29.3858 25.1859 29.3924C27.2163 29.539 28.1196 26.1577 25.5642 25.7794Z" fill="#6016F3"/>
<path d="M50.9929 70.3239C53.0233 70.0228 56.9528 70.3239 56.3352 67.1664C55.9183 64.9893 56.1191 63.0747 53.4016 63.3063C51.3712 63.4916 47.681 63.6769 48.4376 66.3172C48.6615 67.9924 48.592 70.7022 50.9929 70.3239Z" fill="#6016F3"/>
<path d="M56.4131 100.648C58.4434 100.347 62.4347 100.648 61.8171 97.5603C61.516 95.3756 61.7399 93.4919 58.953 93.7003C56.9226 93.847 53.2401 94.0709 53.9118 96.6339C54.1588 98.3169 53.9272 101.027 56.4131 100.648Z" fill="#6016F3"/>
<path d="M33.3142 62.0482C34.2869 61.971 35.7229 61.5232 36.6261 61.3688C37.5294 61.2144 37.2283 59.8248 36.2478 59.9406C35.167 60.0186 34.1017 60.2479 33.0826 60.62C31.8783 61.0678 32.3338 62.1254 33.3142 62.0482Z" fill="#6016F3"/>
<path d="M49.3652 60.2416C51.55 59.9406 55.3097 60.1644 54.5531 56.8525C54.1053 54.6755 54.4064 52.4907 51.6967 52.6451C49.5119 52.7146 45.9761 52.9462 46.7327 55.7331C46.8562 57.6091 46.7095 60.6199 49.3652 60.2416Z" fill="#6016F3"/>
<path d="M30.3806 52.7919C35.5067 52.2515 33.0826 50.1593 30.0795 51.3637C28.5741 51.9658 28.9446 52.9463 30.3806 52.7919Z" fill="#6016F3"/>
<path d="M24.7382 89.2149C24.6257 89.5571 24.6116 89.9241 24.6976 90.274C24.7836 90.6239 24.9662 90.9425 25.2245 91.1936C25.4829 91.4447 25.8066 91.6182 26.1588 91.6942C26.511 91.7702 26.8774 91.7457 27.2163 91.6235C29.0228 90.8515 31.8098 86.6518 32.5586 85.6019C35.0445 81.9889 30.3044 79.8813 27.3707 77.7737C24.7382 75.89 23.0012 78.9008 24.2055 80.4063C25.186 81.6106 29.5478 83.1932 27.9729 85.0383C26.9152 86.204 25.0393 88.3811 24.7382 89.2149Z" fill="#6016F3"/>
<path d="M55.0614 90.489C57.169 90.1879 61.2375 90.4195 60.3265 87.1848C59.871 85 60.0254 82.8925 57.2385 83.2707C55.1309 83.4946 51.6723 83.7957 52.4212 86.4283C52.7994 88.0803 52.7994 90.8673 55.0614 90.489Z" fill="#6016F3"/>
<path d="M88.3195 117.355C87.038 117.054 86.8141 117.278 84.7065 118.413C84.2588 118.637 82.9 119.316 84.3283 119.841C91.5542 122.551 91.1451 123.246 95.6922 120.52C96.2944 120.142 96.8965 119.316 88.3195 117.355Z" fill="#6016F3"/>
<path d="M113.981 131.274C114.128 130.904 114.205 123.979 114.05 121.416C113.983 120.994 113.805 120.598 113.533 120.268C113.262 119.938 112.907 119.687 112.506 119.54C112.553 118.636 112.527 117.73 112.429 116.83C112.051 114.722 108.137 113.441 106.029 113.742C104.678 113.896 103.25 114.645 100.687 116.004C100.025 115.839 99.3734 115.638 98.7339 115.402C98.8806 113.672 99.035 112.916 98.7339 112.013C98.3556 110.963 94.8198 109.982 92.5578 109.982C90.9428 110.137 89.371 110.595 87.9258 111.333C87.6796 111.485 87.3988 111.572 87.1097 111.586C86.8207 111.599 86.5329 111.539 86.2737 111.41C84.39 110.808 82.2824 109.604 80.5531 110.059C74.9097 111.603 75.4347 112.375 75.5891 114.645C74.5277 114.148 73.372 113.885 72.2 113.873C71.2967 113.873 66.4794 114.776 65.9544 117.031C65.7173 118.422 65.6165 119.834 65.6534 121.246C63.3991 121.848 63.7002 131.104 64.974 132.826C68.4403 137.566 73.9293 134.03 78.3683 132.301C78.2216 134.856 78.3683 137.574 78.8238 138.392C79.6962 139.936 84.3128 141.179 86.2737 141.179C88.3813 141.179 90.4811 139.635 92.5192 138.245C94.7735 139.017 98.5331 141.179 100.718 140.5C105.01 139.226 106.215 138.245 106.06 134.324C108.809 135.644 113.224 133.76 113.981 131.274ZM111.719 122.62C109.349 125.067 105.929 123.075 102.54 122.172C101.559 121.948 101.413 122.172 99.3052 123.376C98.8497 123.678 98.0236 124.148 99.0041 124.504C99.8301 124.727 101.258 125.33 102.764 125.862C105.08 126.634 102.463 129.167 99.6757 129.468C96.8888 129.769 94.179 126.835 91.9556 127.661C88.8676 128.865 86.0807 133.312 81.0395 129.097C80.1362 128.325 85.0307 125.785 85.6715 125.407C86.652 124.805 86.1965 124.125 78.4455 121.948C76.7934 121.493 76.639 122.172 72.1228 124.264C70.324 125.09 68.5175 124.264 66.8577 123.438C65.8078 122.906 66.9349 122.079 71.0729 120.35C73.4815 119.578 68.8881 118.621 67.9848 118.034C66.711 117.131 70.6251 115.471 72.0533 115.626C75.9674 115.927 76.6853 118.482 81.0781 116.228C83.34 115.023 77.6812 114.437 77.0945 113.595C76.7857 113.147 79.2716 111.866 81.3097 111.711C82.8537 111.565 86.0498 113.441 87.1769 113.441C88.3041 113.441 91.2377 111.372 93.0442 111.41C94.704 111.449 97.0355 112.236 96.8116 112.769C96.6572 113.14 94.7735 114.043 93.6463 114.568C92.5192 115.093 93.4225 115.402 93.8702 115.548C99.336 117.44 100.679 117.942 101.59 117.509C104.825 115.772 104.972 115.703 106.222 115.471C107.805 115.247 111.101 116.297 110.739 116.977C110.028 118.32 105.682 119.293 107.573 119.841C110.16 120.574 113.371 120.921 111.719 122.62Z" fill="#6016F3"/>
<path d="M41.1344 43.0106C40.2312 44.9638 43.4505 47.303 44.8246 44.8171C46.1988 42.3312 42.3388 40.4553 41.1344 43.0106Z" fill="#6016F3"/>
<path d="M63.1142 105.466C62.9752 102.455 59.1229 103.922 57.2392 104.115C54.8305 104.339 55.6952 107.203 55.8882 108.747C56.0349 111.38 59.424 110.631 61.4544 110.252C64.4652 109.681 63.2145 107.805 63.1142 105.466Z" fill="#6016F3"/>
<path d="M56.2661 80.0361C59.2692 79.4339 57.9954 77.5502 57.8101 75.1416C57.6634 72.1308 53.8265 73.5976 51.9428 73.7906C49.5342 74.0145 50.4374 76.9481 50.6613 78.4226C50.8466 81.1632 54.228 80.4067 56.2661 80.0361Z" fill="#6016F3"/>
<path d="M66.4188 93.1987C68.1558 93.1987 74.4786 91.9558 76.0535 91.6547C77.6284 91.3536 77.6361 89.9177 75.1502 90.2188C72.6644 90.5199 66.4188 91.4231 65.3689 91.9558C64.6201 92.2955 64.8053 93.1987 66.4188 93.1987Z" fill="#110F0F"/>
<path d="M145.959 54.3749C145.215 54.5245 144.462 54.625 143.705 54.6759C143.172 52.1129 142.045 50.6075 138.733 50.9857C127.029 52.2055 127.546 52.908 126.998 51.7577C126.134 49.9281 124.891 49.4958 121.803 49.874C112.539 51.2945 110.338 50.9935 111.273 59.3543C112.817 72.3935 112.23 79.1486 118.645 79.1486C124.049 79.218 136.401 77.4887 140.694 76.6627C143.172 76.2072 144.453 75.8367 145.882 72.6019C147.673 68.1938 149.156 63.6667 150.321 59.0532C151.077 55.2781 149.348 54.151 145.959 54.3749ZM112.67 59.3389C111.998 51.9585 113.89 52.5915 122.073 51.364C124.783 50.9857 125.161 51.4489 125.609 52.5684C126.442 54.5061 126.211 54.066 138.779 52.4912C140.887 52.2673 141.643 52.715 142.091 54.8998C136.749 55.5792 126.744 56.853 124.103 57.3085C120.498 57.9106 118.46 59.4161 117.711 61.8942C116.715 65.6384 116.391 74.2463 115.156 75.8907C113.535 71.7682 113.442 65.5921 112.67 59.3389ZM148.954 58.7367C147.756 63.2555 146.3 67.7019 144.592 72.0538C143.388 74.7636 142.631 74.9874 140.454 75.2962C137.814 75.6668 118.251 78.9787 116.221 77.095C116.823 76.6473 117.425 75.3657 118.028 71.6061C119.572 61.4542 118.645 59.8407 124.651 58.7367C128.187 58.0573 140.539 56.6446 145.496 56.0269C148.182 55.7027 149.549 55.9652 148.954 58.7367Z" fill="#110F0F"/>
<path d="M86.8144 93.4998C85.1546 93.4612 80.1906 94.102 79.0943 94.7041C77.9981 95.3063 77.89 96.1323 79.1715 96.2481C80.453 96.3639 86.6909 95.121 87.5246 95.0438C88.3584 94.9666 88.5437 93.5384 86.8144 93.4998Z" fill="#110F0F"/>
<path d="M115.031 113.294C117.888 112.839 132.641 110.507 137.304 109.604C145.279 107.975 144.746 106.632 140.315 80.9395C139.867 78.7547 138.662 80.484 139.187 83.4948C142.329 104.424 144.051 106.454 137.528 107.875C134.069 108.701 115.41 111.735 113.302 112.09C111.194 112.445 112.175 113.742 115.031 113.294Z" fill="#110F0F"/>
<path d="M67.5527 62.4268C66.6494 62.7279 66.4178 63.9322 67.6221 63.9322C68.8265 63.9322 73.0262 63.5539 72.4395 62.5735C71.8527 61.593 68.4559 62.1257 67.5527 62.4268Z" fill="#110F0F"/>
<path d="M67.3984 78.5306C69.5701 78.3136 71.7294 77.9864 73.8679 77.5501C75.2266 77.3262 76.4309 75.6664 73.9451 75.8903C71.4592 76.1142 68.3789 76.423 66.9507 77.249C66.0474 77.6273 66.6496 78.5306 67.3984 78.5306Z" fill="#110F0F"/>
<path d="M76.5781 100.649C75.6749 101.027 76.2075 102.077 77.4814 102.008C79.9092 101.731 82.3211 101.329 84.7073 100.803C86.2514 100.348 85.9889 99.2592 84.5529 99.2592C81.8602 99.4985 79.1921 99.9633 76.5781 100.649Z" fill="#110F0F"/>
<path d="M123.909 99.7454C126.542 99.5215 125.87 95.6846 123.462 96.1324C123.116 96.1907 122.795 96.3473 122.536 96.5834C122.278 96.8195 122.092 97.125 122.003 97.4636C121.913 97.8022 121.923 98.1594 122.031 98.4926C122.139 98.8257 122.34 99.1208 122.612 99.3424C122.976 99.6395 123.441 99.7839 123.909 99.7454Z" fill="#110F0F"/>
<path d="M119.772 98.5413C119.587 98.1284 119.255 97.7986 118.841 97.6153C118.427 97.432 117.96 97.4083 117.53 97.5485C117.1 97.6898 116.738 97.9855 116.513 98.3785C116.288 98.7715 116.217 99.2339 116.313 99.6762C116.838 102.154 120.752 100.95 119.772 98.5413Z" fill="#110F0F"/>
<path d="M133.019 92.0717C132.718 90.7901 130.309 91.2456 129.159 89.9641C127.878 88.5359 128.704 85.0773 126.673 83.7185C124.944 82.5142 121.632 83.8729 122.08 84.9229C122.759 86.2816 124.11 84.8457 125.245 85.6949C126.673 86.7448 126.218 90.2034 127.275 91.4849C128.256 92.6121 130.062 92.4654 130.062 92.8437C130.062 93.3686 128.626 93.6157 128.179 95.1597C127.731 96.7037 129.229 99.7454 128.781 101.027C128.256 102.455 125.847 101.328 125.77 102.756C125.693 103.814 129.229 104.64 130.888 102.154C132.093 100.348 129.908 97.1901 130.356 95.8313C130.912 94.2564 133.39 93.7315 133.019 92.0717Z" fill="#110F0F"/>
<path d="M88.7367 65.9627C87.9029 64.6039 81.1478 65.6925 79.7814 66.1866C78.4149 66.6806 78.577 67.8464 80.3063 67.7306C82.0356 67.6148 89.3002 67.0126 88.7367 65.9627Z" fill="#110F0F"/>
<path d="M72.8177 49.1791C70.8645 49.1791 60.6277 50.3834 59.1995 50.7617C57.7713 51.14 57.6941 52.3057 58.8984 52.3057C60.1027 52.3057 72.0225 50.8698 73.4971 50.6459C74.9716 50.422 74.2459 49.1791 72.8177 49.1791Z" fill="#110F0F"/>
<path d="M81.9981 71.9068C83.5422 71.6057 82.9014 70.3242 80.7938 70.4786C78.4219 70.6509 76.0612 70.9524 73.7222 71.3818C72.4407 71.6829 72.9502 72.7328 74.0233 72.7328C75.0964 72.7328 80.4155 72.1306 81.9981 71.9068Z" fill="#110F0F"/>
<path d="M62.3574 60.6203C63.6389 60.5431 66.7964 60.0182 67.3986 59.941C68.0008 59.8637 68.4485 59.0609 67.4758 58.7366C66.642 58.4587 63.415 58.8138 62.2107 59.1149C61.0064 59.416 61.0759 60.767 62.3574 60.6203Z" fill="#110F0F"/>
<path d="M77.7129 52.8691C74.7561 52.9216 71.8101 53.2243 68.9043 53.7724C67.8544 54.1507 67.7 55.3164 68.9815 55.3164C70.263 55.3164 76.8097 54.5444 77.8596 54.4132C78.9095 54.2819 79.2878 52.9463 77.7129 52.8691Z" fill="#110F0F"/>
<path d="M73.1187 82.3674C74.6627 82.213 81.248 81.1631 82.6762 80.9392C84.1044 80.7153 83.8805 79.0555 81.549 79.3952C80.005 79.6191 75.7513 79.9202 72.9643 80.6767C71.4589 81.0319 72.0611 82.4369 73.1187 82.3674Z" fill="#110F0F"/>
<path d="M77.4113 61.2998C76.2765 61.6009 76.7319 62.728 78.2374 62.728C79.7428 62.728 85.888 62.3652 85.0079 61.1454C84.1278 59.9256 78.5384 60.9987 77.4113 61.2998Z" fill="#110F0F"/>
<path d="M62.4345 74.084C63.4844 74.2306 67.5529 73.4818 68.3789 73.2502C68.4807 73.2405 68.5795 73.2109 68.6698 73.1629C68.76 73.1149 68.8399 73.0495 68.9048 72.9706C68.9697 72.8917 69.0184 72.8007 69.0481 72.7028C69.0777 72.605 69.0877 72.5023 69.0776 72.4006C69.0674 72.2989 69.0372 72.2002 68.9888 72.1102C68.9404 72.0202 68.8746 71.9406 68.7954 71.8761C68.7161 71.8116 68.6249 71.7633 68.5269 71.7342C68.4289 71.705 68.3262 71.6955 68.2245 71.7062C67.0974 71.7062 63.4149 72.0073 62.3573 72.5399C61.2996 73.0726 61.3768 73.9373 62.4345 74.084Z" fill="#110F0F"/>
<path d="M36.0933 36.7651C34.1401 36.9118 26.4664 37.6683 23.0773 38.6488C22.2512 38.8727 22.174 40.1542 23.8493 39.9998C25.5245 39.8454 36.0393 38.3477 37.6142 38.1161C39.1891 37.8845 38.8803 36.5412 36.0933 36.7651Z" fill="#110F0F"/>
<path d="M31.1296 121.717C31.8718 122.158 32.7061 122.422 33.5673 122.488C34.4284 122.553 35.293 122.419 36.0936 122.095C36.8995 122.843 37.9394 123.29 39.0369 123.359C40.1345 123.428 41.2221 123.115 42.1153 122.473C42.7946 121.871 42.1153 120.929 41.2892 121.346C40.6899 121.677 40.0166 121.85 39.3322 121.85C38.6478 121.85 37.9745 121.677 37.3751 121.346C37.8767 120.874 38.2733 120.301 38.5393 119.665C38.8053 119.029 38.9347 118.345 38.9192 117.656C40.0463 116.374 39.5213 113.518 37.3365 113.371C36.1322 111.827 31.9325 111.488 29.8867 113.742C27.1074 114.344 27.1769 117.432 28.9139 118.636C29.0325 119.44 29.3689 120.195 29.8867 120.821C29.3281 121.123 28.6913 121.248 28.0601 121.18C27.429 121.113 26.8331 120.856 26.3509 120.443C25.9108 119.98 25.3704 120.288 25.3704 120.667C25.3318 122.319 28.8676 123.492 31.1296 121.717ZM37.8306 115.471C37.9584 115.73 37.9813 116.028 37.8945 116.303C37.8077 116.578 37.6179 116.809 37.3647 116.948C37.1116 117.086 36.8147 117.122 36.5361 117.047C36.2575 116.971 36.0187 116.791 35.8697 116.544C35.763 116.35 35.7163 116.129 35.7355 115.909C35.7548 115.688 35.8392 115.478 35.9779 115.306C36.1167 115.134 36.3035 115.006 36.5148 114.94C36.7261 114.874 36.9522 114.873 37.1644 114.935C37.4485 115.019 37.6894 115.211 37.8306 115.471ZM35.2676 113.819C34.8123 114.184 34.4918 114.691 34.3566 115.259C34.2214 115.826 34.2792 116.423 34.5209 116.954C34.7626 117.486 35.1745 117.921 35.6913 118.192C36.2082 118.463 36.8007 118.554 37.3751 118.451C37.3499 118.776 37.2564 119.091 37.1008 119.377C36.9451 119.663 36.7308 119.913 36.4719 120.111C35.8234 118.482 34.4338 119.833 35.1209 120.883C34.2054 121.107 33.2494 121.107 32.3339 120.883C33.16 120.358 33.16 119.679 32.5578 119.455C32.1795 119.308 31.5851 119.679 31.0138 120.057C30.7661 119.761 30.5632 119.431 30.4116 119.076C33.0519 119.076 33.739 115.371 31.6855 114.112C32.2271 113.811 32.8269 113.629 33.4448 113.578C34.0626 113.528 34.6841 113.61 35.2676 113.819ZM30.1492 115.17C31.809 115.101 31.8785 117.733 30.1492 117.579C28.7981 117.432 28.7209 115.247 30.1492 115.17Z" fill="#110F0F"/>
<path d="M23.3018 109.002C24.6605 108.925 24.9616 107.651 25.4866 106.292C26.0116 104.933 26.5365 102.98 27.3703 102.679C27.818 102.532 28.6441 103.135 29.0224 104.262C29.4007 105.389 30.8289 104.864 30.08 103.057C29.2463 101.027 27.8258 100.741 26.992 100.95C25.3476 101.367 24.3595 105.582 23.3018 107.496C21.2405 107.157 21.0321 109.148 23.3018 109.002Z" fill="#110F0F"/>
<path d="M23.1551 117.656C25.1855 117.656 25.3322 116.606 25.3322 114.568C25.3322 113.518 25.1083 111.032 26.4671 111.333C27.1387 111.565 27.4398 111.488 27.517 111.032C27.8181 109.488 25.201 109.488 24.429 110.963C23.8268 112.167 24.429 114.344 23.8963 115.595C23.7496 115.973 22.9235 116.367 22.6919 116.421C21.9508 116.753 22.1747 117.656 23.1551 117.656Z" fill="#110F0F"/>
<path d="M28.7983 47.1485C27.7407 47.4496 28.2734 48.5767 29.0994 48.6925C30.6079 48.5841 32.098 48.2964 33.5385 47.8356C34.5807 47.5654 35.5071 45.2339 28.7983 47.1485Z" fill="#110F0F"/>
<path d="M34.697 66.9428C36.1252 66.7112 37.4068 66.1708 37.1057 65.6613C36.8046 65.1518 36.2796 65.0591 34.3959 65.5069C32.5122 65.9547 33.2379 67.1358 34.697 66.9428Z" fill="#110F0F"/>
<path d="M35.191 108.824C36.1715 105.96 37.9008 102.424 41.4366 101.676C43.3203 101.22 42.0387 100.317 39.8925 100.849C36.1252 101.822 34.4036 105.219 34.0176 108.292C33.8014 109.836 34.8205 109.982 35.191 108.824Z" fill="#110F0F"/>
<path d="M32.0328 57.756C33.1072 57.6944 34.1688 57.4919 35.1904 57.1538C36.248 56.7832 36.3947 55.4245 35.1904 55.6098C29.2922 55.9494 31.1682 57.756 32.0328 57.756Z" fill="#110F0F"/>
<path d="M10.3631 74.0142C10.9653 77.1717 12.5479 77.8742 12.2391 75.8902C11.9303 73.9061 6.83506 46.2451 5.39912 32.7736C5.09804 30.0793 4.79696 26.2192 11.9457 25.3237C22.0899 24.0036 70.1242 19.4642 78.9861 19.0087C85.2625 18.7153 87.9259 20.0818 88.8446 31.5692C88.999 33.4529 90.3886 32.7041 90.1261 29.9171C89.0453 21.3015 87.6943 16.9011 78.9089 17.5033C65.7848 18.3293 29.5467 21.6412 11.7443 23.8955C3.02057 25.0226 3.69221 30.2182 4.02418 33.3063C4.58774 40.0536 9.47455 69.3667 10.3624 74.0142H10.3631Z" fill="#110F0F"/>
<path d="M107.435 18.4994C110.368 16.0984 113.819 15.751 115.487 16.1833C117.154 16.6157 117.741 15.1334 115.788 14.6779C112.622 14.0063 108.708 14.7551 106.678 17.4649C105.551 18.9317 106.902 18.9317 107.435 18.4994Z" fill="#110F0F"/>
<path d="M95.2454 22.6221C94.7127 24.722 95.6159 26.3818 97.8779 27.0612C96.5964 27.8872 95.7703 29.2382 97.4224 31.5002C95.9942 32.3262 96.5192 33.1368 97.4224 33.0056C101.522 32.3957 96.6504 29.8635 98.4029 28.4894C98.7953 28.1782 99.226 27.9188 99.6844 27.7174C100.248 28.3518 100.968 28.8279 101.772 29.0988C102.576 29.3696 103.438 29.4256 104.27 29.2614C107.358 32.1178 110.068 29.4467 109.311 28.4353C109.087 28.1342 108.539 28.2809 108.261 28.582C107.982 28.8756 107.603 29.0543 107.199 29.0828C106.795 29.1114 106.394 28.9878 106.077 28.7364C106.649 28.6063 107.18 28.3397 107.627 27.9592C108.073 27.5787 108.421 27.0957 108.64 26.5516C108.959 26.2683 109.211 25.9167 109.376 25.5228C109.541 25.1289 109.615 24.7028 109.593 24.2763C109.571 23.8498 109.453 23.4338 109.247 23.0592C109.042 22.6846 108.755 22.3611 108.408 22.1126C107.883 20.3833 104.648 18.654 101.414 19.7966C100.861 19.6432 100.274 19.6647 99.7339 19.8581C99.1937 20.0515 98.7267 20.4073 98.3968 20.8767C98.0669 21.3462 97.8904 21.9062 97.8915 22.4799C97.8926 23.0537 98.0712 23.613 98.4029 24.0812C98.4029 24.0812 98.4801 25.1389 98.5496 25.5866C98.2502 25.565 97.9581 25.4841 97.6903 25.3486C97.4224 25.213 97.1842 25.0256 96.9895 24.7971C96.7948 24.5687 96.6475 24.3038 96.5562 24.0178C96.4648 23.7319 96.4313 23.4307 96.4574 23.1316C96.5732 21.935 95.4693 21.9427 95.2454 22.6221ZM108.107 25.023C108.053 25.1842 107.967 25.333 107.854 25.4608C107.742 25.5886 107.606 25.693 107.453 25.7679C107.3 25.8427 107.134 25.8866 106.964 25.897C106.795 25.9074 106.624 25.8841 106.464 25.8285C106.303 25.7728 106.155 25.6859 106.028 25.5727C105.901 25.4595 105.798 25.3223 105.724 25.169C105.65 25.0157 105.607 24.8493 105.598 24.6794C105.589 24.5096 105.614 24.3396 105.671 24.1792C105.784 23.8585 106.02 23.5958 106.327 23.4483C106.634 23.3009 106.986 23.2806 107.308 23.3919C107.629 23.5033 107.894 23.7372 108.043 24.0428C108.193 24.3483 108.216 24.7007 108.107 25.023ZM102.996 21.1167C104.112 21.0291 105.224 21.3201 106.154 21.9427C103.29 22.7147 103.583 26.4513 106.077 27.285C105.746 27.5352 105.359 27.6996 104.95 27.7637C104.777 27.5119 104.649 27.2325 104.571 26.9376C104.347 26.3355 103.066 26.3355 103.22 27.7637C102.893 27.8206 102.556 27.7953 102.241 27.6903C101.926 27.5852 101.642 27.4035 101.414 27.1615C102.541 26.7137 102.317 25.6175 100.287 25.8105C100.201 25.6474 100.148 25.469 100.132 25.2855C100.287 25.2855 100.51 25.355 100.657 25.355C102.996 25.4477 103.969 22.7688 102.996 21.1167ZM99.3833 22.3596C99.6381 20.3215 102.919 21.5336 101.638 23.2629C101.474 23.4895 101.239 23.655 100.971 23.7332C100.703 23.8113 100.416 23.7977 100.156 23.6944C99.8968 23.5901 99.6799 23.402 99.5398 23.1601C99.3998 22.9182 99.3447 22.6364 99.3833 22.3596Z" fill="#110F0F"/>
<path d="M93.4383 75.0642C94.8665 75.0642 99.6143 74.3926 100.587 74.2382C101.938 74.0143 101.938 72.6942 100.587 72.6942C99.236 72.6942 93.886 73.1496 92.6045 73.6746C91.323 74.1996 91.9329 75.0642 93.4383 75.0642Z" fill="#110F0F"/>
<path d="M133.768 48.7311C134.069 50.5376 135.428 49.9355 134.972 46.7702C132.973 32.7969 133.567 30.6816 123.77 31.0444C124.596 30.9827 124.751 29.9868 122.705 29.7629C123.006 27.2076 124.728 23.3475 122.481 22.7685C121.968 22.7199 121.45 22.7748 120.958 22.9299C120.466 23.0851 120.01 23.3373 119.617 23.6718C118.938 24.4438 119.617 25.4165 120.389 25.0228C121.161 24.6291 121.748 24.2508 121.972 24.4206C122.798 25.1 120.165 30.2956 121.972 31.1988L118.884 31.4227C118.729 30.1952 117.147 30.7665 117.455 29.8401C117.903 28.0336 119.107 24.7989 118.227 23.1468C117.702 22.1664 116.429 21.7186 114.089 22.6218C112.738 23.1468 113.117 24.7217 114.244 24.3511C116.05 23.749 116.645 23.8262 116.876 24.1967C117.108 24.5673 116.429 28.0568 115.896 29.7629C115.769 30.1183 115.767 30.5064 115.89 30.863C116.014 31.2196 116.256 31.5233 116.575 31.7238C115.294 31.801 113.943 31.9477 112.584 32.1021C113.642 30.5967 115.371 28.188 114.244 27.0609C113.642 26.4587 112.7 26.3815 111.38 26.5282C110.253 26.6826 110.029 28.2652 111.156 28.188C111.928 28.188 112.661 28.0336 112.885 28.2652C113.263 28.713 110.778 31.4227 110.708 32.1716C59.5548 37.0275 46.3921 37.9693 42.3391 38.7954C37.4523 39.853 35.723 43.5355 36.8501 50.9082C37.7534 56.9298 41.6674 81.0165 43.6206 92.8282C37.7842 94.0866 26.9761 96.5801 22.5525 96.2868C21.4254 96.2096 21.5721 97.4139 22.5525 97.6378C26.5052 98.3017 34.8043 96.0938 43.8445 94.2564C44.2228 96.5724 47.4266 113.912 48.3607 118.258C49.7426 124.434 51.7807 124.604 62.8127 122.118C64.2409 121.74 63.6388 120.312 60.8518 120.844C51.6572 122.581 50.7076 122.674 49.7195 117.903C46.6314 103.86 40.2006 63.6154 38.2011 50.7383C37.0122 42.5628 39.6911 40.7563 42.5707 40.2236C52.6068 38.3785 79.4572 36.9349 110.368 33.677C111.673 35.4217 113.163 34.9971 112.684 33.4531C117.424 33.0053 121.339 32.6811 123.67 32.6271C132.556 32.4649 131.56 32.8509 133.768 48.7311Z" fill="#110F0F"/>
<path d="M127.144 38.4172C125.021 38.5716 48.2755 46.1836 42.9409 47.0637C40.2312 47.5192 39.3279 49.0246 41.891 48.7235C44.454 48.4225 126.696 39.9149 128.95 39.6911C131.205 39.4672 129.853 38.1934 127.144 38.4172Z" fill="#110F0F"/>
<path d="M110.446 99.3746C110.257 99.8128 110.25 100.308 110.426 100.752C110.602 101.195 110.946 101.551 111.384 101.741C111.822 101.93 112.318 101.937 112.762 101.762C113.205 101.586 113.561 101.241 113.75 100.803C114.73 98.3169 111.195 97.3365 110.446 99.3746Z" fill="#110F0F"/>
<path d="M108.639 87.0305C108.709 85.7489 104.046 85.7489 103.366 87.9337C102.687 90.1185 104.046 92.45 103.521 94.3337C103.065 96.063 100.51 96.364 100.656 97.7151C100.803 99.0661 103.744 98.8422 104.648 99.977C105.551 101.112 104.648 104.486 106.454 105.921C108.639 107.651 112.7 106.068 111.418 104.64C110.739 103.737 108.94 105.466 108.037 104.262C106.833 102.679 107.265 100.348 106.3 98.8576C105.528 97.6533 103.899 97.8077 103.667 97.4294C103.436 97.0511 105.327 96.2251 105.775 94.8741C106.3 93.3301 104.872 90.242 105.397 88.9991C105.922 87.7562 108.562 88.5359 108.639 87.0305Z" fill="#110F0F"/>
<path d="M46.3306 123.979C48.5154 123.979 48.1448 122.674 47.1026 122.319C45.906 121.925 45.7516 122.018 45.8982 119.084C46.1993 114.8 46.3306 113.302 45.5972 111.789C44.7402 109.998 42.1386 111.264 40.6332 113.294C39.8612 114.267 40.7876 115.85 41.6136 114.877C43.2657 112.993 43.9296 112.993 44.169 113.07C44.7016 113.371 44.2462 117.355 44.0995 119.316C43.9605 122.018 43.5436 123.979 46.3306 123.979Z" fill="#110F0F"/>
<path d="M99.0047 58.9603C97.8003 59.3385 97.8003 60.5043 99.0819 60.5043C110.098 60.4657 104.949 57.0997 99.0047 58.9603Z" fill="#110F0F"/>
<path d="M15.9292 61.6699C16.9096 61.5232 17.589 60.1259 17.8129 58.6591C17.9596 57.7558 17.7357 57.3081 17.0409 57.3853C16.1376 57.4548 16.0681 59.9406 15.6127 59.9406C15.1572 59.9406 14.4083 58.8907 14.03 58.3966C13.9487 58.2826 13.8334 58.1972 13.7006 58.1527C13.5677 58.1082 13.4243 58.1069 13.2906 58.1488C13.157 58.1908 13.0401 58.274 12.9566 58.3864C12.8731 58.4989 12.8273 58.6348 12.8257 58.7749C12.7485 59.9406 14.9487 61.8243 15.9292 61.6699Z" fill="#110F0F"/>
<path d="M12.7711 53.3167C12.6167 53.9188 13.2961 54.5982 13.8983 54.1504C14.7243 53.6178 16.1525 51.5102 16.1525 50.7613C16.083 49.7809 13.8365 48.8776 12.6167 48.731C12.4535 48.7392 12.2971 48.7991 12.17 48.902C12.043 49.0048 11.9519 49.1454 11.9098 49.3033C11.8677 49.4613 11.8769 49.6285 11.9359 49.7809C11.995 49.9333 12.1009 50.0631 12.2385 50.1514C13.0105 50.3753 14.346 50.7536 14.346 51.1319C14.346 51.5102 12.9178 52.344 12.7711 53.3167Z" fill="#110F0F"/>
<path d="M80.9473 24.7219C77.0873 25.1002 14.1996 32.249 11.5671 32.7739C8.93451 33.2989 8.63343 34.7348 10.5094 34.4337C12.3854 34.1327 80.1908 26.3045 82.8233 26.0806C85.4559 25.8567 84.7842 24.3513 80.9473 24.7219Z" fill="#110F0F"/>
</svg>
