<svg width="155" height="155" viewBox="0 0 155 155" fill="none" xmlns="http://www.w3.org/2000/svg">
<path d="M138.452 134.226C139.021 133.672 139.406 132.956 139.554 132.175C139.702 131.395 139.605 130.587 139.278 129.864C137.721 131.045 135.881 131.796 133.943 132.042C135.896 130.914 135.672 129.107 135.672 127.532C138.151 127.154 138.151 124.599 137.548 122.422C137.023 122.646 136.267 122.947 135.371 123.248C135.341 122.038 135.241 120.832 135.07 119.635C138.529 118.507 140.258 116.701 138.374 112.872C138.272 113.922 137.86 114.919 137.191 115.735C136.521 116.552 135.625 117.151 134.615 117.458V112.64C138.297 110.764 136.753 107.29 133.071 106.101C121.946 102.535 122.463 113.475 124.872 117.759C124.376 119.268 124.404 120.9 124.949 122.391C120.109 119.064 111.354 119.38 111.115 125.247C110.96 128.25 110.513 131.107 110.513 131.107C110.513 131.107 108.861 131.339 108.629 132.466C108.397 133.593 108.181 137.8 109.231 139.081C110.281 140.363 114.419 140.957 117.353 140.811C119.237 140.781 121.09 140.333 122.781 139.5C124.471 138.667 125.955 137.469 127.126 135.993C129.581 133.623 135.966 133.168 138.452 134.226Z" fill="#0ACF83"/>
<path d="M120.255 85.3503C122.363 77.306 125.443 62.2673 127.62 53.698C129.426 46.6264 126.57 45.3526 120.255 44.2178C96.7551 40.0026 96.0911 39.7247 93.4123 50.3089C92.316 54.6321 87.6222 74.0481 87.1745 76.6266C86.7267 79.2051 86.4951 82.1148 89.4905 83.0953C96.4385 85.4113 102.499 86.8557 109.045 88.585C113.183 89.7893 118.827 90.986 120.255 85.3503ZM88.5255 76.5494C90.4014 68.2812 92.6557 58.9554 94.9177 50.7644C97.3032 42.1333 95.8518 41.0911 120.031 45.8004C125.435 46.8503 127.751 47.2286 126.207 53.4664C117.785 86.5392 121.969 90.5228 109.439 87.3035C88.9192 81.7836 87.1899 82.3696 88.5255 76.5494Z" fill="#0ACF83"/>
<path d="M120.703 28.8087C118.333 31.0706 117.098 31.2559 119.352 34.8998C120.255 36.3975 120.896 35.4634 122.888 33.24C123.915 32.0974 122.888 30.7618 122.208 29.1098C121.977 28.5076 121.514 28.0367 120.703 28.8087Z" fill="#0ACF83"/>
<path d="M138.073 7.13093C125.172 5.95748 121.505 4.77631 119.799 10.7362C117.545 18.8577 115.669 26.3771 114.31 33.5181C113.114 39.5398 116.418 39.4626 124.995 40.8136C141.979 43.4693 141.006 45.6309 144.689 28.6313C149.082 8.39702 151.915 8.62862 138.073 7.13093ZM146.418 14.4959C138.775 43.6314 142.218 41.5856 132.584 40.4353C130.028 40.1342 123.86 39.0843 118.749 38.1811C113.809 37.2469 115.576 34.8228 120.934 12.9905C121.984 8.78303 122.432 7.35481 127.018 7.7331C131.603 8.11138 136.946 8.5051 141.531 9.08411C145.592 9.63223 147.7 9.55503 146.418 14.519V14.4959Z" fill="#0ACF83"/>
<path d="M111.168 57.9831C109.74 56.5549 106.66 53.0963 105.61 56.1766C105.008 57.9059 102.9 63.6188 106.884 62.4916C109.2 61.8123 114.017 60.9167 111.168 57.9831Z" fill="#0ACF83"/>
<path d="M129.048 138.735C127.017 140.765 126.493 146.107 130.028 147.381C137.393 150.045 143.739 145.127 139.879 138.511C138.227 135.724 131.758 135.955 129.048 138.735Z" fill="#0ACF83"/>
<path d="M41.8348 43.4152C38.2835 42.7281 34.7632 42.0642 31.1502 41.6087C24.0863 40.6359 21.6082 40.6359 20.1028 48.302C18.5974 55.0725 16.7137 62.9701 15.0616 69.6557C14.691 71.3155 14.4594 74.0175 16.9453 75.0597C21.531 77.0129 26.8656 78.665 32.1306 80.3171C39.8507 82.7258 40.6999 79.1205 42.1667 72.597C43.3016 68.0885 46.3047 56.2845 47.509 51.6988C48.9758 46.179 46.9995 44.3956 41.8348 43.4152ZM45.8878 51.3128C44.0427 58.1219 41.3021 69.841 39.5033 76.5729C38.4457 80.3326 35.512 79.7304 32.5089 78.8889C27.9232 77.6151 22.9592 76.0325 18.6128 74.3804C15.9803 73.3999 15.8336 72.0644 16.4357 69.7483C22.8743 45.1059 21.3303 42.1722 27.4832 42.9056C32.2078 43.4692 36.9557 44.1872 41.6186 45.1599C45.8878 45.7312 47.1616 46.6036 45.8878 51.2896V51.3128Z" fill="#0ACF83"/>
<path d="M54.4647 18.9581C56.2172 13.1526 50.3267 13.6158 43.564 13.2452C39.5032 13.0136 37.4728 13.3919 36.1913 17.8309C30.988 34.9618 29.0811 34.375 39.2793 36.3591C50.8749 38.5825 48.3118 39.285 54.4647 18.9581ZM43.9345 35.6489C34.9561 34.0354 32.8794 34.1048 33.4815 31.2098C34.0837 28.3148 37.0945 19.1047 38.1136 16.6266C39.1095 14.0095 40.6303 14.2411 49.6165 14.9745C51.9325 15.1984 53.8239 15.8778 52.9207 18.5026C48.1728 35.4713 48.9294 36.5753 43.9345 35.6489Z" fill="#0ACF83"/>
<path d="M94.8406 24.0687C96.2688 18.5025 95.7438 15.6461 89.4983 14.8972C84.0093 14.2179 79.053 13.8473 72.3597 13.469C62.756 12.9904 60.8645 12.9749 58.371 22.2622C57.1821 26.7167 52.4883 45.7698 51.6777 50.0081C50.7821 54.5244 52.4497 56.2537 56.7961 57.3036C79.9563 62.9624 81.9789 63.1708 84.5883 60.7622C87.3598 57.9135 87.3058 54.5938 94.8406 24.0687ZM75.3628 59.8589C54.1635 55.1497 51.4692 55.6824 52.882 49.7842C55.4373 39.7095 57.9232 29.1099 60.7024 19.2591C61.9068 15.1211 65.1415 14.6733 68.1446 14.82C75.3628 15.0439 80.7823 15.4222 86.8735 16.171C92.9646 16.9199 94.9873 16.943 93.258 23.7676C91.1581 32.113 87.6995 48.0549 85.4375 55.7982C83.8626 61.2871 79.7247 60.8394 75.3628 59.8589Z" fill="#0ACF83"/>
<path d="M94.6868 70.914C91.344 74.1409 90.8267 73.9402 91.3826 75.6541C91.5447 76.1713 92.0619 77.7539 92.5869 79.0355C93.4901 81.8919 96.1922 77.7539 97.0954 77.229C98.5236 75.8008 96.8715 73.4693 96.5705 71.4389C96.3466 70.6129 95.729 69.9181 94.6868 70.914Z" fill="#0ACF83"/>
<path d="M57.0197 45.8005C55.8154 47.2287 56.7186 49.1046 57.7917 51.3666C58.5637 53.0187 59.3743 51.9688 62.4238 48.8036C63.7053 47.4525 62.501 45.5766 61.7521 43.9168C60.8566 41.8709 59.5751 42.8668 57.0197 45.8005Z" fill="#0ACF83"/>
<path d="M35.7434 29.7815C35.2107 30.3142 35.2879 30.3837 35.9673 32.0976C36.2684 32.8696 36.5694 32.3986 38.1443 31.1248C38.6693 30.5999 37.9976 29.465 37.6966 28.8088C37.3183 27.9056 36.7161 28.8088 35.7434 29.7815Z" fill="#0ACF83"/>
<path d="M19.1994 67.0001C18.5972 67.6795 18.4274 67.8339 19.5777 70.9142C20.2493 72.5972 21.2606 71.4855 23.1829 69.5632C24.009 68.5055 23.8623 68.5055 22.7352 65.4252C22.2797 64.1437 21.3764 64.6764 19.1994 67.0001Z" fill="#0ACF83"/>
<path d="M126.724 35.9492C127.998 36.8524 133.41 37.3774 135.07 37.3774C135.672 37.3774 136.421 36.4741 135.139 35.872C133.858 35.2698 130.183 34.8993 127.998 34.5982C126.192 34.4438 126.269 35.5709 126.724 35.9492Z" fill="#001434"/>
<path d="M112.581 24.7482C110.265 24.1769 97.4343 21.9767 96.9479 23.6211C96.6237 24.6941 98.214 24.9103 113.114 26.4775C114.465 26.6242 115.028 25.2731 112.581 24.7482Z" fill="#001434"/>
<path d="M85.2911 36.1047C86.7193 30.3841 87.8464 28.5854 85.5921 25.7212C79.887 18.4644 81.4387 19.136 69.8046 18.5802C67.0176 18.4335 65.2883 18.0552 64.1612 21.9615C58.3403 43.5777 56.4411 40.5746 74.1973 43.4697C83.4151 44.9596 83.0368 44.9596 85.2911 36.1047ZM80.1032 21.591C82.0021 23.4408 83.669 25.5147 85.0672 27.767C78.0573 26.995 79.1768 27.9214 80.1032 21.591ZM78.8216 32.2678C78.5982 32.338 78.3625 32.3605 78.1297 32.334C77.897 32.3074 77.6725 32.2322 77.4706 32.1134C77.3934 31.8896 77.4706 31.0635 77.6945 30.9863C78.1277 30.9178 78.5715 30.9713 78.976 31.1407C79.1227 31.2874 79.0532 32.1906 78.8216 32.2678ZM75.7336 32.1134C75.9575 32.044 76.9379 32.1134 77.0151 32.2678C77.0923 32.4222 77.0846 33.4722 76.8607 33.5417C76.6368 33.6111 75.7336 33.5417 75.5869 33.3178C75.4402 33.0939 75.5174 32.1906 75.7413 32.1134H75.7336ZM74.3826 31.6657C74.3162 31.2999 74.3966 30.9226 74.6065 30.6157C74.8141 30.5255 75.0419 30.4915 75.2669 30.5173C75.4919 30.543 75.7061 30.6276 75.888 30.7624C76.0347 30.9863 75.8108 31.7429 75.5097 31.8124C75.2086 31.8818 74.4675 31.8355 74.3903 31.6657H74.3826ZM76.2586 30.4613C76.2112 30.0961 76.2902 29.7256 76.4824 29.4114C76.9103 29.3565 77.3446 29.3801 77.764 29.4809C77.9184 29.6353 77.764 30.3841 77.5401 30.5385C77.3162 30.6929 76.3435 30.6852 76.2663 30.4613H76.2586ZM63.9064 40.1578C62.0922 39.8181 61.3511 39.3317 61.7294 37.4557C62.8565 31.9668 64.0454 27.1572 65.7824 21.4366C66.2379 19.8926 67.4422 19.8926 69.6425 20.0084C73.1783 20.2322 74.4598 20.3094 78.7444 20.8344C78.2117 23.4747 77.5324 26.6399 78.2889 27.6821C76.2586 28.2843 74.3054 28.4541 72.8849 27.906C71.6034 27.4505 71.9044 26.4006 70.4067 26.4006C68.1448 26.4006 65.5122 32.1906 65.1417 33.5417C64.6862 35.2709 65.1417 36.1742 66.6471 35.8577C67.9209 35.6338 69.2024 33.8273 70.8545 33.9817C74.4675 34.2828 76.1968 34.1284 77.6945 37.1392C78.8216 39.3935 80.9292 37.6642 81.3075 35.711C81.6039 33.3023 81.3399 30.8589 80.5355 28.5699C82.0409 28.8633 83.8474 29.0177 85.4223 29.2416C84.6071 33.3282 83.5764 37.3689 82.3343 41.3466C81.6086 43.6086 79.5164 43.1223 63.9373 40.1578H63.9064ZM70.0825 31.2102C69.8509 30.9863 69.2487 31.2102 69.0249 30.9091C68.9257 30.7299 68.9017 30.5187 68.9581 30.3218C69.0146 30.125 69.1469 29.9586 69.3259 29.8592C69.627 29.7125 70.3064 30.0136 70.4531 29.8592C70.5998 29.7048 70.6075 29.257 70.9086 28.9559C71.115 28.8642 71.3425 28.8301 71.5668 28.8573C71.7911 28.8845 72.0038 28.9719 72.1824 29.1103C72.3368 29.3342 71.9585 29.9364 72.1129 30.0831C72.2673 30.2297 73.0084 30.2375 73.1628 30.4613C73.2246 30.6463 73.2289 30.8456 73.1751 31.033C73.1214 31.2204 73.0121 31.3872 72.8617 31.5113C72.5606 31.6657 71.8813 31.4418 71.7346 31.5113C71.5879 31.5808 71.5107 32.345 71.2791 32.5689C71.0475 32.7928 70.2292 32.87 70.0825 32.4145C69.7274 31.9668 70.2523 31.4418 70.1057 31.2102H70.0825Z" fill="#001434"/>
<path d="M80.4812 48.6571C79.1997 48.1321 69.8738 46.3411 67.774 46.3411C66.3457 46.3411 66.1913 47.9237 67.4729 48.2248C68.7544 48.5258 78.9758 50.5408 80.404 50.6257C81.8322 50.7106 81.755 49.1821 80.4812 48.6571Z" fill="#001434"/>
<path d="M112.582 31.5874C113.485 31.2091 112.736 30.4603 111.153 30.2364C109.571 30.0125 101.835 28.9549 99.5732 28.6924C97.3112 28.4299 96.5624 29.1479 97.2572 29.5956C98.0832 30.1129 111.431 31.9734 112.582 31.5874Z" fill="#001434"/>
<path d="M113.037 76.1796C111.755 75.4076 104.545 73.8636 102.808 73.6242C101.071 73.3849 100.631 74.8981 101.603 75.3535C103.711 76.2491 110.559 77.8317 112.411 77.8317C114.017 77.8317 113.786 76.6119 113.037 76.1796Z" fill="#001434"/>
<path d="M117.399 69.8647C118.672 65.6495 119.429 62.492 120.255 58.9562C121.081 55.4204 120.031 55.1965 115.669 49.5609C114.766 48.4337 113.716 48.2793 111.91 47.9088C102.321 45.724 99.6733 45.7626 98.6774 50.7652C95.8982 63.9897 92.9645 67.6722 97.6969 68.6603C100.329 69.2625 108.451 71.594 113.183 72.3428C116.573 72.8678 116.943 71.3624 117.399 69.8647ZM113.539 54.2238C113.762 53.1661 114.218 51.6684 114.519 50.5413C116.017 52.2706 117.375 54.2238 118.726 56.0998C113.901 55.0653 113.299 55.3818 113.562 54.2238H113.539ZM114.666 56.9258C117.152 67.1549 100.368 68.421 101.132 58.354C101.534 53.0812 107.826 51.5912 112.033 53.5444C111.562 55.9145 112.62 56.4086 114.689 56.9258H114.666ZM113.237 70.7602C108.127 69.7103 103.24 68.6603 98.1987 67.3016C96.9249 66.931 96.2764 66.7843 96.6547 65.4256C101.086 47.9088 99.7428 47.407 104.923 48.0555C106.428 48.2793 113.268 49.7075 113.268 49.7075C113.044 50.3097 112.496 52.3401 112.496 52.3401C105.124 47.9088 95.6511 56.2542 101.295 63.7735C106.629 70.0113 118.279 65.8039 116.256 57.1574C117.229 57.3041 118.132 57.4585 119.035 57.6824C116.117 69.6639 116.488 71.4087 113.261 70.7602H113.237Z" fill="#001434"/>
<path d="M139.957 26.5549C142.852 15.5924 143.045 18.1091 138.976 13.5466C138.073 12.6433 136.946 11.1379 135.518 10.9835C128.153 10.3119 124.841 9.63249 124.015 12.5661C123.034 16.1714 121.761 20.2862 120.927 23.9918C120.471 25.7983 121.228 27.3037 123.243 27.6048C127.149 28.207 130.909 28.8092 134.823 29.4808C137.548 29.9363 139.131 29.7819 139.957 26.5549ZM136.645 13.3072C137.772 14.4421 138.83 15.6233 139.88 16.6964C137.564 16.6964 136.722 16.7658 136.421 16.2409C136.12 15.7159 136.267 14.5193 136.645 13.3072ZM135.966 20.3788C133.04 20.0778 129.952 19.7767 126.424 19.3289C127.25 16.1637 128.3 17.0129 129.35 18.3485C129.464 18.503 129.611 18.6302 129.781 18.721C129.95 18.8118 130.138 18.8638 130.33 18.8734C132.499 19.1127 132.862 19.3212 133.866 18.6495C135.572 16.9511 136.105 17.9779 135.966 20.3866V20.3788ZM135.371 23.7602C133.943 25.5667 128.423 24.4396 127.319 24.0613C126.992 23.998 126.693 23.8336 126.464 23.5911C126.236 23.3487 126.089 23.0406 126.045 22.7103C126.928 22.9257 127.855 22.8765 128.71 22.569C129.565 22.2616 130.311 21.7093 130.855 20.981C132.136 23.243 133.866 23.9223 135.371 23.7679V23.7602ZM125.667 12.7051C125.893 12.3865 126.201 12.135 126.559 11.9774C126.916 11.8197 127.31 11.7617 127.697 11.8096C130.243 11.8458 132.782 12.0705 135.294 12.4812C134.848 13.7381 134.618 15.0616 134.615 16.3953C133.888 16.6902 133.225 17.1225 132.661 17.6691L130.484 17.4452C127.474 13.8399 125.744 16.0942 124.841 19.1745C124.463 19.0973 124.162 19.0973 123.791 19.0278C124.092 18.2018 125.065 14.0793 125.667 12.7128V12.7051ZM123.49 26.2461C121.174 25.752 122.718 23.2816 123.559 20.155C123.741 20.7629 124.049 21.3258 124.463 21.807C123.791 26.0917 130.407 26.0917 132.808 26.0917C134.314 26.0917 136.799 25.7906 137.023 23.0886C137.907 22.5255 138.57 21.6747 138.899 20.6799C136.305 20.3094 137.842 21.1508 137.17 18.1246C138.228 18.1941 139.2 18.1941 140.258 18.2713C139.859 21.2849 139.1 24.2397 137.996 27.0721C137.363 28.7474 136.39 28.0603 123.521 26.2538L123.49 26.2461Z" fill="#001434"/>
<path d="M100.631 78.9281C100.407 79.978 101.457 80.3555 104.769 81.1816C108.629 82.0848 110.427 82.7727 110.945 81.6378C111.562 80.2482 100.932 77.4535 100.631 78.9281Z" fill="#001434"/>
<path d="M134.167 33.5413C135.371 33.7729 135.672 32.4914 134.39 32.1131C126.871 29.9052 126.292 32.2598 128.075 32.6458C129.125 32.8697 132.962 33.3175 134.167 33.5413Z" fill="#001434"/>
<path d="M117.02 127.61C123.567 127.772 123.057 123.287 121.606 124.6C119.8 126.252 117.746 126.437 116.117 126.63C115.368 126.715 115.515 127.61 117.02 127.61Z" fill="#001434"/>
<path d="M130.708 111.29C131.712 111.25 132.703 111.046 133.642 110.688C135.07 110.086 135.14 108.882 134.314 109.183C132.615 109.774 130.844 110.13 129.049 110.24C128.076 110.294 128.524 111.352 130.708 111.29Z" fill="#001434"/>
<path d="M125.837 107.607C127.783 106.759 129.891 106.348 132.013 106.404C133.742 106.481 132.839 105.053 129.535 105.053C124.185 105.053 123.027 109.174 125.837 107.607Z" fill="#001434"/>
<path d="M110.558 104.974C107.694 103.925 82.357 95.803 80.7049 95.278C79.0528 94.7531 78.8212 95.7258 81.2299 96.7063C86.1862 98.6903 107.694 105.33 107.771 105.353C110.852 106.256 113.562 106.024 110.558 104.974Z" fill="#001434"/>
<path d="M32.3544 117.605C13.0542 109.353 11.2168 109.245 11.9039 106.481C12.2127 105.076 8.93939 106.573 10.854 109.336C12.1741 111.236 17.9178 113.244 20.2493 114.224C31.8834 119.211 31.6596 118.609 32.4316 119.713C33.0337 120.693 33.5587 122.121 34.9097 122.646C48.1728 127.278 50.3499 130.042 54.5419 128.822C55.0375 128.671 55.5582 128.619 56.0737 128.671C56.5893 128.723 57.0894 128.877 57.545 129.124C77.9877 137.886 83.0212 141.237 97.0949 129.054C97.6199 128.599 97.6971 127.093 93.6363 130.104C81.7628 138.743 76.2353 135.585 59.668 128.375C53.8007 125.82 54.6268 128.823 50.7976 127.325C46.6597 125.665 41.3946 123.712 35.8284 121.535C33.7826 120.693 34.2381 118.431 32.3544 117.605Z" fill="#001434"/>
<path d="M37.3186 111.97C38.2991 110.164 35.2882 112.117 34.6861 112.742C31.0808 116.355 36.7165 118.146 39.3181 119.212C49.1612 123.072 50.2883 123.62 51.1221 122.894C51.346 122.67 50.7516 122.068 49.0223 121.466C47.4396 120.941 34.6166 116.347 34.9563 114.695C35.2574 113.391 36.6393 113.175 37.3186 111.97Z" fill="#001434"/>
<path d="M105.517 116.555C93.8059 123.851 93.2347 125.819 84.1636 122.491C74.691 119.187 38.6692 105.801 29.7216 101.138C24.7345 98.6447 36.1988 93.7888 38.2986 92.0441C40.4448 89.8902 31.3969 93.9432 27.9923 97.1547C26.3402 98.6602 26.1163 101.37 28.2239 102.265C40.1746 107.608 71.4563 119.713 87.545 125.125C93.9603 127.294 99.4416 122.369 107.393 116.555C108.134 115.984 108.227 114.903 105.517 116.555Z" fill="#001434"/>
<path d="M134.167 133.022C137.703 132.25 140.559 130.235 139.88 126.251C140.706 125.279 140.93 124.754 140.93 123.017C140.93 121.519 141.084 120.701 140.405 119.635C140.86 116.856 140.86 113.776 138.861 111.29C139.756 99.1231 121.274 100.389 119.159 108.434C118.634 110.387 119.159 114 120.286 115.652C119.908 116.424 119.908 116.933 120.062 118.207C114.342 116.663 105.548 119.265 106.297 126.329C103.595 128.282 103.896 133.169 104.753 135.431C107.455 142.379 125.806 141.367 123.853 131.972C123.922 131.895 124.077 131.818 124.154 131.671C126.314 132.847 128.764 133.382 131.218 133.215C125.582 133.987 123.328 138.403 124.524 143.668C125.868 149.697 140.814 150.5 143.176 144.27C143.624 143.143 143.624 139.985 142.952 138.094C141.833 134.898 138.529 132.721 134.167 133.022ZM139.432 121.588C139.725 123.248 139.216 124.839 138.374 125.449C135.402 127.533 128.824 127.402 125.968 126.221C126.05 125.385 125.974 124.542 125.744 123.735C130.183 125.201 136.421 124.754 139.432 121.588ZM139.2 117.08C139.277 119.265 138.675 120.392 136.946 121.519C132.962 124.074 124.393 123.171 122.587 119.411C122.253 118.762 122.121 118.028 122.208 117.304C126.725 120.994 134.916 121.743 139.2 117.08ZM130.484 118.624C134.344 118.392 137.926 116.817 138.529 113.506C138.598 117.528 134.09 118.964 130.469 118.663L130.484 118.624ZM136.197 106.588C136.658 107.164 136.889 107.889 136.847 108.625C136.804 109.36 136.49 110.054 135.966 110.572C132.507 113.807 123.112 113.205 121.382 109.074C119.707 105.338 131.789 100.829 136.197 106.627V106.588ZM120.633 110.804C124.015 114.864 133.758 115.165 137.401 111.406C137.023 119.226 123.86 117.945 121.606 114.038C120.969 113.094 120.63 111.981 120.633 110.842V110.804ZM111.308 120.423C115.592 118.323 122.363 118.995 123.86 123.055C124.083 123.657 124.128 124.31 123.991 124.936C123.855 125.563 123.541 126.137 123.088 126.591C117.515 132.018 102.237 125.001 111.308 120.461V120.423ZM106.676 129C107.355 132.528 113.214 134.635 118.634 134.033C113.045 135.809 105.101 133.153 106.645 129.038L106.676 129ZM122.116 135.176C119.329 139.916 105.193 139.237 105.718 132.319C109.254 136.951 118.958 137.507 122.563 133.091C122.594 133.827 122.421 134.556 122.062 135.199L122.116 135.176ZM108.729 129.687C108.226 128.713 107.992 127.623 108.05 126.529C110.906 130.745 120.402 131.933 124.447 127.51C123.521 134.906 110.636 133.045 108.675 129.71L108.729 129.687ZM125.119 130.513C125.575 129.678 125.856 128.758 125.945 127.811C129.936 129.239 135.873 129.015 138.652 127.132C137.865 132.536 129.465 132.744 125.065 130.536L125.119 130.513ZM140.76 136.905C141.132 137.335 141.362 137.87 141.416 138.436C141.469 139.002 141.345 139.57 141.061 140.063C138.583 144.355 128.879 143.923 126.478 139.538C124.47 135.176 136.876 132.281 140.706 136.928L140.76 136.905ZM141.74 144.123C139.185 148.64 125.343 148.339 125.875 141.12C129.403 145.482 139.254 145.629 142.041 141.12C142.154 142.143 142.033 143.178 141.686 144.147L141.74 144.123Z" fill="#001434"/>
<path d="M67.1636 51.2127C65.5038 51.1355 65.3571 52.5714 66.7853 53.0192C68.2136 53.467 74.0036 54.6713 75.2079 54.8257C76.4123 54.9801 77.6166 53.6986 75.5862 53.0192C72.8377 52.1687 70.0191 51.5642 67.1636 51.2127Z" fill="#001434"/>
<path d="M134.089 141.592C134.236 142.194 136.567 142.194 138.451 141.144C140.559 140.017 139.995 138.21 139.277 138.89C136.869 141.368 133.943 140.766 134.089 141.592Z" fill="#001434"/>
<path d="M129.28 138.588C131.194 137.431 133.362 136.758 135.595 136.627C137.139 136.558 135.742 135.353 133.341 135.576C127.481 136.055 127.844 139.576 129.28 138.588Z" fill="#001434"/>
<path d="M110.852 124.754C111.531 124.978 111.686 123.094 113.484 122.191C115.283 121.287 118.07 121.295 117.622 120.647C117.321 120.122 114.766 119.875 112.288 121.172C110.026 122.268 110.026 124.522 110.852 124.754Z" fill="#001434"/>
<path d="M147.453 30.7622C145.87 29.9902 145.554 31.2331 146.395 32.1132C147.43 33.194 149.182 34.8229 148.503 39.6325C145.87 57.0027 136.807 95.2865 136.321 97.1548C135.834 99.0231 135.549 100.467 136.321 100.467C136.923 100.467 137.602 100.011 138.127 97.5331C138.652 95.0549 145.423 66.0275 146.395 61.1407C150.85 39.6403 152.301 33.827 147.453 30.7622Z" fill="#001434"/>
<path d="M98.7468 106.18C97.9748 106.064 97.3881 106.643 92.4318 109.862C89.6525 108.658 86.8733 107.453 84.0864 106.404C85.2723 105.579 86.3808 104.649 87.3983 103.624C88.3556 102.628 87.4678 102.419 85.8929 103.392C84.318 104.365 83.4842 104.898 82.3571 105.655C77.9952 103.995 76.0498 103.184 75.216 103.624C74.3822 104.064 75.8954 104.751 80.705 106.627C78.0724 108.356 75.4399 110.162 72.8845 112.116C71.078 111.344 69.2716 110.572 67.4805 109.8C69.2793 108.302 70.9391 106.943 70.9391 106.495C70.9391 106.048 70.3369 105.894 69.3565 106.573C68.376 107.253 67.1022 108.117 65.7512 109.051C61.6132 107.244 57.7069 105.593 53.5689 104.088C55.2982 103.038 56.9503 101.91 58.6796 100.852C60.3317 101.454 62.2926 102.211 64.3925 102.96C66.2762 103.639 67.4805 102.813 66.199 102.28C64.4697 101.609 62.2154 100.628 60.3317 99.8021C62.061 98.675 63.7903 97.6173 65.4501 96.4902C68.901 97.6945 71.1475 98.7059 71.989 98.3739C72.5912 98.15 72.2901 97.6019 66.9555 95.4403C69.4337 93.7882 70.638 92.3523 69.7348 92.4295C68.8315 92.5067 67.55 93.3335 65.149 94.8389C62.5165 93.9356 59.8839 93.0316 57.1742 92.2056L59.8839 90.6616C61.428 89.7506 59.9689 88.5771 55.0743 91.6343C52.8124 90.8623 50.7125 90.1366 50.1103 90.6616C49.2071 91.4876 52.519 92.4611 53.1984 92.6927C52.4264 93.0633 49.7398 94.3448 51.0213 94.7926C51.9245 95.0937 53.1212 94.422 55.2287 93.2949C58.0852 94.1209 60.7177 95.0234 63.4275 95.9266C61.6982 97.0538 59.9689 98.1045 58.309 99.2316C54.1788 97.5795 52.905 97.6876 52.4495 97.8806C51.6312 98.2666 52.3723 98.5515 56.6569 100.281C55.0049 101.338 53.3528 102.466 51.6929 103.516C47.7866 102.088 43.9729 100.66 40.1128 99.0849C41.3944 98.2512 41.9193 97.8034 43.0465 97.124C44.4747 96.1513 44.7758 94.4212 42.8998 95.4712C41.0238 96.5211 39.9662 97.3549 38.4607 98.3276C36.8086 97.5015 35.0793 97.1233 34.4772 97.5556C34.0294 98.0033 35.9054 98.7607 37.0325 99.2856C36.0598 99.8878 34.8555 100.83 35.6815 101.162C36.3609 101.393 37.4108 100.714 38.6151 100.034C42.5987 101.687 46.1345 102.968 50.0408 104.474C47.1844 106.581 47.7866 107.329 48.4968 107.252C49.2071 107.175 50.6816 105.901 51.7315 105.144C55.8695 106.727 59.9997 108.31 64.0837 110.108C62.4316 111.39 61.4588 112.517 62.4316 112.517C63.0337 112.517 63.5587 112.216 65.6663 110.788C67.0173 111.39 69.4259 112.44 71.2324 113.196C69.3487 114.995 70.8542 115.296 72.7765 113.868C75.934 115.15 77.8949 114.547 74.1352 112.895C76.8372 110.865 79.1687 109.282 82.1023 107.329C84.8121 108.379 87.738 109.583 90.5249 110.788C88.7647 111.984 82.1255 116.332 81.8012 117.783C81.6391 119.327 86.8579 115.157 92.177 111.467C94.6551 112.44 96.3844 113.343 97.3649 113.011C98.3453 112.679 96.9171 112.038 93.6824 110.379C95.2264 109.251 96.0911 108.727 97.3649 107.823C99.1251 107.229 99.2795 106.18 98.7468 106.18Z" fill="#001434"/>
<path d="M50.2498 21.1344C50.4042 20.0073 49.3697 18.8725 48.7521 17.9769C47.4319 16.0778 46.9456 16.3248 41.6033 15.9466C41.041 15.8937 40.4788 16.0482 40.0224 16.3809C39.566 16.7136 39.2469 17.2016 39.1251 17.7531C37.0098 23.7979 36.0757 26.7238 38.3531 27.38C39.3413 27.6579 43.0933 28.4299 45.3012 28.731C48.9682 29.1942 48.7289 27.2024 50.2498 21.1344ZM47.1617 18.4324C47.5786 18.9157 47.9569 19.4322 48.2889 19.9764C47.7639 19.907 47.2389 19.8298 46.9379 19.7526C46.9463 19.3032 47.0245 18.8578 47.1695 18.4324H47.1617ZM45.5096 27.0789C43.4606 26.8438 41.4269 26.4906 39.4185 26.0213C38.7391 25.8746 38.137 25.8746 38.5925 23.9909C40.0979 18.2317 40.4916 17.4211 41.8272 17.3053C41.8272 17.3053 45.2086 17.6064 45.8107 17.6759C45.4324 20.8334 45.5791 20.9878 48.6672 21.5359C47.4628 27.1561 47.4088 27.241 45.5482 27.0789H45.5096Z" fill="#001434"/>
<path d="M45.741 24.5938C45.5171 23.9222 45.3627 23.5439 45.3627 23.5439C45.3627 23.5439 46.1888 22.8645 46.1888 22.3396C45.988 21.0966 44.8995 20.6566 44.6911 22.1157C43.3169 19.6067 43.3864 19.5835 41.8346 18.8038C41.5336 18.7343 41.4564 18.6571 41.3792 19.0354C41.3792 21.197 41.4795 20.371 43.1084 22.9417C42.2824 22.7179 41.6802 23.0189 41.5644 23.2428C41.4486 23.4667 41.7188 24.1461 42.6221 24.5244C43.1266 24.5678 43.6348 24.5154 44.1198 24.37C44.3992 24.6039 44.6579 24.8625 44.8918 25.142C44.826 25.2812 44.8108 25.439 44.8485 25.5883C44.8863 25.7376 44.9748 25.8691 45.0989 25.9603C45.2229 26.0515 45.3748 26.0968 45.5286 26.0883C45.6824 26.0799 45.8284 26.0182 45.9417 25.914C46.1016 25.8714 46.2402 25.7714 46.3309 25.633C46.4215 25.4945 46.4579 25.3275 46.4331 25.1639C46.4082 25.0004 46.3238 24.8517 46.1961 24.7465C46.0684 24.6413 45.9063 24.5869 45.741 24.5938Z" fill="#001434"/>
<path d="M53.7077 77.4529C54.1941 75.4148 57.1663 63.1707 57.699 61.1403C58.2317 59.11 56.8652 58.9556 55.8925 60.9165C54.9198 62.8774 51.7545 76.7812 51.5306 78.58C51.3068 80.3788 53.2136 79.5527 53.7077 77.4529Z" fill="#001434"/>
<path d="M59.1275 78.8121C61.8296 79.5841 110.559 94.2523 128.075 98.6604C131.681 99.5637 132.885 97.7572 133.642 94.4453C134.414 91.2878 142.211 58.2072 144.542 47.6771C145.893 41.501 146.719 37.9035 146.086 37.5329C144.797 36.6682 143.315 49.1748 132.028 93.8894C130.855 98.7145 130.106 97.5487 116.688 93.8894C99.0171 88.7787 76.544 82.5409 59.9922 77.4997C58.1162 76.8975 58.3401 76.0715 58.4945 74.79C59.0195 70.8836 61.3509 63.5109 61.1965 61.4806C61.127 60.9556 60.4245 60.7086 59.7683 63.0246C58.8651 66.2593 58.2243 69.6407 57.3674 72.8754C56.6417 76.0252 56.4178 78.0556 59.1275 78.8121Z" fill="#001434"/>
<path d="M44.691 32.4138C43.7105 32.1127 40.6302 31.5877 39.8042 31.8116C38.9781 32.0355 38.8237 32.8693 39.8042 33.0931C41.4882 33.4783 43.1953 33.7542 44.9148 33.9192C45.8181 33.9964 45.7409 32.6454 44.691 32.4138Z" fill="#001434"/>
<path d="M44.0886 29.7113C43.2625 29.5569 42.506 29.4102 41.0778 29.2558C39.6495 29.1014 39.3485 30.3135 40.5528 30.6146C41.91 30.9573 43.295 31.182 44.6908 31.2862C46.2657 31.4406 45.8179 30.0124 44.0886 29.7113Z" fill="#001434"/>
<path d="M101.133 134.227C89.012 142.448 84.6116 144.795 75.5714 142.348C71.5106 141.221 17.5936 119.86 9.32543 115.575C5.78964 113.699 5.78964 111.97 5.78964 109.484C5.78964 105.384 5.31871 106.396 27.7455 94.445C34.8171 90.6853 44.7297 85.3508 47.3699 84.0692C50.7591 82.4172 54.6654 83.0193 57.9001 83.9998C71.7963 88.13 110.397 100.011 113.994 100.984C117.901 102.034 120.078 100.76 116.696 99.8568C38.1831 78.5648 61.6212 74.8438 26.7728 92.708C21.1294 95.7188 10.908 101.131 7.47261 103.092C5.06395 104.52 3.85962 105.647 3.85962 109.329C3.85962 111.885 3.85962 114.733 8.44534 117.15C16.7135 121.512 63.2579 139.932 70.2522 142.626C79.8792 146.231 84.6888 146.085 90.9266 142.549C94.2481 140.73 97.4623 138.722 100.554 136.535C102.677 135.199 102.677 133.169 101.133 134.227Z" fill="#001434"/>
<path d="M27.5444 69.7102C28.8954 70.0113 32.1301 71.0613 33.4811 71.3623C34.8321 71.6634 34.5388 70.1657 32.5084 69.5636C30.478 68.9614 28.3704 68.0581 26.9422 68.2048C25.514 68.3515 26.1934 69.2625 27.5444 69.7102Z" fill="#001434"/>
<path d="M34.014 75.4999C34.84 75.7238 35.8128 74.45 32.7325 73.5467C29.6521 72.6435 26.9424 71.5164 25.9619 71.8174C23.4992 72.8442 31.1576 74.7202 34.014 75.4999Z" fill="#001434"/>
<path d="M39.3721 64.0745C42.2439 52.8727 43.0159 54.4398 37.6428 48.1325C36.0987 46.1794 34.6319 46.4032 28.9191 45.7239C24.287 45.2375 24.4106 48.1866 21.3997 59.7821C20.7281 62.268 22.3802 63.6422 24.2562 63.9973C34.74 66.8846 38.1368 68.7992 39.3721 64.0745ZM36.5928 49.3369C37.7022 50.6315 38.7064 52.0126 39.5959 53.4671C35.8903 52.5716 35.4425 53.6215 36.5697 49.3369H36.5928ZM34.107 64.9777C32.9026 64.7461 25.0899 62.7158 24.0709 62.4147C21.8938 61.6427 22.6427 60.3843 24.5958 53.3976C25.5994 49.7306 25.7693 46.8433 28.8805 47.2216C31.0575 47.3914 33.2199 47.7187 35.3499 48.202C35.0778 48.9887 34.8509 49.7903 34.6705 50.603C33.1651 50.8268 29.0349 50.2324 29.1121 51.6606C29.1816 52.7877 27.8305 58.2767 26.9273 58.8017C24.1481 57.3735 22.9437 61.4342 26.024 61.1177C27.2284 60.9633 28.2783 60.4383 30.0848 53.2201C31.5327 53.0569 32.9911 53.0079 34.4466 53.0734C34.5856 53.4487 34.83 53.7759 35.1505 54.0156C35.471 54.2552 35.8539 54.3972 36.2531 54.4244C35.9091 56.1229 35.405 57.785 34.7477 59.3884C33.9757 58.6164 31.513 58.4852 31.513 60.2917C31.513 61.3416 32.4163 61.7894 33.3967 61.6427C36.3998 61.1177 36.3998 56.6787 37.2568 54.4244C38.16 54.5711 39.2177 54.8027 39.9665 54.8722C37.1101 65.5027 37.72 65.881 34.0838 64.9777H34.107Z" fill="#001434"/>
<path d="M124.918 115.984C125.139 115.964 125.346 115.87 125.506 115.715C125.665 115.561 125.766 115.357 125.792 115.137C125.819 114.917 125.768 114.694 125.65 114.507C125.531 114.319 125.352 114.178 125.142 114.108C124.092 113.776 123.791 115.729 124.918 115.984Z" fill="#001434"/>
<path d="M128.153 116.477C128.352 116.473 128.546 116.405 128.704 116.284C128.863 116.163 128.98 115.995 129.037 115.803C129.095 115.612 129.092 115.408 129.027 115.219C128.962 115.03 128.839 114.867 128.675 114.752C128.567 114.676 128.444 114.623 128.314 114.597C128.184 114.571 128.05 114.573 127.921 114.602C126.948 114.695 126.794 116.554 128.153 116.477Z" fill="#001434"/>
<path d="M131.612 116.401C132.43 116.077 132.183 114.448 131.311 114.448C129.967 114.44 130.098 116.91 131.612 116.401Z" fill="#001434"/>
<path d="M135.217 114.44C135.371 113.236 133.673 113.39 133.673 114.518C133.557 115.876 135.217 115.652 135.217 114.44Z" fill="#001434"/>
<path d="M123.266 114C123.413 113.097 121.984 112.719 122.062 113.622C122.139 114.525 123.112 114.973 123.266 114Z" fill="#001434"/>
<path d="M126.192 119.844C125.065 119.543 124.764 121.28 126.045 121.573C127.157 121.782 127.195 120.199 126.192 119.844Z" fill="#001434"/>
<path d="M132.283 122.491C133.564 122.491 133.472 120.384 132.059 120.538C131.009 120.692 130.932 122.568 132.283 122.491Z" fill="#001434"/>
<path d="M135.742 121.666C135.917 121.577 136.058 121.434 136.146 121.258C136.233 121.083 136.263 120.884 136.229 120.69C136.195 120.497 136.101 120.319 135.959 120.184C135.817 120.048 135.635 119.962 135.441 119.937C135.308 119.932 135.176 119.958 135.055 120.011C134.933 120.065 134.825 120.145 134.739 120.245C134.608 120.397 134.531 120.588 134.521 120.787C134.511 120.987 134.569 121.185 134.684 121.348C134.8 121.512 134.967 121.632 135.158 121.69C135.35 121.747 135.555 121.739 135.742 121.666Z" fill="#001434"/>
<path d="M138.297 119.489C138.374 118.586 137.008 118.886 136.946 119.558C136.846 120.685 138.227 120.616 138.297 119.489Z" fill="#001434"/>
<path d="M128.523 120.462C127.558 120.624 127.751 122.346 128.979 122.346C130.206 122.346 129.905 120.315 128.523 120.462Z" fill="#001434"/>
<path d="M123.034 119.188C123.188 120.161 124.161 120.616 124.316 119.636C124.47 118.655 122.965 118.208 123.034 119.188Z" fill="#001434"/>
<path d="M130.407 124.901C130.286 124.92 130.171 124.962 130.067 125.026C129.963 125.09 129.873 125.174 129.803 125.274C129.732 125.373 129.682 125.485 129.656 125.604C129.629 125.723 129.627 125.846 129.649 125.966C129.671 126.086 129.717 126.2 129.784 126.302C129.851 126.404 129.938 126.491 130.039 126.559C130.141 126.627 130.255 126.673 130.374 126.696C130.494 126.719 130.617 126.718 130.736 126.692C130.968 126.642 131.171 126.504 131.303 126.307C131.434 126.11 131.484 125.87 131.441 125.637C131.398 125.404 131.266 125.196 131.073 125.059C130.88 124.922 130.641 124.865 130.407 124.901Z" fill="#001434"/>
<path d="M136.12 125.881C137.154 125.881 137.031 124.252 135.965 124.337C135.863 124.346 135.765 124.376 135.674 124.424C135.584 124.472 135.504 124.537 135.439 124.616C135.374 124.695 135.326 124.786 135.296 124.884C135.266 124.982 135.256 125.085 135.267 125.186C135.277 125.288 135.307 125.387 135.355 125.477C135.404 125.567 135.469 125.646 135.549 125.711C135.628 125.775 135.719 125.824 135.817 125.853C135.915 125.882 136.018 125.892 136.12 125.881Z" fill="#001434"/>
<path d="M133.943 126.553C134.715 126.26 134.483 124.754 133.788 124.754C132.36 124.754 132.723 127.039 133.943 126.553Z" fill="#001434"/>
<path d="M138.675 124.22C138.753 123.17 137.402 123.317 137.402 124.22C137.247 125.348 138.675 125.247 138.675 124.22Z" fill="#001434"/>
<path d="M127.095 124.6C126.942 124.71 126.824 124.862 126.757 125.038C126.69 125.213 126.675 125.405 126.715 125.589C126.756 125.773 126.849 125.941 126.983 126.072C127.118 126.204 127.288 126.293 127.473 126.329C128.708 126.792 128.731 123.99 127.095 124.6Z" fill="#001434"/>
<path d="M133.641 130.915C134.838 130.915 134.691 128.807 133.564 129.039C133.341 129.082 133.141 129.204 133 129.382C132.859 129.56 132.787 129.783 132.796 130.01C132.806 130.237 132.896 130.453 133.051 130.619C133.206 130.785 133.415 130.89 133.641 130.915Z" fill="#001434"/>
<path d="M127.381 128.738C127.183 128.69 126.976 128.703 126.786 128.776C126.597 128.849 126.434 128.978 126.32 129.146C126.244 129.257 126.192 129.383 126.167 129.515C126.141 129.647 126.142 129.784 126.171 129.916C126.199 130.047 126.254 130.172 126.333 130.282C126.411 130.392 126.51 130.485 126.625 130.555C126.74 130.626 126.869 130.672 127.002 130.691C127.255 130.726 127.513 130.664 127.721 130.515C127.929 130.367 128.072 130.145 128.122 129.894C128.171 129.643 128.121 129.383 127.983 129.167C127.845 128.952 127.629 128.798 127.381 128.738Z" fill="#001434"/>
<path d="M130.631 129.108C129.951 128.962 129.581 129.263 129.504 129.942C129.426 130.621 129.805 130.992 130.276 131.069C131.387 131.193 131.611 129.502 130.631 129.108Z" fill="#001434"/>
<path d="M137.023 129.108C136.946 128.135 135.479 128.583 135.595 129.486C135.595 130.466 137.17 130.088 137.023 129.108Z" fill="#001434"/>
<path d="M129.882 144.147C128.825 143.846 128.454 145.877 129.581 146.031C129.812 146.032 130.035 145.95 130.21 145.801C130.386 145.652 130.503 145.445 130.54 145.218C130.576 144.99 130.53 144.757 130.409 144.561C130.289 144.364 130.102 144.218 129.882 144.147Z" fill="#001434"/>
<path d="M135.517 144.749C135.276 144.792 135.059 144.923 134.909 145.117C134.758 145.311 134.686 145.554 134.705 145.799C134.724 146.044 134.834 146.273 135.013 146.441C135.111 146.53 135.226 146.599 135.351 146.644C135.476 146.688 135.609 146.707 135.741 146.699C135.874 146.691 136.003 146.656 136.122 146.597C136.241 146.538 136.346 146.456 136.432 146.355C136.518 146.254 136.583 146.137 136.623 146.01C136.663 145.883 136.677 145.75 136.664 145.618C136.651 145.486 136.612 145.358 136.549 145.241C136.485 145.125 136.399 145.022 136.295 144.94C136.186 144.856 136.06 144.796 135.926 144.763C135.792 144.73 135.653 144.725 135.517 144.749Z" fill="#001434"/>
<path d="M137.849 145.049C137.625 146.408 139.432 146.254 139.432 144.973C139.579 143.622 137.926 143.775 137.849 145.049Z" fill="#001434"/>
<path d="M132.584 144.749C132.466 144.754 132.35 144.785 132.245 144.839C132.139 144.893 132.047 144.969 131.973 145.062C131.9 145.156 131.848 145.263 131.82 145.378C131.792 145.494 131.789 145.613 131.812 145.73C131.812 146.409 132.036 146.71 132.715 146.71C133.958 146.71 134.005 144.595 132.584 144.749Z" fill="#001434"/>
<path d="M126.794 143.544C126.493 144.447 128.075 145.088 128.222 144.077C128.368 143.065 127.017 142.571 126.794 143.544Z" fill="#001434"/>
<path d="M141.084 142.942C139.956 142.942 139.879 144.68 140.86 144.448C141.454 144.302 141.755 142.942 141.084 142.942Z" fill="#001434"/>
<path d="M120.1 130.312C119.924 130.357 119.771 130.466 119.671 130.617C119.571 130.769 119.532 130.953 119.561 131.133C119.59 131.312 119.685 131.474 119.828 131.586C119.971 131.699 120.151 131.754 120.332 131.74C120.51 131.698 120.666 131.589 120.768 131.437C120.869 131.285 120.91 131.099 120.88 130.918C120.851 130.737 120.754 130.574 120.609 130.462C120.465 130.35 120.283 130.296 120.1 130.312Z" fill="#001434"/>
<path d="M114.257 130.467C114.156 130.456 114.053 130.466 113.956 130.496C113.846 130.529 113.746 130.587 113.661 130.664C113.577 130.74 113.51 130.835 113.466 130.941C113.423 131.046 113.403 131.16 113.408 131.275C113.414 131.389 113.445 131.5 113.498 131.601C113.552 131.702 113.627 131.79 113.719 131.858C113.811 131.927 113.916 131.974 114.028 131.997C114.14 132.019 114.256 132.017 114.367 131.99C114.478 131.963 114.582 131.911 114.671 131.839C114.789 131.742 114.876 131.612 114.921 131.465C114.965 131.318 114.965 131.162 114.921 131.015C114.877 130.868 114.79 130.738 114.672 130.64C114.554 130.543 114.409 130.482 114.257 130.467Z" fill="#001434"/>
<path d="M110.782 130.767C111.384 131.74 112.959 131.069 112.21 130.089C111.307 129.039 110.327 130.011 110.782 130.767Z" fill="#001434"/>
<path d="M117.345 130.652C115.878 130.467 115.886 132.234 117.121 132.234C117.723 132.234 118.024 132.011 118.024 131.408C118.07 130.914 117.623 130.69 117.345 130.652Z" fill="#001434"/>
<path d="M121.683 130.235C121.853 131.061 123.034 130.613 122.81 129.864C122.586 129.115 121.544 129.555 121.683 130.235Z" fill="#001434"/>
<path d="M109.053 128.583C108.374 128.583 108.675 129.787 109.277 130.011C110.258 130.235 110.181 128.583 109.053 128.583Z" fill="#001434"/>
<path d="M108.899 135.284C107.996 134.906 107.548 136.411 108.528 136.712C108.693 136.705 108.851 136.644 108.979 136.541C109.108 136.437 109.199 136.295 109.241 136.135C109.282 135.975 109.271 135.807 109.209 135.654C109.148 135.5 109.039 135.371 108.899 135.284Z" fill="#001434"/>
<path d="M114.311 136.403C114.204 136.399 114.097 136.416 113.997 136.453C113.897 136.491 113.805 136.549 113.728 136.622C113.651 136.696 113.589 136.785 113.547 136.884C113.505 136.982 113.484 137.088 113.484 137.195C113.484 137.302 113.505 137.408 113.547 137.506C113.589 137.604 113.651 137.693 113.728 137.767C113.805 137.841 113.897 137.899 113.997 137.936C114.097 137.974 114.204 137.991 114.311 137.986C115.438 137.986 115.646 136.403 114.311 136.403Z" fill="#001434"/>
<path d="M116.874 136.481C116.102 137.322 117.546 138.133 118.225 137.253C118.75 136.558 117.793 135.524 116.874 136.481Z" fill="#001434"/>
<path d="M111.168 135.956C111.074 135.929 110.974 135.924 110.877 135.941C110.78 135.958 110.688 135.997 110.608 136.055C110.529 136.114 110.463 136.189 110.417 136.276C110.371 136.363 110.346 136.46 110.342 136.558C110.196 137.083 110.42 137.384 111.022 137.531C112.157 137.994 112.612 136.133 111.168 135.956Z" fill="#001434"/>
<path d="M106.537 134.45C106.236 135.129 107.432 135.724 107.587 134.898C107.772 134.226 106.645 133.74 106.537 134.45Z" fill="#001434"/>
<path d="M120.934 135.13C119.876 135.053 119.653 136.674 120.556 136.481C121.158 136.404 121.529 135.13 120.934 135.13Z" fill="#001434"/>
</svg>
