<svg width="83" height="19" viewBox="0 0 83 19" fill="none" xmlns="http://www.w3.org/2000/svg">
<path d="M0.9 15C0.753333 15 0.633333 14.9533 0.54 14.86C0.446667 14.7667 0.4 14.6467 0.4 14.5V1.5C0.4 1.35333 0.446667 1.23333 0.54 1.14C0.633333 1.04667 0.753333 0.999999 0.9 0.999999H3.54C3.67333 0.999999 3.78667 1.04667 3.88 1.14C3.98667 1.23333 4.04 1.35333 4.04 1.5V11.98H10.08C10.2267 11.98 10.3467 12.0333 10.44 12.14C10.5467 12.2333 10.6 12.3533 10.6 12.5V14.5C10.6 14.6467 10.5467 14.7667 10.44 14.86C10.3467 14.9533 10.2267 15 10.08 15H0.9ZM16.8159 15.2C15.2426 15.2 13.9893 14.7733 13.0559 13.92C12.1226 13.0667 11.6359 11.8 11.5959 10.12C11.5959 10.0267 11.5959 9.90667 11.5959 9.76C11.5959 9.61333 11.5959 9.5 11.5959 9.42C11.6359 8.36667 11.8693 7.46667 12.2959 6.72C12.7359 5.96 13.3359 5.38667 14.0959 5C14.8693 4.6 15.7693 4.4 16.7959 4.4C17.9693 4.4 18.9359 4.63333 19.6959 5.1C20.4693 5.56667 21.0493 6.2 21.4359 7C21.8226 7.8 22.0159 8.71333 22.0159 9.74V10.22C22.0159 10.3667 21.9626 10.4867 21.8559 10.58C21.7626 10.6733 21.6493 10.72 21.5159 10.72H15.1159C15.1159 10.7333 15.1159 10.7533 15.1159 10.78C15.1159 10.8067 15.1159 10.8333 15.1159 10.86C15.1293 11.2467 15.1959 11.6 15.3159 11.92C15.4359 12.24 15.6226 12.4933 15.8759 12.68C16.1293 12.8667 16.4359 12.96 16.7959 12.96C17.0626 12.96 17.2826 12.92 17.4559 12.84C17.6426 12.7467 17.7959 12.6467 17.9159 12.54C18.0359 12.42 18.1293 12.32 18.1959 12.24C18.3159 12.1067 18.4093 12.0267 18.4759 12C18.5559 11.96 18.6759 11.94 18.8359 11.94H21.3159C21.4493 11.94 21.5559 11.98 21.6359 12.06C21.7293 12.1267 21.7693 12.2267 21.7559 12.36C21.7426 12.5867 21.6293 12.86 21.4159 13.18C21.2026 13.5 20.8893 13.82 20.4759 14.14C20.0759 14.4467 19.5693 14.7 18.9559 14.9C18.3426 15.1 17.6293 15.2 16.8159 15.2ZM15.1159 8.74H18.4959V8.7C18.4959 8.27333 18.4293 7.9 18.2959 7.58C18.1759 7.26 17.9826 7.01333 17.7159 6.84C17.4626 6.66667 17.1559 6.58 16.7959 6.58C16.4359 6.58 16.1293 6.66667 15.8759 6.84C15.6359 7.01333 15.4493 7.26 15.3159 7.58C15.1826 7.9 15.1159 8.27333 15.1159 8.7V8.74ZM27.0109 15.2C26.2909 15.2 25.6443 15.0667 25.0709 14.8C24.5109 14.52 24.0643 14.1467 23.7309 13.68C23.3976 13.2133 23.2309 12.6867 23.2309 12.1C23.2309 11.1533 23.6176 10.4067 24.3909 9.86C25.1643 9.3 26.1909 8.92 27.4709 8.72L29.9709 8.34V8.06C29.9709 7.58 29.8709 7.21333 29.6709 6.96C29.4709 6.70667 29.1043 6.58 28.5709 6.58C28.1976 6.58 27.8909 6.65333 27.6509 6.8C27.4243 6.94667 27.2443 7.14667 27.1109 7.4C26.9909 7.57333 26.8243 7.66 26.6109 7.66H24.3709C24.2243 7.66 24.1109 7.62 24.0309 7.54C23.9509 7.44667 23.9176 7.34 23.9309 7.22C23.9309 6.98 24.0176 6.70667 24.1909 6.4C24.3776 6.08 24.6576 5.76667 25.0309 5.46C25.4043 5.15333 25.8843 4.9 26.4709 4.7C27.0576 4.5 27.7643 4.4 28.5909 4.4C29.4576 4.4 30.1976 4.5 30.8109 4.7C31.4243 4.9 31.9176 5.18 32.2909 5.54C32.6776 5.9 32.9643 6.32667 33.1509 6.82C33.3376 7.3 33.4309 7.83333 33.4309 8.42V14.5C33.4309 14.6467 33.3776 14.7667 33.2709 14.86C33.1776 14.9533 33.0643 15 32.9309 15H30.6109C30.4643 15 30.3443 14.9533 30.2509 14.86C30.1576 14.7667 30.1109 14.6467 30.1109 14.5V13.8C29.9376 14.0533 29.7043 14.2867 29.4109 14.5C29.1176 14.7133 28.7709 14.88 28.3709 15C27.9843 15.1333 27.5309 15.2 27.0109 15.2ZM27.9509 12.92C28.3376 12.92 28.6843 12.84 28.9909 12.68C29.3109 12.5067 29.5576 12.2467 29.7309 11.9C29.9176 11.54 30.0109 11.0933 30.0109 10.56V10.28L28.3109 10.58C27.6843 10.6867 27.2243 10.8533 26.9309 11.08C26.6509 11.2933 26.5109 11.5467 26.5109 11.84C26.5109 12.0667 26.5776 12.26 26.7109 12.42C26.8443 12.58 27.0176 12.7067 27.2309 12.8C27.4443 12.88 27.6843 12.92 27.9509 12.92ZM36.1878 15C36.0411 15 35.9211 14.9533 35.8278 14.86C35.7345 14.7667 35.6878 14.6467 35.6878 14.5V5.1C35.6878 4.96667 35.7345 4.85333 35.8278 4.76C35.9211 4.65333 36.0411 4.6 36.1878 4.6H38.4878C38.6345 4.6 38.7545 4.65333 38.8478 4.76C38.9411 4.85333 38.9878 4.96667 38.9878 5.1V5.9C39.3478 5.48667 39.7745 5.16667 40.2678 4.94C40.7745 4.71333 41.3411 4.6 41.9678 4.6H42.8478C42.9811 4.6 43.0945 4.64667 43.1878 4.74C43.2945 4.83333 43.3478 4.95333 43.3478 5.1V7.16C43.3478 7.29333 43.2945 7.41333 43.1878 7.52C43.0945 7.61333 42.9811 7.66 42.8478 7.66H40.9078C40.3611 7.66 39.9345 7.81333 39.6278 8.12C39.3345 8.41333 39.1878 8.83333 39.1878 9.38V14.5C39.1878 14.6467 39.1345 14.7667 39.0278 14.86C38.9345 14.9533 38.8145 15 38.6678 15H36.1878ZM45.2698 15C45.1232 15 45.0032 14.9533 44.9098 14.86C44.8165 14.7667 44.7698 14.6467 44.7698 14.5V5.1C44.7698 4.95333 44.8165 4.83333 44.9098 4.74C45.0032 4.64667 45.1232 4.6 45.2698 4.6H47.5698C47.7165 4.6 47.8365 4.64667 47.9298 4.74C48.0232 4.83333 48.0698 4.95333 48.0698 5.1V5.86C48.4165 5.44667 48.8698 5.1 49.4298 4.82C49.9898 4.54 50.6498 4.4 51.4098 4.4C52.1832 4.4 52.8632 4.57333 53.4498 4.92C54.0498 5.26667 54.5165 5.78 54.8498 6.46C55.1965 7.12667 55.3698 7.94667 55.3698 8.92V14.5C55.3698 14.6467 55.3165 14.7667 55.2098 14.86C55.1165 14.9533 55.0032 15 54.8698 15H52.3498C52.2165 15 52.0965 14.9533 51.9898 14.86C51.8965 14.7667 51.8498 14.6467 51.8498 14.5V9.04C51.8498 8.41333 51.6965 7.93333 51.3898 7.6C51.0965 7.25333 50.6565 7.08 50.0698 7.08C49.5232 7.08 49.0832 7.25333 48.7498 7.6C48.4298 7.93333 48.2698 8.41333 48.2698 9.04V14.5C48.2698 14.6467 48.2165 14.7667 48.1098 14.86C48.0165 14.9533 47.9032 15 47.7698 15H45.2698ZM58.1019 15C57.9552 15 57.8352 14.9533 57.7419 14.86C57.6485 14.7667 57.6019 14.6467 57.6019 14.5V5.1C57.6019 4.95333 57.6485 4.83333 57.7419 4.74C57.8352 4.64667 57.9552 4.6 58.1019 4.6H60.4619C60.5952 4.6 60.7085 4.64667 60.8019 4.74C60.9085 4.83333 60.9619 4.95333 60.9619 5.1V14.5C60.9619 14.6467 60.9085 14.7667 60.8019 14.86C60.7085 14.9533 60.5952 15 60.4619 15H58.1019ZM58.0819 3.1C57.9352 3.1 57.8152 3.05333 57.7219 2.96C57.6285 2.86667 57.5819 2.74667 57.5819 2.6V0.819999C57.5819 0.673333 57.6285 0.553333 57.7219 0.459999C57.8152 0.353333 57.9352 0.3 58.0819 0.3H60.4619C60.6085 0.3 60.7285 0.353333 60.8219 0.459999C60.9285 0.553333 60.9819 0.673333 60.9819 0.819999V2.6C60.9819 2.74667 60.9285 2.86667 60.8219 2.96C60.7285 3.05333 60.6085 3.1 60.4619 3.1H58.0819ZM64.985 15C64.8517 15 64.7317 14.9533 64.625 14.86C64.5317 14.7667 64.485 14.6467 64.485 14.5V7.22H62.965C62.8183 7.22 62.6983 7.17333 62.605 7.08C62.5117 6.98667 62.465 6.86667 62.465 6.72V5.1C62.465 4.95333 62.5117 4.83333 62.605 4.74C62.6983 4.64667 62.8183 4.6 62.965 4.6H64.485V3.96C64.485 3.05333 64.6583 2.32667 65.005 1.78C65.365 1.22 65.8717 0.82 66.525 0.58C67.1783 0.326666 67.9583 0.2 68.865 0.2H70.425C70.5583 0.2 70.6717 0.246666 70.765 0.339999C70.8717 0.433333 70.925 0.553333 70.925 0.699999V2.32C70.925 2.46667 70.8717 2.58667 70.765 2.68C70.6717 2.77333 70.5583 2.82 70.425 2.82H69.025C68.5717 2.82 68.2517 2.92667 68.065 3.14C67.8917 3.35333 67.805 3.66 67.805 4.06V4.6H70.225C70.3583 4.6 70.4717 4.64667 70.565 4.74C70.6717 4.83333 70.725 4.95333 70.725 5.1V6.72C70.725 6.86667 70.6717 6.98667 70.565 7.08C70.4717 7.17333 70.3583 7.22 70.225 7.22H67.805V14.5C67.805 14.6467 67.7583 14.7667 67.665 14.86C67.5717 14.9533 67.4517 15 67.305 15H64.985ZM74.0927 18.8C73.9727 18.8 73.8727 18.76 73.7927 18.68C73.7127 18.6 73.6727 18.5 73.6727 18.38C73.6727 18.3533 73.6727 18.3133 73.6727 18.26C73.686 18.22 73.706 18.1733 73.7327 18.12L75.2927 14.36L71.4527 5.28C71.4127 5.18667 71.3927 5.10667 71.3927 5.04C71.4193 4.92 71.4727 4.82 71.5527 4.74C71.6327 4.64667 71.7327 4.6 71.8527 4.6H74.1327C74.306 4.6 74.4327 4.64667 74.5127 4.74C74.606 4.82 74.666 4.91333 74.6927 5.02L76.9927 10.84L79.3327 5.02C79.386 4.91333 79.4527 4.82 79.5327 4.74C79.626 4.64667 79.7593 4.6 79.9327 4.6H82.1727C82.2927 4.6 82.3927 4.64667 82.4727 4.74C82.566 4.82 82.6127 4.91333 82.6127 5.02C82.6127 5.08667 82.5927 5.17333 82.5527 5.28L76.8927 18.38C76.8527 18.4867 76.786 18.58 76.6927 18.66C76.5993 18.7533 76.466 18.8 76.2927 18.8H74.0927Z" fill="white"/>
</svg>
