<svg width="155" height="155" viewBox="0 0 155 155" fill="none" xmlns="http://www.w3.org/2000/svg">
<path d="M59.2049 127.721C58.5642 126.679 59.4365 123.089 59.506 122.958C59.5755 122.827 94.0456 122.958 93.7059 123.328C93.3662 123.699 94.2386 125.698 94.0224 127.142C83.0754 128.014 67.8051 125.436 59.2049 127.721Z" fill="#6016F3"/>
<path d="M78.3816 102.368C82.9596 102.847 83.3224 111.632 77.8952 110.86C72.6378 110.088 72.6533 101.774 78.3816 102.368Z" fill="#6016F3"/>
<path d="M21.7474 59.2826H12.159L11.9429 76.0969C11.9429 76.0969 14.2589 72.4222 16.1194 72.0902C15.7489 67.0413 14.7607 64.2621 21.7474 59.2826Z" fill="#6016F3"/>
<path d="M18.5279 84.1879C14.745 84.4427 17.7018 95.3125 17.7018 95.3125H22.4574C22.4574 95.3125 22.3261 83.9254 18.5279 84.1879Z" fill="#6016F3"/>
<path d="M25.7004 63.8375C18.3509 65.9759 20.2423 71.0943 20.2423 71.0943C25.5383 69.5503 31.2666 73.8427 31.2666 73.8427C31.2666 73.8427 31.0118 74.2364 32.2007 73.1324C31.1508 66.9564 33.0499 67.1725 34.9105 68.8169C35.9092 66.6767 37.328 64.7592 39.0826 63.1783C40.8372 61.5975 42.8918 60.3855 45.1241 59.6146C45.1241 59.6146 40.2142 59.2826 29.0509 59.2826C29.5605 62.7953 28.3098 63.0809 25.7004 63.8375Z" fill="#6016F3"/>
<path d="M27.2982 95.6289H30.6951C30.6951 95.6289 30.6951 92.7261 31.2663 85.7394C24.8355 81.4934 27.2982 95.6289 27.2982 95.6289Z" fill="#6016F3"/>
<path d="M69.4806 58.5417L53.9092 59.3138C53.9092 59.3138 56.4568 59.499 59.5139 63.2433C63.5593 63.2433 68.778 67.4893 69.7739 70.6931C69.4034 59.2829 69.4806 58.5417 69.4806 58.5417Z" fill="#6016F3"/>
<path d="M109.818 59.9932C105.186 59.7384 101.442 66.8949 102.098 69.983C104.182 80.0191 119.02 82.2425 122.811 73.5805C124.247 70.2918 122.124 64.9495 120.495 62.5022C118.866 60.055 114.45 60.2171 109.818 59.9932Z" fill="#6016F3"/>
<path d="M119.468 28.3332C119.468 28.3332 115.423 22.0027 100.23 27.1597C85.0365 32.3167 85.8008 49.6174 85.8008 49.6174C93.2893 49.1156 93.5209 46.4522 96.6089 44.2134C109.123 45.5875 116.118 40.832 118.997 38.3461C124.478 44.2828 135.209 46.1125 135.209 46.1125C137.687 54.1954 142.837 51.8485 142.837 51.8485V40.0059C132.901 21.4855 119.468 28.3332 119.468 28.3332Z" fill="#6016F3"/>
<path d="M94.3315 99.3037C85.8395 97.9836 84.6429 112.343 93.2816 112.219C101.442 112.227 102.793 100.408 94.3315 99.3037ZM98.1453 105.819C97.3115 113.64 85.6928 110.181 90.0315 102.924C92.0541 99.3578 99.0022 101.805 98.1453 105.819Z" fill="#282629"/>
<path d="M79.8569 100.168C69.4116 95.7444 66.2695 111.601 76.8846 112.041C82.6592 112.806 85.8631 102.909 79.8569 100.168ZM77.2012 110.119C71.2335 110.775 70.0601 101.102 76.6993 101.372C82.528 100.925 82.4971 110.196 77.2012 110.119Z" fill="#282629"/>
<path d="M114.589 68.1915C116.241 67.821 115.307 65.5281 117.577 65.5976C118.349 65.5049 118.217 64.0536 117.5 64.0536C114.782 64.1539 111.802 63.5595 110.142 62.5096C106.012 61.946 108.606 69.0639 114.589 68.1915Z" fill="#282629"/>
<path d="M147.778 121.313C149.955 119.082 151.144 118.148 150.233 77.3088C149.762 59.1126 150.781 35.8443 149.932 18.837C149.646 13.348 145.524 11.3949 134.731 11.6573C115.987 12.0047 98.1844 10.8853 77.3247 11.1555C50.4125 11.3177 48.8068 11.3254 15.3789 11.4721C7.42718 11.4721 4.95675 14.6296 4.37003 25.3682C3.30466 45.5716 4.2079 81.1071 4.37003 102.222C4.37003 108.714 3.9377 117.307 7.54298 120.032C12.175 123.745 34.8798 123.977 58.1944 123.954C58.7502 127.42 58.0554 129.427 58.0477 133.04C46.3055 132.986 36.2771 133.148 34.2853 133.233C26.8586 133.395 27.9703 143.756 35.4047 143.092C52.4352 143.624 58.9895 142.32 77.1549 142.883C90.7808 143.37 99.7824 142.505 111.756 142.814C118.704 143.061 122.086 142.582 123.545 141.169C123.904 140.784 124.173 140.323 124.333 139.822C124.493 139.32 124.54 138.789 124.471 138.267C124.471 134.916 124.147 133.025 117.886 133.009C110.289 133.009 103.619 133.333 95.3202 133.403C95.3202 129.659 94.8416 128.346 95.2662 124.139C109.139 123.907 141.988 126.324 147.778 121.313ZM106.792 135.14C110.822 135.04 114.296 134.955 117.909 134.962C123.197 134.684 123.082 136.861 122.232 139.849C121.252 140.799 117.855 141.015 111.841 140.953C96.401 140.783 72.5923 140.768 57.5459 141.077C52.1418 141.277 46.6065 141.47 35.4665 141.231C31.6991 141.146 31.1741 139.54 31.1741 137.811C31.1741 135.649 33.1891 135.24 34.3857 135.186C53.0683 134.491 87.3377 135.873 106.792 135.14ZM60.1553 123.992C71.0637 123.954 83.1225 123.992 93.3516 124.154C92.9424 128.346 93.3516 129.782 93.4134 133.472C84.8595 133.611 70.3149 133.179 59.97 133.102C60.0086 129.489 60.6571 127.59 60.1553 123.992ZM63.6833 122.078C41.2179 122.595 13.2404 122.17 8.76275 118.58C5.91404 116.442 6.2846 107.981 6.30776 102.283C6.1302 81.192 5.21151 45.6565 6.30776 25.5226C6.90993 14.5755 9.54247 13.4175 15.4175 13.3944C49.1387 13.2477 51.2695 13.2477 78.6294 13.0701C99.2266 12.8539 116.35 13.9348 134.808 13.5874C146.767 13.3017 147.933 15.9574 148.056 18.9914C147.77 35.358 150.519 119.352 146.581 119.87C137.873 125.189 84.7514 121.591 63.6833 122.078Z" fill="#282629"/>
<path d="M48.6365 42.1285C49.8818 42.0982 51.1243 41.9951 52.3576 41.8196C55.9011 41.3873 55.3452 35.1727 51.4003 34.6014C44.6529 33.6364 41.6421 41.9509 48.6365 42.1285ZM52.8208 38.5077C53.0678 40.3683 51.5315 40.376 51.5315 40.376C50.5504 39.0434 49.4354 37.8146 48.2042 36.709C49.6787 35.8289 52.4965 35.937 52.8208 38.5077Z" fill="#282629"/>
<path d="M38.9865 40.9164C38.0292 34.8098 27.2983 36.6703 29.1975 42.7924C30.2628 46.2432 39.635 45.0157 38.9865 40.9164ZM37.0565 41.1325C37.0565 41.4722 37.2958 42.3755 35.9834 42.553C34.9001 41.3529 33.621 40.3453 32.2006 39.5731C33.4898 38.3302 36.9793 38.7779 37.0565 41.1325Z" fill="#282629"/>
<path d="M41.4721 77.7566C43.1241 77.5636 42.3135 75.1781 40.9934 75.3248C39.3722 75.4946 39.8277 77.9727 41.4721 77.7566Z" fill="#282629"/>
<path d="M40.2522 42.0592C40.8235 42.283 41.2404 41.789 41.9198 41.5574C42.5991 41.3258 43.734 41.7812 44.0428 41.071C44.5446 39.9053 43.1318 38.9403 41.2636 39.4035C39.3953 39.8667 39.1791 41.6423 40.2522 42.0592Z" fill="#282629"/>
<path d="M143.871 95.474C144.196 81.2613 143.786 66.045 143.941 51.7629C144.126 22.9207 143.331 21.1451 141.918 19.632C140.166 17.424 133.874 17.1229 113.809 17.8718C92.5174 18.6438 34.2154 16.3741 15.1854 18.4045C8.02889 19.2228 12.2749 41.0166 10.893 53.9168C10.6228 69.6735 10.121 88.2557 10.4684 103.611C10.6769 112.443 11.9198 115.384 18.8061 115.415C59.7225 116.187 91.2358 116.889 130.276 116.403C145.531 116.226 143.478 112.227 143.871 95.474ZM141.964 94.5553C139.208 94.6093 130.693 94.7637 122.085 94.7097C119.036 92.4709 118.055 89.6376 119.19 86.5573C121.089 87.7385 125.297 91.1893 126.671 88.827C126.699 88.5744 126.627 88.3208 126.469 88.1213C126.312 87.9218 126.082 87.7926 125.829 87.7616C124.247 87.5841 121.483 86.0478 120.063 84.7971C121.468 82.5274 123.753 80.7055 125.59 80.1651C126.648 81.3462 129.497 85.3452 131.496 83.8321C132.052 82.041 126.146 80.2345 126.154 76.7451C125.582 74.375 128.037 72.7538 130.57 73.1244C133.102 73.4949 135.356 75.2551 136.838 78.1192C138.529 79.7945 139.154 77.1079 137.819 76.0117C139.304 75.9697 140.764 76.4083 141.98 77.2623C142.003 83.1141 142.049 88.9968 141.964 94.5553ZM75.07 84.249C76.7802 82.8671 78.881 82.057 81.0762 81.933C81.2033 81.9358 81.3296 81.9116 81.4466 81.8619C81.5637 81.8122 81.6687 81.7381 81.7549 81.6446C81.8411 81.5512 81.9064 81.4404 81.9464 81.3197C81.9865 81.1991 82.0004 81.0712 81.9872 80.9448C81.5163 78.8526 75.7417 80.6823 73.8966 82.7281C72.7926 81.269 71.1019 79.5243 71.3258 77.3241C71.4802 75.7801 73.3253 75.2397 79.1308 74.7378C79.3811 74.7122 79.6113 74.5889 79.7715 74.3948C79.9316 74.2007 80.0089 73.9513 79.9866 73.7006C79.9643 73.4499 79.8441 73.2181 79.6522 73.0554C79.4602 72.8926 79.2119 72.812 78.9609 72.831C74.9696 73.0008 72.3062 73.0703 70.8857 74.954C70.6049 73.7937 70.7716 72.5701 71.3524 71.5272C71.9333 70.4842 72.8857 69.6983 74.0201 69.3261C77.772 68.0059 79.1385 68.7394 80.1961 68.0523C81.2538 67.3652 80.7751 62.71 82.9213 62.9647C85.1679 62.8335 86.4494 66.1145 87.1828 68.4228C95.9682 74.6452 96.5627 84.9361 94.8566 90.3633C88.557 91.6448 81.3155 91.7143 75.07 84.249ZM86.7273 92.8491C86.7273 93.3664 86.6347 93.7292 86.6192 94.3468C81.8791 94.3468 76.5831 94.4163 70.6078 94.4858C70.4225 90.4636 70.6078 85.8007 70.739 81.4234C75.51 89.2284 80.8832 92.2701 86.7273 92.8491ZM88.9584 92.9109C91.2744 92.9727 98.9945 91.8069 101.944 90.0931C103.248 89.3211 102.376 88.6108 101.859 88.7266C100.315 89.0663 98.5931 89.5449 96.9641 89.931C98.4309 83.8398 97.3965 73.603 88.6496 67.149C88.5867 66.7171 88.4886 66.2911 88.3562 65.8752C89.1283 65.6822 89.9543 65.5664 90.8498 65.3657C92.0546 67.2003 93.6768 68.7234 95.5836 69.8103C97.4904 70.8972 99.6276 71.517 101.82 71.6189C102.202 72.3827 102.654 73.109 103.171 73.7883C108.197 80.9911 118.488 81.9638 123.297 74.4754C123.714 74.4136 124.131 74.3518 124.525 74.2746C124.032 75.6393 124.087 77.142 124.679 78.4666C118.889 80.4121 113.701 89.3751 119.198 94.6788C112.25 94.4781 96.2539 94.3391 88.8581 94.3082C88.8437 93.8403 88.8773 93.372 88.9584 92.9109ZM104.499 65.7517C110.335 58.1628 109.779 61.938 116.465 61.6986C120.788 60.1546 123.32 70.7389 121.869 73.1012C116.635 83.6082 98.3537 73.6956 104.499 65.7517ZM141.972 75.0621C140.261 74.1882 138.306 73.9162 136.421 74.2901C135.248 73.0035 133.749 72.0568 132.083 71.5495C135.256 69.5808 136.267 68.4614 137.734 65.7826C138.499 65.8907 139.278 65.8284 140.016 65.6002C140.754 65.372 141.433 64.9835 142.003 64.4624C142.003 67.1645 141.964 72.3138 141.972 75.0621ZM142.049 61.5906C140.32 64.6786 137.471 63.3353 136.699 64.4315C134.329 67.8207 132.145 70.9319 124.17 72.4064C124.262 67.288 122.548 61.9225 119.406 60.1237C117.484 59.0275 116.318 59.9848 114.226 59.8304C112.474 59.6683 111.246 58.2864 109.239 58.9966C106.313 60.0465 100.677 65.5896 101.21 69.6426C95.8061 68.971 91.8612 65.3116 90.487 59.6065C85.4844 56.7192 86.1251 51.5854 87.0052 50.6589C88.6419 48.9451 92.8957 50.3347 95.6749 45.8725C95.8324 45.578 96.0774 45.3397 96.376 45.1904C96.6747 45.0411 97.0124 44.9881 97.3424 45.0387C101.153 45.4519 105.004 45.3141 108.776 44.6296C110.235 44.8226 111.362 46.3125 112.404 46.3125C114.11 46.3125 113.315 44.4288 111.848 43.8576C114.573 43.0521 117.045 41.5609 119.028 39.5266C121.494 42.2775 124.642 44.3304 128.153 45.4788C126.269 45.0028 124.329 44.7821 122.386 44.8226C120.472 44.9306 120.719 46.4283 121.367 46.8838C122.355 47.5786 127.898 47.293 130.238 48.4819C131.218 48.976 133.673 47.9801 130.338 46.1659C131.72 46.4438 132.654 46.6522 133.519 46.7835C133.826 46.8279 134.117 46.9527 134.361 47.1452C134.605 47.3376 134.793 47.591 134.908 47.8797C136.275 51.3151 138.429 53.7933 142.026 52.9364C142.049 54.5576 142.049 59.7763 142.049 61.5906ZM142.049 50.9523C139.332 51.7243 137.788 49.9101 136.483 46.2353C136.358 45.8809 136.138 45.5678 135.847 45.3308C135.555 45.0937 135.204 44.9419 134.831 44.892C130.6 44.3439 123.413 42.576 120.263 38.0289C120.734 37.2569 122.541 35.435 121.12 34.7633C120.163 34.3078 118.488 38.0675 114.543 40.399C110.065 43.0315 105.441 43.2322 102.384 43.2322C97.7516 43.2785 95.6054 42.5992 94.0459 44.838C91.7299 48.1422 89.8848 47.1077 87.013 48.3815C86.4108 32.1153 103.403 21.9634 118.619 28.7957C119.522 29.2357 120.649 29.0041 122.216 28.6876C129.381 26.1014 138.606 31.2738 142.034 41.2559C142.049 44.066 142.049 47.2698 142.049 50.9523ZM70.4688 19.6242C85.0057 19.8558 102.986 19.8481 117.916 19.4621C129.659 19.1533 138.29 18.9989 140.374 20.7668C141.517 21.7395 141.818 22.4575 142.003 36.8863C136.668 25.3062 126.192 25.5687 119.453 27.0741C103.603 19.246 82.9676 31.544 85.1524 50.0954C84.5036 51.9713 84.4999 54.0102 85.1418 55.8886C85.7838 57.7669 87.0347 59.377 88.6959 60.4634C88.9851 61.55 89.3753 62.6072 89.8617 63.6209C89.0897 63.7753 88.2713 63.9066 87.5456 64.1227C84.7741 60.2627 80.0958 58.8808 78.7525 66.2766C77.3173 66.1626 75.8737 66.3337 74.505 66.7803C73.1363 67.2268 71.8695 67.9398 70.7776 68.8783C69.967 51.6162 71.1096 32.9259 70.4688 19.6242ZM68.6932 94.509C63.0885 94.5707 58.0318 94.6325 54.3493 94.6865C54.1164 94.0912 53.9758 93.4638 53.9324 92.826C54.4883 93.1965 56.4106 94.0689 56.9278 93.3664C57.5686 92.494 55.7621 91.8224 54.1486 90.51C54.351 89.6832 54.6987 88.8991 55.1754 88.1939C56.4955 88.8887 59.0354 91.282 59.4986 90.1162C59.9618 88.9505 57.3293 87.8929 56.4878 86.7966C59.4523 84.4265 62.2778 87.4914 63.8913 86.9742C66.0375 86.2794 65.5743 82.4579 68.7087 85.075C68.616 88.3329 68.562 91.5599 68.7087 94.5012L68.6932 94.509ZM51.8403 92.1157C47.4785 91.9536 42.2597 89.6453 40.7697 86.0941C43.8577 85.2835 45.8341 82.8594 45.6642 79.2078C49.7482 79.2078 51.408 74.2052 49.5243 71.6498C50.6254 71.6424 51.713 71.4058 52.7178 70.9553C53.7226 70.5047 54.6226 69.85 55.3607 69.0327C57.8156 70.3914 59.406 72.1207 60.1317 74.2283C52.5505 71.9123 50.7749 82.9597 59.3597 82.9288C59.2284 83.2531 59.0895 83.5928 58.9428 83.9325C56.9305 84.1097 55.0655 85.061 53.7406 86.586C52.4158 88.111 51.7345 90.0907 51.8403 92.108V92.1157ZM43.603 71.8737C44.6209 71.5386 45.7297 71.6162 46.691 72.0899C45.847 72.9631 45.188 73.9976 44.7533 75.1316C44.4374 74.0229 44.0533 72.9349 43.603 71.8737ZM58.5722 75.6025C57.789 77.2494 57.1684 78.9688 56.7194 80.7363C54.164 78.9607 55.1677 75.3091 58.5722 75.6025ZM63.4127 84.9206C62.6345 84.5566 61.8226 84.2696 60.9886 84.0637C63.6829 78.042 63.2043 70.9396 56.4646 67.4424C56.9356 66.4079 56.8815 65.5124 56.0941 65.3657C54.3648 65.0569 55.0133 69.3956 49.146 69.7507C46.8686 69.8819 44.8305 69.4805 42.8927 70.0981C41.3487 65.8829 37.674 65.8057 37.8052 70.3528C37.615 70.3413 37.4242 70.3413 37.2339 70.3528C36.8846 69.7767 36.473 69.2408 36.0064 68.7548C39.0404 61.6832 51.4466 55.6847 59.2207 64.0224C69.4884 65.3734 68.8167 74.0585 68.7859 82.5506C66.5239 81.2073 64.1538 82.9829 63.4127 84.9206ZM41.6884 71.4259C40.9461 71.0597 40.1706 70.765 39.3724 70.5458C39.3724 69.851 39.3724 69.0018 39.99 68.832C40.6076 68.6622 41.0245 69.6117 41.6884 71.4259ZM34.5319 67.5659C31.5288 66.1145 30.3167 68.3997 31.1273 72.9159C28.6646 70.8315 25.4531 69.936 21.0913 69.9977C19.9641 63.0497 31.1273 66.709 30.3553 60.4789C34.2154 60.5869 37.6585 60.3939 41.6112 60.2627C38.644 62.0234 36.1899 64.5307 34.4933 67.535L34.5319 67.5659ZM35.1418 70.6539C34.3694 70.8859 33.62 71.1882 32.903 71.5572C32.6636 70.6848 32.5478 69.3338 33.0882 69.0636C33.6287 68.7934 34.5319 69.658 35.1032 70.6153L35.1418 70.6539ZM45.5021 58.1937C37.674 58.4639 32.1001 58.7341 24.4032 58.3636C24.8174 56.8279 25.5305 55.389 26.5015 54.1292C27.4725 52.8694 28.6824 51.8134 30.062 51.0218C33.6209 55.2061 41.7193 55.0285 46.112 53.6003C45.5229 55.055 45.313 56.6356 45.5021 58.1937ZM52.4039 50.1803C52.2186 49.2848 51.3617 49.6322 50.4121 49.8946C49.9257 46.7063 51.0992 45.5637 52.8516 45.8571C54.3956 46.1118 54.11 49.7171 55.6926 49.9564C56.5959 50.134 64.8486 51.0218 67.1646 58.1397C62.247 57.9081 53.9324 57.9544 47.409 58.1397C46.5907 50.5972 52.8671 52.4037 52.4039 50.1803ZM56.6962 48.1113C57.9738 46.6124 58.7345 44.7419 58.8656 42.7767C63.6752 43.5488 65.9294 45.2008 68.5157 48.1345C68.5157 49.9333 68.5157 51.8324 68.5774 53.7393C68.5774 54.5113 68.1914 55.1366 67.8054 54.5113C65.9603 51.3306 61.8841 48.5822 56.6962 48.1422V48.1113ZM59.6067 62.0615C58.9109 61.1933 58.073 60.4493 57.1286 59.8613C61.7992 59.8227 66.0761 59.8613 68.7087 60.1469C68.755 62.7795 68.809 65.2344 68.8553 67.2571C67.8452 65.7136 66.4763 64.4376 64.8657 63.5382C63.2551 62.6388 61.4507 62.1427 59.6067 62.0924V62.0615ZM68.5543 19.6011C69.1101 25.5224 68.616 36.6702 68.5079 45.3244C66.3932 43.2307 63.7077 41.8074 60.7879 41.2327C64.4935 39.5112 66.5779 34.91 61.4209 31.6521C62.9649 24.5883 61.0812 20.6665 51.0837 21.2686C51.1348 20.5921 51.0098 19.9139 50.7209 19.3C53.1913 19.3 55.7853 19.4853 68.5543 19.6551V19.6011ZM27.4989 37.3032C30.1546 35.9059 32.7408 34.1225 34.2077 31.9764C37.5813 38.3454 45.5021 36.4926 50.4198 31.7062C52.0718 33.4655 54.1938 34.7141 56.5341 35.3037C57.3602 39.3568 57.3602 43.8962 55.7621 46.2662C52.9057 41.1478 46.691 44.9461 48.6365 50.7747C36.0219 55.5843 26.6729 50.3347 27.4989 37.3032ZM12.8308 53.9709C13.9579 42.3907 10.7927 20.1724 15.857 20.211C17.0073 19.8018 21.2611 19.6165 27.1438 19.5625C18.3969 23.4225 13.2013 28.8266 19.6862 36.0371C13.6182 43.8807 19.0763 50.1726 27.6379 47.6172C27.9876 48.2873 28.3876 48.9299 28.8345 49.5395C27.247 50.4989 25.8677 51.7665 24.7778 53.2674C23.6879 54.7683 22.9096 56.4722 22.4886 58.2786C19.1381 58.1783 15.7953 58.1242 12.7536 58.2786C12.7459 56.8118 12.7767 55.3682 12.7999 53.9709H12.8308ZM12.6841 60.2164C14.6913 60.116 16.8375 60.1083 19.0454 60.1392C16.0886 62.4552 13.9425 65.7748 15.031 71.5417C14.0072 72.2724 13.1299 73.189 12.4448 74.2438C12.5143 69.4805 12.5992 64.7018 12.6841 60.2164ZM15.5251 73.5876C16.3743 74.6375 17.2621 73.9581 16.9996 71.9663C16.5904 68.8783 15.9111 63.2349 22.4037 60.2241C24.4032 60.2782 26.3872 60.3554 28.3867 60.4094C28.9657 63.9066 23.4382 62.6019 20.6666 65.165C17.8102 67.8361 19.3697 72.1748 19.416 72.3755C19.4412 72.5043 19.4926 72.6265 19.567 72.7346C19.6415 72.8427 19.7373 72.9343 19.8486 73.0037C19.96 73.0732 20.0844 73.1191 20.2142 73.1384C20.3439 73.1578 20.4763 73.1503 20.6031 73.1163C20.7298 73.0824 20.8483 73.0228 20.951 72.9411C21.0537 72.8595 21.1386 72.7576 21.2003 72.6418C21.262 72.526 21.2992 72.3987 21.3097 72.2679C21.3202 72.1371 21.3036 72.0056 21.2611 71.8814C29.7532 71.3179 31.0347 77.2083 32.5633 76.8995C33.5669 76.691 33.0805 75.4249 32.432 74.2438C37.1104 69.1948 45.4867 74.4908 43.5258 80.9679C42.7538 83.5619 40.2062 84.9206 36.2921 84.5269C34.5242 84.3493 34.9951 86.2022 37.6277 86.4724C40.1135 89.1126 43.9272 94.2388 40.7157 94.7869C39.8742 94.9258 38.0754 94.8718 38.0445 94.2851C37.9133 91.1584 32.0615 83.9556 28.9117 84.0097C26.7037 84.0097 25.3527 86.5187 26.3641 94.5553H23.276C21.9945 88.3175 23.2066 84.4343 20.5894 83.6314C16.9996 82.5428 14.6296 83.863 16.8838 94.5398H13.5873C12.4448 90.4096 10.2677 76.5752 15.5251 73.5798V73.5876ZM34.887 94.6865L31.6523 94.6325C31.5056 92.88 32.1155 89.6221 32.2776 88.0859C33.15 89.1203 34.5937 90.9037 35.2807 91.8919C35.0514 92.8043 34.9194 93.7385 34.887 94.6788V94.6865ZM30.695 86.1944C30.6255 88.5105 29.923 91.8069 29.923 94.5707H28.379C28.0548 90.9654 26.8813 84.5346 30.695 86.2253V86.1944ZM21.3229 94.5012H18.8679C17.9723 90.4482 16.5518 83.9093 19.555 85.1908C21.3229 85.9474 20.6126 90.2706 21.3229 94.5012ZM116.573 114.365C41.2561 114.82 66.3077 113.709 18.8061 113.516C11.032 115.106 12.4911 103.673 12.2749 96.5316C52.3421 96.4313 106.174 96.4699 141.972 96.4699C141.918 101.31 141.972 104.877 141.578 109.802C141.038 116.156 123.151 114.257 116.573 114.365Z" fill="#110F0F"/>
<path d="M50.9525 79.4011C48.9221 78.6677 48.2041 80.1731 48.6364 80.7907C49.0688 81.4083 49.5165 80.8988 50.1804 81.169C50.8444 81.4392 50.9139 81.7248 51.4157 81.8406C52.3112 82.0414 53.2222 80.2272 50.9525 79.4011Z" fill="#282629"/>
<path d="M18.4359 78.2976C18.0036 79.7798 19.8332 79.9805 19.8641 78.56C21.053 79.7798 22.0103 78.2667 20.7288 77.5178C22.3809 77.5178 21.8405 75.7885 20.42 76.4525C21.192 74.8621 19.316 74.4298 19.177 76.1591C18.1271 74.6614 16.7993 76.1128 18.3278 77.0546C16.8765 77.2862 16.9151 78.6681 18.4359 78.2976Z" fill="#282629"/>
<path d="M37.944 79.0695C37.172 81.4319 36.1066 78.8611 35.0335 79.6331C34.578 79.9573 35.435 81.6249 36.7628 81.8333C37.0769 81.8742 37.3961 81.841 37.695 81.7364C37.994 81.6319 38.2643 81.4588 38.4844 81.2312C38.6149 81.4852 38.823 81.691 39.0784 81.8187C39.3339 81.9464 39.6234 81.9894 39.9049 81.9414C41.1941 81.8179 42.3985 80.0114 41.5184 79.5636C40.9548 79.278 39.7659 81.2852 39.4031 79.1236C41.75 76.7226 35.3655 76.4293 37.944 79.0695Z" fill="#282629"/>
<path d="M36.2843 77.4248C37.9364 77.2241 37.8283 74.607 36.0295 74.7691C34.2308 74.9312 34.6245 77.6178 36.2843 77.4248Z" fill="#282629"/>
<path d="M49.4083 84.1492C47.6945 82.8136 45.0002 86.1641 47.0537 87.0442C48.8139 87.7544 51.1299 85.4384 49.4083 84.1492Z" fill="#282629"/>
<path d="M124.293 48.9995C116.017 49.1848 117.994 62.3321 126.609 61.2744C137.186 61.1278 135.101 47.386 124.293 48.9995ZM131.149 57.3295C130.817 58.4721 129.103 59.2672 127.011 59.3599C127.26 56.6083 127.302 53.8418 127.134 51.0839C131.079 51.6552 132.291 53.3459 131.141 57.3295H131.149Z" fill="#282629"/>
<path d="M114.968 50.4664C114.064 49.6172 112.744 51.0454 113.671 51.8715C115.215 53.2997 115.987 54.5504 115.871 55.3996C116.041 56.4881 113.045 56.8278 113.624 58.2714C113.726 58.5036 113.915 58.686 114.151 58.7786C114.387 58.8712 114.65 58.8665 114.883 58.7655C119.059 56.8278 118.472 53.6317 114.968 50.4664Z" fill="#282629"/>
<path d="M60.093 99.4035C51.3616 99.1333 52.0718 112.636 60.6488 111.879C68.8939 111.169 68.7086 99.4344 60.093 99.4035ZM60.5407 109.972C54.4651 110.559 53.9478 101.21 60.093 101.31C66.2382 101.411 66.4466 109.401 60.5407 109.972Z" fill="#282629"/>
<path d="M42.198 44.8307C40.2216 45.0932 38.5078 44.5605 38.3379 45.4947C38.1526 46.8302 40.376 49.0613 43.5335 48.4283C46.498 47.8261 47.1774 45.1395 46.8454 44.3367C46.3822 43.1864 44.2747 44.5451 42.198 44.8307Z" fill="#282629"/>
<path d="M102.059 46.5836C93.5672 46.7766 95.5976 60.0937 104.429 58.9357C115.353 58.8353 113.161 44.9237 102.059 46.5836ZM109.185 54.9907C108.861 56.0793 107.216 56.8667 105.209 57.0288C105.523 54.2742 105.606 51.4981 105.456 48.7297C109.231 49.4091 110.32 51.1384 109.185 54.9907Z" fill="#282629"/>
</svg>
