<svg width="75" height="22" viewBox="0 0 75 22" fill="none" xmlns="http://www.w3.org/2000/svg">
<path d="M20.524 11.8905C20.4373 11.8905 20.3593 11.8602 20.29 11.7995C20.2293 11.7302 20.199 11.6522 20.199 11.5655V10.5515C20.199 10.4648 20.2293 10.3912 20.29 10.3305C20.3593 10.2612 20.4373 10.2265 20.524 10.2265H25.646C25.7327 10.2265 25.8063 10.2612 25.867 10.3305C25.9363 10.3912 25.971 10.4648 25.971 10.5515V11.5655C25.971 11.6522 25.9363 11.7302 25.867 11.7995C25.8063 11.8602 25.7327 11.8905 25.646 11.8905H20.524ZM20.524 15.1405C20.4373 15.1405 20.3593 15.1102 20.29 15.0495C20.2293 14.9802 20.199 14.9022 20.199 14.8155V13.8015C20.199 13.7148 20.2293 13.6412 20.29 13.5805C20.3593 13.5112 20.4373 13.4765 20.524 13.4765H25.646C25.7327 13.4765 25.8063 13.5112 25.867 13.5805C25.9363 13.6412 25.971 13.7148 25.971 13.8015V14.8155C25.971 14.9022 25.9363 14.9802 25.867 15.0495C25.8063 15.1102 25.7327 15.1405 25.646 15.1405H20.524Z" fill="white"/>
<path d="M15.717 17V10.032C15.3877 10.266 14.9933 10.4783 14.534 10.669V9.668C14.8547 9.39933 15.1363 9.11767 15.379 8.823C15.6217 8.52833 15.821 8.225 15.977 7.913H16.536C16.692 8.225 16.887 8.52833 17.121 8.823C17.3637 9.11767 17.6453 9.39933 17.966 9.668V10.669C17.7407 10.5823 17.5283 10.487 17.329 10.383C17.1383 10.279 16.9607 10.1663 16.796 10.045V17H15.717Z" fill="#44D07E"/>
<path d="M61.1589 18.02C60.4522 18.02 59.8389 17.8933 59.3189 17.64C58.8122 17.3867 58.3856 17.0467 58.0389 16.62C57.7056 16.1933 57.4589 15.72 57.2989 15.2C57.1389 14.6667 57.0589 14.1267 57.0589 13.58C57.0589 13.0333 57.1389 12.5 57.2989 11.98C57.4589 11.4467 57.7056 10.9667 58.0389 10.54C58.3722 10.1133 58.7989 9.77333 59.3189 9.52C59.8389 9.26667 60.4522 9.14 61.1589 9.14C61.7456 9.14 62.2656 9.26 62.7189 9.5C63.1856 9.72667 63.5989 10.0267 63.9589 10.4C64.3322 10.7733 64.6789 11.1733 64.9989 11.6C65.3189 11.1733 65.6589 10.7733 66.0189 10.4C66.3922 10.0267 66.8056 9.72667 67.2589 9.5C67.7122 9.26 68.2256 9.14 68.7989 9.14C69.5189 9.14 70.1322 9.26667 70.6389 9.52C71.1589 9.77333 71.5856 10.1133 71.9189 10.54C72.2656 10.9667 72.5189 11.4467 72.6789 11.98C72.8389 12.5 72.9189 13.0333 72.9189 13.58C72.9189 14.1267 72.8389 14.6667 72.6789 15.2C72.5189 15.72 72.2656 16.1933 71.9189 16.62C71.5856 17.0467 71.1589 17.3867 70.6389 17.64C70.1322 17.8933 69.5189 18.02 68.7989 18.02C68.2256 18.02 67.7122 17.9133 67.2589 17.7C66.8056 17.4733 66.3922 17.1733 66.0189 16.8C65.6589 16.4267 65.3122 16.0333 64.9789 15.62C64.6722 16.0333 64.3322 16.4267 63.9589 16.8C63.5989 17.1733 63.1922 17.4733 62.7389 17.7C62.2856 17.9133 61.7589 18.02 61.1589 18.02ZM61.2189 15.62C61.4989 15.62 61.7589 15.5467 61.9989 15.4C62.2389 15.2533 62.4589 15.0733 62.6589 14.86C62.8722 14.6467 63.0522 14.4267 63.1989 14.2C63.3456 13.9733 63.4589 13.7867 63.5389 13.64C63.4589 13.4667 63.3389 13.2667 63.1789 13.04C63.0322 12.8 62.8522 12.5667 62.6389 12.34C62.4389 12.1133 62.2189 11.9267 61.9789 11.78C61.7522 11.62 61.4989 11.54 61.2189 11.54C60.7922 11.54 60.4056 11.7133 60.0589 12.06C59.7122 12.4067 59.5389 12.9133 59.5389 13.58C59.5389 14.2467 59.7122 14.7533 60.0589 15.1C60.4056 15.4467 60.7922 15.62 61.2189 15.62ZM68.7589 15.62C69.1989 15.62 69.5856 15.4467 69.9189 15.1C70.2656 14.7533 70.4389 14.2467 70.4389 13.58C70.4389 12.9133 70.2656 12.4067 69.9189 12.06C69.5722 11.7133 69.1856 11.54 68.7589 11.54C68.4789 11.54 68.2189 11.62 67.9789 11.78C67.7389 11.9267 67.5122 12.1133 67.2989 12.34C67.0989 12.5533 66.9256 12.78 66.7789 13.02C66.6322 13.2467 66.5189 13.4467 66.4389 13.62C66.5189 13.78 66.6322 13.9733 66.7789 14.2C66.9256 14.4133 67.0989 14.6333 67.2989 14.86C67.5122 15.0733 67.7389 15.2533 67.9789 15.4C68.2189 15.5467 68.4789 15.62 68.7589 15.62Z" fill="url(#paint0_linear_690_2196)"/>
<path d="M16 14C15.9993 13.3639 15.7986 12.741 15.421 12.2034C15.0435 11.6658 14.5046 11.2354 13.8667 10.9621V10.8787C13.8661 10.2599 13.6443 9.6578 13.2341 9.16139C12.824 8.66497 12.2472 8.30064 11.5892 8.12229C10.9312 7.94394 10.2269 7.96106 9.58055 8.1711C8.93419 8.38115 8.3801 8.77296 8.00025 9.28858C7.6204 8.77296 7.06631 8.38115 6.41995 8.1711C5.77359 7.96106 5.06931 7.94394 4.41131 8.12229C3.75331 8.30064 3.17655 8.66497 2.76637 9.16139C2.35619 9.6578 2.13438 10.2599 2.13377 10.8787V10.9621C1.49534 11.2347 0.955934 11.6648 0.578221 12.2024C0.200507 12.7401 0 13.3632 0 13.9994C0 14.6356 0.200507 15.2587 0.578221 15.7964C0.955934 16.334 1.49534 16.7641 2.13377 17.0367V17.1213C2.13438 17.7401 2.35619 18.3422 2.76637 18.8386C3.17655 19.335 3.75331 19.6994 4.41131 19.8777C5.06931 20.0561 5.77359 20.0389 6.41995 19.8289C7.06631 19.6189 7.6204 19.227 8.00025 18.7114C8.3801 19.227 8.93419 19.6189 9.58055 19.8289C10.2269 20.0389 10.9312 20.0561 11.5892 19.8777C12.2472 19.6994 12.824 19.335 13.2341 18.8386C13.6443 18.3422 13.8661 17.7401 13.8667 17.1213V17.0367C14.5045 16.7636 15.0434 16.3334 15.4209 15.796C15.7984 15.2586 15.9992 14.6359 16 14ZM5.33367 19.0422C4.80765 19.0421 4.3002 18.867 3.90879 18.5506C3.51739 18.2342 3.26961 17.7987 3.21307 17.3278C3.38553 17.35 3.55951 17.3612 3.73372 17.3614H4.26703C4.40848 17.3614 4.54413 17.3109 4.64415 17.2208C4.74416 17.1307 4.80035 17.0086 4.80035 16.8812C4.80035 16.7539 4.74416 16.6317 4.64415 16.5417C4.54413 16.4516 4.40848 16.401 4.26703 16.401H3.73372C3.10411 16.4017 2.49455 16.2017 2.01296 15.8366C1.53136 15.4714 1.2088 14.9646 1.10238 14.4058C0.995966 13.8471 1.11255 13.2724 1.43151 12.7837C1.75046 12.2949 2.2512 11.9235 2.84508 11.7352C2.94899 11.7021 3.03895 11.6408 3.10258 11.5597C3.16621 11.4787 3.20038 11.3819 3.2004 11.2826V10.8787C3.2004 10.3692 3.42515 9.88065 3.82522 9.52043C4.22528 9.16021 4.76789 8.95783 5.33367 8.95783C5.89944 8.95783 6.44205 9.16021 6.84211 9.52043C7.24218 9.88065 7.46693 10.3692 7.46693 10.8787V14.976C6.8813 14.5017 6.12133 14.2396 5.33367 14.2401C5.19222 14.2401 5.05657 14.2907 4.95655 14.3808C4.85654 14.4708 4.80035 14.593 4.80035 14.7203C4.80035 14.8477 4.85654 14.9698 4.95655 15.0599C5.05657 15.1499 5.19222 15.2005 5.33367 15.2005C5.89944 15.2005 6.44205 15.4029 6.84211 15.7631C7.24218 16.1233 7.46693 16.6119 7.46693 17.1213C7.46693 17.6308 7.24218 18.1193 6.84211 18.4796C6.44205 18.8398 5.89944 19.0422 5.33367 19.0422ZM12.2668 16.401H11.7335C11.592 16.401 11.4564 16.4516 11.3564 16.5417C11.2563 16.6317 11.2002 16.7539 11.2002 16.8812C11.2002 17.0086 11.2563 17.1307 11.3564 17.2208C11.4564 17.3109 11.592 17.3614 11.7335 17.3614H12.2668C12.441 17.3612 12.615 17.35 12.7874 17.3278C12.7431 17.6968 12.5811 18.0463 12.3208 18.3341C12.0606 18.6219 11.7134 18.8356 11.3211 18.9495C10.9289 19.0634 10.5083 19.0725 10.1104 18.9758C9.71254 18.879 9.35428 18.6806 9.07897 18.4044C8.80367 18.1282 8.62311 17.7861 8.55912 17.4195C8.49514 17.0529 8.55048 16.6775 8.71843 16.3386C8.88639 15.9997 9.15979 15.7118 9.50556 15.5099C9.85133 15.3079 10.2547 15.2005 10.6668 15.2005C10.8083 15.2005 10.9439 15.1499 11.0439 15.0599C11.144 14.9698 11.2002 14.8477 11.2002 14.7203C11.2002 14.593 11.144 14.4708 11.0439 14.3808C10.9439 14.2907 10.8083 14.2401 10.6668 14.2401C9.87917 14.2396 9.11921 14.5017 8.53357 14.976V10.8787C8.53357 10.3692 8.75832 9.88065 9.15839 9.52043C9.55845 9.16021 10.1011 8.95783 10.6668 8.95783C11.2326 8.95783 11.7752 9.16021 12.1753 9.52043C12.5753 9.88065 12.8001 10.3692 12.8001 10.8787V11.2826C12.8001 11.3819 12.8343 11.4787 12.8979 11.5597C12.9616 11.6408 13.0515 11.7021 13.1554 11.7352C13.7493 11.9235 14.25 12.2949 14.569 12.7837C14.8879 13.2724 15.0045 13.8471 14.8981 14.4058C14.7917 14.9646 14.4691 15.4714 13.9875 15.8366C13.506 16.2017 12.8964 16.4017 12.2668 16.401ZM13.3334 13.2797C13.3334 13.407 13.2772 13.5292 13.1772 13.6192C13.0772 13.7093 12.9415 13.7599 12.8001 13.7599H12.5334C11.8969 13.7599 11.2865 13.5322 10.8364 13.127C10.3864 12.7217 10.1335 12.1721 10.1335 11.599V11.3589C10.1335 11.2315 10.1897 11.1094 10.2897 11.0193C10.3897 10.9293 10.5254 10.8787 10.6668 10.8787C10.8083 10.8787 10.9439 10.9293 11.0439 11.0193C11.144 11.1094 11.2002 11.2315 11.2002 11.3589V11.599C11.2002 11.9174 11.3406 12.2227 11.5907 12.4479C11.8407 12.673 12.1798 12.7995 12.5334 12.7995H12.8001C12.9415 12.7995 13.0772 12.8501 13.1772 12.9401C13.2772 13.0302 13.3334 13.1523 13.3334 13.2797ZM3.46706 13.7599H3.2004C3.05896 13.7599 2.9233 13.7093 2.82329 13.6192C2.72327 13.5292 2.66708 13.407 2.66708 13.2797C2.66708 13.1523 2.72327 13.0302 2.82329 12.9401C2.9233 12.8501 3.05896 12.7995 3.2004 12.7995H3.46706C3.82067 12.7995 4.1598 12.673 4.40984 12.4479C4.65988 12.2227 4.80035 11.9174 4.80035 11.599V11.3589C4.80035 11.2315 4.85654 11.1094 4.95655 11.0193C5.05657 10.9293 5.19222 10.8787 5.33367 10.8787C5.47511 10.8787 5.61076 10.9293 5.71078 11.0193C5.81079 11.1094 5.86698 11.2315 5.86698 11.3589V11.599C5.86698 12.1721 5.61413 12.7217 5.16406 13.127C4.71399 13.5322 4.10356 13.7599 3.46706 13.7599Z" fill="white"/>
<g clip-path="url(#clip0_690_2196)">
<path d="M44.5777 18.0261C45.6196 18.0261 46.3166 18.4156 46.6241 18.6352C46.7371 18.6979 47.0575 18.8862 47.1263 18.8924V9.40057C46.7184 8.64093 45.5192 8.02593 44.2763 8.02593C42.7067 8.02593 41.376 8.92994 41.0808 9.53878V18.4032C41.0808 18.8176 41.3256 18.9746 41.6208 18.9746C41.8592 18.9746 42.0162 18.8929 42.167 18.7673C42.5374 18.4346 43.4098 18.0261 44.5777 18.0261ZM50.4288 18.0264C51.5963 18.0264 52.4629 18.4346 52.8395 18.7673C52.9836 18.8865 53.1408 18.9743 53.3792 18.9743C53.6744 18.9743 53.9192 18.8176 53.9192 18.4032V9.53825C53.624 8.92914 52.2995 8.02539 50.7298 8.02539C49.487 8.02539 48.2878 8.64039 47.8798 9.40003V18.9052C47.9489 18.8988 48.269 18.7043 48.3882 18.6352C48.6896 18.4156 49.3865 18.0264 50.4288 18.0264Z" fill="white"/>
</g>
<path d="M30.7535 20.1C30.6582 20.1 30.5802 20.0697 30.5195 20.009C30.4588 19.9483 30.4285 19.8703 30.4285 19.775V18.436C30.4285 18.306 30.4588 18.1977 30.5195 18.111C30.5802 18.033 30.6538 17.955 30.7405 17.877L34.6535 14.289V14.198L30.7405 10.623C30.6538 10.545 30.5802 10.467 30.5195 10.389C30.4588 10.3023 30.4285 10.194 30.4285 10.064V8.725C30.4285 8.62967 30.4588 8.55167 30.5195 8.491C30.5802 8.43033 30.6582 8.4 30.7535 8.4H36.8635C36.9502 8.4 37.0238 8.43033 37.0845 8.491C37.1538 8.55167 37.1885 8.62967 37.1885 8.725V10.246C37.1885 10.3327 37.1538 10.4107 37.0845 10.48C37.0238 10.5407 36.9502 10.571 36.8635 10.571H33.6265L36.8375 13.522C36.9328 13.6 37.0152 13.678 37.0845 13.756C37.1538 13.834 37.1885 13.9293 37.1885 14.042V14.458C37.1885 14.5707 37.1538 14.666 37.0845 14.744C37.0152 14.8133 36.9328 14.8913 36.8375 14.978L33.6265 17.929H36.8635C36.9502 17.929 37.0238 17.9593 37.0845 18.02C37.1538 18.0893 37.1885 18.1673 37.1885 18.254V19.775C37.1885 19.8703 37.1538 19.9483 37.0845 20.009C37.0238 20.0697 36.9502 20.1 36.8635 20.1H30.7535Z" fill="white"/>
<defs>
<linearGradient id="paint0_linear_690_2196" x1="52.9721" y1="12.8333" x2="82.867" y2="12.8333" gradientUnits="userSpaceOnUse">
<stop stop-color="white"/>
<stop offset="1" stop-opacity="0"/>
</linearGradient>
<clipPath id="clip0_690_2196">
<rect width="14.6852" height="12.8333" fill="white" transform="translate(40.3848 6.4165)"/>
</clipPath>
</defs>
</svg>
