<svg width="97" height="27" viewBox="0 0 97 27" fill="none" xmlns="http://www.w3.org/2000/svg">
<g clip-path="url(#clip0_595_865)">
<mask id="mask0_595_865" style="mask-type:luminance" maskUnits="userSpaceOnUse" x="0" y="0" width="24" height="27">
<path d="M24 0H0V27H24V0Z" fill="white"/>
</mask>
<g mask="url(#mask0_595_865)">
<path fill-rule="evenodd" clip-rule="evenodd" d="M12 0H0L12 13.5H0L12 27H24L12 13.5H24L12 0Z" fill="url(#paint0_linear_595_865)"/>
</g>
</g>
<path d="M35.42 21.2C34.18 21.2 33.14 21.02 32.3 20.66C31.4733 20.2867 30.84 19.8067 30.4 19.22C29.9733 18.62 29.7467 17.9933 29.72 17.34C29.72 17.22 29.76 17.12 29.84 17.04C29.92 16.96 30.02 16.92 30.14 16.92H31.92C32.0933 16.92 32.22 16.96 32.3 17.04C32.3933 17.1067 32.4733 17.1933 32.54 17.3C32.62 17.5533 32.7733 17.8067 33 18.06C33.2267 18.3 33.5333 18.5 33.92 18.66C34.32 18.82 34.82 18.9 35.42 18.9C36.38 18.9 37.0933 18.74 37.56 18.42C38.04 18.1 38.28 17.6667 38.28 17.12C38.28 16.7333 38.1533 16.4267 37.9 16.2C37.6467 15.96 37.2533 15.7467 36.72 15.56C36.2 15.36 35.5067 15.1533 34.64 14.94C33.64 14.7 32.8 14.4133 32.12 14.08C31.4533 13.7333 30.9467 13.3 30.6 12.78C30.2667 12.26 30.1 11.6 30.1 10.8C30.1 10.0267 30.3067 9.34 30.72 8.74C31.1467 8.14 31.7467 7.66667 32.52 7.32C33.3067 6.97333 34.24 6.8 35.32 6.8C36.1867 6.8 36.9533 6.92 37.62 7.16C38.2867 7.38667 38.84 7.69333 39.28 8.08C39.72 8.45333 40.0533 8.86 40.28 9.3C40.52 9.72667 40.6467 10.1467 40.66 10.56C40.66 10.6667 40.62 10.7667 40.54 10.86C40.4733 10.94 40.3733 10.98 40.24 10.98H38.38C38.2733 10.98 38.1667 10.9533 38.06 10.9C37.9533 10.8467 37.8667 10.7467 37.8 10.6C37.72 10.1867 37.46 9.83333 37.02 9.54C36.58 9.24667 36.0133 9.1 35.32 9.1C34.6 9.1 34.02 9.23333 33.58 9.5C33.14 9.76667 32.92 10.18 32.92 10.74C32.92 11.1133 33.0267 11.4267 33.24 11.68C33.4667 11.92 33.82 12.1333 34.3 12.32C34.7933 12.5067 35.44 12.7067 36.24 12.92C37.3733 13.1733 38.3 13.4667 39.02 13.8C39.74 14.1333 40.2667 14.56 40.6 15.08C40.9333 15.5867 41.1 16.2333 41.1 17.02C41.1 17.9 40.86 18.6533 40.38 19.28C39.9133 19.8933 39.2533 20.3667 38.4 20.7C37.5467 21.0333 36.5533 21.2 35.42 21.2ZM43.652 21C43.5187 21 43.4054 20.9533 43.312 20.86C43.2187 20.7667 43.172 20.6533 43.172 20.52V7.28C43.172 7.14667 43.2187 7.03333 43.312 6.94C43.4054 6.84667 43.5187 6.8 43.652 6.8H45.272C45.4187 6.8 45.532 6.84667 45.612 6.94C45.7054 7.03333 45.752 7.14667 45.752 7.28V14.12L49.112 10.94C49.232 10.8333 49.3387 10.7533 49.432 10.7C49.5254 10.6333 49.6654 10.6 49.852 10.6H51.712C51.8454 10.6 51.952 10.64 52.032 10.72C52.112 10.8 52.152 10.9067 52.152 11.04C52.152 11.0933 52.1387 11.1533 52.112 11.22C52.0854 11.2867 52.032 11.3467 51.952 11.4L47.832 15.26L52.452 20.22C52.5854 20.3533 52.652 20.4667 52.652 20.56C52.652 20.6933 52.6054 20.8 52.512 20.88C52.432 20.96 52.332 21 52.212 21H50.312C50.112 21 49.9654 20.9733 49.872 20.92C49.792 20.8533 49.692 20.7667 49.572 20.66L45.752 16.64V20.52C45.752 20.6533 45.7054 20.7667 45.612 20.86C45.532 20.9533 45.4187 21 45.272 21H43.652ZM54.6281 21C54.4948 21 54.3815 20.9533 54.2881 20.86C54.1948 20.7667 54.1481 20.6533 54.1481 20.52V11.08C54.1481 10.9467 54.1948 10.8333 54.2881 10.74C54.3815 10.6467 54.4948 10.6 54.6281 10.6H56.2881C56.4348 10.6 56.5481 10.6467 56.6281 10.74C56.7215 10.8333 56.7681 10.9467 56.7681 11.08V20.52C56.7681 20.6533 56.7215 20.7667 56.6281 20.86C56.5481 20.9533 56.4348 21 56.2881 21H54.6281ZM54.5481 8.88C54.4015 8.88 54.2815 8.84 54.1881 8.76C54.1081 8.66667 54.0681 8.54667 54.0681 8.4V6.96C54.0681 6.82667 54.1081 6.71333 54.1881 6.62C54.2815 6.52667 54.4015 6.48 54.5481 6.48H56.3681C56.5148 6.48 56.6348 6.52667 56.7281 6.62C56.8215 6.71333 56.8681 6.82667 56.8681 6.96V8.4C56.8681 8.54667 56.8215 8.66667 56.7281 8.76C56.6348 8.84 56.5148 8.88 56.3681 8.88H54.5481ZM59.9216 21C59.7882 21 59.6749 20.9533 59.5816 20.86C59.4882 20.7667 59.4416 20.6533 59.4416 20.52V7.28C59.4416 7.14667 59.4882 7.03333 59.5816 6.94C59.6749 6.84667 59.7882 6.8 59.9216 6.8H61.5816C61.7149 6.8 61.8282 6.84667 61.9216 6.94C62.0149 7.03333 62.0616 7.14667 62.0616 7.28V20.52C62.0616 20.6533 62.0149 20.7667 61.9216 20.86C61.8282 20.9533 61.7149 21 61.5816 21H59.9216ZM65.2145 21C65.0812 21 64.9679 20.9533 64.8745 20.86C64.7812 20.7667 64.7345 20.6533 64.7345 20.52V7.28C64.7345 7.14667 64.7812 7.03333 64.8745 6.94C64.9679 6.84667 65.0812 6.8 65.2145 6.8H66.8745C67.0079 6.8 67.1212 6.84667 67.2145 6.94C67.3079 7.03333 67.3545 7.14667 67.3545 7.28V20.52C67.3545 20.6533 67.3079 20.7667 67.2145 20.86C67.1212 20.9533 67.0079 21 66.8745 21H65.2145ZM75.8275 21.2C74.6675 21.2 73.6608 21.0067 72.8075 20.62C71.9542 20.22 71.2942 19.6133 70.8275 18.8C70.3608 17.9733 70.1275 16.92 70.1275 15.64V7.5C70.1275 7.35333 70.1742 7.23333 70.2675 7.14C70.3608 7.04667 70.4742 7 70.6075 7H72.4275C72.5742 7 72.6875 7.04667 72.7675 7.14C72.8608 7.23333 72.9075 7.35333 72.9075 7.5V15.64C72.9075 16.7333 73.1675 17.5467 73.6875 18.08C74.2075 18.6 74.9208 18.86 75.8275 18.86C76.7342 18.86 77.4408 18.6 77.9475 18.08C78.4675 17.5467 78.7275 16.7333 78.7275 15.64V7.5C78.7275 7.35333 78.7742 7.23333 78.8675 7.14C78.9608 7.04667 79.0808 7 79.2275 7H81.0275C81.1742 7 81.2875 7.04667 81.3675 7.14C81.4608 7.23333 81.5075 7.35333 81.5075 7.5V15.64C81.5075 16.92 81.2742 17.9733 80.8075 18.8C80.3542 19.6133 79.7008 20.22 78.8475 20.62C78.0075 21.0067 77.0008 21.2 75.8275 21.2ZM84.9853 21C84.852 21 84.7386 20.9533 84.6453 20.86C84.552 20.7667 84.5053 20.6533 84.5053 20.52V7.5C84.5053 7.35333 84.552 7.23333 84.6453 7.14C84.7386 7.04667 84.852 7 84.9853 7H90.3453C91.3853 7 92.292 7.16667 93.0653 7.5C93.8386 7.82 94.4386 8.31333 94.8653 8.98C95.292 9.63333 95.5053 10.4533 95.5053 11.44C95.5053 12.44 95.292 13.2667 94.8653 13.92C94.4386 14.56 93.8386 15.04 93.0653 15.36C92.292 15.68 91.3853 15.84 90.3453 15.84H87.3653V20.52C87.3653 20.6533 87.3186 20.7667 87.2253 20.86C87.1453 20.9533 87.032 21 86.8853 21H84.9853ZM87.3253 13.62H90.2453C91.0186 13.62 91.612 13.44 92.0253 13.08C92.4386 12.7067 92.6453 12.16 92.6453 11.44C92.6453 10.7733 92.452 10.24 92.0653 9.84C91.6786 9.42667 91.072 9.22 90.2453 9.22H87.3253V13.62Z" fill="url(#paint1_linear_595_865)"/>
<defs>
<linearGradient id="paint0_linear_595_865" x1="2.46" y1="2.16" x2="14.0498" y2="26.0037" gradientUnits="userSpaceOnUse">
<stop stop-color="#AAFFC2"/>
<stop offset="1" stop-color="#FFD9A0"/>
</linearGradient>
<linearGradient id="paint1_linear_595_865" x1="26" y1="2.00001" x2="147" y2="21" gradientUnits="userSpaceOnUse">
<stop stop-color="white"/>
<stop offset="1" stop-color="white" stop-opacity="0"/>
</linearGradient>
<clipPath id="clip0_595_865">
<rect width="24" height="27" fill="white"/>
</clipPath>
</defs>
</svg>
