<svg width="47" height="13" viewBox="0 0 47 13" fill="none" xmlns="http://www.w3.org/2000/svg">
<path d="M17.12 10.1C16.54 10.1 16.0533 10.0133 15.66 9.84C15.2667 9.66 14.9633 9.43 14.75 9.15C14.5433 8.86333 14.4333 8.56 14.42 8.24C14.42 8.18667 14.44 8.14 14.48 8.1C14.5267 8.05333 14.58 8.03 14.64 8.03H15.15C15.23 8.03 15.29 8.05 15.33 8.09C15.37 8.13 15.3967 8.17667 15.41 8.23C15.4433 8.39 15.5233 8.55 15.65 8.71C15.7833 8.86333 15.9667 8.99333 16.2 9.1C16.44 9.2 16.7467 9.25 17.12 9.25C17.6933 9.25 18.1133 9.15 18.38 8.95C18.6533 8.74333 18.79 8.47 18.79 8.13C18.79 7.89667 18.7167 7.71 18.57 7.57C18.43 7.42333 18.2133 7.29333 17.92 7.18C17.6267 7.06667 17.2467 6.94333 16.78 6.81C16.2933 6.67 15.89 6.51667 15.57 6.35C15.25 6.18333 15.01 5.97667 14.85 5.73C14.6967 5.48333 14.62 5.17 14.62 4.79C14.62 4.43 14.7167 4.11 14.91 3.83C15.1033 3.54333 15.38 3.31667 15.74 3.15C16.1067 2.98333 16.55 2.9 17.07 2.9C17.4833 2.9 17.8433 2.95667 18.15 3.07C18.4633 3.17667 18.7233 3.32333 18.93 3.51C19.1367 3.69 19.2933 3.88667 19.4 4.1C19.5067 4.30667 19.5633 4.51 19.57 4.71C19.57 4.75667 19.5533 4.80333 19.52 4.85C19.4867 4.89 19.4333 4.91 19.36 4.91H18.83C18.7833 4.91 18.7333 4.89667 18.68 4.87C18.6333 4.84333 18.5967 4.79333 18.57 4.72C18.53 4.44667 18.3767 4.21667 18.11 4.03C17.8433 3.84333 17.4967 3.75 17.07 3.75C16.6367 3.75 16.2833 3.83333 16.01 4C15.7433 4.16667 15.61 4.42667 15.61 4.78C15.61 5.00667 15.6733 5.19667 15.8 5.35C15.9267 5.49667 16.1267 5.62667 16.4 5.74C16.6733 5.85333 17.03 5.97333 17.47 6.1C18.0033 6.24667 18.44 6.40333 18.78 6.57C19.12 6.73 19.37 6.93333 19.53 7.18C19.6967 7.42 19.78 7.73 19.78 8.11C19.78 8.53 19.67 8.89 19.45 9.19C19.23 9.48333 18.92 9.71 18.52 9.87C18.1267 10.0233 17.66 10.1 17.12 10.1ZM21.2007 10C21.134 10 21.0774 9.98 21.0307 9.94C20.9907 9.89333 20.9707 9.83667 20.9707 9.77V3.13C20.9707 3.06333 20.9907 3.01 21.0307 2.97C21.0774 2.92333 21.134 2.9 21.2007 2.9H21.6707C21.7374 2.9 21.7907 2.92333 21.8307 2.97C21.8774 3.01 21.9007 3.06333 21.9007 3.13V6.61L23.8707 4.97C23.9507 4.90333 24.0107 4.86 24.0507 4.84C24.0974 4.81333 24.1707 4.8 24.2707 4.8H24.8007C24.8607 4.8 24.9107 4.82 24.9507 4.86C24.9907 4.9 25.0107 4.95 25.0107 5.01C25.0107 5.03667 25.0007 5.06667 24.9807 5.1C24.9674 5.13333 24.9374 5.16667 24.8907 5.2L22.5807 7.12L25.1407 9.61C25.2207 9.67667 25.2607 9.73667 25.2607 9.79C25.2607 9.85 25.2407 9.9 25.2007 9.94C25.1607 9.98 25.1107 10 25.0507 10H24.5307C24.4307 10 24.3574 9.99 24.3107 9.97C24.264 9.94333 24.204 9.89667 24.1307 9.83L21.9007 7.7V9.77C21.9007 9.83667 21.8774 9.89333 21.8307 9.94C21.7907 9.98 21.7374 10 21.6707 10H21.2007ZM26.347 10C26.2803 10 26.2236 9.98 26.177 9.94C26.137 9.89333 26.117 9.83667 26.117 9.77V5.03C26.117 4.96333 26.137 4.91 26.177 4.87C26.2236 4.82333 26.2803 4.8 26.347 4.8H26.827C26.8936 4.8 26.947 4.82333 26.987 4.87C27.027 4.91 27.047 4.96333 27.047 5.03V9.77C27.047 9.83667 27.027 9.89333 26.987 9.94C26.947 9.98 26.8936 10 26.827 10H26.347ZM26.267 3.83C26.2003 3.83 26.1436 3.81 26.097 3.77C26.057 3.72333 26.037 3.66667 26.037 3.6V3.06C26.037 2.99333 26.057 2.94 26.097 2.9C26.1436 2.85333 26.2003 2.83 26.267 2.83H26.897C26.9636 2.83 27.017 2.85333 27.057 2.9C27.1036 2.94 27.127 2.99333 27.127 3.06V3.6C27.127 3.66667 27.1036 3.72333 27.057 3.77C27.017 3.81 26.9636 3.83 26.897 3.83H26.267ZM28.7788 10C28.7122 10 28.6555 9.98 28.6088 9.94C28.5688 9.89333 28.5488 9.83667 28.5488 9.77V3.13C28.5488 3.06333 28.5688 3.01 28.6088 2.97C28.6555 2.92333 28.7122 2.9 28.7788 2.9H29.2488C29.3222 2.9 29.3788 2.92333 29.4188 2.97C29.4588 3.01 29.4788 3.06333 29.4788 3.13V9.77C29.4788 9.83667 29.4588 9.89333 29.4188 9.94C29.3788 9.98 29.3222 10 29.2488 10H28.7788ZM31.2105 10C31.1438 10 31.0871 9.98 31.0405 9.94C31.0005 9.89333 30.9805 9.83667 30.9805 9.77V3.13C30.9805 3.06333 31.0005 3.01 31.0405 2.97C31.0871 2.92333 31.1438 2.9 31.2105 2.9H31.6805C31.7538 2.9 31.8105 2.92333 31.8505 2.97C31.8905 3.01 31.9105 3.06333 31.9105 3.13V9.77C31.9105 9.83667 31.8905 9.89333 31.8505 9.94C31.8105 9.98 31.7538 10 31.6805 10H31.2105ZM36.1721 10.1C35.6121 10.1 35.1288 10 34.7221 9.8C34.3221 9.6 34.0121 9.29667 33.7921 8.89C33.5788 8.47667 33.4721 7.94667 33.4721 7.3V3.24C33.4721 3.16667 33.4921 3.11 33.5321 3.07C33.5721 3.02333 33.6288 3 33.7021 3H34.2121C34.2854 3 34.3421 3.02333 34.3821 3.07C34.4288 3.11 34.4521 3.16667 34.4521 3.24V7.32C34.4521 7.97333 34.6054 8.45667 34.9121 8.77C35.2188 9.08333 35.6388 9.24 36.1721 9.24C36.6988 9.24 37.1154 9.08333 37.4221 8.77C37.7354 8.45667 37.8921 7.97333 37.8921 7.32V3.24C37.8921 3.16667 37.9121 3.11 37.9521 3.07C37.9988 3.02333 38.0554 3 38.1221 3H38.6421C38.7088 3 38.7621 3.02333 38.8021 3.07C38.8488 3.11 38.8721 3.16667 38.8721 3.24V7.3C38.8721 7.94667 38.7621 8.47667 38.5421 8.89C38.3288 9.29667 38.0221 9.6 37.6221 9.8C37.2221 10 36.7388 10.1 36.1721 10.1ZM40.7738 10C40.7005 10 40.6438 9.98 40.6038 9.94C40.5638 9.89333 40.5438 9.83667 40.5438 9.77V3.24C40.5438 3.16667 40.5638 3.11 40.6038 3.07C40.6438 3.02333 40.7005 3 40.7738 3H43.3138C43.8072 3 44.2338 3.08 44.5938 3.24C44.9605 3.4 45.2438 3.64 45.4438 3.96C45.6438 4.27333 45.7438 4.66667 45.7438 5.14C45.7438 5.61333 45.6438 6.00667 45.4438 6.32C45.2438 6.63333 44.9605 6.87 44.5938 7.03C44.2338 7.19 43.8072 7.27 43.3138 7.27H41.5438V9.77C41.5438 9.83667 41.5205 9.89333 41.4738 9.94C41.4338 9.98 41.3772 10 41.3038 10H40.7738ZM41.5338 6.43H43.2638C43.7572 6.43 44.1272 6.32 44.3738 6.1C44.6205 5.88 44.7438 5.56 44.7438 5.14C44.7438 4.72667 44.6238 4.40667 44.3838 4.18C44.1438 3.95333 43.7705 3.84 43.2638 3.84H41.5338V6.43Z" fill="url(#paint0_linear_905_1389)"/>
<g clip-path="url(#clip0_905_1389)">
<mask id="mask0_905_1389" style="mask-type:luminance" maskUnits="userSpaceOnUse" x="0" y="0" width="11" height="12">
<path d="M11 0H0V12H11V0Z" fill="white"/>
</mask>
<g mask="url(#mask0_905_1389)">
<path fill-rule="evenodd" clip-rule="evenodd" d="M5.5 0H0L5.5 6H0L5.5 12H11L5.5 6H11L5.5 0Z" fill="url(#paint1_linear_905_1389)"/>
</g>
</g>
<defs>
<linearGradient id="paint0_linear_905_1389" x1="12.5441" y1="1" x2="145.676" y2="0.999999" gradientUnits="userSpaceOnUse">
<stop stop-color="white"/>
<stop offset="1" stop-color="white" stop-opacity="0"/>
</linearGradient>
<linearGradient id="paint1_linear_905_1389" x1="1.1275" y1="0.96" x2="6.18005" y2="11.6795" gradientUnits="userSpaceOnUse">
<stop stop-color="#AAFFC2"/>
<stop offset="1" stop-color="#CAA0FF"/>
</linearGradient>
<clipPath id="clip0_905_1389">
<rect width="11" height="12" fill="white"/>
</clipPath>
</defs>
</svg>
