<svg width="155" height="155" viewBox="0 0 155 155" fill="none" xmlns="http://www.w3.org/2000/svg">
<path d="M117.43 56.202C105.804 47.2545 95.6748 40.6847 78.3047 31.9224C73.8425 29.6682 70.9088 30.0387 67.3576 34.1998C62.301 40.1443 56.9355 49.2694 53.3071 55.1907C50.8366 59.2283 51.7013 63.1192 54.8511 65.8213C55.847 66.6782 84.1874 84.9439 85.3608 85.5692C85.3608 85.5692 83.6315 75.2938 91.4906 72.4914C99.3496 69.689 110.397 81.1688 110.397 81.1688C116.426 71.2716 124.756 61.8454 117.43 56.202ZM79.5167 42.7537C79.5785 44.2977 77.4863 43.2092 77.5635 45.0079C77.5424 45.24 77.4352 45.4558 77.2631 45.613C77.091 45.7701 76.8663 45.8572 76.6333 45.8572C76.4002 45.8572 76.1756 45.7701 76.0034 45.613C75.8313 45.4558 75.7242 45.24 75.703 45.0079C75.2938 43.1474 78.6135 40.4917 79.5167 42.7537ZM77.5558 39.1638C77.5819 39.4082 77.5107 39.6531 77.3575 39.8453C77.2043 40.0375 76.9815 40.1615 76.7375 40.1906C76.218 40.2294 75.7127 40.3784 75.2553 40.6277C74.7979 40.877 74.3988 41.221 74.0847 41.6366C73.7706 42.0522 73.5487 42.53 73.4337 43.0381C73.3187 43.5462 73.3133 44.073 73.4179 44.5833C73.4465 44.7191 73.4446 44.8596 73.4122 44.9946C73.3797 45.1295 73.3176 45.2556 73.2304 45.3635C73.1432 45.4715 73.0329 45.5586 72.9078 45.6186C72.7826 45.6787 72.6457 45.71 72.5069 45.7105C70.5537 45.1392 71.6654 41.9045 72.5069 40.6538C73.3484 39.4032 76.7298 37.0563 77.5404 39.1638H77.5558ZM68.809 37.8283C69.4806 36.4232 75.2244 32.872 76.1662 35.3578C76.1855 35.6033 76.1071 35.8464 75.948 36.0343C75.789 36.2223 75.5622 36.3398 75.317 36.3615C74.344 36.4037 73.3917 36.656 72.5255 37.1011C71.6593 37.5462 70.8997 38.1735 70.2989 38.94C69.7083 39.7778 69.2984 40.7293 69.095 41.734C68.8917 42.7387 68.8994 43.7748 69.1178 44.7763C69.1452 44.9116 69.1422 45.0512 69.1092 45.1852C69.0762 45.3192 69.0138 45.4442 68.9267 45.5512C68.8396 45.6583 68.7299 45.7447 68.6054 45.8043C68.4809 45.8638 68.3448 45.8951 68.2068 45.8957C65.7904 45.0234 67.5969 39.2024 68.809 37.8283ZM63.4512 51.0528C62.9031 49.7095 61.4981 51.0528 61.1352 49.6786C61.1091 49.5594 61.1068 49.4363 61.1284 49.3163C61.15 49.1963 61.1951 49.0817 61.2611 48.9791C61.3271 48.8765 61.4127 48.788 61.5129 48.7186C61.6132 48.6492 61.7262 48.6002 61.8455 48.5746C62.4529 48.4176 63.0956 48.472 63.6681 48.7287C64.2405 48.9855 64.7085 49.4294 64.9953 49.9874C65.4353 50.6127 65.4662 50.605 65.829 50.4969C67.1646 50.0878 68.145 50.0878 68.863 50.4969C70.1214 51.1994 70.0828 52.6045 70.5614 53.7085C70.7853 54.0173 71.3334 53.8011 72.2753 53.2839C73.2171 52.7666 74.3829 54.4264 73.0473 54.9823C71.7117 55.5381 71.4261 55.6539 70.6386 55.6539C68.9248 55.9627 68.5697 53.0137 67.9906 52.1258C66.1764 51.9097 64.8486 53.307 63.4512 51.0528ZM80.7905 73.0627C80.7152 73.1588 80.6216 73.239 80.5152 73.2988C80.4087 73.3586 80.2915 73.3968 80.1703 73.4112C80.049 73.4255 79.9262 73.4158 79.8087 73.3825C79.6912 73.3491 79.5815 73.2929 79.4858 73.2171C74.4909 69.357 72.2135 68.477 66.7863 64.4702C66.5877 64.3249 66.455 64.1066 66.4173 63.8633C66.3797 63.6201 66.4402 63.3719 66.5856 63.1733C66.731 62.9747 66.9493 62.8419 67.1925 62.8043C67.4357 62.7667 67.684 62.8272 67.8826 62.9725C70.7004 65.0261 72.6922 66.3076 74.4446 67.4348C75.2012 68.2685 81.9408 71.372 80.7905 73.0627ZM86.403 60.6334C83.315 62.4321 81.3927 62.2855 80.6284 59.0276C80.4972 58.8655 78.3124 60.1084 77.7797 59.568C76.6989 59.0816 76.8996 57.6148 76.3978 56.8505C76.1032 56.8207 75.8066 56.8828 75.5486 57.0281C75.3213 57.1223 75.066 57.1223 74.8386 57.0282C74.6113 56.9341 74.4307 56.7536 74.3365 56.5263C74.2424 56.299 74.2423 56.0436 74.3364 55.8163C74.4305 55.589 74.6111 55.4084 74.8384 55.3142C77.0154 54.2103 78.4591 55.8701 78.6289 57.7383C81.5008 56.2947 82.2573 57.7383 82.9907 59.954C83.0371 59.954 83.562 60.1238 85.4689 59.0199C85.6815 58.9144 85.9263 58.8938 86.1536 58.9623C86.3808 59.0308 86.5735 59.1833 86.6924 59.3887C86.8113 59.5941 86.8476 59.8371 86.7939 60.0682C86.7401 60.2994 86.6004 60.5015 86.403 60.6334ZM97.7052 70.5691C96.1612 70.7621 96.6167 67.8439 96.2307 67.3267C94.4782 68.4924 92.5791 67.813 92.6254 65.5897C92.6254 65.2345 92.5173 64.5629 92.3552 64.4625C90.1318 65.8753 88.279 66.4389 88.3022 62.8182C88.3062 62.5724 88.4061 62.3379 88.5807 62.1648C88.7552 61.9917 88.9905 61.8937 89.2363 61.8917C90.155 61.8917 90.2013 62.9494 90.1936 63.5516C92.7952 61.5289 94.5014 63.0498 94.5554 66.0297C95.2348 65.7749 96.5935 65.0261 97.2034 65.6051C97.5817 65.3272 99.5889 70.2526 97.7052 70.5691ZM109.131 64.8485C108.112 64.8485 108.436 63.5207 108.127 63.0729C102.615 65.5897 104.337 60.587 102.669 60.3709C98.0372 62.0075 98.0372 61.7759 97.2652 57.0744C94.7098 58.024 92.2471 57.3678 92.224 54.658C92.2112 54.5373 92.2224 54.4152 92.2571 54.2988C92.2918 54.1824 92.3492 54.0741 92.426 53.9801C92.5028 53.886 92.5975 53.8081 92.7046 53.7509C92.8117 53.6937 92.9291 53.6583 93.05 53.6467C94.1926 53.3997 94.0845 55.4223 94.4087 55.569C94.733 55.7157 95.8601 55.4841 96.7788 55.2756C99.3496 54.7044 99.2415 57.6843 99.5503 59.4368C103.279 57.9545 104.537 57.9622 105.564 61.8609C106.761 61.9458 108.305 60.5176 109.424 61.7219C110.273 62.5325 110.706 64.8485 109.131 64.8485Z" fill="#6016F3"/>
<path d="M47.8641 88.1707C44.776 89.4985 45.0154 96.9253 48.9758 97.1337C52.1333 97.3113 56.773 96.8558 57.8307 95.9757C59.8148 94.3004 59.2126 87.6766 56.1632 87.3138C53.3679 87.1061 50.5579 87.3962 47.8641 88.1707ZM56.8116 90.4867C58.5873 96.2613 53.5769 95.5588 48.9449 95.4353C48.2192 95.2886 47.5553 93.7677 47.5167 92.1928C47.3854 88.1861 53.6927 89.4059 56.0088 89.1589C56.2018 89.182 56.5646 89.6066 56.8194 90.4867H56.8116Z" fill="#001434"/>
<path d="M58.6723 109.833C56.0398 109.911 52.8282 109.772 50.6898 110.976C47.8333 112.52 48.4973 119.545 51.9713 119.785C54.7582 119.985 59.4598 119.584 60.9497 118.464C63.5051 116.612 62.1772 109.741 58.6723 109.833ZM60.0928 113.246C60.6564 114.851 60.4171 116.542 59.8381 116.982C59.3594 117.175 51.4232 119.877 50.8905 116.21C49.8251 111.424 54.0403 111.879 57.5838 111.74C58.8267 111.547 59.6914 111.794 60.1083 113.246H60.0928Z" fill="#001434"/>
<path d="M39.4258 65.5743C40.456 64.451 41.85 63.7281 43.3615 63.5331C44.8731 63.3382 46.4049 63.6838 47.6863 64.5089C49.2303 65.196 49.5932 62.9185 48.0878 62.6175C51.9787 49.7481 31.3584 53.5001 38.5998 63.7678C37.5113 64.8486 38.5072 66.3463 39.4258 65.5743ZM42.5679 56.1172C42.3608 57.9813 42.4154 59.8652 42.73 61.7142C41.8141 61.8671 40.936 62.1947 40.1438 62.6792C37.8741 60.1084 39.2946 56.1789 42.5679 56.1172Z" fill="#001434"/>
<path d="M30.6257 68.5235C30.5249 68.4548 30.4115 68.4067 30.2921 68.382C30.1727 68.3572 30.0495 68.3563 29.9297 68.3793C29.81 68.4022 29.6959 68.4486 29.5941 68.5158C29.4923 68.5829 29.4047 68.6695 29.3364 68.7706C28.5644 70.6465 31.4903 71.4031 32.9957 71.4803C36.6859 71.6579 39.2181 67.7592 37.5892 66.9332C35.7286 65.9913 35.5974 71.2719 30.6257 68.5235Z" fill="#001434"/>
<path d="M52.4964 51.3539C50.9524 49.4162 39.9204 50.5124 35.049 50.7518C31.521 50.9525 26.7191 51.7245 18.3582 52.5428C7.03289 53.6159 10.754 60.6952 12.684 72.9856C13.7571 79.8101 20.4041 76.6217 30.5714 75.3942C35.8133 74.7535 47.9493 73.3021 52.1336 72.8621C55.7311 72.4838 56.7656 68.3381 55.0595 68.1142C53.7702 67.9367 54.8124 70.3453 51.045 71.0247C40.731 72.7617 29.4288 73.6341 18.5667 75.0314C13.2553 75.7108 14.2048 70.3994 12.5219 61.1353C11.6109 56.1249 13.5795 55.0519 18.5976 54.4111C27.3598 53.284 31.7217 52.7976 35.188 52.6277C38.6543 52.4579 48.8294 51.4697 51.1763 52.6972C52.2494 53.2685 53.2221 52.2881 52.4964 51.3539Z" fill="#001434"/>
<path d="M56.3567 98.4693C49.4087 98.5619 44.6685 101.349 48.1503 107.733C49.4859 110.173 60.1705 107.903 60.5024 105.248C60.9888 101.387 60.0624 98.423 56.3567 98.4693ZM58.6728 105.078C58.4643 106.004 50.4277 108.227 49.4859 106.413C48.1889 103.943 48.0422 100.554 54.3264 100.152C57.6074 99.9438 59.6378 100.577 58.6728 105.078Z" fill="#001434"/>
<path d="M17.6553 68.4466C18.8056 69.4657 19.3537 66.8099 22.6656 66.3853C24.2555 66.1641 25.8723 66.5143 27.2282 67.3735C28.7722 68.0606 29.1428 65.7832 27.6374 65.4744C31.4974 52.605 10.9003 56.3647 18.1648 66.6324C17.6013 67.0493 16.9837 67.8522 17.6553 68.4466ZM18.5663 61.2978C18.9832 59.7538 20.504 58.9818 22.1098 58.9818C21.9067 60.8461 21.9612 62.7294 22.2719 64.5788C21.3487 64.7274 20.4628 65.0524 19.6625 65.5361C19.1639 64.9629 18.8053 64.2817 18.615 63.5461C18.4248 62.8106 18.4081 62.0409 18.5663 61.2978Z" fill="#001434"/>
<path d="M33.7136 99.589C36.6859 99.7126 41.1944 98.817 42.6072 98.045C45.1316 96.169 43.4641 89.5529 40.4919 89.5529C38.392 89.4449 32.3009 89.9081 31.1274 91.6451C29.954 93.3821 30.448 99.4578 33.7136 99.589ZM32.6328 92.7027C33.1192 92.0542 37.7203 91.2128 40.3992 91.3826C42.1594 91.8767 42.0899 96.1459 41.7116 96.4315C40.6694 97.0028 36.5392 97.852 33.7908 97.7362C32.1696 97.3425 32.3395 92.9884 32.6328 92.6873V92.7027Z" fill="#001434"/>
<path d="M35.0411 26.8737C31.2505 23.8629 30.8027 30.5176 26.3946 27.6997C26.2871 27.642 26.1693 27.6059 26.0479 27.5936C25.9265 27.5814 25.8039 27.5931 25.687 27.6283C25.5702 27.6634 25.4614 27.7212 25.3669 27.7984C25.2724 27.8755 25.194 27.9706 25.1362 28.078C25.0784 28.1855 25.0424 28.3033 25.0301 28.4247C25.0178 28.5461 25.0296 28.6687 25.0647 28.7856C25.0999 28.9024 25.1577 29.0112 25.2348 29.1057C25.312 29.2002 25.407 29.2786 25.5145 29.3364C29.6447 31.5212 31.8527 28.2093 32.9644 27.9391C34.076 27.6689 34.8635 29.4213 36.4152 29.4136C37.967 29.4059 39.9973 26.287 38.8393 25.6076C38.629 25.4816 38.3775 25.4433 38.1392 25.5011C37.9009 25.5589 37.6948 25.708 37.5655 25.9164C36.1296 27.885 36.2299 27.7924 35.0411 26.8737Z" fill="#001434"/>
<path d="M21.9558 21.0217C24.3413 24.9358 27.0665 23.8164 28.3866 20.821C28.5642 20.4273 29.1586 20.4119 29.5137 20.6512C31.9224 22.2878 33.5513 22.0717 35.9832 19.5704C36.0688 19.4837 36.1366 19.381 36.1826 19.2681C36.2285 19.1552 36.2518 19.0344 36.2511 18.9126C36.2504 18.7907 36.2257 18.6702 36.1784 18.5578C36.1311 18.4455 36.0621 18.3436 35.9754 18.258C35.8888 18.1723 35.7861 18.1045 35.6732 18.0586C35.5603 18.0126 35.4395 17.9893 35.3176 17.99C35.1958 17.9907 35.0752 18.0154 34.9629 18.0627C34.8506 18.11 34.7487 18.179 34.663 18.2657C31.2585 22.7047 29.8303 15.1776 26.6882 20.1108C26.0088 21.1607 25.3372 22.7356 23.3608 19.7865C21.3845 16.8375 19.4622 22.4808 17.6866 22.4808C17.5708 22.4808 16.9532 22.2647 16.1426 20.2111C16.1041 20.0932 16.041 19.9848 15.9573 19.8932C15.8736 19.8017 15.7714 19.729 15.6574 19.68C15.5435 19.6311 15.4204 19.607 15.2963 19.6094C15.1723 19.6118 15.0502 19.6406 14.9382 19.6939C13.788 20.4659 15.3628 24.1407 17.3932 24.3259C19.4236 24.5112 20.682 22.2956 21.9558 21.0217Z" fill="#001434"/>
<path d="M31.8611 35.9831C30.7572 35.9831 29.8153 35.6743 27.4298 34.4854C27.1175 34.3228 26.7642 34.2558 26.4141 34.2929C26.0639 34.33 25.7325 34.4694 25.4612 34.6938C23.3922 36.5235 22.1107 37.2029 20.9527 35.7283C19.3546 33.698 19.3006 38.0444 22.0258 38.3609C24.1719 38.5925 25.8858 36.4077 26.5729 36.3073C27.26 36.207 29.4911 38.2219 32.1236 37.8513C32.7706 37.7913 33.3986 37.6002 33.9693 37.2896C34.54 36.979 35.0415 36.5555 35.4432 36.0449C36.0531 35.2728 38.8555 37.5889 39.5272 36.7242C40.8319 35.0798 36.5395 34.2692 35.8292 34.2229C34.4474 34.1534 34.1154 35.9445 31.8611 35.9831Z" fill="#001434"/>
<path d="M117.345 70.0983C117.067 70.5384 116.774 71.1019 116.241 71.928C129.643 78.822 132.391 83.2379 138.938 99.0332C130.137 118.032 105.857 117.353 100.438 118.063C87.6998 97.7207 84.4728 83.1221 88.4332 76.8843C94.1461 67.8827 107.193 78.822 112.257 85.1602C113.315 86.4726 115.384 85.2297 114.573 84.3341C102.53 70.4998 92.8414 68.6161 87.4064 74.298C81.9715 79.98 84.4188 93.0578 93.0884 109.27C81.902 108.56 74.3827 101.48 72.692 91.3285C76.7836 93.1582 80.8521 94.2313 80.6745 92.8725C80.497 91.5138 76.2741 91.4906 72.3368 89.0125C71.1094 81.7865 73.1475 79.7484 71.3718 79.3392C68.886 78.768 66.6935 111.061 94.3699 111.594C95.6592 113.863 96.987 116.087 98.3149 118.233C90.5948 121.823 95.003 131.087 102.252 146.55C102.302 146.665 102.375 146.769 102.466 146.855C102.557 146.942 102.665 147.008 102.783 147.051C102.901 147.095 103.026 147.114 103.151 147.107C103.277 147.1 103.399 147.068 103.512 147.013C103.624 146.957 103.724 146.879 103.806 146.784C103.888 146.689 103.949 146.578 103.986 146.458C104.024 146.338 104.037 146.212 104.024 146.087C104.011 145.963 103.973 145.842 103.912 145.732C95.3272 128.292 95.582 123.413 96.7632 121.738C98.3766 119.422 102.584 120.456 113.091 118.75C123.598 117.044 133.48 112.713 140.011 101.133C140.08 100.732 150.109 122.186 150.541 115.654C136.915 97.0645 140.258 80.2271 117.345 70.0983Z" fill="#001434"/>
<path d="M37.1105 121.838C39.9129 121.977 44.4909 121.529 45.9885 120.464C48.4744 118.758 47.8568 111.771 44.3442 111.702C40.0209 111.624 32.6405 110.806 33.8603 117.561C34.1537 119.468 35.1804 121.738 37.1105 121.838ZM36.2844 114.357C40.2448 113.392 48.32 111.725 44.9 118.989C44.0817 119.576 40.2062 120.186 37.1799 120.016C35.8984 120.163 34.972 114.682 36.2844 114.357Z" fill="#001434"/>
<path d="M63.1265 75.1395C61.7677 74.962 62.7019 78.5904 62.864 81.4391C63.3889 90.7032 73.811 127.844 59.7759 127.065C46.4897 126.293 20.6275 136.823 15.98 127.605C11.3325 118.387 11.8806 97.3502 10.0355 83.2688C8.71538 73.4334 4.8399 53.8167 6.25268 47.6561C6.93204 44.6607 10.5605 41.7734 13.7643 41.5804C13.9187 42.7847 14.0268 44.0122 14.0963 45.2628C11.3325 45.4558 11.7339 46.8763 12.2666 47.2083C14.1889 48.4049 50.5891 42.4836 50.867 41.9895C51.0897 41.9262 51.2793 41.7791 51.3959 41.579C51.5125 41.3789 51.547 41.1415 51.4923 40.9164C51.1758 40.0827 49.0836 40.5227 47.0764 40.9164C46.8989 39.6272 46.6981 38.3225 46.4588 37.0101C54.4182 36.2844 55.6997 38.6004 58.2088 42.0359C58.8727 42.9391 60.3627 42.0359 59.9303 41.1403C57.128 35.3734 52.4959 34.5628 46.1191 35.1264C44.4207 26.2329 42.6374 17.5555 41.1783 8.29914C40.9235 6.66248 38.4531 10.3295 37.1021 10.2446C36.3301 10.1906 35.5581 9.26415 34.5236 7.92857C32.8638 5.83643 31.3352 10.7078 28.6641 10.8622C27.4211 10.9394 24.8581 6.69336 23.7309 8.65426C20.9131 13.5102 20.419 13.5565 17.6861 10.8236C15.8642 8.9785 15.1848 14.1278 12.9846 13.8576C11.4406 13.6646 11.1781 12.3136 10.3675 12.8231C6.61552 15.1391 12.6835 30.5793 13.4555 39.7353C8.36798 41.1172 4.63146 43.0009 4.04474 48.0189C2.97165 56.7194 6.94748 74.7149 7.78125 83.8864C9.12454 98.2766 10.6377 123.405 14.5363 129.334C21.3068 139.625 46.2349 128.439 59.9303 128.918C76.5362 129.497 66.1064 93.6137 64.7014 81.1921C64.2304 76.9846 64.848 75.3557 63.1265 75.1395ZM10.9928 15.1314C13.1235 16.4747 15.5708 16.0964 17.0531 13.1242C20.3495 16.1041 22.8508 14.6682 24.7731 10.6306C28.2935 14.6528 30.6404 13.0856 33.4119 9.67331C35.5349 12.7613 36.9863 13.5333 39.588 10.978C40.7382 21.0604 43.9266 31.359 45.2699 41.2175C36.9245 42.7615 26.155 44.0045 15.9336 45.0776C15.1925 33.1964 10.5219 22.6276 10.9928 15.1314Z" fill="#001434"/>
<path d="M53.1138 76.0043C45.4786 76.1201 41.1554 78.2663 45.193 85.4151C48.9835 87.4686 57.7844 85.3688 57.2749 82.7594C57.5297 78.6832 56.8349 75.9503 53.1138 76.0043ZM55.4298 82.6127C55.3449 83.6781 52.3418 84.0872 47.8332 84.3652C45.6176 84.5196 45.8646 82.6822 45.6948 80.5051C44.861 78.1891 50.1029 78.1273 53.2991 77.8494C55.5842 77.9729 55.4452 79.0229 55.4221 82.605L55.4298 82.6127Z" fill="#001434"/>
<path d="M16.2121 90.0703C20.381 90.6493 28.0161 91.0275 27.1206 84.5118C26.8581 82.6281 25.9549 80.343 24.0326 80.15C20.3192 80.15 13.8266 79.7022 13.8498 85.1989C13.7726 87.0749 14.4983 89.3909 16.2121 90.0703ZM16.7062 82.9137C19.717 82.3656 24.82 79.8257 25.2755 84.728C25.4453 86.1407 25.1211 87.4068 24.5498 87.6076C21.8555 88.5494 17.8797 88.7347 16.9069 88.3796C15.5791 88.009 15.1082 83.4464 16.6676 82.9137H16.7062Z" fill="#001434"/>
<path d="M32.9801 88.3408C35.3942 88.2617 37.7863 87.8539 40.0903 87.1287C43.4794 86.0402 42.4604 78.3124 39.1716 78.1735C36.3075 78.3124 28.3635 77.4015 28.4484 82.7206C28.4639 85.6465 29.8998 88.6496 32.9801 88.3408ZM30.3012 82.7515C30.3012 82.3963 30.3862 81.2074 31.0733 80.9836C33.2117 80.2116 39.8355 77.8029 40.3373 82.5276C40.4917 83.9172 40.1443 85.1987 39.5653 85.3917C34.5473 86.4648 30.3012 88.3408 30.3012 82.7515Z" fill="#001434"/>
<path d="M28.8499 97.9216C28.8499 95.6055 28.5719 93.3744 27.4371 92.3245C26.1942 90.9426 22.3264 91.6992 20.489 91.7995C13.6413 92.1778 14.5446 97.2576 17.1385 100.971C20.4813 102.554 28.8344 100.515 28.8499 97.9216ZM21.84 93.5366C25.3063 92.7645 27.5452 93.1969 26.997 97.8058C26.943 98.7167 25.8236 99.4501 20.0027 99.9288C17.7561 100.122 17.4241 98.6627 17.1848 96.1382C16.9841 94.2545 17.6944 94.0384 21.84 93.5366Z" fill="#001434"/>
<path d="M33.7365 110.397C36.2301 110.915 41.0011 110.343 43.0006 109.803C46.0191 108.992 45.8261 101.125 42.4061 100.979C38.9861 100.832 30.7797 100.207 31.8065 106.53C31.9223 108.081 32.509 110.004 33.7365 110.397ZM33.6361 105.24C33.999 102.052 39.7118 102.924 42.2209 102.832C43.6645 103.025 43.3403 108.035 42.4447 108.027C40.4607 108.622 35.5353 108.915 34.3232 108.629C33.7174 107.596 33.4755 106.389 33.6361 105.202V105.24Z" fill="#001434"/>
<path d="M22.7429 123.907C31.3276 123.56 33.3503 123.012 31.5515 115.778C30.6714 112.242 20.1721 113.825 19.0836 116.326C17.9951 118.827 18.3965 124.085 22.7429 123.907ZM20.6971 117.245C21.9014 115.469 26.7882 115.307 28.1084 115.292C30.3086 115.292 30.8644 119.692 30.1773 120.51C28.2936 122.749 21.0291 122.471 20.8129 121.452C20.5427 120.155 19.9791 118.302 20.6971 117.245Z" fill="#001434"/>
<path d="M19.1996 112.774C20.8672 113.716 31.3665 112.628 30.2393 107.247C29.8302 105.286 29.8997 102.754 27.244 102.615C24.4339 102.476 17.0535 102.182 16.9685 107.116C16.8759 109.27 17.8409 112.002 19.1996 112.774ZM18.8291 107.023C19.3618 104.028 25.2985 104.545 27.0124 104.46C28.0391 104.336 29.1585 109.64 27.738 110.072C22.4498 111.261 18.667 113.253 18.8291 107.023Z" fill="#001434"/>
</svg>
