<svg width="50" height="49" viewBox="0 0 50 49" fill="none" xmlns="http://www.w3.org/2000/svg">
<path d="M44.0148 11.6123L26.7715 1.81037C25.6852 1.204 24.2621 1.204 23.1672 1.81037L5.78906 11.6123C4.66836 12.2443 3.90625 13.4322 3.90625 14.7027V34.2805C3.90625 35.5511 4.68438 36.7393 5.80547 37.3748L10.3871 39.9351C12.5852 40.9962 13.1941 40.9962 14.1941 40.9962C17.4496 40.9962 19.1402 39.0672 19.1402 35.7027V16.3745C19.1406 16.1015 19.3145 15.6954 19.0406 15.6954H16.8445C16.5664 15.6954 16.0156 16.1015 16.0156 16.3741V35.7023C16.0156 37.1937 14.6031 38.6779 12.0305 37.4173L7.29531 34.7326C7.13047 34.6446 7.03125 34.4673 7.03125 34.2805V14.7027C7.03125 14.5182 7.21211 14.3329 7.3793 14.2384L24.7145 4.45331C24.7996 4.409 24.8945 4.38583 24.9908 4.38583C25.0872 4.38583 25.1821 4.409 25.2672 4.45331L42.4402 14.2361C42.6047 14.3329 42.5785 14.5125 42.5785 14.7027V34.2805C42.5785 34.4673 42.6145 34.6492 42.4523 34.7391L25.2129 44.5299C25.0652 44.6168 24.873 44.6168 24.7109 44.5299L20.2902 41.9463C20.157 41.8706 19.9965 41.8434 19.8684 41.9134C18.6398 42.596 18.4117 42.6867 17.2594 43.0783C16.9754 43.1752 16.5566 43.3432 17.4187 43.8168L23.1992 47.1679C23.7511 47.4804 24.3771 47.6449 25.0145 47.6449C25.6543 47.6459 26.283 47.4814 26.8371 47.1679L44.0152 37.3748C45.1367 36.7347 45.7035 35.5511 45.7035 34.2805V14.7027C45.7031 13.4322 45.1363 12.2474 44.0148 11.6123ZM30.3621 31.1782C25.7812 31.1782 24.7727 29.9398 24.4363 27.7076C24.3965 27.4672 24.1887 27.1797 23.9387 27.1797H21.7004C21.4234 27.1797 21.2004 27.509 21.2004 27.7792C21.2004 30.6373 22.7863 34.1002 30.3621 34.1002C35.8457 34.1002 38.9902 32.012 38.9902 28.3163C38.9902 24.652 36.4641 23.6904 31.1457 23.0006C25.7699 22.3042 25.2238 21.9524 25.2238 20.7182C25.2238 19.7007 25.6863 18.3437 29.6668 18.3437C33.223 18.3437 34.534 19.0917 35.0734 21.441C35.1199 21.6619 35.3258 21.8204 35.5582 21.8204H37.8059C37.9441 21.8204 38.0758 21.7656 38.1727 21.6688C38.2668 21.5646 38.316 21.4341 38.3039 21.294C37.9551 17.2481 35.2129 15.3627 29.6664 15.3627C24.732 15.3627 21.7891 17.4046 21.7891 20.8273C21.7891 24.5399 24.7176 25.5658 29.4539 26.0248C35.1199 26.5692 35.5605 27.3807 35.5605 28.4729C35.5605 30.3701 34.0066 31.1782 30.3621 31.1782Z" fill="#001434"/>
</svg>
