<svg width="201" height="201" viewBox="0 0 201 201" fill="none" xmlns="http://www.w3.org/2000/svg">
<path d="M73.6363 171.473C73.6612 165.215 74.277 158.973 75.4754 152.83C75.6001 152.199 75.5571 151.545 75.3508 150.935C75.1445 150.325 74.7821 149.78 74.2996 149.353C70.712 146.161 67.5079 142.562 64.7521 138.63C64.4064 138.127 64.1989 137.543 64.1504 136.935C64.1019 136.327 64.2141 135.717 64.4758 135.167C64.7375 134.616 65.1394 134.143 65.6412 133.797C66.143 133.451 66.7271 133.242 67.3349 133.193C74.6312 132.409 80.3396 127.715 81.4049 125.746C96.2287 136.369 126.399 129.856 132.66 126.349C136.382 124.297 139.418 121.197 141.393 117.434C141.393 117.434 149.152 118.439 154.056 135.776C154.514 137.335 154.564 138.986 154.199 140.57C153.835 142.154 153.069 143.618 151.976 144.821C145.946 151.263 133.705 153.614 127.394 147.494C127.816 151.454 118.69 154.328 111.454 154.358C109.093 152.84 104.872 147.413 102.631 148.057C100.389 148.7 99.0829 149.665 98.7311 151.906C95.7161 148.047 89.2238 146.68 85.7365 149.343C82.2491 152.006 81.8773 175.543 92.6207 178.126C87.0336 178.15 81.4868 177.18 76.2392 175.262C75.4701 174.972 74.8082 174.454 74.3428 173.776C73.8774 173.099 73.6308 172.295 73.6363 171.473Z" fill="#A259FF"/>
<path d="M65.023 59.6062C77.8669 18.7329 28.4511 39.5766 47.0436 55.8676C48.9832 56.8726 50.7721 53.4255 51.5862 52.1994C46.5612 46.9935 56.5509 37.8279 59.6262 46.9633C60.2593 50.6617 56.4303 53.1943 56.9026 57.9279C56.7418 64.2091 64.0884 63.6262 65.023 59.6062Z" fill="#A259FF"/>
<path d="M68.6214 66.5915C64.9933 66.0186 61.2246 70.4406 65.5461 73.2345C69.4354 73.7069 73.2745 69.4658 68.6214 66.5915Z" fill="#A259FF"/>
<path d="M149.192 45.5568C155.594 47.4361 153.212 40.9338 159.162 40.6825C163.182 40.7931 165.705 43.587 163.433 46.9135C161.162 50.2401 157.112 49.1044 153.383 52.5315C148.258 56.1093 152.73 61.0338 156.619 59.1042C196.98 41.7076 146.439 21.889 149.192 45.5568Z" fill="#A259FF"/>
<path d="M145.614 67.1341C147.342 69.7873 153.171 70.6918 152.528 65.5864C151.091 62.7824 145.242 62.4407 145.614 67.1341Z" fill="#A259FF"/>
<path d="M103.193 53.4662C102.479 54.0692 101.002 55.838 102.711 58.9636C104.721 60.9736 108.841 61.1344 110.891 59.3354C111.565 58.7324 112.901 56.9536 111.112 53.7577C109.193 51.7477 105.133 51.808 103.193 53.4662ZM109.545 57.8179C108.54 58.7626 106.007 58.7224 104.439 57.7576C102.56 54.3305 107.293 53.5366 109.464 54.9737C109.926 55.9084 110.298 57.1043 109.545 57.8179Z" fill="black"/>
<path d="M107.535 27.2858C114.509 25.5773 114.781 32.4917 109.253 35.1751C105.314 37.1147 100.208 44.5015 104.66 47.7778C105.753 48.6132 107.109 49.0299 108.482 48.9525C109.855 48.8751 111.156 48.3087 112.148 47.3557C126.218 34.8032 124.439 27.1552 122.137 23.708C114.399 12.5123 88.8316 19.0951 96.4797 34.763C105.525 38.5418 101.977 29.1451 107.535 27.2858ZM102.61 21.6578C113.334 16.5223 134.68 24.6025 110.65 45.9185C107.565 48.7325 102.811 45.2351 105.866 41.386C107.746 37.165 113.072 36.6223 114.761 32.341C116.871 27.2356 111.474 23.6477 106.922 25.306C100.64 26.713 103.675 35.7278 97.7359 33.0445C95.7661 26.1301 99.8967 22.9342 102.58 21.6578H102.61Z" fill="black"/>
<path d="M37.7976 115.997C31.9385 114.108 24.8231 121.112 31.1747 125.766C36.9836 127.243 44.6718 121.725 37.7976 115.997ZM38.1092 121.635C37.1846 123.303 34.2701 124.328 31.9586 123.846C28.4009 120.389 33.5766 117.052 36.9836 117.896C37.9484 118.881 38.873 120.268 38.1092 121.605V121.635Z" fill="black"/>
<path d="M33.5972 110.922C51.8882 75.8878 22.7934 68.7121 7.16565 85.5559C3.28635 91.0633 4.73355 97.2541 11.1857 102.571C11.3336 102.696 11.5149 102.777 11.7075 102.802C11.9001 102.827 12.0959 102.795 12.2711 102.711C23.0346 97.8169 11.9495 94.3497 18.7634 88.983C30.9038 84.6313 26.7431 96.5406 21.7784 105.515C19.5473 114.128 29.3762 117.585 33.5972 110.922ZM25.9994 112.098C23.9894 111.324 23.1753 109.083 23.7381 106.068C25.6476 102.661 31.1048 91.998 27.537 87.7368C22.8738 83.1138 11.457 88.1589 14.7836 95.5758C15.3966 97.5054 15.7886 98.7013 11.9595 100.601C-3.6582 87.2644 22.2507 74.4708 32.371 80.8626C39.1447 85.1238 39.0443 95.2843 31.8083 109.947C31.2194 110.903 30.3274 111.634 29.2746 112.024C28.2218 112.414 27.0687 112.44 25.9994 112.098Z" fill="black"/>
<path d="M105.645 118.379C105.6 118.113 105.451 117.875 105.23 117.718C105.01 117.562 104.736 117.5 104.47 117.545C104.203 117.59 103.965 117.74 103.809 117.96C103.653 118.181 103.59 118.454 103.635 118.721C104.068 120.942 102.419 120.731 103.485 122.108C104.902 123.022 106.027 121.203 105.645 118.379Z" fill="black"/>
<path d="M142.639 116.68C142.747 116.046 142.794 115.404 142.78 114.761C163.121 107.455 157.493 88.6309 142.559 77.5759C121.695 60.4808 74.1988 60.7823 67.3346 90.862C34.5917 106.61 44.6216 132.76 68.822 151.102C67.3346 155.423 64.5106 175.131 67.3648 175.222C67.502 175.222 67.6378 175.194 67.7638 175.14C67.8899 175.086 68.0035 175.006 68.0976 174.906C68.1918 174.806 68.2645 174.688 68.3113 174.559C68.3581 174.431 68.378 174.293 68.3698 174.156C68.018 163.101 68.9828 149.695 78.8519 133.524C78.3896 125.625 69.1235 148.74 69.4451 148.981C63.823 144.618 58.8252 139.505 54.5912 133.785C62.6312 134.66 72.1385 130.228 78.0379 123.514C80.1632 126.497 83.1464 128.761 86.5904 130.007C91.6154 137.846 96.7711 141.665 102.801 136.037C102.378 139.608 102.21 143.205 102.299 146.8C100.158 146.73 98.9017 147.956 97.8464 150.458C93.1933 147.232 83.5252 145.534 79.676 149.755C76.8118 153.865 77.5655 168.609 83.0026 174.88C86.8216 179.252 93.5249 179.955 100.238 180.046C104.489 182.056 110.047 182.94 116.027 182.94C142.157 183.332 171.563 167.724 164.669 139.594C161.865 128.328 153.242 119.364 142.639 116.68ZM162.568 139.564C158.458 150.006 136.107 152.428 128.499 146.991C128.609 146.197 128.238 140.81 125.926 141.504C125.805 141.564 125.696 141.649 125.608 141.752C125.52 141.855 125.454 141.975 125.414 142.105C125.373 142.235 125.36 142.371 125.373 142.506C125.387 142.641 125.428 142.772 125.494 142.891C129.604 150.991 119.464 153.293 112.228 153.343C109.906 152.237 106.952 148.549 104.389 147.383C104.228 143.111 104.45 138.832 105.052 134.6C109.364 144.137 119.956 136.368 123.534 130.831C130.76 129.002 139.614 125.002 142.076 118.66C151.835 121.102 159.795 129.273 162.568 139.564ZM106.63 133.122C111.215 133.054 115.784 132.563 120.278 131.655C115.796 136.489 109.635 140.278 106.63 133.122ZM76.3796 113.746C75.7812 116.349 75.9916 119.074 76.9826 121.555C71.8471 128.087 60.1489 133.755 52.943 131.313C29.2853 93.887 106.62 78.8522 80.8418 94.4699C79.8368 94.0478 78.1183 92.3192 77.254 93.7765C77.1935 93.898 77.1582 94.0305 77.1503 94.1661C77.1424 94.3016 77.1621 94.4374 77.2081 94.5651C77.2541 94.6928 77.3256 94.8099 77.4181 94.9093C77.5106 95.0087 77.6223 95.0882 77.7464 95.1433C84.1483 98.2387 86.9824 102.922 82.7011 105.555C81.8368 103.012 79.5052 100.862 76.0882 99.5251C75.8336 99.4278 75.5509 99.4356 75.3021 99.5468C75.0533 99.658 74.8589 99.8635 74.7616 100.118C74.6643 100.373 74.6721 100.655 74.7833 100.904C74.8945 101.153 75.1 101.347 75.3545 101.445C84.098 104.218 81.9574 114.891 72.9626 110.831C72.8406 110.769 72.7072 110.733 72.5705 110.724C72.4339 110.715 72.2969 110.734 72.168 110.78C72.039 110.827 71.9209 110.899 71.8208 110.992C71.7207 111.085 71.6407 111.198 71.5858 111.324C71.0531 113.404 75.2038 113.565 76.3796 113.746ZM97.3439 136.62C95.0425 136.62 92.5099 134.791 89.8064 131.142C93.9582 132.311 98.2384 132.962 102.55 133.082C100.882 135.393 99.1328 136.589 97.354 136.62H97.3439ZM82.4096 125.283C78.6409 122.268 77.3846 118.309 78.5404 113.505C79.8528 113.179 81.0154 112.416 81.8373 111.342C82.6591 110.269 83.0913 108.947 83.0629 107.595C83.7405 107.359 84.3677 106.998 84.9121 106.53C83.8166 113.706 94.2586 117.374 98.6102 111.796C104.781 103.897 92.942 95.3443 86.7311 102.178C86.6005 99.8969 85.1734 97.6457 82.7111 95.686C85.8885 96.6243 89.2004 97.0251 92.5099 96.8719C92.8717 97.7663 102.881 102.289 103.082 98.8819C103.068 98.7466 103.026 98.6157 102.959 98.4971C102.892 98.3785 102.802 98.2747 102.694 98.192C102.586 98.1093 102.462 98.0495 102.33 98.016C102.198 97.9826 102.061 97.9763 101.927 97.9975C100.52 98.1884 97.9067 97.4146 96.0475 96.6005C103.971 95.7921 111.347 92.1862 116.851 86.4299C132.278 96.4799 129.032 105.525 140.7 114.63C141.453 127.796 101.294 137.223 82.4096 125.283ZM86.9924 106.359C88.3793 98.3191 100.741 101.897 97.7057 109.374C95.0827 107.887 89.8969 107.505 87.0125 108.309C86.9045 107.664 86.9011 107.005 87.0025 106.359H86.9924ZM84.5603 173.463C79.5353 167.704 79.1836 154.026 81.3644 150.891C81.9473 150.046 83.5955 149.514 85.7161 149.373C82.6207 151.805 82.0177 170.569 89.4346 176.508C87.5686 175.943 85.8864 174.892 84.5603 173.463ZM149.745 171.855C137.685 179.895 112.298 184.598 99.565 177.292C101.213 177.292 105.213 177.895 104.791 175.513C104.738 175.387 104.66 175.273 104.561 175.179C104.463 175.084 104.346 175.011 104.218 174.963C104.09 174.915 103.954 174.893 103.817 174.9C103.681 174.906 103.547 174.941 103.424 175.001C102.148 175.583 98.5901 175.282 96.2987 174.649C94.8405 173.059 93.8584 171.092 93.4646 168.971C94.8917 169.513 100.922 171.523 101.032 168.739C101.007 168.607 100.956 168.481 100.881 168.369C100.806 168.257 100.71 168.161 100.597 168.087C100.485 168.013 100.359 167.962 100.226 167.938C100.094 167.914 99.9578 167.916 99.8263 167.945C89.1532 168.95 82.7413 155.715 98.168 158.519C99.173 158.77 100.5 158.941 101.183 158.066C103.022 155.292 96.8113 151.323 101.665 148.85C104.58 148.368 108.932 154.649 111.715 155.353C117.826 155.564 125.464 154.046 127.886 149.072C137.735 154.579 156.408 151.976 163.161 142.72C165.031 154.167 160.177 164.739 149.745 171.855Z" fill="black"/>
<path d="M167.453 89.5054C166.217 93.6561 176.116 94.4601 176.679 90.8019C177.443 87.1638 184.045 88.9828 185.03 91.2642C186.387 94.4098 181.664 96.7615 178.779 96.8218C174.176 96.9324 166.006 101.374 168.066 105.957C168.689 108.279 172.317 109.786 175.161 108.872C181.432 107.415 196.015 102.842 195.975 92.43C195.975 80.5911 175.875 71.8978 167.453 89.5054ZM174.689 106.872C169.272 107.877 167.795 103.234 173.423 100.54C177.704 97.9575 181.985 99.9876 185.573 96.0781C190.518 90.7114 184.568 86.8422 179.794 86.7115C177.312 86.6311 174.86 88.0884 174.649 90.4903C174.588 91.0833 170.337 91.4953 169.423 90.1788C182.086 66.3904 214.296 98.4097 174.689 106.872Z" fill="black"/>
<path d="M108.098 114.429C108.364 114.429 108.62 114.324 108.808 114.135C108.997 113.947 109.103 113.691 109.103 113.424C109.103 113.158 108.997 112.902 108.808 112.714C108.62 112.525 108.364 112.419 108.098 112.419C102.972 112.419 102.289 106.812 108.198 106.269C108.333 106.259 108.465 106.222 108.585 106.16C108.705 106.098 108.811 106.012 108.898 105.908C108.984 105.804 109.049 105.683 109.087 105.554C109.126 105.424 109.138 105.288 109.123 105.153C109.113 105.018 109.076 104.887 109.014 104.767C108.952 104.646 108.866 104.54 108.762 104.454C108.658 104.367 108.537 104.303 108.407 104.264C108.278 104.225 108.142 104.213 108.007 104.229C99.6556 104.882 100.158 114.259 108.098 114.429Z" fill="black"/>
<path d="M164.197 109.274C157.091 110.711 160.558 118.731 166.558 118.209C167.753 117.994 168.822 117.335 169.55 116.363C170.277 115.391 170.609 114.179 170.478 112.973C169.744 110.691 166.83 109.003 164.197 109.274ZM166.297 116.169C165.434 116.202 164.581 115.976 163.848 115.519C163.115 115.062 162.536 114.396 162.187 113.606C162.8 109.887 167.423 111.234 168.448 113.415C168.287 114.571 167.774 115.978 166.297 116.169Z" fill="black"/>
<path d="M119.686 117.525C119.686 117.525 118.359 117.525 116.128 115.515C115.923 115.334 115.654 115.241 115.381 115.258C115.108 115.275 114.852 115.4 114.671 115.605C114.49 115.811 114.397 116.079 114.414 116.353C114.431 116.626 114.556 116.881 114.761 117.063C117.405 119.384 119.203 119.565 119.686 119.565C119.956 119.565 120.216 119.458 120.407 119.266C120.598 119.075 120.706 118.816 120.706 118.545C120.706 118.274 120.598 118.015 120.407 117.824C120.216 117.632 119.956 117.525 119.686 117.525Z" fill="black"/>
<path d="M115.203 123.012C111.293 126.278 107.977 123.354 107.313 125.374C107.313 126.922 108.228 126.62 110.127 126.781C111.002 126.952 117.966 125.776 116.65 123.123C116.564 123.018 116.457 122.932 116.337 122.869C116.217 122.806 116.085 122.769 115.95 122.759C115.815 122.748 115.679 122.765 115.55 122.809C115.422 122.853 115.304 122.922 115.203 123.012Z" fill="black"/>
<path d="M100.55 118.59C100.421 118.551 100.285 118.538 100.15 118.552C100.016 118.566 99.8856 118.607 99.7673 118.673C99.6491 118.738 99.5453 118.827 99.4623 118.934C99.3792 119.041 99.3185 119.163 99.2839 119.294C98.6005 121.625 97.2739 122.108 97.1433 122.138C96.8767 122.211 96.6502 122.387 96.5136 122.628C96.3769 122.868 96.3413 123.153 96.4146 123.419C96.4879 123.686 96.6641 123.912 96.9044 124.049C97.1447 124.186 97.4295 124.221 97.696 124.148C97.7965 124.148 100.219 123.434 101.254 119.897C101.3 119.765 101.318 119.625 101.307 119.486C101.296 119.347 101.256 119.211 101.19 119.089C101.124 118.966 101.033 118.858 100.923 118.772C100.812 118.686 100.686 118.624 100.55 118.59Z" fill="black"/>
<path d="M112.399 120.601C112.655 120.65 112.921 120.598 113.14 120.455C113.358 120.312 113.512 120.09 113.57 119.835C113.627 119.58 113.584 119.313 113.448 119.09C113.312 118.868 113.094 118.706 112.841 118.641C111.899 118.129 111.155 117.315 110.731 116.329C110.248 115.083 108.269 115.867 108.811 117.083C110.017 119.787 111.686 120.44 112.399 120.601Z" fill="black"/>
<path d="M112.56 103.515C111.404 116.048 132.298 114.058 127.353 101.505C124.459 94.1688 112.771 96.7315 112.56 103.515ZM114.57 103.777C116.278 95.023 129.946 99.7566 124.861 107.988C122.71 105.495 117.595 105.063 114.741 105.978C114.546 105.261 114.488 104.514 114.57 103.777Z" fill="black"/>
<path d="M110.771 98.2087C115.665 97.3946 118.65 93.3646 119.323 92.2792C119.469 92.0486 119.516 91.7698 119.456 91.5041C119.396 91.2383 119.232 91.0074 119.002 90.8621C118.771 90.7169 118.492 90.6692 118.227 90.7295C117.961 90.7898 117.73 90.9532 117.585 91.1837C115.998 93.7246 113.468 95.5318 110.55 96.2087C110.284 96.2381 110.042 96.3715 109.875 96.5798C109.708 96.7881 109.631 97.0541 109.66 97.3193C109.69 97.5845 109.823 97.8272 110.031 97.994C110.24 98.1608 110.506 98.238 110.771 98.2087Z" fill="black"/>
</svg>
