<svg width="51" height="51" viewBox="0 0 51 51" fill="none" xmlns="http://www.w3.org/2000/svg">
<path d="M25.2574 4.88008C23.5752 4.88805 21.9695 5.03109 20.5559 5.2813C16.3922 6.01682 15.6368 7.55638 15.6368 10.396V14.1457H25.4754V15.3956H11.944C9.08485 15.3956 6.58107 17.1141 5.79774 20.3845C4.89409 24.1318 4.85424 26.4706 5.79774 30.3837C6.497 33.2966 8.16725 35.3717 11.0268 35.3717H14.41V30.8765C14.41 27.6289 17.2194 24.7645 20.5563 24.7645H30.3837C33.1194 24.7645 35.3028 22.5117 35.3028 19.7649V10.3964C35.3028 7.7297 33.0533 5.72676 30.3837 5.2817C28.6928 5.00041 26.9392 4.87251 25.2574 4.88008ZM19.9367 7.89585C20.9527 7.89585 21.7831 8.73934 21.7831 9.77687C21.7831 10.81 20.9531 11.6455 19.9367 11.6455C18.9167 11.6455 18.0907 10.81 18.0907 9.77687C18.0903 8.73934 18.9167 7.89585 19.9367 7.89585Z" fill="#001434"/>
<path d="M36.5296 15.3957V19.7649C36.5296 23.1516 33.6576 26.0025 30.3833 26.0025H20.5558C17.864 26.0025 15.6367 28.3066 15.6367 31.0025V40.3717C15.6367 43.0377 17.9548 44.6063 20.5558 45.3709C23.67 46.2861 26.6567 46.4519 30.3833 45.3709C32.86 44.6533 35.3024 43.2102 35.3024 40.3717V36.6216H25.4753V35.3713H40.2223C43.0815 35.3713 44.1477 33.3771 45.1422 30.3833C46.1694 27.3014 46.1252 24.3374 45.1422 20.3841C44.4354 17.5373 43.0859 15.3953 40.2223 15.3953H36.5296V15.3957ZM31.0021 39.1214C32.0225 39.1214 32.8484 39.9569 32.8484 40.9909C32.8484 42.0276 32.0221 42.8711 31.0021 42.8711C29.986 42.8711 29.1561 42.0276 29.1561 40.9909C29.1561 39.9569 29.986 39.1214 31.0021 39.1214Z" fill="#001434"/>
<path opacity="0.444" d="M38.7716 47.652C38.7716 49.0637 32.8684 50.2084 25.5869 50.2084C18.3051 50.2084 12.4019 49.0637 12.4019 47.652C12.4019 46.2399 18.3047 45.0952 25.5869 45.0952C32.8684 45.0952 38.7716 46.2395 38.7716 47.652Z" fill="url(#paint0_radial_1108_304)"/>
<defs>
<radialGradient id="paint0_radial_1108_304" cx="0" cy="0" r="1" gradientUnits="userSpaceOnUse" gradientTransform="translate(25.5337 47.5788) rotate(-90) scale(2.5573 11.2415)">
<stop stop-color="#B8B8B8" stop-opacity="0.498"/>
<stop offset="1" stop-color="#7F7F7F" stop-opacity="0"/>
</radialGradient>
</defs>
</svg>
