<svg width="155" height="155" viewBox="0 0 155 155" fill="none" xmlns="http://www.w3.org/2000/svg">
<path d="M88.8352 97.8077C88.8352 97.8077 89.4373 93.8164 89.7384 92.9903C90.1862 91.4463 99.7745 92.7665 99.7745 92.7665C99.7745 92.7665 100.076 87.1154 100.755 85.911C101.434 84.7067 108.475 84.2512 112.497 85.139C104.005 75.1029 88.9201 73.0031 79.6714 82.2826C73.8428 88.1267 78.0888 103.065 79.8181 104.045C79.8953 102.162 79.9725 98.7727 80.4203 98.1705C81.3004 96.9585 88.8352 97.8077 88.8352 97.8077Z" fill="#6016F3"/>
<path d="M64.5093 48.4688C69.7049 50.6459 69.1413 40.8568 77.9113 41.9917C79.795 41.9917 86.2722 44.0221 91.0355 45.6819L91.6454 32.5037C91.6454 32.5037 85.616 30.8439 83.6628 30.095C78.637 28.2345 79.3473 20.1362 75.1707 18.1984C72.6849 17.1408 64.1773 14.5854 58.3796 12.8484C52.5818 11.1114 50.7676 13.6204 50.7676 13.6204C50.7676 13.6204 62.0466 15.4887 62.6642 21.1475C63.4362 28.0955 61.8922 41.0267 61.761 47.5038C63.0811 47.9361 64.0615 48.3144 64.5093 48.4688Z" fill="#6016F3"/>
<path d="M114.736 71.5597H111.57C110.266 58.5205 109.918 55.3476 105.394 53.5642C102.538 52.4294 82.3577 46.7088 82.3577 46.7088C78.2892 45.2034 74.7534 49.1175 72.1132 51.6033C71.3697 52.2699 70.4655 52.7315 69.4896 52.9427C68.5136 53.1538 67.4995 53.1073 66.547 52.8077C66.547 52.8077 43.9581 44.6784 35.9755 42.5709C29.9539 41.0268 29.7223 44.4546 29.9539 47.5426C30.1855 50.6306 30.1005 50.399 30.556 57.7022C37.6276 57.7022 46.5134 60.4891 47.0461 75.3271C52.4502 73.8912 59.4677 78.338 57.8079 87.2238C65.7904 91.0838 62.2546 101.753 62.2546 101.753C62.2546 101.753 67.2187 103.637 69.7045 104.316C60.672 77.8825 97.5662 55.9729 123.166 82.6303L126.408 69.2205L114.512 65.6076L114.736 71.5597Z" fill="#6016F3"/>
<path d="M103.287 112.391C100.654 111.789 98.655 111.565 99.2263 108.855L96.2849 109.002C95.0806 110.438 88.2329 109.982 88.9046 107.195L85.5232 107.419C84.4655 108.191 80.8911 106.971 80.8911 106.971C90.078 122.705 110.227 118.413 114.172 110.438C103.65 112.244 108.691 113.588 103.287 112.391Z" fill="#6016F3"/>
<path d="M30.556 34.9896C34.4161 34.9896 36.3538 31.6005 38.9863 31.5233C41.0939 31.4461 43.6184 34.6113 46.2895 34.5341C48.1732 34.4569 51.1841 31.6005 52.9906 29.6396C52.4656 32.4497 55.1213 32.7276 54.3493 28.3581C54.1949 27.532 54.4188 27.0071 52.8439 27.2309C47.9957 27.8022 49.1846 29.6087 51.6395 28.9602C49.8253 30.8439 48.0188 32.8203 46.3667 33.0287C43.7265 33.3298 40.7928 27.8331 35.5586 31.3766C33.5283 32.7276 32.0228 33.5537 30.9266 33.4842C27.4603 33.3298 25.6538 30.1723 22.944 30.5429C21.207 30.7745 17.594 34.3103 15.7103 36.7961C13.8266 39.282 15.5636 39.4287 16.4823 38.2243C17.401 37.02 21.7551 32.1255 23.029 31.9788C24.5421 31.7472 27.3136 34.9896 30.556 34.9896Z" fill="#6016F3"/>
<path d="M29.2745 119.169C34.4701 120.227 35.5972 111.866 30.4016 111.341C24.9821 110.809 24.6038 118.189 29.2745 119.169Z" fill="#6016F3"/>
<path d="M29.4211 119.995C26.3331 119.548 23.4766 121.277 22.944 124.288C22.2723 127.978 30.996 128.974 34.0145 128.58C36.8941 128.21 35.1108 120.829 29.4211 119.995Z" fill="#6016F3"/>
<path d="M48.096 125.948C46.4439 128.804 45.834 125.492 44.7069 125.87C43.5797 126.249 42.5221 129.259 41.9971 129.483C41.4722 129.707 40.4531 127.453 39.3646 127.939C38.2761 128.426 35.5972 132.232 37.1026 132.232C37.9287 132.232 39.0635 129.97 39.5885 129.669C40.1134 129.368 40.7928 131.328 42.221 130.95C43.2787 130.649 44.1047 128.017 44.6297 127.561C45.1546 127.106 45.834 129.105 47.1927 128.619C47.8746 128.385 48.4409 127.899 48.7754 127.26C49.5474 125.986 50.4275 124.944 50.4275 123.871C50.4275 122.798 49.4547 123.608 48.096 125.948Z" fill="#6016F3"/>
<path d="M49.2463 109.983C47.3703 109.458 36.2997 105.845 28.6183 103.961C23.6465 102.757 21.2379 102.417 19.8097 103.737C17.6249 105.69 17.6249 107.118 18.6825 128.202C18.752 130.086 19.3542 132.726 22.1411 133.699C29.1432 136.015 43.2246 140.477 48.4974 141.681C53.7703 142.886 55.9473 142.059 55.9473 137.767C55.9473 133.475 55.9473 121.431 55.7234 118.042C55.4764 114.275 55.5536 111.789 49.2463 109.983ZM54.218 137.69C54.0713 139.651 53.8397 140.701 49.3235 139.875C41.4181 138.331 28.4793 133.93 22.8977 131.969C21.4618 131.444 20.7901 130.31 20.6357 128.055C20.2574 123.084 20.1879 109.458 20.2574 107.497C20.3269 105.536 21.0294 104.563 22.8977 104.64C28.7649 104.941 45.0311 110.585 48.7213 111.712C53.9941 113.372 53.7703 115.032 53.9941 118.189C54.1949 121.501 54.5731 131.969 54.1949 137.69H54.218Z" fill="#282629"/>
<path d="M51.5624 106.671C50.0183 106.37 50.0183 107.497 51.9406 108.099C54.9515 109.079 58.7883 111.488 58.8887 115.858C58.9659 119.092 59.1126 133.699 59.0354 135.883C58.9582 138.068 60.4713 137.427 60.4713 134.679C60.5408 130.464 60.7724 119.092 60.3941 115.255C59.846 109.682 55.0982 107.273 51.5624 106.671Z" fill="#282629"/>
<path d="M46.8142 121.053C44.0236 120.198 41.1888 119.495 38.3222 118.946C37.5501 118.946 37.195 119.772 38.0211 120.451C39.0787 121.277 45.2471 122.482 46.683 122.482C48.1189 122.482 48.3968 121.578 46.8142 121.053Z" fill="#282629"/>
<path d="M35.7518 34.457C34.5551 33.7468 33.8449 36.7036 37.9288 36.8734C40.8702 37.0201 42.5609 34.9897 41.9973 34.156C41.0091 32.8358 39.5037 37.0433 35.7518 34.457Z" fill="#282629"/>
<path d="M78.3664 82.4219C65.3658 97.3525 77.4709 121.022 97.1185 120.829C114.736 120.829 123.305 99.7303 113.91 85.6643C106.421 74.4548 87.175 72.1851 78.3664 82.4219ZM79.4163 101.398C77.1621 95.4534 77.1003 88.6751 79.7174 83.1785C88.3871 73.9607 103.874 76.0451 111.269 84.8306C108.637 84.46 104.121 84.1589 102.16 84.5295C98.5081 85.3015 99.2492 86.9227 98.9249 91.3849C96.239 91.2098 93.543 91.2589 90.8652 91.5316C88.3639 91.74 88.4643 93.7318 88.3021 96.4261C86.5979 96.2214 84.8725 96.2734 83.1837 96.5805C80.1806 97.2521 79.4163 97.4143 79.4163 101.398ZM107.656 88.2197C106.537 111.781 107.286 112.152 105.394 111.943C104.422 111.866 102.986 111.488 101.033 111.11C99.9749 110.886 99.8282 110.438 99.8977 109.566C100.129 101.653 100.43 91.2614 100.731 87.7256C100.801 87.0462 100.878 86.143 102.986 86.143C106.9 86.0349 107.803 85.9654 107.656 88.2197ZM95.2348 106.516C95.0649 108.385 95.2348 109.651 90.4869 108.323C89.6609 108.099 89.5837 107.35 89.5837 106.447C89.9619 93.948 89.7921 93.2686 91.5446 93.2686C94.4782 93.1914 95.4586 93.1142 95.4586 94.3957C95.4586 95.6773 95.6053 102.378 95.2348 106.516ZM80.7751 103.428C80.7751 97.9701 80.721 98.4565 84.087 98.4565C86.0942 98.5568 85.4457 99.5913 85.4457 105.08C85.3608 106.671 85.3453 106.941 81.6783 106.207C80.7751 106.146 80.7751 104.339 80.7751 103.436V103.428ZM83.562 108.168C85.824 108.392 85.878 108.315 88.0782 107.566C88.0749 108.045 88.239 108.51 88.542 108.881C88.8451 109.251 89.2681 109.505 89.7381 109.597C94.5863 111.025 95.9141 110.446 98.3923 109.45C98.3923 110.731 98.3228 112.005 100.708 112.538C107.479 114.082 107.108 113.812 112.752 111.032C110.104 116.375 93.5595 119.061 83.562 108.176V108.168Z" fill="#282629"/>
<path d="M135.518 145.371C138.004 144.993 137.325 143.565 136.421 143.827C134.877 144.206 132.955 143.526 131.017 142.098C128.303 139.825 125.783 137.331 123.482 134.64C122.355 133.367 121.83 134.571 123.938 137.203C126.046 139.836 131.002 145.973 135.518 145.371Z" fill="#282629"/>
<path d="M38.2295 114.576C39.3644 115.255 43.8034 116.46 46.2121 116.761C47.3469 116.907 47.7561 115.857 46.1349 115.402C44.7067 114.954 40.1132 113.372 38.5306 113.217C37.9285 113.148 37.2568 113.819 38.2295 114.576Z" fill="#282629"/>
<path d="M58.5642 24.7451C56.8966 24.251 16.1038 12.8099 14.6679 12.4702C13.2319 12.1305 12.4059 13.2422 14.2896 13.9061C16.1733 14.57 56.3176 25.6792 58.4098 26.181C60.5019 26.6828 60.2086 25.2392 58.5642 24.7451Z" fill="#282629"/>
<path d="M30.4021 30.6433C27.6924 28.3273 23.7011 25.6021 21.2153 25.9032C18.7294 26.2042 16.4751 29.6628 15.873 33.353C15.7958 34.125 17.0773 34.4107 17.6795 32.3031C18.5055 29.2151 19.7098 27.7791 21.2153 27.4086C23.2534 26.9531 28.4412 30.7205 29.8 32.0406C31.1587 33.3607 31.9848 31.9789 30.4021 30.6433Z" fill="#282629"/>
<path d="M16.7758 10.8183C16.9966 10.7516 17.2018 10.6416 17.3797 10.4948C17.5575 10.348 17.7044 10.1673 17.8118 9.96322C17.9191 9.75911 17.9848 9.53569 18.0049 9.30596C18.0251 9.07623 17.9993 8.84479 17.9292 8.62511C17.859 8.40542 17.7459 8.2019 17.5963 8.02637C17.4467 7.85084 17.2637 7.70683 17.0579 7.60271C16.8522 7.4986 16.6277 7.43646 16.3977 7.41991C16.1677 7.40337 15.9367 7.43276 15.7181 7.50636C15.4228 7.57325 15.1499 7.71593 14.9264 7.92033C14.7029 8.12473 14.5365 8.38381 14.4435 8.67207C14.3506 8.96033 14.3343 9.26782 14.3963 9.56428C14.4583 9.86074 14.5965 10.1359 14.7971 10.3628C15.0381 10.6358 15.3585 10.8265 15.7133 10.9082C16.0682 10.9899 16.4397 10.9584 16.7758 10.8183Z" fill="#282629"/>
<path d="M45.8344 25.2393C45.3095 24.3361 44.468 23.9347 43.1247 24.8611C41.7814 25.7875 41.0171 26.7448 41.3182 27.1771C41.8509 27.8564 42.8622 27.1076 43.6342 26.2738C43.558 27.4909 43.3798 28.6995 43.1015 29.8868C42.8082 30.7901 44.8926 32.3341 45.1396 27.0304C45.2446 27.3276 45.3959 27.6063 45.5874 27.8564C46.0429 28.5358 46.9461 28.3119 46.8689 27.5554C46.6565 26.7308 46.3068 25.9478 45.8344 25.2393Z" fill="#282629"/>
<path d="M28.8192 14.2073C31.4595 14.4312 31.6834 10.5634 28.8192 10.5171C28.3299 10.5171 27.8606 10.7115 27.5145 11.0575C27.1685 11.4035 26.9741 11.8728 26.9741 12.3622C26.9741 12.8515 27.1685 13.3208 27.5145 13.6669C27.8606 14.0129 28.3299 14.2073 28.8192 14.2073Z" fill="#282629"/>
<path d="M24.6041 10.5169C24.6041 8.20091 20.6128 8.03107 20.6128 10.5941C20.6128 13.1572 24.6813 13.3811 24.6041 10.5169Z" fill="#282629"/>
<path d="M131.372 59.833C129.72 59.1613 126.254 58.289 124.825 57.9493C121.737 57.046 118.271 55.9189 117.291 55.695C116.31 55.4711 116.017 56.745 117.368 57.4243C118.719 58.1037 129.265 61.0373 130.7 61.4156C132.136 61.7939 133.333 60.5896 131.372 59.833Z" fill="#282629"/>
<path d="M136.946 35.9703C134.985 35.4376 131.303 34.3877 128.74 33.7855C126.177 33.1833 126.177 34.5575 127.196 34.9126C128.215 35.2678 134.87 37.136 136.761 37.4757C138.652 37.8154 138.907 36.4952 136.946 35.9703Z" fill="#282629"/>
<path d="M130.469 42.5169C133.936 43.3429 135.441 43.4973 135.873 43.1962C136.931 42.4242 135.101 41.9147 130.531 40.8802C129.249 40.5097 126.092 39.6064 126.617 40.9574C126.933 41.6908 128.887 42.1386 130.469 42.5169Z" fill="#282629"/>
<path d="M112.628 20.3833C115.639 20.6844 115.94 16.091 112.628 16.091C109.919 16.091 109.687 20.0822 112.628 20.3833Z" fill="#282629"/>
<path d="M137.255 51.2482C133.709 50.0312 130.101 49.0004 126.447 48.1602C123.961 47.7047 124.031 48.7623 125.544 49.3645C127.057 49.9667 135.58 52.3753 137.124 52.522C138.668 52.6687 138.676 51.7037 137.255 51.2482Z" fill="#282629"/>
<path d="M142.366 31.4152C140.714 30.8825 99.0716 18.9164 97.2651 18.9164C96.1379 18.9164 96.439 19.5881 97.2651 20.1207C98.8091 21.024 139.432 32.0869 141.316 32.6195C143.199 33.1522 144.103 31.9016 142.366 31.4152Z" fill="#282629"/>
<path d="M140.413 20.4529C132.276 16.9944 107.989 10.2161 101.635 9.0118C94.8569 7.73027 93.1971 11.2661 92.4482 14.5085C91.9927 16.3922 91.6762 22.2286 91.3906 28.5127C85.0987 26.4128 85.9865 27.2929 83.3385 21.5106C80.6288 15.4117 80.0266 14.7324 75.8037 13.1498C70.9864 11.3433 57.0594 7.27478 53.1453 6.60314C48.5133 5.83113 45.7649 7.2053 44.7073 10.7411C14.599 2.24902 10.1986 1.40753 9.09458 9.39008C8.6391 12.8487 8.41522 39.0506 8.6391 42.8952C8.8707 45.9832 9.77395 46.5082 11.6576 47.3342C15.2425 48.8458 18.9103 50.1526 22.6433 51.2483C22.8749 54.0353 23.0216 56.6524 23.176 57.9493C19.2619 59.9102 16.475 63.9787 16.6989 70.6025C9.09458 69.7765 4.80222 77.3036 8.03693 84.9078C10.075 89.7252 15.4173 93.3459 27.2368 96.8817C49.625 103.59 57.0903 107.435 61.5756 102.679C64.7409 103.583 67.0723 104.339 68.8788 104.864C73.9586 122.427 91.3751 131.267 110.668 123.084C110.891 123.462 113.377 126.774 114.813 128.488C114.582 130.672 115.385 133.05 117.291 135.49C121.306 140.616 128.138 150.775 135.287 150.474C142.436 150.173 145.454 143.472 140.259 135.945C137.217 131.707 127.907 121.339 122.719 121.339C121.709 119.935 120.575 118.625 119.33 117.425C129.119 108.616 133.226 93.9326 124.896 80.0751C125.204 78.8707 126.44 73.2196 127.011 70.286C141.502 74.671 143.146 72.1852 144.852 61.0219C146.512 50.1057 146.736 36.1015 147.037 30.7592C147.492 24.6758 146.435 23.0932 140.413 20.4529ZM52.8442 8.48684C56.6039 9.15848 70.9092 13.6052 75.6571 15.1107C81.9798 17.141 81.0611 27.2312 86.5732 28.891C88.3797 29.416 90.1862 30.0953 91.2439 30.435C91.0586 33.523 91.2439 33.222 90.5645 44.6631C74.3524 39.1432 73.92 39.5447 68.3539 46.2071C66.8098 48.0985 67.0878 48.2915 62.6256 46.8093C64.2159 15.0566 67.1341 17.1565 46.5138 11.2969C47.2703 8.71072 49.2467 7.80747 52.8442 8.48684ZM22.3422 43.644C22.3422 44.8484 22.4194 47.0332 22.5738 49.3723C19.1238 48.3171 15.7302 47.0855 12.4065 45.6821C10.8625 45.0028 10.5228 43.6441 10.4456 41.5365C10.2989 37.4757 9.99783 19.5497 10.6 10.44C11.0478 4.41836 14.8152 5.24441 17.2238 5.69989C28.5183 7.73027 49.6481 14.192 56.0017 16.0911C63.8608 18.4071 61.7609 21.9275 60.7496 46.1994C39.033 38.572 36.2538 37.4062 32.8878 36.6342C25.7313 35.0593 22.2727 38.3635 22.3422 43.644ZM60.4485 101.321C56.2719 105.497 49.0305 101.251 27.8389 95.2219C19.1075 92.7437 11.8043 88.7524 9.77395 84.3057C7.06421 78.3612 9.99783 72.5634 16.0967 72.5634C16.9999 72.5634 18.7292 73.1656 18.6598 71.7297C18.5054 65.1831 20.0108 61.4929 24.6042 59.6092C34.6403 55.4712 45.873 64.4265 45.6877 75.7209C45.688 75.8595 45.7194 75.9962 45.7795 76.1211C45.8396 76.2459 45.927 76.3557 46.0351 76.4424C46.1432 76.529 46.2694 76.5903 46.4043 76.6218C46.5393 76.6533 46.6796 76.6541 46.8149 76.6242C54.0486 75.0802 58.1093 82.9547 55.2529 87.3165C55.1799 87.4418 55.1377 87.5827 55.1297 87.7276C55.1217 87.8724 55.1482 88.0171 55.2069 88.1497C55.2657 88.2823 55.3551 88.3991 55.4678 88.4904C55.5804 88.5818 55.7132 88.6451 55.8551 88.6752C60.9966 89.4472 64.0615 97.561 60.4485 101.321ZM68.5005 102.865C67.3734 102.486 66.0919 102.093 64.5093 101.66C67.5973 96.9203 65.7136 88.4128 60.0702 85.9269C61.1202 76.4389 54.4963 72.5248 49.2621 72.1466C47.9111 60.5664 39.0948 56.0348 30.1395 56.2586C28.3889 56.3387 26.6618 56.6929 25.0211 57.3086C24.7895 54.8999 24.1873 47.2725 24.1178 45.8674C23.8862 39.4675 26.4339 37.3754 32.471 38.487C37.1725 39.3208 38.7705 40.6409 62.6642 48.9555C65.9761 50.0054 67.2962 50.237 69.6663 47.5967C75.6571 40.6487 73.1249 40.9266 105.055 51.8119C112.003 54.1279 111.285 56.2664 113.794 70.4867C100.994 64.5423 82.7672 67.5531 74.113 79.2953C68.2149 85.0931 66.7249 94.72 68.5005 102.903V102.865ZM115.338 126.287C114.512 125.153 113.532 123.871 112.93 123.045C113.231 122.898 113.532 122.744 113.91 122.52C114.364 123.571 115.092 124.48 116.018 125.153C115.732 125.506 115.503 125.902 115.338 126.326V126.287ZM122.788 123.269C128.192 124.249 134.368 131.63 138.83 137.165C145.377 146.576 136.175 152.528 128.586 145.827C125.629 143.21 121.059 137.543 118.874 134.532C114.736 129.538 116.589 124.55 122.788 123.284V123.269ZM120.611 121.841C120.046 121.968 119.51 122.198 119.028 122.52C118.752 121.639 118.258 120.843 117.592 120.204C117.976 119.967 118.33 119.687 118.65 119.37C119.553 120.528 120.156 121.277 120.611 121.879V121.841ZM87.3298 122.968C70.6081 117.324 63.9611 93.1838 75.7497 80.0519C86.4729 68.0781 108.081 69.4986 116.666 82.9161C130.531 104.471 112.25 130.912 87.3298 123.006V122.968ZM123.545 78.0215C121.479 75.2425 118.848 72.9324 115.825 71.2433C115.678 70.2629 115.377 68.3792 114.999 66.3488C117.785 67.252 121.398 68.603 125.235 69.8151C124.903 72.0308 124.07 75.7981 123.545 78.0601V78.0215ZM145.161 32.311C145.014 37.2441 144.296 67.4528 139.965 69.8151C137.479 71.0889 134.167 71.2433 114.667 64.411C112.266 50.5998 113.478 52.6379 92.2784 45.3656C93.143 30.7515 93.5676 17.998 94.2393 15.018C94.9186 11.8528 96.3468 10.0463 101.241 10.9495C107.487 12.1539 131.813 19.1637 139.842 22.3984C145.678 24.5986 145.377 26.8529 145.153 32.3496L145.161 32.311Z" fill="#110F0F"/>
<path d="M108.259 16.3921C108.182 13.6823 103.82 13.5279 103.82 16.4615C103.82 19.3952 108.336 19.704 108.259 16.3921Z" fill="#282629"/>
<path d="M100.129 17.0637C102.615 16.2917 101.635 12.1691 98.9248 13.0029C98.6404 13.0659 98.372 13.1869 98.1363 13.3581C97.9006 13.5294 97.7027 13.7473 97.5548 13.9984C97.407 14.2494 97.3124 14.5282 97.277 14.8174C97.2416 15.1066 97.266 15.4 97.3489 15.6793C97.4317 15.9586 97.5711 16.2179 97.7585 16.441C97.9459 16.6641 98.1772 16.8462 98.438 16.9761C98.6988 17.1059 98.9835 17.1807 99.2745 17.1958C99.5654 17.2109 99.8563 17.1659 100.129 17.0637Z" fill="#282629"/>
<path d="M121.583 43.1963C122.039 42.4243 122.355 38.8267 121.961 36.6419C121.815 35.6615 121.66 34.9898 119.645 34.4572C118.503 25.332 97.2572 25.3475 95.9988 33.33C95.8522 34.1561 95.0956 40.1083 96.076 42.293C98.284 47.0332 109.277 48.2066 112.111 46.431C113.111 47.08 114.246 47.4919 115.43 47.6353C117.221 47.6816 120.912 44.4006 121.583 43.1963ZM113.678 30.0722C112.026 31.1993 110.065 33.3069 109.818 33.3841C108.613 32.6121 105.603 30.5971 103.866 29.1689C107.16 28.5923 110.549 28.9122 113.678 30.0953V30.0722ZM97.2649 41.5133C96.8172 40.5329 96.8172 37.9775 96.9639 35.9471C99.5964 39.1818 104.421 41.135 110.86 40.5792C110.937 41.4824 111.014 43.065 111.092 44.9487C105.247 46.9637 98.2454 43.5746 97.2649 41.5365V41.5133ZM102.082 29.6167C104.307 31.5024 106.674 33.2136 109.162 34.7351L111.346 39.1818C103.287 39.9538 90.5948 33.3377 102.082 29.6398V29.6167ZM115.26 30.821C115.913 31.1235 116.492 31.5627 116.96 32.1088C117.427 32.6549 117.772 33.2952 117.97 33.9862C116.426 33.9862 113.755 33.7624 111.647 33.7624C112.761 32.6821 113.97 31.7054 115.26 30.8442V30.821ZM114.959 40.0079C114.187 39.4829 111.346 35.9471 112.25 35.6383C113.153 35.3295 119.63 35.6383 120.232 36.3177C120.981 37.0202 115.94 40.6332 114.959 40.0311V40.0079ZM115.863 45.9601C115.932 44.5534 115.882 43.1434 115.716 41.7449C117.564 41.0701 119.237 39.9884 120.61 38.5797C120.61 40.1237 120.533 41.9688 120.232 42.4397C119.103 43.9758 117.599 45.196 115.863 45.9832V45.9601Z" fill="#282629"/>
</svg>
