<svg width="42" height="42" viewBox="0 0 42 42" fill="none" xmlns="http://www.w3.org/2000/svg">
<path d="M41.4521 11.1759C41.4518 10.313 41.365 9.45229 41.1929 8.6067C41.0207 7.74108 40.728 6.90387 40.3233 6.11952C39.9004 5.3598 39.3749 4.66198 38.7615 4.04577C38.1288 3.42672 37.3939 2.92164 36.5893 2.5528C35.7952 2.15239 34.9459 1.87259 34.0693 1.72264C33.1997 1.5553 32.2449 1.5553 31.3754 1.47327H9.92583C9.25674 1.48416 8.58913 1.54007 7.92755 1.64061C7.27101 1.7179 6.62835 1.88574 6.01786 2.13936C5.84396 2.22139 5.58474 2.3067 5.41083 2.38874C4.83325 2.69834 4.28423 3.0585 3.77021 3.46499C3.5963 3.63233 3.42239 3.71436 3.24849 3.87842C2.60899 4.47157 2.08012 5.17376 1.68661 5.95217C1.25688 6.7255 0.962779 7.56673 0.81708 8.43936C0.687773 9.29089 0.601258 10.1484 0.557861 11.0086V30.824C0.558131 31.687 0.644972 32.5477 0.81708 33.3933C0.989274 34.2589 1.28197 35.0961 1.68661 35.8805C2.10949 36.6402 2.63506 37.338 3.24849 37.9542C3.88116 38.5732 4.61603 39.0783 5.42067 39.4472C6.21475 39.8476 7.06409 40.1274 7.94067 40.2773C8.81021 40.4447 9.76505 40.4447 10.6346 40.5267H31.3786C32.2823 40.526 33.1841 40.4426 34.0725 40.2773C34.9491 40.1274 35.7985 39.8476 36.5925 39.4472C37.38 39.0487 38.1106 38.5466 38.7647 37.9542C39.4042 37.3611 39.9331 36.6589 40.3266 35.8805C40.7563 35.1071 41.0504 34.2659 41.1961 33.3933C41.3255 32.5417 41.412 31.6843 41.4554 30.824V11.1759H41.4521Z" fill="#001434"/>
<path d="M27.8906 31.6641C24.2452 33.6755 19.2347 33.8822 14.1914 31.8183C10.2592 30.2228 6.89716 27.4827 4.54126 23.9532C5.63612 24.7913 6.83227 25.488 8.10142 26.0269C13.3088 28.3566 18.5128 28.1958 22.178 26.0269C16.9608 22.201 12.5311 17.2266 9.23017 13.1644C8.57877 12.4779 7.99731 11.7283 7.49438 10.9266C11.4844 14.408 17.8303 18.8016 20.0878 20.0452C16.8646 16.7426 13.9025 13.1947 11.2284 9.43363C15.6736 13.7533 20.5649 17.5888 25.8202 20.8753C26.0531 21 26.2336 21.105 26.378 21.2035C26.532 20.8274 26.6646 20.4429 26.775 20.0518C27.9923 15.8222 26.6011 11.0152 23.5627 7.03503C30.5977 11.0939 34.7813 18.7196 33.0291 25.1049C32.9831 25.2788 32.9339 25.433 32.8814 25.6135L32.9438 25.6857C36.4186 29.8299 35.4638 34.2169 35.0274 33.3966C33.1406 29.8594 29.6527 30.9521 27.8906 31.6641Z" fill="#FEFEFE"/>
</svg>
