<svg width="264" height="149" viewBox="0 0 264 149" fill="none" xmlns="http://www.w3.org/2000/svg">
<path d="M74.9741 93.2691C74.9741 93.2691 78.2227 93.011 81.2554 96.0061C84.2881 99.0012 97.9634 114.658 100.728 115.796C100.728 115.796 101.463 117.003 102.287 114.78C103.111 112.554 110.561 90.3937 110.561 90.3937C110.561 90.3937 111.249 87.2718 109.155 84.1241C109.155 84.1241 106.641 79.7112 107.301 75.3171C107.96 70.923 109.519 64.2356 109.763 63.799C110.005 63.3624 110.704 61.8977 113.315 62.893C113.315 62.893 115.561 63.5384 114.847 66.8505C114.134 70.1625 113.275 72.5708 111.995 73.4839L113.808 73.8501C113.808 73.8501 120.838 60.764 121.488 59.8485C122.14 58.9331 124.417 55.9262 125.657 56.6187C126.894 57.3111 129.278 59.2547 127.741 61.893C127.741 61.893 125.591 64.3201 125.236 64.7192C125.236 64.7192 122.828 67.7776 121.976 69.6789L121.326 71.7563C121.326 71.7563 124.438 72.4112 125.023 73.8501C125.607 75.2889 126.213 74.9815 126.473 75.4486C126.734 75.9157 128.281 77.3992 128.272 78.1433C128.262 78.8873 129.459 78.5916 129.34 79.9436C129.22 81.2956 129.727 85.3447 126.138 85.2391C126.138 85.2391 128.138 89.0323 122.967 91.4923C122.967 91.4923 122.152 93.0532 121.985 94.8301C121.819 96.607 121.321 120.728 121.321 120.728C121.321 120.728 122.777 133.793 111.993 139.961C111.993 139.961 105.827 143.926 94.3814 137.49C94.3814 137.49 82.4361 129.683 80.8775 128.544C79.3189 127.406 67.7374 117.794 66.8149 115.331C66.8149 115.331 63.51 110.369 65.1671 107.16C66.8243 103.952 70.9743 94.5038 74.9764 93.2715L74.9741 93.2691Z" fill="white"/>
<path d="M113.805 73.85C113.805 73.85 122.119 56.2313 124.966 56.4801C127.949 56.7407 129.663 60.879 126.316 63.677C122.966 66.4749 120.978 71.9488 120.978 71.9488" stroke="black" stroke-miterlimit="10"/>
<path d="M126.135 85.2392C126.135 85.2392 127.917 89.0606 123.267 91.2577C119.636 92.9712 123.971 125.702 118.577 133.671C112.265 142.994 104.12 144.076 90.8062 135.302C77.4924 126.528 60.1437 114.928 65.9931 105.346C71.8425 95.7644 73.3026 86.8401 84.5977 99.3464C95.8952 111.853 100.843 117.251 101.853 115.74C102.613 114.599 107.634 99.0319 110.261 91.5135C111.082 89.1615 110.73 86.5772 109.376 84.4858C108.054 82.4436 106.686 79.0471 107.427 74.2657C107.927 71.0452 108.739 65.339 110 63.3649C110.836 62.0551 115.446 61.8603 114.842 66.853C114.237 71.8456 112.27 73.4324 112.27 73.4324C112.27 73.4324 117.262 74.2328 117.868 76.897" stroke="black" stroke-miterlimit="10"/>
<path d="M128.086 78.2583C128.086 78.2583 129.797 78.8522 129.394 81.5398C128.99 84.2274 128.29 85.0443 126.72 85.3072C125.147 85.5701 125.3 83.1617 125.3 83.1617" stroke="black" stroke-miterlimit="10"/>
<path d="M125.514 74.7231C125.514 74.7231 129.497 77.9131 127.882 80.3989C126.267 82.8847 121.523 86.6919 120.232 83.6311" stroke="black" stroke-miterlimit="10"/>
<path d="M120.842 71.6694C120.842 71.6694 126.611 72.3501 125.515 77.0095C124.429 81.6243 122.525 84.1124 119.45 83.5585C117.042 83.1242 116.112 79.1362 120.262 77.7489C123.443 76.6856 121.398 74.5942 120.847 74.681" stroke="black" stroke-miterlimit="10"/>
<path d="M60.1512 88.5278C63.6088 80.0071 74.7349 77.9627 81.0069 84.6853C82.2791 86.0491 83.6546 87.6851 85.1968 89.6521C93.3466 100.041 98.0106 107.473 98.0106 107.473L85.2508 139.316L62.2826 115.622C56.6585 109.82 54.9897 101.243 58.0294 93.7575L60.1512 88.5301V88.5278Z" fill="black"/>
<path d="M20.2574 80.2371C20.2574 80.2371 70.5713 74.5661 76.0639 80.8897C81.5566 87.2132 81.5379 148.658 81.5379 148.658C81.5379 148.658 51.0279 148.405 26.6044 148.407C9.26269 148.407 10.2509 100.257 11.2156 91.5299C12.1804 82.8027 20.2574 80.2371 20.2574 80.2371Z" fill="black"/>
<path d="M56.6488 69.4301L57.8108 82.7063C57.8108 82.7063 55.4588 96.5976 38.042 84.6264L39.6311 65.7895C39.6311 65.7895 50.5248 59.2288 56.6513 69.4301H56.6488Z" fill="white" stroke="black" stroke-miterlimit="10"/>
<path d="M71.1998 27.7285C71.1998 27.7285 83.0958 68.8365 57.9822 71.7988C47.396 73.0475 39.6875 66.3742 35.7159 61.7712C34.7324 60.6304 33.9648 59.3441 33.3099 58.0038C32.7747 56.9052 31.1269 55.3467 26.085 55.5673C18.4 55.903 21.0055 47.7016 25.47 46.0045C29.9369 44.3051 32.2607 48.34 32.2607 48.34C32.2607 48.34 36.6267 48.34 35.4624 44.2511C34.2982 40.1645 33.5752 37.1881 41.9644 39.4555C50.3536 41.723 51.5366 32.6438 54.7735 25.3578C58.0081 18.0718 66.3644 24.0996 66.3644 24.0996C66.3644 24.0996 69.9604 26.468 71.1998 27.7285Z" fill="white" stroke="black" stroke-miterlimit="10"/>
<path d="M65.1486 43.3532C65.8428 43.3229 66.3821 42.7629 66.3533 42.1023C66.3244 41.4418 65.7383 40.9309 65.0441 40.9612C64.3499 40.9915 63.8105 41.5516 63.8393 42.2121C63.8682 42.8726 64.4544 43.3835 65.1486 43.3532Z" fill="black"/>
<path d="M47.5557 47.2292C48.2499 47.1989 48.7893 46.6388 48.7604 45.9783C48.7316 45.3178 48.1454 44.8069 47.4512 44.8372C46.7571 44.8675 46.2177 45.4276 46.2466 46.0881C46.2754 46.7486 46.8615 47.2595 47.5557 47.2292Z" fill="black"/>
<path d="M58.5345 43.7134L62.215 53.4264L56.5322 55.5061" stroke="black" stroke-miterlimit="10"/>
<path d="M49.6634 42.094C49.6634 42.094 48.0837 40.3993 44.9219 42.3006" stroke="black" stroke-miterlimit="10"/>
<path d="M67.1975 36.8548C67.1975 36.8548 65.6178 35.16 62.4561 37.0613" stroke="black" stroke-miterlimit="10"/>
<path d="M57.0249 62.3765C57.0249 62.3765 54.1261 63.9445 49.5254 61.5737" stroke="black" stroke-miterlimit="10"/>
<path d="M24.1699 51.8399C24.1699 51.8399 26.0947 48.441 28.5476 50.3799C31.0005 52.3188 30.8926 53.2389 30.8926 53.2389" stroke="black" stroke-miterlimit="10"/>
<path d="M20.1089 27.3366C20.1089 27.3366 13.5718 14.0839 6.53695 19.3042C-0.497855 24.5246 -2.08702 32.9208 2.90565 33.6015C7.89832 34.2822 20.1089 31.7871 20.1089 31.7871V27.339V27.3366Z" fill="black"/>
<path d="M13.6706 84.3471C13.6706 84.3471 4.44574 85.0396 5.27433 108.625C6.10527 132.211 5.47153 148.637 5.47153 148.637H28.6603V91.4852C28.6603 91.4852 26.4492 81.4459 13.6682 84.3471H13.6706Z" fill="white" stroke="black" stroke-miterlimit="10"/>
<path d="M32.8948 86.9198C29.0758 79.1926 16.3582 77.8757 10.0558 83.7533C5.09598 88.3775 1.39664 97.1188 1.52574 109.541C1.76516 132.95 2.02104 128.225 2.02104 128.225L36.7209 128.232C36.7209 128.232 40.9202 103.156 32.8948 86.9198Z" fill="black"/>
<path d="M66.1863 12.0697C53.7504 8.6638 48.9291 13.5274 48.9291 13.5274C48.9291 13.5274 23.5737 0.528126 20.1115 27.3364C20.1115 27.3364 9.94307 35.4439 15.1634 46.2086C19.0341 54.194 20.5716 55.8231 21.372 58.33C21.433 58.5224 20.0598 60.243 20.1138 60.4496C18.1444 62.433 16.1469 64.7263 16.2995 68.3223C16.5272 73.6553 19.027 75.7609 27.9866 76.6012C36.9462 77.4415 38.6386 74.2915 38.6386 74.2915C38.6386 74.2915 39.2817 69.8316 39.5329 67.259C40.7394 67.3271 41.4929 67.3412 41.4929 67.3412C40.8192 66.8482 40.1995 66.3671 39.6292 65.8976C39.6292 65.8601 39.6292 65.8202 39.6292 65.7873C39.6268 65.461 38.8874 64.8976 37.7325 64.2169C33.8501 60.4918 33.2234 57.8652 32.8784 57.3488C32.7493 57.1539 32.3549 56.9239 31.869 56.6986C30.4325 56.0343 28.8528 55.6963 27.2543 55.6353C22.1208 55.4405 22.2123 54.5039 21.5339 53.6354C20.7828 52.6754 21.2288 47.1686 25.4727 45.9973C29.7142 44.826 31.7329 47.6146 32.2633 48.3329C32.7938 49.0511 35.1857 47.0747 35.4486 46.624C35.7115 46.1734 34.8195 41.521 35.1482 39.4484C35.4768 37.3757 44.0327 39.7935 44.0327 39.7935C49.7976 40.8756 52.1402 32.1155 54.1119 26.9421C56.0836 21.7687 59.3557 21.771 59.3557 21.771C66.6323 22.3954 71.2048 27.7261 71.2048 27.7261L72.7187 34.4534L74.0215 32.0357C74.0215 32.0357 78.6269 15.4756 66.191 12.0674L66.1863 12.0697Z" fill="black"/>
<path d="M2.01855 128.227H30.5216C30.5216 128.227 34.2984 99.7618 27.1321 87.8423" stroke="black" stroke-miterlimit="10"/>
<path d="M203.016 11.7649L194.984 22.5906C194.984 22.5906 192.292 35.794 194.317 47.5187C194.317 47.5187 197.2 61.9217 208.591 59.5532V76.7189C208.591 76.7189 210.314 86.3357 225.233 79.4465C225.233 79.4465 227.672 72.4304 228.332 61.5977L227.557 44.6104C227.557 44.6104 237.155 44.7255 236.874 38.3103C236.592 31.8952 232.644 28.0105 231.869 28.2123C231.095 28.4142 218.243 10.3143 203.014 11.7649H203.016Z" fill="white"/>
<path d="M141.104 148.914H179.623H233.123L246.054 147.689L179.623 130.866" fill="#231F20"/>
<path d="M141.104 148.914H179.623H233.123L246.054 147.689L179.623 130.866" stroke="#231F20" stroke-miterlimit="10"/>
<path d="M208.592 64.1631C208.592 64.1631 205.686 77.6787 217.37 77.2421C228.783 76.8172 228.379 61.9214 228.379 61.9214C228.379 61.9214 253.288 68.5525 254.746 88.9504C255.915 105.325 256.601 135.797 256.601 135.797L183.208 135.067L185.696 86.5984C185.921 82.2113 187.269 77.9299 189.752 74.3057C192.938 69.658 195.318 65.1348 208.594 64.1654L208.592 64.1631Z" fill="black"/>
<path d="M228.4 62.7875L227.632 49.3047C226.809 44.8284 227.17 44.5209 227.557 44.6078C228.851 44.9035 231.264 44.8191 233.757 43.3027C240.19 39.3851 235.7 32.6484 231.102 34.0709C228.569 34.8548 229.405 37.397 227.25 39.0283C225.21 40.5705 227.25 28.8857 227.25 28.8857C228.24 17.9145 218.945 13.7269 213.441 12.2176C210.77 11.4853 207.939 11.6355 205.371 12.673C201.089 14.4053 194.928 18.3417 193.977 26.8013C192.735 37.8382 192.55 53.1613 200.7 58.0202C209.784 63.4377 219.06 54.234 221.9 52.0158" stroke="black" stroke-miterlimit="10"/>
<path d="M208.591 59.5532V65.1327" stroke="#231F20" stroke-miterlimit="10"/>
<path d="M227.222 47.1876C227.241 47.2721 227.252 47.3612 227.262 47.4481C227.712 52.2318 230.715 50.5888 230.715 50.5888C245.214 43.6878 243.559 18.823 243.559 18.823C240.071 -5.92441 216.457 5.48101 216.457 5.48101C198.794 -7.80461 193.48 7.23913 193.48 7.23913C187.426 9.10287 185.443 15.0415 191.088 20.7477C196.731 26.454 203.388 17.2879 203.388 17.2879C203.388 17.2879 208.399 24.3884 220.833 21.4519C221.816 21.2196 222.854 21.2712 223.793 21.6444C225.196 22.2031 226.846 23.3556 226.466 25.6395C225.825 29.489 224.973 38.5308 226.644 39.2279C228.245 39.8969 228.553 37.0872 229.827 35.1929C231.09 33.3151 234.078 33.3198 236.041 35.7986C238.287 38.6341 235.665 42.4108 232.553 43.9366C232.553 43.9366 231.179 44.9482 227.4 44.6079C227.027 44.575 227.107 46.6242 227.227 47.1876H227.222Z" fill="black"/>
<path d="M230.302 106.189L231.919 148.567L257.526 148.658V101.337L230.302 106.189Z" fill="white"/>
<path d="M239.644 69.7803C239.644 69.7803 226.938 68.7522 225.14 84.1973C223.342 99.6424 223.985 115.954 223.985 115.954H258.222C258.222 115.954 260.882 73.8599 239.644 69.7803Z" fill="black"/>
<path d="M202.038 65.1328C202.038 65.1328 182.921 68.2101 175.682 79.1578C169.53 88.4578 178.177 101.135 178.177 101.135L206.321 102.206L203.472 75.2637L202.04 65.1328H202.038Z" fill="black"/>
<path d="M234.12 37.3571C234.12 37.3571 231.02 37.2702 229.623 41.4179" stroke="black" stroke-miterlimit="10"/>
<path d="M197.902 32.0079C198.57 32.0079 199.113 31.4656 199.113 30.7967C199.113 30.1278 198.57 29.5854 197.902 29.5854C197.233 29.5854 196.69 30.1278 196.69 30.7967C196.69 31.4656 197.233 32.0079 197.902 32.0079Z" fill="#231F20"/>
<path d="M213.237 33.2188C213.906 33.2188 214.448 32.6765 214.448 32.0076C214.448 31.3386 213.906 30.7964 213.237 30.7964C212.568 30.7964 212.025 31.3386 212.025 32.0076C212.025 32.6765 212.568 33.2188 213.237 33.2188Z" fill="#231F20"/>
<path d="M210.599 28.217C210.599 28.217 213.105 26.872 215.878 28.6841" stroke="#231F20" stroke-miterlimit="10"/>
<path d="M196.155 26.3884C196.155 26.3884 198.533 23.7078 201.162 27.318" stroke="#231F20" stroke-miterlimit="10"/>
<path d="M203.608 30.7964L200.873 41.4178H205.004" stroke="black" stroke-miterlimit="10"/>
<path d="M230.301 115.881V147.689" stroke="black" stroke-miterlimit="10"/>
<path d="M257.525 148.914V115.883L223.548 115.956C223.548 115.956 223.503 93.927 225.039 85.0918" stroke="black" stroke-miterlimit="10"/>
<path d="M139.652 126.171L126.995 148.567L141.105 148.914C141.105 148.914 164.829 135.067 179.551 148.301L186.457 146.349L192.998 148.916C192.998 148.916 201.338 135.225 231.919 148.569L246.054 148.661L233.217 125.73C233.217 125.73 219.225 117.681 207.455 118.252C207.455 118.252 193.954 118.688 186.527 127.244C186.527 127.244 171.253 110.771 145.337 122.951L139.652 126.174V126.171Z" fill="white"/>
<path d="M186.369 145.384C186.369 145.384 176.781 124.441 134.492 141.893L145.334 122.949C145.334 122.949 170.354 109.862 186.454 127.366L186.369 145.384Z" stroke="black" stroke-miterlimit="10"/>
<path d="M134.494 141.894L126.997 148.565L140.872 148.637C140.872 148.637 166.359 135.34 179.933 148.656L186.456 146.344" stroke="black" stroke-miterlimit="10"/>
<path d="M145.337 122.948L139.652 126.171L126.856 148.658" stroke="black" stroke-miterlimit="10"/>
<path d="M186.602 145.227C186.602 145.227 196.132 124.392 238.418 141.844L227.576 122.899C227.576 122.899 202.556 109.813 186.456 127.317L186.602 145.227Z" stroke="black" stroke-miterlimit="10"/>
<path d="M238.418 141.844L245.915 148.515L232.04 148.588C232.04 148.588 206.553 135.291 192.979 148.607L186.456 146.295" stroke="black" stroke-miterlimit="10"/>
<path d="M227.576 122.899L233.259 126.12L246.054 148.609" stroke="black" stroke-miterlimit="10"/>
<path d="M163.969 119.291L179.132 135.067L188.355 116.388L163.969 119.291Z" fill="white" stroke="#231F20" stroke-miterlimit="10"/>
<path d="M189.318 118.247L189.248 118.359L163.956 121.683L155.132 56.7715C155.057 56.2128 155.02 55.6542 155.02 55.1002C155.02 50.8657 157.202 46.8683 160.878 44.6008C164.127 42.5869 168.129 42.1949 171.716 43.5399L173.209 44.0985C177.5 45.7087 180.546 49.5606 181.124 54.1026L189.323 118.247H189.318Z" fill="#FF4848"/>
<path d="M155.282 58.7079L181.501 57.0671L181.137 53.0251C181.137 53.0251 179.079 44.0045 168.69 42.5844C168.69 42.5844 156.489 41.6877 154.841 54.7175L155.282 58.7102V58.7079Z" fill="black"/>
<path d="M174.403 130.03L182.135 128.988L179.133 135.067L174.403 130.03Z" fill="#FF4848" stroke="#231F20" stroke-miterlimit="10"/>
<path d="M163.274 63.7734L169.591 111.799" stroke="#231F20" stroke-miterlimit="10"/>
<path d="M169.366 63.792L175.683 111.815" stroke="#231F20" stroke-miterlimit="10"/>
<path d="M175.683 63.4424L181.999 111.465" stroke="#231F20" stroke-miterlimit="10"/>
<path d="M164.773 93.6331L156.919 94.6449C156.2 94.7375 155.692 95.3952 155.785 96.1139L156.178 99.166C156.271 99.8847 156.928 100.392 157.647 100.3L165.502 99.2879C166.22 99.1953 166.728 98.5377 166.636 97.8189L166.242 94.7668C166.15 94.0481 165.492 93.5405 164.773 93.6331Z" fill="white" stroke="#231F20" stroke-miterlimit="10"/>
<path d="M164.345 76.4764L153.599 77.8607C152.88 77.9533 152.373 78.6109 152.465 79.3297L152.859 82.3818C152.951 83.1005 153.609 83.6081 154.328 83.5155L165.074 82.1312C165.793 82.0386 166.3 81.381 166.208 80.6622L165.814 77.6101C165.722 76.8914 165.064 76.3838 164.345 76.4764Z" fill="white" stroke="#231F20" stroke-miterlimit="10"/>
<path d="M165.714 87.8629L155.406 89.1908C154.687 89.2834 154.18 89.9411 154.272 90.6598L154.665 93.7118C154.758 94.4306 155.416 94.9382 156.134 94.8456L166.443 93.5177C167.162 93.4252 167.669 92.7674 167.577 92.0487L167.183 88.9967C167.091 88.2779 166.433 87.7703 165.714 87.8629Z" fill="white" stroke="#231F20" stroke-miterlimit="10"/>
<path d="M166.765 81.9051L154.324 83.5076C153.605 83.6002 153.098 84.258 153.19 84.9767L153.583 88.0287C153.676 88.7475 154.334 89.2551 155.052 89.1625L167.493 87.5599C168.212 87.4673 168.72 86.8096 168.627 86.0909L168.234 83.0389C168.141 82.3201 167.484 81.8125 166.765 81.9051Z" fill="white" stroke="#231F20" stroke-miterlimit="10"/>
<path d="M179.133 135.067L169.476 130.497C168.655 130.108 167.697 130.129 166.892 130.556C165.364 131.366 163.582 131.549 161.923 131.07L159.681 130.422C158.524 130.086 157.289 130.143 156.167 130.579L154.757 131.129C152.733 131.917 150.492 131.938 148.454 131.19C147.896 130.985 147.278 131.025 146.75 131.302L141.894 133.847" stroke="#FF4848" stroke-miterlimit="10"/>
<path d="M225.039 85.0894L210.854 108.485H219.366V120.139C219.366 120.139 226.755 122.029 230.302 124.444V115.881L223.546 115.954C223.546 115.954 224.541 88.3943 225.037 85.0894H225.039Z" fill="black"/>
<path d="M211.126 47.3237C211.126 47.3237 201.988 44.9342 200.864 46.5749C199.739 48.2157 204.788 47.8683 204.788 47.8683" stroke="black" stroke-miterlimit="10"/>
<path d="M6.6543 148.846H263.13" stroke="#231F20" stroke-miterlimit="10"/>
<path d="M250.776 35.0779C251.83 34.0944 253.384 33.7306 254.786 34.017C256.288 34.3245 257.487 35.3361 258.187 36.6858C258.886 38.0355 259.116 39.958 258.339 41.371C257.635 42.6503 256.166 43.331 254.757 43.4624C252.614 43.6619 250.544 42.7746 248.61 41.9672C248.316 41.8451 247.964 42.1033 247.887 42.378C247.356 44.2628 246.568 46.0514 245.54 47.718C245.143 48.3635 246.157 48.9527 246.554 48.3095C247.631 46.5632 248.462 44.6642 249.021 42.6878L248.298 43.0986C250.267 43.9201 252.363 44.7863 254.544 44.6525C256.337 44.5422 258.154 43.7817 259.18 42.2489C260.266 40.6222 260.187 38.3782 259.452 36.6318C258.741 34.9418 257.363 33.5522 255.588 33.0076C253.652 32.4138 251.436 32.8574 249.945 34.247C249.391 34.7634 250.222 35.592 250.776 35.0779Z" fill="#231F20"/>
<path d="M243.228 53.6917C244.01 53.6917 244.643 53.058 244.643 52.2763C244.643 51.4945 244.01 50.8608 243.228 50.8608C242.446 50.8608 241.812 51.4945 241.812 52.2763C241.812 53.058 242.446 53.6917 243.228 53.6917Z" fill="#231F20"/>
<path d="M101.271 27.4964C101.726 27.7311 101.956 28.0692 101.956 28.5128C101.956 28.8039 101.884 29.0104 101.738 29.1348C101.593 29.2592 101.386 29.3461 101.116 29.393C100.846 29.4423 100.511 29.4681 100.112 29.4751C99.7102 29.4822 99.2618 29.4986 98.7642 29.5268C98.5975 29.4704 97.9897 29.4165 96.9404 29.3601C96.7879 29.3742 96.6423 29.3836 96.5062 29.3907C96.3677 29.3977 96.2362 29.4001 96.1118 29.4001C95.3653 29.4001 94.8536 29.2897 94.5767 29.0691C94.5086 28.5175 94.4546 28.0057 94.4217 27.5339C94.3865 27.0645 94.3701 26.6349 94.3701 26.2476C94.3701 25.6397 94.3936 25.1115 94.4429 24.6609C94.4922 24.2125 94.5157 23.8065 94.5157 23.4473C94.5157 23.0061 94.4945 22.6587 94.4546 22.4099L94.5791 20.2339C94.633 19.7081 94.6987 19.2598 94.7762 18.8866C94.8513 18.5134 94.9452 18.2293 95.0555 18.0368C95.1377 17.9265 95.5531 17.788 96.2995 17.6214L97.6258 17.3303C97.708 17.3162 97.8817 17.2951 98.1446 17.2693C98.4075 17.2411 98.6797 17.2153 98.9637 17.1872C99.2477 17.159 99.4989 17.1379 99.7196 17.1261C99.9402 17.112 100.044 17.105 100.032 17.105H100.114C100.266 17.105 100.421 17.2083 100.581 17.4172C100.741 17.6237 100.82 17.8655 100.82 18.1425C100.82 18.281 100.816 18.4054 100.811 18.5157C100.804 18.626 100.759 18.7199 100.677 18.795C100.595 18.8701 100.457 18.9288 100.262 18.9711C100.067 19.0133 99.7853 19.0415 99.4121 19.0532C98.8041 19.0814 98.3887 19.1424 98.1681 19.2387H98.0647C97.7055 19.2387 97.2573 19.3208 96.7174 19.4875C96.6611 19.5556 96.6211 19.6776 96.5929 19.8489C96.5648 20.0226 96.5437 20.201 96.532 20.3888C96.5179 20.5743 96.5085 20.7339 96.5015 20.8653C96.4944 20.9968 96.4921 21.0414 96.4921 20.9991C96.478 21.0696 96.4686 21.1376 96.4616 21.2057C96.4545 21.2737 96.4522 21.3653 96.4522 21.4756C96.4522 21.5719 96.4545 21.6798 96.4616 21.7972C96.4686 21.9146 96.478 22.0437 96.4921 22.1798C96.9216 22.1376 97.269 22.093 97.5389 22.046C97.8089 21.9967 98.0178 21.9732 98.1704 21.9732C98.4614 21.9732 98.7431 21.9662 99.0201 21.9522C99.2971 21.9381 99.5412 21.9545 99.7572 22.0038C99.9708 22.0531 100.14 22.1493 100.264 22.2948C100.389 22.4404 100.45 22.6728 100.45 22.9896C100.45 23.3488 100.335 23.5835 100.107 23.6938C99.8792 23.8041 99.4801 23.8675 98.9144 23.8793C98.2501 23.9074 97.8511 23.9356 97.7126 23.9614C97.6304 23.9614 97.5437 23.959 97.4545 23.952C97.3653 23.9449 97.2643 23.9426 97.154 23.9426C97.0835 23.9426 97.0061 23.9403 96.9145 23.9332C96.8253 23.9262 96.7385 23.9262 96.6563 23.9332C96.5742 23.9403 96.5015 23.9684 96.4381 24.0154C96.3771 24.0647 96.3442 24.1492 96.3442 24.2736C96.3442 24.3557 96.3466 24.4637 96.3536 24.5952C96.3607 24.7266 96.3629 24.8463 96.3629 24.9566C96.3629 25.1233 96.3583 25.2876 96.3536 25.4543C96.3466 25.6209 96.3395 25.797 96.3324 25.9824C96.3254 26.1679 96.3184 26.3791 96.3113 26.6138C96.3043 26.8486 96.3019 27.1255 96.3019 27.4424C96.3841 27.4565 96.5461 27.4706 96.7902 27.4847C97.0319 27.4987 97.2878 27.5129 97.5577 27.5269C97.8277 27.541 98.0859 27.5575 98.3347 27.5786C98.5835 27.5997 98.7501 27.6161 98.8322 27.6302C98.8463 27.6302 98.9426 27.6232 99.1234 27.6091C99.3018 27.595 99.5646 27.5739 99.912 27.548C100.381 27.5058 100.755 27.487 101.032 27.487H101.281L101.271 27.4964Z" fill="black"/>
<path d="M120.758 26.0036C120.592 26.0459 120.31 26.0834 119.908 26.1186C119.507 26.1538 119.045 26.1796 118.519 26.2007C117.993 26.2219 117.43 26.2359 116.829 26.243C116.228 26.25 115.65 26.2524 115.097 26.2524C114.641 26.2524 114.343 26.1561 114.205 25.9613C114.066 25.7688 113.998 25.5529 113.998 25.3182C113.998 25.0412 114.115 24.7853 114.35 24.5506C114.585 24.4825 115.275 24.4403 116.423 24.4262C116.423 24.4121 116.526 24.4192 116.735 24.4473C116.941 24.4755 117.261 24.4896 117.688 24.4896C118.005 24.4896 118.228 24.4403 118.352 24.3441C118.587 24.33 118.88 24.3229 119.232 24.3229C119.585 24.3229 119.995 24.3159 120.465 24.3018C121.087 24.3441 121.397 24.5858 121.397 25.0271C121.397 25.3722 121.183 25.6985 120.753 26.0013L120.758 26.0036ZM120.758 22.0226C120.592 22.0648 120.399 22.0836 120.178 22.0836C119.805 22.0836 119.547 22.0766 119.401 22.0625C119.256 22.0484 119.129 22.032 119.019 22.0109C118.908 21.9898 118.761 21.9686 118.573 21.9475C118.387 21.9264 118.066 21.917 117.608 21.917C117.331 21.917 117.153 21.9592 117.068 22.0414L115.036 22.1869C114.385 22.1189 114.061 21.8419 114.061 21.3583C114.061 21.0133 114.254 20.687 114.641 20.3842C114.78 20.356 114.986 20.3279 115.263 20.3021C115.54 20.2739 115.899 20.2528 116.341 20.241C116.409 20.241 116.479 20.2434 116.547 20.2504C116.615 20.2575 116.7 20.2598 116.796 20.2598C117.251 20.2598 117.895 20.2386 118.723 20.1987C119 20.2128 119.289 20.2339 119.594 20.2598C119.897 20.2879 120.23 20.3208 120.589 20.3631C120.934 20.626 121.108 20.9311 121.108 21.2762C121.108 21.539 120.991 21.7878 120.756 22.0226H120.758Z" fill="black"/>
<path d="M145.929 28.637C145.861 29.0102 145.548 29.1957 144.997 29.1957C144.609 29.1957 144.347 29.0642 144.208 28.8013C144.14 28.4281 144.091 28.0854 144.063 27.7755C144.034 27.4633 144.004 27.1254 143.969 26.7592C143.933 26.393 143.894 25.9752 143.844 25.5057C143.795 25.0363 143.71 24.4565 143.586 23.7641C143.558 23.5012 143.541 23.2453 143.534 22.9965C143.527 22.7477 143.518 22.5059 143.504 22.2712C143.241 22.6303 142.985 22.9636 142.736 23.2664C142.487 23.5716 142.232 23.8462 141.969 24.095C141.649 24.5786 141.18 25.0832 140.558 25.609H140.434C140.143 25.609 139.863 25.5433 139.593 25.4119C139.323 25.2804 139.147 25.1396 139.065 24.987C138.913 24.7382 138.722 24.4072 138.495 23.9917C138.267 23.5763 137.974 23.0928 137.615 22.5411L137.096 21.7524C137.028 22.1116 136.955 22.5646 136.877 23.1115C136.802 23.6584 136.715 24.3039 136.619 25.0504V25.3625C136.619 25.5691 136.612 25.8038 136.598 26.0667C136.584 26.3296 136.556 26.6254 136.516 26.9587L136.331 29.0102C136.288 29.4116 135.964 29.6111 135.356 29.6111C135.162 29.6111 135.011 29.5971 134.901 29.5689C134.791 29.5407 134.702 29.482 134.631 29.3928C134.561 29.3036 134.516 29.1745 134.497 29.0102C134.476 28.8435 134.467 28.6159 134.467 28.3272C134.467 27.4986 134.474 27.0831 134.488 27.0831V27.1042C134.542 26.9658 134.589 26.7803 134.622 26.5456C134.657 26.3108 134.683 26.0785 134.704 25.8508C134.725 25.6231 134.741 25.3367 134.756 24.9893C134.756 24.9612 134.77 24.8485 134.798 24.6466C134.826 24.4471 134.856 24.2265 134.892 23.9823C134.927 23.7406 134.957 23.5058 134.986 23.2782C135.014 23.0505 135.028 22.8956 135.028 22.8111V22.6866C135.056 22.3557 135.084 21.9895 135.11 21.5881C135.138 21.1867 135.178 20.7454 135.234 20.2619L135.629 18.478C135.849 18.2996 136.176 18.208 136.603 18.208C136.823 18.208 137.018 18.2503 137.183 18.3324C137.403 18.6493 137.622 18.9615 137.835 19.2643C138.049 19.5694 138.269 19.9004 138.499 20.2595C138.727 20.6187 138.978 21.0341 139.255 21.5036C139.532 21.9731 139.856 22.5411 140.229 23.203C140.795 22.6772 141.143 22.2641 141.267 21.959C141.309 21.9449 141.743 21.3651 142.572 20.2173L143.485 19.0554C143.595 19.0014 143.748 18.9732 143.941 18.9732C144.328 18.9732 144.68 19.0906 144.997 19.3253C145.246 20.4731 145.37 21.2877 145.37 21.7712V21.9566C145.37 22.0247 145.384 22.189 145.412 22.4449C145.44 22.7007 145.473 22.9777 145.516 23.2735C145.558 23.5716 145.595 23.8509 145.63 24.1138C145.666 24.3767 145.696 24.5551 145.724 24.6537C145.724 25.0551 145.741 25.4682 145.776 25.8977C145.811 26.3273 145.863 26.7686 145.931 27.224C145.959 27.3906 145.98 27.5432 145.992 27.6793C146.006 27.8178 146.013 27.9492 146.013 28.0736C146.013 28.184 146.006 28.2873 145.992 28.3859C145.978 28.4821 145.957 28.5666 145.931 28.6347L145.929 28.637Z" fill="black"/>
<path d="M157.663 26.1491C157.62 26.3157 157.522 26.5153 157.362 26.75C157.202 26.9847 157.005 27.2242 156.77 27.4659C156.536 27.7077 156.282 27.9259 156.015 28.1184C155.745 28.3132 155.487 28.4494 155.238 28.5339C154.52 28.8531 153.71 29.0104 152.813 29.0104C152.522 29.0104 152.271 29.0034 152.057 28.9893C151.844 28.9752 151.632 28.9353 151.426 28.8649C151.219 28.7968 151.01 28.6865 150.804 28.5339C150.597 28.3813 150.362 28.1607 150.1 27.8697C149.808 27.5669 149.581 27.264 149.414 26.9683C149.247 26.6702 149.123 26.3838 149.041 26.1068C148.959 25.8299 148.902 25.5646 148.874 25.3087C148.846 25.0529 148.832 24.8205 148.832 24.6139C148.832 24.1586 148.886 23.6187 148.999 22.9967C149.109 22.3747 149.407 21.6142 149.891 20.7151C150.069 20.3842 150.207 20.1213 150.306 19.9264C150.402 19.734 150.459 19.6025 150.473 19.5321L151.759 18.7434C152.2 18.4805 152.623 18.2693 153.024 18.112C153.426 17.9524 153.867 17.8726 154.35 17.8726H154.973C155.25 17.8726 155.522 17.9031 155.792 17.9664C156.062 18.0275 156.299 18.1402 156.508 18.2974C156.714 18.457 156.82 18.6871 156.82 18.9922C156.82 19.5039 156.515 19.7997 155.907 19.8842C155.921 19.8842 155.879 19.8771 155.782 19.863C155.686 19.849 155.555 19.8349 155.388 19.8208C155.221 19.8067 155.036 19.7927 154.829 19.7786C154.623 19.7645 154.414 19.7574 154.207 19.7574C153.848 19.7574 153.484 19.8584 153.118 20.0579C152.752 20.2574 152.306 20.6001 151.78 21.0836C151.503 21.6634 151.299 22.1164 151.168 22.4427C151.036 22.7666 150.97 22.9849 150.97 23.0953C150.818 23.3722 150.743 23.7807 150.743 24.3182C150.743 25.3134 150.921 26.0294 151.283 26.4636C151.642 26.8979 152.132 27.1162 152.754 27.1162C153.156 27.1162 153.778 27.0058 154.62 26.7852C155.132 26.4824 155.573 25.9965 155.947 25.3346C156.181 25.0999 156.423 24.9825 156.672 24.9825C156.935 24.9825 157.17 25.0858 157.376 25.2923C157.583 25.4989 157.686 25.736 157.686 25.9965C157.686 26.0247 157.684 26.0481 157.677 26.0693C157.67 26.0904 157.667 26.1139 157.667 26.142L157.663 26.1491Z" fill="black"/>
<path d="M164.011 21.1985C163.96 21.2196 163.911 21.236 163.859 21.2525C163.807 21.2666 163.753 21.276 163.692 21.276H163.251C163.181 21.276 163.112 21.2736 163.044 21.2689C162.979 21.2642 162.906 21.2619 162.824 21.2619C162.742 21.2619 162.662 21.2642 162.58 21.2689C162.497 21.2736 162.413 21.276 162.321 21.276C162.209 21.276 162.058 21.2478 161.866 21.1915C161.674 21.1352 161.429 21.107 161.136 21.107C161.075 21.107 161.014 21.1093 160.953 21.114C160.892 21.1187 160.826 21.1211 160.756 21.1211C160.685 21.1211 160.275 21.0553 159.523 20.9239C159.31 20.7009 159.204 20.4826 159.204 20.269C159.204 20.0976 159.239 19.9192 159.31 19.7361C159.533 19.5343 159.711 19.3559 159.843 19.2033C159.974 19.0507 160.07 18.924 160.131 18.8231C160.333 18.5179 160.54 18.2433 160.746 17.9945C160.953 17.7457 161.159 17.5062 161.361 17.2715C161.401 17.241 161.455 17.1776 161.521 17.0814C161.587 16.9852 161.659 16.8819 161.742 16.7692C161.824 16.6589 161.904 16.5439 161.986 16.4265C162.068 16.3091 162.138 16.2153 162.199 16.1448C162.462 15.8514 162.594 15.5275 162.594 15.1707C162.594 14.8139 162.415 14.6543 162.061 14.6543C161.939 14.6543 161.803 14.6731 161.65 14.7083C161.497 14.7435 161.354 14.7928 161.216 14.8538C161.08 14.9149 160.951 14.9853 160.829 15.0674C160.706 15.1496 160.615 15.234 160.554 15.3256C160.514 15.4077 160.46 15.5181 160.394 15.6613C160.329 15.8045 160.249 15.9476 160.16 16.0955C160.068 16.2434 159.967 16.3702 159.854 16.4758C159.742 16.5814 159.622 16.6354 159.488 16.6354C159.296 16.6354 159.124 16.565 158.972 16.4218C158.819 16.281 158.744 16.1026 158.744 15.889C158.744 15.788 158.786 15.6401 158.873 15.4476C158.96 15.2552 159.066 15.0603 159.193 14.8608C159.319 14.6637 159.455 14.483 159.603 14.321C159.751 14.159 159.885 14.0534 160.007 14.0017C160.667 13.6168 161.411 13.4243 162.244 13.4243C162.568 13.4243 162.84 13.4759 163.058 13.5769C163.277 13.6778 163.45 13.8093 163.584 13.9713C163.716 14.1332 163.81 14.321 163.866 14.5346C163.922 14.7482 163.95 14.9665 163.95 15.1895C163.95 15.8279 163.758 16.3608 163.373 16.7856C163.26 16.9077 163.159 17.0344 163.068 17.1659C162.976 17.2973 162.892 17.4217 162.817 17.5391C162.742 17.6565 162.671 17.7621 162.61 17.8583C162.549 17.9545 162.505 18.0226 162.474 18.0649C162.361 18.1259 162.012 18.5672 161.425 19.3887L161.03 19.7854C161.375 19.7854 161.666 19.8042 161.906 19.8395C162.143 19.8747 162.263 19.8817 162.263 19.8629C162.434 19.8629 162.645 19.8629 162.894 19.8558C163.143 19.8512 163.429 19.8488 163.753 19.8488C163.894 19.8488 164.014 19.938 164.11 20.1141C164.206 20.2925 164.256 20.4826 164.256 20.6844C164.256 20.9591 164.173 21.1304 164.011 21.2008V21.1985Z" fill="black"/>
</svg>
