<svg width="237" height="188" viewBox="0 0 237 188" fill="none" xmlns="http://www.w3.org/2000/svg">
<path d="M189.728 104.22C187.038 76.8321 154.104 73.0107 154.104 73.0107C153.564 79.0362 153.535 85.1814 150.167 88.8479C144.299 95.2372 139.262 95.3921 134.612 94.3335C122.737 91.6271 125.981 78.5738 125.981 78.5738C100.358 95.7559 99.3203 122.297 99.0738 140.596C99.0738 140.596 99.0527 156.029 99.0738 157.534L103.034 182.688H189.949C189.949 182.688 190.975 116.933 189.728 104.22Z" fill="black"/>
<path d="M152.508 18.9084C149.829 9.39482 134.333 0.479849 121.139 1.13944C121.139 1.13944 106.243 2.44921 98.1564 14.5142C98.1564 14.5142 84.4857 19.751 85.5514 34.4802C85.5514 34.4802 85.1993 44.6064 89.3212 48.2119C93.4453 51.8173 96.0015 50.9136 96.0015 50.9136C96.0015 50.9136 94.288 38.3932 94.9804 30.2598L95.2198 26.5746C95.7855 30.396 100.156 44.59 133.795 38.3556C134.208 38.2922 134.596 38.2218 134.948 38.1396C134.952 38.1396 134.959 38.1396 134.964 38.1373C135.119 38.1021 135.269 38.0645 135.41 38.0246C135.41 38.0246 136.175 47.28 138.783 49.0897C138.783 49.0897 140.921 49.8056 140.982 48.8996C141.041 47.9912 139.736 43.3788 141.675 41.4799C143.614 39.5833 145.975 38.2101 148.9 38.3415C148.9 38.3415 155.186 28.4266 152.508 18.9131V18.9084ZM95.3489 24.5207C95.4076 24.5959 95.4335 24.7296 95.4476 24.9127C95.3983 25.0183 95.349 25.1286 95.302 25.239L95.3489 24.5207Z" fill="black"/>
<path d="M95.2036 23.6758C95.2036 23.6758 93.6944 45.4961 97.1542 54.5918C97.1542 54.5918 101.079 73.1823 115.904 77.2666L125.939 78.0248C125.939 78.0248 123.46 89.5687 128.678 92.9488C133.025 95.7655 140.302 99.0916 148.179 92.6835C151.045 90.3503 153.165 87.2237 154.426 83.7498C155.597 80.5223 157.038 76.1117 157.001 74.0414L153.245 73.0086L147.158 57.7701C147.006 57.3781 146.942 56.9485 147.025 56.5354C147.128 56.0119 147.449 55.4885 148.391 55.7749C148.879 55.9227 153.562 54.7303 153.193 48.2096C152.825 41.6888 150.245 33.7409 141.675 41.4752C141.675 41.4752 140.518 43.7427 140.954 47.4725C140.954 47.4725 141.429 50.0663 139.858 49.3597C138.288 48.6509 136.563 47.8528 135.41 38.02C135.41 38.02 98.6541 43.9422 95.2059 23.6758H95.2036Z" fill="white"/>
<path d="M95.5903 18.5234C95.5903 18.5234 88.4592 42.7896 135.407 38.0199C135.407 38.0199 136.294 49.1249 139.534 49.3597C142.771 49.592 139.698 46.6063 140.89 42.9211C142.083 39.2358 151.272 33.0883 153.042 45.604C153.972 52.1811 151.514 55.1598 148.899 55.7795C148.108 55.9673 146.608 54.81 147.069 57.9742L153.242 73.3841" stroke="black" stroke-miterlimit="10"/>
<path d="M95.2036 23.6758C95.2036 23.6758 87.5655 75.9357 122.413 77.7595C126.544 77.9754 131.572 76.2244 133.981 73.0109C136.368 69.828 138.755 65.6194 139.856 57.3452" stroke="black" stroke-miterlimit="10"/>
<path d="M95.9993 50.9137C84.0563 50.7001 84.7746 34.4029 86.5515 26.8845C88.3284 19.3662 98.1565 14.512 98.1565 14.512C98.1565 14.512 116.669 -13.937 148.9 12.1507C148.9 12.1507 158.557 21.5586 148.9 38.3369" stroke="black" stroke-miterlimit="10"/>
<path d="M127.432 76.8672L130.056 84.6039" stroke="black" stroke-miterlimit="10"/>
<path d="M105.045 50.9537C105.885 50.9537 106.566 50.2727 106.566 49.4327C106.566 48.5926 105.885 47.9116 105.045 47.9116C104.205 47.9116 103.524 48.5926 103.524 49.4327C103.524 50.2727 104.205 50.9537 105.045 50.9537Z" fill="#231F20"/>
<path d="M122.414 49.4322C123.254 49.4322 123.935 48.7512 123.935 47.9112C123.935 47.0711 123.254 46.3901 122.414 46.3901C121.574 46.3901 120.893 47.0711 120.893 47.9112C120.893 48.7512 121.574 49.4322 122.414 49.4322Z" fill="#231F20"/>
<path d="M100.511 46.1511C100.511 46.1511 100.487 41.649 105.973 42.8226" stroke="#231F20" stroke-miterlimit="10"/>
<path d="M119.219 41.576C119.219 41.576 121.716 37.8297 125.608 41.8694" stroke="#231F20" stroke-miterlimit="10"/>
<path d="M110.391 48.895L110.931 62.6595L115.902 61.169" stroke="black" stroke-miterlimit="10"/>
<path d="M119.519 67.2483C119.519 67.2483 127.988 69.3586 128.349 60.9482" stroke="black" stroke-miterlimit="10"/>
<path d="M189.949 136.587H158.105V182.305H189.949V136.587Z" fill="white"/>
<path d="M158.105 136.587V182.305" stroke="black" stroke-miterlimit="10"/>
<path d="M189.951 136.972V182.688" stroke="black" stroke-miterlimit="10"/>
<path d="M184.504 92.8007C181.882 87.9559 176.518 85.2401 171.035 85.7682C167.408 86.1156 163.244 87.0686 161.432 89.5051C157.9 94.256 155.672 96.9248 155.627 108.511C155.583 120.097 155.651 136.284 155.651 136.284H190.71C190.71 136.284 192.33 107.265 184.504 92.803V92.8007Z" fill="black"/>
<path d="M190.714 136.587H155.66C155.66 136.587 155.507 123.393 155.66 105.901C155.812 88.4091 166.736 86.6157 166.736 86.6157" stroke="#3F3F3F" stroke-miterlimit="10"/>
<path d="M85.0088 187.101H128.868H189.784L204.509 185.704L128.868 166.55" fill="#231F20"/>
<path d="M85.0088 187.101H128.868H189.784L204.509 185.704L128.868 166.55" stroke="#231F20" stroke-miterlimit="10"/>
<path d="M83.3563 161.205L68.9463 186.704L85.0112 187.1C85.0112 187.1 112.024 171.334 128.786 186.403L136.649 184.178L144.099 187.1C144.099 187.1 153.596 171.51 188.416 186.704L204.511 186.809L189.892 160.701C189.892 160.701 173.959 151.537 160.558 152.185C160.558 152.185 145.184 152.682 136.726 162.424C136.726 162.424 119.335 143.666 89.8277 157.536L83.3563 161.205Z" fill="white"/>
<path d="M136.551 183.083C136.551 183.083 125.634 159.236 77.4814 179.109L89.8281 157.537C89.8281 157.537 118.317 142.637 136.649 162.567L136.551 183.083Z" stroke="black" stroke-miterlimit="10"/>
<path d="M77.4814 179.106L68.9443 186.704L84.7439 186.786C84.7439 186.786 113.763 171.646 129.22 186.81L136.647 184.176" stroke="black" stroke-miterlimit="10"/>
<path d="M89.8281 157.535L83.3567 161.206L68.7871 186.81" stroke="black" stroke-miterlimit="10"/>
<path d="M136.814 182.901C136.814 182.901 147.663 159.177 195.815 179.049L183.469 157.478C183.469 157.478 154.98 142.577 136.647 162.508L136.814 182.901Z" stroke="black" stroke-miterlimit="10"/>
<path d="M195.815 179.049L204.352 186.647L188.553 186.73C188.553 186.73 159.533 171.59 144.076 186.753L136.649 184.119" stroke="black" stroke-miterlimit="10"/>
<path d="M183.469 157.478L189.94 161.147L204.51 186.753" stroke="black" stroke-miterlimit="10"/>
<path d="M149.682 43.8672C149.682 43.8672 144.684 43.6747 144.273 48.7448" stroke="black" stroke-miterlimit="10"/>
<path d="M29.4111 186.81H237" stroke="black" stroke-miterlimit="10"/>
<path d="M54.9477 144.713C61.0005 144.713 65.9072 139.807 65.9072 133.754C65.9072 127.701 61.0005 122.794 54.9477 122.794C48.895 122.794 43.9883 127.701 43.9883 133.754C43.9883 139.807 48.895 144.713 54.9477 144.713Z" fill="#C7C8FA"/>
<path d="M37.8686 105.375C37.8428 105.467 37.7654 105.612 37.7983 105.645C38.9202 106.746 40.0539 107.835 41.19 108.934C43.1101 107.725 45.0209 107.798 46.448 109.154C47.9808 110.614 48.0488 112.459 46.6639 114.837C47.2625 115.593 47.2578 115.577 48.1474 115.288C55.8371 112.798 62.6748 114.258 68.611 119.762C70.0382 121.086 70.0076 122.219 68.618 123.543C64.6535 127.322 60.6889 131.102 56.7244 134.878C52.464 138.934 48.2084 142.995 43.9387 147.042C42.4388 148.464 41.4342 148.45 40.0962 146.864C34.843 140.636 33.8078 133.686 36.6997 126.121C36.9133 125.564 37.0283 125.179 36.127 124.783C35.5214 125.466 34.8923 126.264 34.1741 126.97C28.5781 132.468 22.9682 137.953 17.3511 143.427C16.7479 144.016 16.337 144.462 16.7689 145.458C17.6561 147.502 17.5107 149.631 16.5999 151.659C16.3276 152.262 16.4122 152.591 16.8582 153.046C24.4845 160.813 32.0896 168.604 39.7183 176.369C39.9882 176.644 40.4553 176.855 40.8379 176.864C42.765 176.913 44.6945 176.869 46.6216 176.897C47.2108 176.906 47.4855 176.735 47.7061 176.144C48.2436 174.702 49.5322 173.961 51.1566 173.993C52.6236 174.024 53.7856 174.841 54.3466 176.237C54.4311 176.449 54.5132 176.66 54.5813 176.829C55.4076 176.89 56.154 176.899 56.884 177.007C59.0247 177.322 60.6232 178.881 60.98 180.944C61.332 182.972 60.3815 184.913 58.5365 185.988C58.2572 186.15 58.0247 186.394 57.7712 186.598C47.347 186.598 36.9227 186.598 26.4984 186.598C26.3012 186.404 26.1346 186.157 25.9022 186.023C23.9727 184.897 23.0596 182.962 23.4586 180.791C23.8225 178.808 25.4398 177.31 27.5641 176.991C27.9748 176.93 28.3857 176.869 28.8833 176.796C28.7166 176.594 28.6392 176.486 28.55 176.392C22.6677 170.369 16.7783 164.353 10.9078 158.318C10.0088 157.396 9.14023 156.783 7.70135 156.626C3.40347 156.154 0.185389 152.244 0.408381 148.159C0.668929 143.406 4.05133 140.045 8.70364 139.841C9.20831 139.819 9.8186 139.587 10.1754 139.242C14.8958 134.686 19.5997 130.113 24.2638 125.499C26.4444 123.341 28.5312 121.09 30.7118 118.832C29.9278 117.999 29.0147 117.055 28.1345 116.084C26.9961 114.828 27.0195 113.835 28.2284 112.654C29.632 111.286 31.0804 109.964 32.4817 108.594C33.5567 107.542 34.5895 106.448 35.6387 105.373C36.3828 105.373 37.1269 105.373 37.8733 105.373L37.8686 105.375ZM12.4851 148.291C12.4686 146.307 10.8421 144.709 8.84221 144.711C6.84467 144.713 5.20383 146.359 5.232 148.328C5.26017 150.328 6.87282 151.91 8.88209 151.91C10.8562 151.91 12.5015 150.258 12.4851 148.288V148.291Z" fill="#3B34FF"/>
<path d="M8.8819 151.912C10.856 151.912 12.5013 150.26 12.4849 148.291C12.4685 146.307 10.8419 144.709 8.84201 144.711C6.84447 144.713 5.20364 146.359 5.2318 148.328C5.25997 150.328 6.87262 151.91 8.8819 151.91V151.912Z" fill="#C7C8FA"/>
<path d="M62.6183 150.955L61.8789 145.976" stroke="black" stroke-miterlimit="10"/>
<path d="M71.0052 145.662L66.8857 142.768" stroke="black" stroke-miterlimit="10"/>
<path d="M75.0448 136.594L70.0264 136.195" stroke="black" stroke-miterlimit="10"/>
</svg>
