<svg width="214" height="181" viewBox="0 0 214 181" fill="none" xmlns="http://www.w3.org/2000/svg">
<path d="M102.315 107.763C102.315 107.763 135.135 86.3962 142.151 69.7632" stroke="#0D0E0F" stroke-miterlimit="10"/>
<path d="M176.706 94.858L176.309 72.6481C176.309 72.6481 179.83 75.8261 182.912 69.7652C182.912 69.7652 186.245 62.231 179.609 59.5731C179.609 59.5731 175.006 58.4543 171.542 64.4706L168.948 68.4999C168.948 68.4999 165.408 68.4299 166.706 64.1628C166.706 64.1628 172.887 52.0771 171.326 49.8565C169.762 47.636 160.753 44.7509 159.746 44.6703C158.737 44.5896 140.719 41.936 139.292 46.1138C137.865 50.2917 132.76 60.0317 132.76 60.0317C132.76 60.0317 119.711 90.6058 147.569 91.075V94.8601C147.569 94.8601 145.069 98.5561 147.003 104.19C148.935 109.825 152.179 111.771 159.744 111.905C159.744 111.905 173.262 112.756 176.708 94.8601L176.706 94.858Z" fill="white"/>
<path d="M106.116 131.99V180.333H200.058L200.561 166.387V166.362L200.788 159.857L200.976 154.635L200.981 154.444L201.004 153.86C202.068 154.249 203.166 154.671 204.302 155.142C204.307 155.147 204.319 155.153 204.33 155.157C204.88 155.38 205.434 155.611 205.999 155.866C207.269 156.414 208.584 157.015 209.95 157.677C210.07 157.734 210.189 157.796 210.309 157.853C210.309 157.853 211.304 155.873 213.288 128.213C215.267 100.56 176.698 94.8622 176.698 94.8622C176.698 94.8622 171.487 112.784 158.497 111.877C143.616 110.837 146.308 98.1994 147.559 94.1574C147.799 93.3826 147.989 92.9219 147.989 92.9219C147.846 92.9219 147.702 92.9219 147.559 92.9325C143.907 93.011 139.607 94.1638 136.13 95.3314C132.396 96.5924 129.612 97.8704 129.612 97.8704L130.687 100.327L132.029 103.388L141.841 125.746L106.108 131.992L106.116 131.99Z" fill="black"/>
<path d="M150.115 90.8948C150.115 90.8948 140.665 92.4318 134.435 86.5407C121.424 74.2385 138.151 49.8547 138.151 49.8547C138.151 49.8547 145.867 53.2471 147.425 46.2054C147.425 46.2054 151.249 42.7472 152.946 46.2054C152.946 46.2054 155.669 54.6482 164.713 48.8654C165.76 48.1946 167.077 47.9611 168.328 48.218C170.417 48.6468 172.893 49.8972 171.21 53.504C168.52 59.2656 165.689 68.1266 168.945 68.4981C168.945 68.4981 175.884 55.1684 181.264 61.5711C186.644 67.9738 180.98 75.3997 176.593 73.3511L176.708 94.8583" stroke="#231F20" stroke-miterlimit="10"/>
<path d="M163.706 84.5576C163.706 84.5576 159.063 89.3873 150.115 90.8966" stroke="#231F20" stroke-miterlimit="10"/>
<path d="M155.636 63.5157C156.516 63.5157 157.23 62.8704 157.23 62.0743C157.23 61.2782 156.516 60.6328 155.636 60.6328C154.756 60.6328 154.042 61.2782 154.042 62.0743C154.042 62.8704 154.756 63.5157 155.636 63.5157Z" fill="#231F20"/>
<path d="M139.677 59.5733C140.557 59.5733 141.271 58.928 141.271 58.1319C141.271 57.3358 140.557 56.6904 139.677 56.6904C138.797 56.6904 138.083 57.3358 138.083 58.1319C138.083 58.928 138.797 59.5733 139.677 59.5733Z" fill="#231F20"/>
<path d="M147.566 61.189C147.566 61.189 141.948 64.9656 139.686 67.477C139.104 68.1245 139.169 69.0671 139.836 69.6445L143.319 72.6506" stroke="#231F20" stroke-miterlimit="10"/>
<path d="M153.683 77.8984C153.683 77.8984 154.504 83.9806 147 81.4204" stroke="#231F20" stroke-miterlimit="10"/>
<path d="M156.91 55.7669C156.91 55.7669 162.645 54.3594 162.574 60.6326" stroke="#231F20" stroke-miterlimit="10"/>
<path d="M145.797 53.8901C145.797 53.8901 142.459 50.7801 138.506 53.249" stroke="#231F20" stroke-miterlimit="10"/>
<path d="M147.566 91.0732V96.856" stroke="#231F20" stroke-miterlimit="10"/>
<path d="M179.846 68.5002C179.846 68.5002 176.731 63.7746 172.767 68.5002" stroke="#231F20" stroke-miterlimit="10"/>
<path d="M137.151 40.1126C137.358 39.9533 137.499 39.8621 137.527 39.8366H137.534C137.64 39.6498 137.612 39.4162 137.417 39.2634C135.257 37.5162 128.988 31.5763 135.954 26.2924C144.238 20.0213 152.449 27.9589 152.097 33.1473C152.097 33.1473 161.512 25.0781 167.389 32.1856C167.389 32.1856 169.701 34.973 167.478 37.7859C167.272 38.047 167.561 38.3866 167.884 38.2635C171.26 37.0004 179.196 34.7437 182.607 39.8663C186.674 45.9718 181.104 48.8802 180.252 49.2857C181.55 48.7549 194.36 43.781 196.993 53.506C196.993 53.506 197.646 60.9489 190.719 60.6093C189.209 60.535 188.043 61.9 188.67 63.1419C188.904 63.5983 189.287 64.0547 189.897 64.4538C192.944 66.4345 195.209 74.8858 185.153 76.5205C177.722 77.7305 178.027 76.1171 178.027 76.1171L176.694 78.809L176.588 73.351C176.588 73.351 176.6 73.3552 176.619 73.3616C176.842 73.4316 178.168 73.8244 179.595 73.4146C179.607 73.4146 179.619 73.4083 179.63 73.404C180.698 73.0899 181.813 72.332 182.564 70.6655C183.01 69.6996 183.327 68.4258 183.445 66.7529C183.452 66.7062 183.456 66.6617 183.456 66.615C183.456 66.615 183.44 66.4388 183.386 66.1416C183.386 66.1097 183.381 66.0779 183.374 66.046C183.269 65.4983 183.057 64.6131 182.635 63.6726C182.623 63.645 182.611 63.6259 182.6 63.5983C182.259 62.8489 181.778 62.0698 181.121 61.4054L181.109 61.3947C180.421 60.709 179.548 60.1465 178.421 59.8556L178.414 59.8493C178.414 59.8493 178.396 59.8493 178.384 59.845C178.055 59.7707 175.208 59.3143 171.579 64.405L171.537 64.4687L169.06 68.2857L169.018 68.3558H168.988L168.952 68.4725L168.941 68.5001C168.941 68.5001 164.298 69.0733 167.995 59.8938L170.624 52.5613C170.948 51.6633 170.654 50.6613 169.837 50.0711C169.821 50.0605 169.802 50.0435 169.779 50.0329C168.417 49.0818 166.474 49.3005 165.234 50.3832C163.122 52.2407 158.702 54.854 153.704 50.4044C153.704 50.4044 151.991 48.2539 151.604 46.1777C151.604 46.1777 150.411 45.4878 149.496 46.0185L149.489 46.0249C147.001 51.4447 142.75 52.9052 137.853 50.2877C137.196 49.931 136.527 49.5064 135.846 49.0076C135.839 49.0012 135.835 48.9969 135.828 48.9927C130.931 45.3668 135.71 41.2037 137.142 40.1104L137.151 40.1126Z" fill="black"/>
<path d="M179.428 136.365L170.882 160.246L181.686 160.552L179.428 136.365Z" fill="#231F20"/>
<path d="M123.406 162.991L128.57 164.897" stroke="#231F20" stroke-miterlimit="10"/>
<path d="M76.8477 63.5132C76.8477 63.5132 83.0046 108.999 115.827 111.909C148.649 114.82 176.032 69.763 176.032 69.763" stroke="#0D0E0F" stroke-miterlimit="10"/>
<path d="M75.9138 115.818C75.9138 115.818 74.7589 100.917 93.1522 96.7796C97.7858 95.7372 102.619 95.6821 107.325 96.4166C114.191 97.4887 128.803 98.6456 134.246 90.3472L138.424 101.359L82.9227 118.998C82.9227 118.998 81.0121 115.682 75.9138 115.82V115.818Z" fill="white" stroke="black" stroke-miterlimit="10"/>
<path d="M80.7881 103.252C80.7881 103.252 76.1968 90.8733 54.6769 90.3447L50.2852 93.5057L71.0304 117.187C71.0304 117.187 73.366 115.569 75.9151 115.818C75.9151 115.818 77.7883 105.817 80.7904 103.252H80.7881Z" fill="white" stroke="black" stroke-miterlimit="10"/>
<path d="M171.321 163.887L140.471 97.1253L81.7815 116.306C81.7815 116.306 77.9578 110.415 69.8879 115.153L48.1543 90.3447L80.859 157.314L105.494 180.235L171.319 163.889L171.321 163.887Z" fill="#3DB68A"/>
<path d="M69.8896 115.153L101.524 176.535L105.498 180.233L110.744 178.93L81.7833 116.304C81.7833 116.304 78.4572 109.997 69.8896 115.151V115.153Z" fill="black"/>
<path d="M209.861 158.32C209.861 158.32 194.66 164.63 176.706 151.699C176.706 151.699 183.666 146.373 209.861 158.32Z" fill="black"/>
<path d="M179.33 151.561C179.33 151.561 175.474 158.86 167.615 158.584L149.034 155.397C147.565 155.098 146.478 153.378 146.351 152.02C146.213 150.517 145.844 148.438 144.9 146.345C144.9 146.345 141.21 138.546 136.92 139.267C136.92 139.267 133.159 140.705 134.664 144.861C134.664 144.861 136.401 147.309 137.035 148.305C137.668 149.3 138.713 152.001 137.922 152.504C137.131 153.007 122.188 145.35 122.188 145.35C122.188 145.35 117.728 143.125 115.834 145.464C115.834 145.464 114.336 147.32 118.102 150.154C118.102 150.154 114.336 151.315 116.259 153.465C118.181 155.618 119.735 156.024 119.735 156.024C119.735 156.024 117.54 157.73 118.118 158.955C118.695 160.178 120.726 161.895 124.484 163.269C124.484 163.269 119.731 162.721 119.491 164.065C119.252 165.409 119.792 166.247 122.552 167.564C125.312 168.88 144.299 176.14 152.022 177.146C152.022 177.146 171.758 182.133 183.06 179.439C183.06 179.439 194.015 179.051 203.709 161.252L206.028 156.244C206.028 156.244 194.883 147.903 179.33 151.568V151.561Z" fill="white"/>
<path d="M117.89 150.245C117.89 150.245 113.244 151.588 117.89 155.047C122.535 158.505 131.314 160.553 131.314 160.553" stroke="#231F20" stroke-miterlimit="10"/>
<path d="M119.524 156.113C119.524 156.113 114.184 159.227 124.27 163.356C124.27 163.356 118.428 162.392 119.334 165.258C120.463 168.824 165.434 184.753 185.043 178.989C204.653 173.225 210.314 141.609 210.314 141.609C210.314 141.609 210.514 140.997 210.669 139.983C213.044 124.413 187.377 120.598 184.039 136.021C181.222 149.039 176.516 160.505 165.239 158.318C146.55 154.694 146.517 156.081 146.32 152.162C146.121 148.203 142.215 139.613 137.614 139.293C134.225 139.057 132.943 143.838 135.49 146.719C138.039 149.599 138.746 151.78 137.685 152.353C136.624 152.926 120.033 142.269 116.59 144.606C112.909 147.103 116.733 151.487 132.093 155.537" stroke="#231F20" stroke-miterlimit="10"/>
<path d="M206.746 115.625C206.746 115.625 188.2 110.118 183.456 122.539C178.712 134.96 176.703 151.699 176.703 151.699C176.703 151.699 192.726 149.031 209.858 158.32C209.858 158.32 216.372 117.544 206.746 115.625Z" fill="black"/>
<path d="M95.3537 11.0796L110.052 64.5642L68.2566 68.3281C68.2566 68.3281 67.1017 70.8607 63.1771 69.8885L59.2525 68.9183L15.1235 71.8118L0 13.0327L95.3537 11.0796Z" fill="#010101"/>
<path d="M53.197 17.4951C53.197 17.4951 60.0558 2.58589 93.7135 2.25471L104.088 49.4788L103.11 58.5946C103.11 58.5946 90.2113 54.7543 68.1539 64.1736C68.1539 64.1736 63.6167 65.3051 62.0158 65.1162C60.415 64.9273 56.509 62.7768 53.7697 62.2906C51.0304 61.8066 42.254 59.7282 30.5716 67.1775L19.7201 62.7385L4.56836 10.7506L12.6407 1.83225C12.6407 1.83225 31.4964 -3.48775 53.1947 17.4951H53.197Z" fill="white"/>
<path d="M93.7348 2.52214L104.023 48.6487C80.6206 45.9887 64.3492 59.1975 64.3492 59.1975C45.9207 51.5762 27.4381 58.5266 27.4381 58.5266L12.5752 1" stroke="black" stroke-miterlimit="10"/>
<path d="M53.1921 17.4508C53.1921 17.4508 61.2739 2.57136 93.7086 2.21047L103.997 48.3371L103.107 58.5504C103.107 58.5504 91.5326 54.2324 67.4518 64.4202C67.4518 64.4202 62.1634 65.4286 60.41 64.8809C58.6566 64.3332 48.514 56.5357 30.5667 67.1312L19.7152 62.6922L4.56348 10.7042L12.6358 1.78588C12.6358 1.78588 30.7193 -4.03514 53.1898 17.4487L53.1921 17.4508Z" stroke="black" stroke-miterlimit="10"/>
<path d="M53.3027 17.2979L64.3514 59.1956" stroke="black" stroke-miterlimit="10"/>
<path d="M27.7221 58.3784L19.8281 62.5393" stroke="black" stroke-miterlimit="10"/>
<path d="M90.5818 32.4734C94.2174 25.5983 91.025 17.3693 83.4513 14.0933C75.8777 10.8173 66.7908 13.735 63.1551 20.6101C59.5195 27.4852 62.7119 35.7143 70.2856 38.9902C77.8593 42.2662 86.9462 39.3485 90.5818 32.4734Z" fill="#CBE1D9"/>
<path d="M71.2027 26.9825L69.4705 21.344C69.2569 20.6456 69.9587 19.9981 70.7333 20.1807L77.0006 21.6433L83.2679 23.106C84.0448 23.2865 84.3123 24.1611 83.7513 24.677L79.2188 28.8528L74.6862 33.0285C74.1252 33.5465 73.1534 33.3194 72.9398 32.6209L71.2074 26.9825H71.2027Z" fill="#3DB68A" stroke="#231F20" stroke-miterlimit="10"/>
<path d="M176.032 77.4586C182.786 77.4586 188.261 72.5067 188.261 66.3982C188.261 60.2898 182.786 55.3379 176.032 55.3379C169.278 55.3379 163.803 60.2898 163.803 66.3982C163.803 72.5067 169.278 77.4586 176.032 77.4586Z" fill="#3DB68A"/>
<path d="M167.883 38.2655C169.343 37.7581 171.624 37.1488 171.624 37.1488C171.624 37.1488 173 31.4509 179.652 37.9322C187.907 45.978 177.882 56.6923 177.882 56.6923L185.309 59.1952C185.309 59.1952 195.761 43.5069 189.33 34.3657C182.898 25.2244 172.31 24.1502 167.885 38.2655H167.883Z" fill="#3DB68A"/>
<path d="M54.0176 180.333H200.058" stroke="black" stroke-miterlimit="10"/>
</svg>
