<svg width="303" height="14" viewBox="0 0 303 14" fill="none" xmlns="http://www.w3.org/2000/svg">
<path fill-rule="evenodd" clip-rule="evenodd" d="M0 9.27784L12.5922 7.02867C25.1844 4.81258 50.5262 0.347313 75.7107 0.0165529C101.052 -0.281131 126.237 3.52261 151.579 4.48182C176.763 5.44102 201.948 3.52261 227.289 3.52261C252.474 3.52261 277.816 5.44102 290.408 6.40023L303 7.35943V15H290.408C277.816 15 252.474 15 227.289 15C201.948 15 176.763 15 151.579 15C126.237 15 101.052 15 75.7107 15C50.5262 15 25.1844 15 12.5922 15H0V9.27784Z" fill="#110F0F"/>
</svg>
