<svg width="134" height="148" viewBox="0 0 134 148" fill="none" xmlns="http://www.w3.org/2000/svg">
<path d="M92.0524 31.4907C90.9252 30.2091 90.2459 31.3363 89.7364 32.3939C89.4816 33.1659 88.3467 32.0542 87.2582 33.1659C86.4322 33.992 85.7605 35.1114 86.1311 35.343C86.5017 35.5746 87.6751 34.2931 88.0071 34.1464C88.7791 33.8453 90.1918 34.9724 91.2418 32.7877C92.5156 34.2159 94.3298 32.1932 95.0014 31.4366C95.6731 30.6801 95.8275 29.4835 94.7698 30.1628C92.6082 31.5216 92.4847 31.923 92.0524 31.4907Z" fill="#FF7262"/>
<path d="M70.8532 59.599C74.1651 58.055 92.0525 52.1569 95.2872 51.1841C97.3099 50.582 96.2599 49.6401 93.7432 50.2809C89.6052 51.1841 73.3004 56.5959 69.919 58.1708C65.4028 60.2784 63.604 62.6099 65.0322 68.9172C67.0626 78.1812 71.795 89.661 73.671 91.6219C74.6514 92.5946 75.2536 92.1469 74.3504 90.4948C72.5439 87.2601 68.2592 76.8843 66.5299 68.6161C65.2716 62.9109 67.024 61.4827 70.8532 59.599Z" fill="#FF7262"/>
<path d="M46.5804 110.559C47.1825 104.021 56.6165 103.573 56.6165 103.573C57.1414 101.542 63.1554 79.7409 63.5645 76.5525C64.1667 71.9204 62.5146 72.9395 60.7081 71.1484C60.1059 70.5463 60.0365 67.9909 58.9016 67.6126C57.7668 67.2344 56.0529 68.9637 55.2963 67.3888C54.5398 65.8139 58.6777 54.9131 57.9289 53.786C57.18 52.6589 55.7518 53.014 55.7518 51.2307C55.7518 49.2775 54.3236 49.648 53.9453 48.6753C53.4204 47.2471 56.5779 41.3104 53.3432 41.9125C52.6638 42.0592 51.4672 42.9625 50.4095 42.7386C49.3519 42.5147 50.1856 40.7777 49.4368 40.3299C48.688 39.8821 47.6303 40.5538 46.9509 40.2527C45.901 39.8821 45.7543 37.6974 44.6967 37.3963C43.639 37.0952 42.2957 38.9403 41.0914 38.2995C39.8871 37.6588 39.7944 35.1575 39.0224 34.8332C37.7563 34.2851 36.6215 36.3772 34.8922 36.1919C33.8423 36.0375 33.464 34.231 32.6379 34.3855C30.8314 34.7637 28.6544 46.1122 27.45 46.4828C26.8479 46.6372 26.678 46.1122 26.099 46.4133C25.1958 46.8611 23.011 54.3804 21.9611 54.1334C20.9111 53.8864 23.1654 45.4946 21.8144 44.3675C20.9111 43.5955 19.7068 45.0392 18.5797 44.4447C17.6764 43.9892 17.6069 42.1827 16.7809 41.9588C15.9548 41.735 15.5766 42.4838 14.5266 42.1132C13.4767 41.7427 13.6234 40.4534 12.6429 40.3067C11.6625 40.1601 10.9136 41.2872 9.86371 40.9861C9.36689 40.7593 8.95208 40.3849 8.67578 39.9138C8.39948 39.4427 8.27514 38.8979 8.31969 38.3536C7.72525 42.2136 12.6815 54.4345 14.4108 59.3985C16.8195 57.2214 20.1237 55.9399 26.8865 59.3985C28.5386 60.6723 31.2483 67.5895 26.817 73.0785C25.0105 75.3327 23.7984 76.1665 27.0409 76.6065C27.6353 76.6992 27.643 77.587 28.3919 77.587C29.1407 77.587 30.4995 76.9076 30.87 77.062C31.2406 77.2164 30.7233 79.0152 31.1711 79.2391C31.6189 79.463 32.7151 79.0924 33.3559 79.3935C33.9967 79.6946 33.8114 80.5824 34.4058 80.8217C35.0003 81.061 36.359 80.2195 36.884 80.4434C37.4089 80.6673 37.656 80.8912 38.1655 81.1228C38.675 81.3544 39.7095 81.1923 40.2654 81.3467C40.8212 81.5011 40.7208 82.5433 41.1686 82.6977C41.7708 82.9138 42.7126 82.1573 43.199 82.3194C43.8783 82.5355 43.8783 83.6781 44.4728 83.6781C45.901 83.7476 45.5999 84.5736 46.1326 84.8052C47.0281 85.253 48.0163 83.9869 48.7574 83.6781C50.1239 83.0991 48.6108 85.1063 49.4368 85.3302C52.216 86.0019 55.6746 77.1392 52.741 71.1948C58.8321 74.2828 59.2104 78.9148 57.4811 83.076C55.2269 88.5572 52.741 89.8387 49.3596 89.1594C48.2325 88.9355 36.359 86.0019 20.1237 78.3513C21.7758 83.0914 23.5051 88.2793 25.2344 92.7106C25.9873 93.444 26.5619 94.3405 26.9139 95.3309C27.2659 96.3213 27.386 97.3793 27.2648 98.4235C29.2179 103.758 30.4995 107.139 31.1711 108.267C34.5525 113.941 41.9947 112.59 46.5804 110.559Z" fill="#FF7262"/>
<path d="M127.302 112.034C126.175 111.208 123.844 109.625 123.018 109.1C123.095 107.371 122.871 104.739 122.045 103.843C121.535 103.226 117.32 99.4427 115.274 99.103C113.343 98.8939 111.391 98.9955 109.492 99.4041C107.685 99.929 104.682 103.465 104.088 104.808C103.409 106.314 103.934 111.803 104.76 113.154C105.586 114.505 110.249 118.264 111.901 118.264C113.148 118.214 114.385 118.012 115.583 117.662C119.868 120.295 120.624 121.522 122.948 121.723C126.854 122.07 131.44 115.068 127.302 112.034ZM120.918 104.816C121.365 105.271 121.589 107.371 121.512 108.799C115.398 104.592 118.702 109.903 116.78 101.434C118.235 102.476 119.618 103.616 120.918 104.847V104.816ZM121.142 110.382C120.247 112.147 119.162 113.809 117.907 115.338C116.367 114.657 114.926 113.772 113.622 112.706C115.048 111.367 116.243 109.802 117.158 108.074C118.573 108.695 119.91 109.48 121.142 110.413V110.382ZM106.111 112.335C105.207 111.355 105.053 106.244 105.508 105.341C106.033 104.214 108.735 101.211 109.94 100.832C111.617 100.468 113.342 100.367 115.05 100.531C115.506 102.075 116.255 105.935 116.031 106.993C115.807 108.051 113.02 111.579 112.348 111.88C109.94 112.436 106.636 112.968 106.111 112.366V112.335ZM111.823 116.767C111.221 116.689 109.114 115.261 107.608 113.987C109.15 113.958 110.686 113.782 112.194 113.462C113.307 114.524 114.575 115.412 115.954 116.095C114.608 116.484 113.222 116.72 111.823 116.797V116.767ZM121.589 119.855C122.504 119.54 123.339 119.033 124.04 118.367C124.741 117.701 125.29 116.892 125.65 115.994C126.067 114.628 125.357 114.45 124.971 114.867C124.237 115.709 123.095 118.172 119.86 118.851C119.088 118.326 118.061 117.5 117.544 117.199C118.229 117.024 118.837 116.628 119.273 116.072C120.578 114.451 121.689 112.684 122.585 110.807C122.732 111.934 122.13 113.81 120.856 115.392C120.762 115.473 120.699 115.584 120.678 115.707C120.657 115.829 120.68 115.955 120.742 116.063C120.805 116.17 120.903 116.252 121.019 116.295C121.136 116.337 121.264 116.338 121.381 116.296C122.662 116.103 123.859 113.509 124.013 111.664C125.943 113.069 129.209 114.404 126.492 118.125C124.716 120.403 123.172 120.526 121.628 119.878L121.589 119.855Z" fill="#FF7262"/>
<path d="M47.2526 117.176C46.9516 116.952 46.4806 117.098 46.8049 118.002C47.1291 118.905 48.9125 119.955 49.9624 120.634C50.7884 121.159 51.0123 121.159 50.7884 122.433C48.3643 135.557 49.5146 136.113 45.3844 133.488C45.0061 133.257 44.4811 133.257 44.6124 133.859C44.9071 134.533 45.3885 135.11 45.9999 135.52C46.6113 135.93 47.3271 136.158 48.0632 136.175C50.3793 136.321 50.194 133.905 52.2012 122.649C52.7956 119.438 50.6572 120.58 47.2526 117.176Z" fill="#FF7262"/>
<path d="M87.6599 29.2362C87.9965 29.4206 88.3838 29.4909 88.7638 29.4366C89.1437 29.3823 89.4959 29.2064 89.7674 28.9352C90.6707 27.9547 90.4468 27.3911 89.0881 28.0319C88.7364 28.0737 88.3799 28.0475 88.0381 27.9547C87.872 27.9054 87.6972 27.8923 87.5255 27.9163C87.3539 27.9402 87.1893 28.0007 87.043 28.0936C86.8967 28.1865 86.772 28.3097 86.6773 28.4549C86.5826 28.6 86.5202 28.7638 86.4941 28.9352C83.4833 27.7617 84.1781 30.1781 86.4246 30.3634C86.6592 30.3779 86.8926 30.3211 87.0942 30.2003C87.2958 30.0796 87.4562 29.9007 87.5541 29.6871C87.6189 29.545 87.6552 29.3922 87.6599 29.2362Z" fill="#FF7262"/>
<path d="M118.888 80.0424C118.61 78.6142 115.653 68.8483 113.7 65.5364C112.874 64.1853 111.144 63.6604 112.048 65.6908C113.244 68.3233 117.158 78.2436 117.382 80.274C117.606 82.15 116.857 82.7521 113.623 84.4814C111.445 85.678 90.8483 92.8191 85.892 94.0234C81.6769 95.0039 80.102 92.0702 79.1215 90.0399C77.9944 87.8628 72.4359 74.26 71.3088 69.1493C70.4828 65.3897 70.4056 63.8843 74.1652 62.3788C90.6244 55.5389 102.243 53.8018 103.023 52.1575C103.602 50.9454 90.9255 53.964 73.4859 61.0278C68.6763 62.981 68.9774 65.4669 69.8034 69.4504C70.9305 74.7078 76.5662 88.465 77.6933 90.642C78.5966 92.3713 80.2487 95.9071 84.2322 95.6755C90.0223 95.3744 110.689 87.4845 114.341 85.7552C118.54 83.7248 119.312 82.2194 118.888 80.0424Z" fill="#FF7262"/>
<path d="M82.5105 32.7646C81.7385 31.4908 79.4996 33.2201 78.5269 32.2397C77.9942 31.7147 79.1214 30.742 78.4497 29.1516C77.2454 26.5191 73.1151 27.8778 74.1651 30.7342C74.6128 32.2319 75.8944 32.2319 75.8944 32.9885C75.9639 34.1851 72.9607 34.4862 73.4857 36.146C74.2577 39.373 79.1986 36.918 81.0823 35.9916C82.2557 35.3972 83.406 34.3472 82.5105 32.7646Z" fill="#FF7262"/>
<path d="M5.31762 17.5866C6.80366 17.5008 8.27237 17.2231 9.68718 16.7605C11.347 18.1115 14.049 19.6864 15.4 19.6864C17.1756 19.5668 18.9235 19.1869 20.5879 18.5593C21.344 18.2838 22.0166 17.8186 22.5411 17.2083C23.8998 15.7801 25.9225 13.9736 25.9997 12.6998C26.0769 11.4259 25.4593 5.95241 24.1237 4.65544C22.4944 3.34696 20.6978 2.26172 18.7814 1.42845C17.9349 0.96082 16.9616 0.774283 16.0022 0.89576C14.5269 1.02965 13.0685 1.30893 11.6481 1.72953C10.822 2.02289 9.23941 3.82939 8.03508 5.48148C6.63003 5.67371 5.24659 6.00182 3.90484 6.46193C-1.22129 8.03683 -0.348918 17.2083 5.31762 17.5866ZM15.014 18.1887C13.5997 17.5523 12.2413 16.7983 10.9533 15.9345C12.0989 15.7029 13.2098 15.3246 14.2575 14.8073C15.7506 15.8967 17.3368 16.8526 18.9976 17.6638C17.4073 18.0343 15.4618 18.4126 15.014 18.1887ZM17.0444 2.92614C17.5694 2.40117 18.241 2.70226 18.6965 2.92614C20.254 3.67793 21.7157 4.61358 23.0506 5.71309C23.8226 6.43877 24.5174 11.0477 24.4788 12.5454C24.4788 13.1475 22.7573 14.954 20.7964 16.6061C19.8236 16.6061 16.064 14.2901 14.9368 13.3791C14.4119 12.777 13.2075 8.33791 13.5086 7.36518C13.6553 6.68582 15.6162 4.28487 17.0444 2.92614ZM12.1576 3.1809C13.2596 2.8451 14.3923 2.6201 15.539 2.50926C10.0732 8.33791 14.3578 5.64361 8.84569 7.01778C9.82614 5.49692 11.6249 3.36618 12.1576 3.1809ZM11.9337 8.06771C12.0926 9.98195 12.5484 11.8598 13.2847 13.6339C12.0362 14.1486 10.7444 14.5516 9.4247 14.8382C8.76767 12.8857 8.31491 10.8702 8.07368 8.82428C9.332 8.43809 10.6247 8.17438 11.9337 8.03683V8.06771ZM2.60787 9.04816C3.37988 7.92875 5.31762 7.61994 6.89251 7.39606C6.63026 7.86553 6.52478 8.40647 6.59143 8.94008C6.66863 9.76612 7.49468 14.2746 8.25125 15.6334C7.71856 15.7029 7.19359 15.8573 6.52195 16.0039C5.68818 15.5562 5.16321 14.2052 4.97793 13.4486C4.83125 13.078 4.75405 12.777 4.29857 12.9236C3.47252 13.1475 3.62692 14.5757 4.37577 15.9345C2.28363 15.0158 0.963495 11.4028 2.60787 9.01728V9.04816Z" fill="#FF7262"/>
<path d="M63.9429 43.3636C64.6146 43.2864 65.1472 42.3909 65.8189 42.5375C66.7993 42.7614 67.6262 42.9853 68.2283 41.5648C69.533 38.94 67.6416 39.4264 66.6843 41.2637C64.4069 40.3064 62.0754 43.3636 63.9437 43.3636H63.9429Z" fill="#FF7262"/>
<path d="M4.86171 12.0206C5.63371 12.0978 5.54107 10.3685 5.68775 9.16417C5.84215 7.73596 4.63782 8.19144 4.33674 9.01749C4.03566 9.84354 3.96618 11.8739 4.86171 12.0206Z" fill="#FF7262"/>
<path d="M59.28 44.7918C61.5111 48.9375 65.8189 48.3276 70.0271 46.22C71.1542 45.6951 72.5129 44.9462 71.6869 44.676C69.8495 43.8422 63.465 49.2695 60.6318 44.151C59.4351 41.8968 55.6755 32.9492 54.9189 30.4711C54.1469 27.8385 54.9189 25.9548 57.2349 24.9049C60.323 23.5539 73.9257 19.3465 77.3071 18.2193C80.6885 17.0922 78.5809 16.7911 74.9911 17.6172C71.4013 18.4432 59.8057 22.1257 56.6482 23.4767C53.6451 24.8277 52.518 27.4603 53.4907 30.8416C54.1701 33.4433 58.0069 42.4604 59.2807 44.7918H59.28Z" fill="#FF7262"/>
<path d="M64.6146 26.6808C66.6373 25.9629 65.294 25.1368 63.2636 25.8548C60.631 26.758 56.8019 27.7308 58.3768 31.5676C60.1833 35.999 60.8626 38.9326 63.6419 38.7087C64.4679 38.6315 66.5678 38.176 66.645 37.35C66.7222 36.5239 65.2168 37.0489 64.244 37.2805C62.2909 37.7283 61.5343 35.6979 59.612 31.1893C58.4617 28.5722 60.2064 28.2403 64.6146 26.6808Z" fill="#FF7262"/>
<path d="M94.4612 36.4467C93.033 36.3387 92.5775 36.5239 92.0526 37.1261C91.8982 37.2805 91.4504 37.2033 91.1493 37.2033C90.6402 37.2307 90.1591 37.4451 89.7983 37.8055C88.2543 37.35 87.6212 38.3304 86.7875 39.2337C86.3938 39.8281 85.56 37.0643 83.105 40.0597C80.843 37.543 80.5342 41.2177 79.7236 41.5651C79.1986 41.789 77.9248 40.963 77.2455 40.7314C76.5661 40.4998 75.8945 40.8086 76.5661 41.5651C77.3456 42.4327 78.4175 42.9824 79.5769 43.1092C80.8507 43.1092 81.6073 41.6809 81.6768 40.8549C83.7303 43.7808 84.3402 39.4035 85.3593 40.3994C86.6948 41.7041 87.243 40.7777 88.594 39.4267C88.8951 39.1256 89.366 39.3495 89.945 39.2723C90.524 39.1951 90.9177 38.7473 91.1493 38.6006C91.5199 38.369 92.1298 38.7473 92.8014 38.3768C93.4731 38.0062 93.4036 37.3191 94.8318 37.3963C95.8894 37.5044 95.9666 36.5625 94.4612 36.4467Z" fill="#FF7262"/>
<path d="M85.8918 25.8547C86.7874 25.9242 87.2429 24.5732 87.5439 23.8244C89.088 25.0982 90.1765 25.0287 91.1492 23.2222C93.5579 23.7472 93.4652 22.8439 92.6932 22.3189C91.1492 21.3462 90.2151 21.6473 89.3813 23.2222C87.4281 21.794 86.9804 22.0951 85.8532 24.2721C85.5116 23.9692 85.0962 23.7615 84.6489 23.67C84.2011 23.6005 83.8229 24.0482 83.9773 24.3493C84.1254 24.7531 84.3829 25.1078 84.721 25.3736C85.0591 25.6394 85.4645 25.806 85.8918 25.8547Z" fill="#FF7262"/>
<path d="M101.556 33.598C100.954 31.4904 99.5256 26.9819 98.5452 24.3339C97.4181 21.2459 96.2292 16.7451 89.2271 17.6483C83.051 18.4203 74.4972 21.5084 70.6989 23.1296C67.5414 24.4806 66.3448 27.4142 67.773 31.5522C74.7982 52.0335 73.702 50.0418 98.0588 42.0746C101.556 40.8857 102.722 37.7282 101.556 33.598ZM80.7118 45.9501C77.7782 46.8534 75.3772 45.4251 74.0185 43.1709C72.0653 40.0134 69.8883 33.5517 69.2089 31.2202C68.159 27.6844 68.8383 25.5846 71.3937 24.5269C74.4817 23.1759 84.7726 18.8913 91.0799 18.8913C95.3645 18.8913 96.1906 22.2726 97.0938 24.828C97.9971 27.3833 99.5025 31.8996 100.105 33.9994C101.077 37.458 100.251 39.7123 97.4721 40.6927C95.0557 41.5651 83.9388 44.9465 80.7118 45.9192V45.9501Z" fill="#FF7262"/>
<path d="M49.5841 113.794C51.4987 119.075 76.057 125.668 84.2326 121.159C88.2161 117.554 82.1327 111.841 68.2288 110.181C54.6261 108.529 48.643 111.177 49.5849 113.794H49.5841ZM76.196 113.64C78.512 114.466 79.5774 116.419 76.6437 115.369C70.8537 113.493 59.8062 113.192 55.8999 113.941C52.4413 114.62 52.8119 112.737 57.4053 112.065C62.3616 111.308 71.0853 111.911 76.196 113.64Z" fill="#FF7262"/>
<path d="M130.684 43.5879C135.725 38.0294 133.919 31.4905 127.828 31.4905C123.095 31.4905 120.617 34.9491 115.128 41.7119C112.812 35.1344 108.952 22.4117 105.354 13.4487C101.672 4.28498 93.0023 5.72863 90.1768 6.16096C67.2327 10.1291 12.3816 25.6233 6.74594 28.4797C1.48085 31.1894 0.353723 36.9718 1.11029 41.488C1.93634 46.5215 5.01665 57.4222 7.04703 62.9112C-1.97774 66.9643 -3.43683 84.2418 9.52517 89.2135C11.2545 90.1939 13.8098 91.1667 16.1413 92.2243C17.4151 96.2079 18.0944 98.1611 19.5999 102.067C18.8279 103.573 13.887 116.126 13.9565 121.236C14.1032 128.184 24.1701 128.045 23.7301 123.19C23.5834 121.236 21.7769 120.032 19.4455 119.955C17.114 119.878 17.1912 121.306 18.3183 121.306C19.7465 121.236 21.6457 121.669 22.2247 122.587C23.3981 124.44 20.2715 125.444 18.6966 125.066C17.2684 124.618 15.4619 123.56 15.4619 121.306C15.4619 117.446 18.9977 107.024 20.5726 103.496C21.4758 101.465 25.9072 101.18 27.6365 103.117C29.3658 105.055 25.0116 119.808 24.6334 121.236C24.2551 122.665 25.6061 122.433 26.1774 121.082C26.7356 119.613 27.1896 118.106 27.5361 116.573C29.5588 118.527 32.5696 119.206 35.5032 119.353C37.2325 119.43 41.8877 118.303 43.9953 117.701C43.0148 122.665 42.266 128.447 41.6793 132.508C39.8033 146.257 81.0516 152.356 84.3713 143.107C84.5179 142.652 84.819 141.749 85.1433 140.552C91.4583 137.317 90.0301 128.3 88.4552 125.745C90.3157 115.662 90.6708 111.023 79.3609 106.352C92.5854 101.612 116.641 92.896 119.721 91.3211C130.723 86.442 128.013 79.4476 119.42 53.6626C120.038 53.0372 127.928 46.4752 130.684 43.5879ZM2.90907 41.2719C2.3069 37.3578 3.21015 32.4015 7.54111 30.2167C13.7789 27.0438 70.3516 11.4724 90.5164 8.04466C93.5273 7.51969 100.553 6.39256 103.641 14.2825C105.957 20.0725 110.928 34.2775 113.785 43.4489C113.414 43.8272 113.113 44.275 112.735 44.7227C111.191 38.0371 103.787 18.266 102.436 14.6608C100.259 8.87071 94.5463 9.32619 90.0841 10.2294C70.838 14.3597 27.621 25.3376 12.2118 31.7993C6.6533 34.1153 6.6533 39.0871 8.00431 44.3522C8.90756 47.7336 12.4356 58.1788 13.115 59.5298C9.43253 63.5906 12.9297 61.6142 8.68368 62.4634C6.81542 56.9668 3.66563 46.0737 2.90907 41.2641V41.2719ZM21.6997 58.4027C30.5701 60.5875 47.7086 69.9828 52.3638 72.0132C55.1508 73.6653 56.2779 74.4913 56.9959 76.8923C57.8219 79.602 56.2239 85.616 52.4102 88.0941C48.5965 90.5722 18.4419 77.147 14.4583 74.7924C19.4841 73.534 24.8341 64.6328 21.6997 58.395V58.4027ZM10.0501 73.3565C10.1659 73.812 12.3662 80.4049 13.8098 85.2299C13.2076 84.9289 12.5283 84.6278 11.9338 84.3267C6.81542 81.8485 4.71556 78.39 5.61881 74.1053C6.29046 71.1022 7.34811 69.2185 8.923 68.3925C8.72172 70.1272 9.11941 71.8787 10.0501 73.3565ZM12.7599 75.5335C14.8242 76.8465 16.9842 78.0026 19.2216 78.9921C19.6693 80.3431 21.1748 84.6278 22.9813 89.6613C20.7956 88.3329 18.5085 87.179 16.1413 86.2104C15.8633 85.3843 13.362 77.5639 12.7753 75.5335H12.7599ZM19.9704 67.5664C16.674 74.6534 9.53289 75.9813 10.5751 67.8675C11.135 67.836 11.6958 67.912 12.2272 68.0914C12.7599 70.5772 15.9174 69.6354 17.2684 66.8176C18.7661 63.7295 17.0445 61.0275 14.7131 62.6101C14.1023 62.3945 13.4711 62.2419 12.8294 62.1546C18.6117 53.5776 23.6606 59.5375 19.9704 67.5664ZM22.7574 100.261C22.1474 100.348 21.5601 100.552 21.0281 100.863C20.2561 98.8327 19.4455 96.3546 18.3955 93.3515C22.1475 95.2969 22.9967 96.3546 22.7574 100.261ZM26.7409 100.716C25.9466 100.394 25.1089 100.191 24.2551 100.114C25.0271 92.5949 18.851 92.2243 10.1273 87.8625C4.1906 84.9289 0.0526403 80.1424 1.70474 72.5304C3.41087 64.6791 9.54833 62.0157 14.9369 64.4089C16.1413 64.9339 15.4619 67.3425 14.0337 67.1187C13.4248 66.8895 12.7971 66.7139 12.1577 66.5937C8.29768 66.0147 5.46441 68.1377 4.26008 73.8042C3.13295 79.2083 6.14378 83.1996 11.4011 85.7549C23.7301 91.6917 27.1887 91.545 26.7409 100.716ZM25.0811 91.3211C24.78 90.5491 21.8541 82.2268 21.0976 79.9726C31.9057 84.8517 47.4848 90.2634 50.7118 90.1167C56.6485 89.8929 59.6593 80.4975 58.4318 76.5835C57.4514 73.4954 55.7298 72.4532 53.0973 70.8783C47.3844 68.3925 25.8145 56.3723 18.4496 56.5962C16.9177 56.6923 15.4627 57.3015 14.3193 58.3255C10.3589 46.4134 4.92401 36.3773 12.8294 33.1426C28.6941 26.6037 71.085 15.8574 90.4006 11.7194C96.3374 10.4456 99.4177 11.4955 101.07 15.2552C102.876 19.4626 110.465 42.2755 111.747 45.9965C106.412 52.2344 100.02 59.5221 97.7656 60.0548C92.5777 61.1819 87.992 58.0939 82.4335 63.9611C79.1216 67.2653 78.0717 75.5413 81.6075 77.2628C83.2133 78.1584 85.8844 72.9087 88.6713 70.1218C89.5823 68.9097 90.2154 69.7049 93.9287 70.5772C94.4768 70.7085 94.2066 70.4692 95.658 75.1553C96.3374 76.2824 93.8592 78.0117 92.3538 79.5171C87.7218 84.3267 88.0692 85.9788 94.1603 86.2799C97.5417 86.4343 100.336 84.9289 102.575 82.1496C107.007 76.8151 104.227 71.8511 105.208 67.0415C105.432 65.8371 110.612 61.4058 115.506 57.1984C118.062 64.2622 120.617 73.4105 122.045 79.216C122.941 82.9757 121.891 84.5506 119.86 85.7549C107.161 91.159 86.4171 97.9295 69.9579 103.797C60.2615 102.067 49.8857 102.832 46.7977 107.255C46.2792 108.251 45.8999 109.314 45.6705 110.413C32.2145 115.122 31.3035 107.85 28.393 100.454C28.6941 96.1307 27.3354 93.3515 25.0811 91.3211ZM38.3905 117.098C35.4569 117.778 30.3462 117.477 28.0147 114.319C28.6169 111.54 29.1419 108.83 29.443 107.325C31.6972 112.59 35.233 113.269 37.7112 113.269C40.243 113.227 42.7531 112.795 45.1533 111.988C44.9294 113.038 44.6283 114.165 44.3813 115.446C42.4221 116.126 40.421 116.678 38.3905 117.098ZM82.9585 142.505C81.5303 149.044 42.3664 145.717 43.2001 132.508C43.5784 126.409 45.6783 116.419 46.8826 111.308C47.7086 113.864 51.4683 116.573 56.2779 118.828C55.8708 119.048 55.5198 119.359 55.252 119.736C54.9843 120.114 54.807 120.548 54.7339 121.005C54.5332 122.286 54.7339 124.927 55.2589 125.637C55.6989 126.247 57.6675 127.065 58.7947 127.443C61.5276 135.488 72.8684 144.034 83.2982 140.969C83.2386 141.491 83.1247 142.006 82.9585 142.505ZM85.7377 138.066C86.4171 135.364 87.2817 131.89 87.9225 128.524C89.1191 133.033 88.0692 136.19 85.7377 138.066ZM83.9389 139.193C76.435 142.551 64.0752 136.97 60.4854 127.397C61.3225 126.827 62.0987 126.173 62.8014 125.444C63.6274 124.618 63.3264 122.665 62.647 122.811C61.6743 122.958 62.7242 124.239 60.0222 125.969C59.945 125.59 59.8678 125.197 59.7906 124.919C60.9949 124.386 61.0721 121.985 59.5667 121.383C57.3896 120.557 56.4786 123.56 58.2929 124.687C58.3029 125.067 58.3523 125.445 58.4395 125.814C57.7748 125.607 57.1431 125.305 56.5636 124.919C56.2016 123.751 56.0989 122.518 56.2625 121.306C56.332 120.534 56.9341 120.179 58.0613 119.577C63.7741 121.893 70.6913 123.437 76.1031 123.19C81.8159 123.035 85.7995 122.062 87.9071 119.577C87.2431 124.988 85.2128 134.083 83.9389 139.193ZM87.8453 116.033C87.1351 126.656 49.2449 121.051 47.6314 108.514C52.1477 99.4349 87.8453 105.858 87.8453 116.048V116.033ZM118.957 89.4991C114.626 91.7148 77.346 104.808 76.8674 105.287C75.5163 104.831 74.0881 104.453 72.6599 104.082C88.7486 98.4467 108.589 91.8306 120.524 86.7199C122.624 85.4384 124.585 83.4852 123.381 78.5289C121.953 72.5845 119.243 63.0425 116.618 55.8242C117.066 55.4536 117.444 55.0522 117.892 54.7743C126.5 80.7137 128.059 85.5079 118.957 89.5146V89.4991ZM103.324 66.2772C102.197 70.9092 105.131 75.8192 101.07 80.706C100.034 82.0538 98.6363 83.0798 97.0401 83.6647C95.4438 84.2496 93.7144 84.3694 92.0527 84.0102C91.4506 83.8635 90.5087 83.7323 91.605 82.6592C94.0445 80.2968 98.1593 77.1161 97.3101 74.4682C95.2411 67.937 96.6848 69.2571 89.8757 67.4043C87.6214 66.7558 87.3126 68.6935 82.4335 74.5454C82.1247 74.9082 81.6615 75.3714 81.3759 74.3138C80.9952 72.6968 81.0067 71.0122 81.4096 69.4006C81.8125 67.7891 82.595 66.2972 83.6919 65.0497C88.7331 59.6456 92.7861 63.0965 98.1979 61.5911C101.355 60.6878 108.35 52.273 116.842 42.5765C121.428 37.3887 122.856 33.8529 127.812 33.3125C129.842 33.0886 133.525 36.1689 130.221 41.0325C127.032 45.8113 104.189 62.5561 103.324 66.2926V66.2772Z" fill="#001434"/>
<path d="M88.6714 77.1865C91.6822 78.3136 92.624 77.6574 94.1603 75.4572C94.6853 74.6852 94.3842 74.4845 93.6277 72.153C93.3343 71.1725 93.1799 71.3269 91.3734 70.802C90.4007 70.5009 89.4202 70.277 88.2159 71.7747C87.0116 73.2724 86.8649 73.2029 87.166 74.1834C87.9225 76.5226 87.8453 76.8854 88.6714 77.1865Z" fill="#001434"/>
<path d="M127.751 36.3776C125.35 35.4744 123.891 38.3694 125.952 39.6046C128.152 40.917 130.159 37.3504 127.751 36.3776Z" fill="#001434"/>
<path d="M83.6378 125.514C78.6893 127.645 70.3284 126.417 66.5688 125.445C66.1982 125.367 65.7968 125.591 66.121 125.969C67.8349 128.409 84.0316 129.521 84.5334 125.668C84.572 125.221 84.0084 125.36 83.6378 125.514Z" fill="#001434"/>
</svg>
