<svg width="49" height="49" viewBox="0 0 49 49" fill="none" xmlns="http://www.w3.org/2000/svg">
<path d="M24.5 28.8641C26.9103 28.8641 28.8641 26.9103 28.8641 24.5C28.8641 22.0898 26.9103 20.136 24.5 20.136C22.0898 20.136 20.136 22.0898 20.136 24.5C20.136 26.9103 22.0898 28.8641 24.5 28.8641Z" fill="#001434"/>
<path d="M41.0757 17.3031C40.2335 16.9969 39.3531 16.6906 38.4343 16.4226C38.664 15.5039 38.8554 14.5851 39.0085 13.7047C39.8125 8.65155 38.932 5.09139 36.482 3.71327C35.7546 3.29218 34.9507 3.10077 34.032 3.10077C31.3523 3.10077 27.9453 5.09139 24.5 8.42186C21.0546 5.09139 17.6476 3.10077 14.9679 3.10077C14.0492 3.10077 13.2453 3.29218 12.5179 3.71327C10.0679 5.12968 9.18745 8.68983 9.99136 13.7047C10.1445 14.5851 10.3359 15.5039 10.5656 16.4226C9.64683 16.6906 8.76636 16.9586 7.92417 17.3031C3.13901 19.1406 0.535889 21.6672 0.535889 24.5C0.535889 27.3328 3.1773 29.8594 7.92417 31.6969C8.76636 32.0031 9.64683 32.3094 10.5656 32.5773C10.3359 33.4961 10.1445 34.4148 9.99136 35.2953C9.18745 40.3484 10.0679 43.9086 12.5179 45.2867C13.2453 45.7078 14.0492 45.8992 14.9679 45.8992C17.6859 45.8992 21.0929 43.9086 24.5 40.5781C27.9453 43.9086 31.3523 45.8992 34.032 45.8992C34.9507 45.8992 35.7546 45.7078 36.482 45.2867C38.932 43.8703 39.8125 40.3101 39.0085 35.2953C38.8554 34.4148 38.664 33.4961 38.4343 32.5773C39.3531 32.3094 40.2335 32.0414 41.0757 31.6969C45.8609 29.8594 48.464 27.3328 48.464 24.5C48.464 21.6672 45.8609 19.1406 41.0757 17.3031V17.3031ZM35.4101 5.62733C36.9796 6.54608 37.5156 9.37889 36.8648 13.3984C36.75 14.2023 36.5585 15.0445 36.3289 15.925C34.3382 15.4656 32.2328 15.1594 30.0125 14.968C28.7109 13.1305 27.371 11.4844 26.0312 9.99139C28.864 7.19686 31.7351 5.2828 34.0703 5.2828C34.5679 5.2828 35.0273 5.39764 35.4101 5.62733V5.62733ZM31.1226 28.3281C30.4335 29.5531 29.6296 30.7781 28.7874 32.0031C27.371 32.118 25.9546 32.1562 24.5 32.1562C23.007 32.1562 21.5906 32.118 20.2125 32.0031C19.3703 30.7781 18.6046 29.5531 17.9156 28.3281C17.1882 27.0648 16.4992 25.7633 15.8867 24.5C16.4992 23.2367 17.1882 21.9351 17.9156 20.6719C18.6046 19.4469 19.4085 18.2219 20.2507 16.9969C21.6671 16.882 23.0835 16.8437 24.5382 16.8437C26.0312 16.8437 27.4476 16.882 28.8257 16.9969C29.6679 18.2219 30.4335 19.4469 31.1226 20.6719C31.85 21.9351 32.539 23.2367 33.1515 24.5C32.5007 25.7633 31.85 27.0266 31.1226 28.3281ZM34.3 27.0648C34.8742 28.4047 35.3335 29.7062 35.7546 31.0078C34.4531 31.3141 33.0749 31.5437 31.6203 31.7351C32.0796 31.0078 32.5773 30.2422 32.9984 29.4383C33.4578 28.6344 33.8789 27.8305 34.3 27.0648ZM24.5 37.4391C23.5812 36.4437 22.7007 35.3719 21.8585 34.2617C22.739 34.3 23.6195 34.3383 24.5 34.3383C25.3804 34.3383 26.2609 34.3 27.1414 34.2617C26.2992 35.3719 25.4187 36.4437 24.5 37.4391ZM17.3796 31.6969C15.925 31.5055 14.5468 31.2758 13.2453 30.9695C13.6664 29.7062 14.1257 28.3664 14.7 27.0266C15.121 27.7922 15.5421 28.5961 16.0015 29.3617C16.4609 30.2039 16.9203 30.9312 17.3796 31.6969V31.6969ZM14.7 21.9351C14.1257 20.5953 13.6664 19.2937 13.2453 17.9922C14.5468 17.6859 15.925 17.4562 17.3796 17.2648C16.9203 17.9922 16.4226 18.7578 16.0015 19.5617C15.5421 20.3656 15.121 21.1695 14.7 21.9351V21.9351ZM24.5 11.5609C25.4187 12.5562 26.2992 13.6281 27.1414 14.7383C26.2609 14.7 25.3804 14.6617 24.5 14.6617C23.6195 14.6617 22.739 14.7 21.8585 14.7383C22.7007 13.6281 23.5812 12.5562 24.5 11.5609ZM32.9984 19.6L31.6203 17.3031C33.0749 17.4945 34.4531 17.7242 35.7546 18.0305C35.3335 19.2937 34.8742 20.6336 34.3 21.9734C33.8789 21.1695 33.4578 20.3656 32.9984 19.6ZM12.1351 13.3984C11.4843 9.37889 12.0203 6.54608 13.5898 5.62733C13.9726 5.39764 14.432 5.2828 14.9296 5.2828C17.2265 5.2828 20.0976 7.15858 22.9687 9.99139C21.6289 11.4461 20.289 13.1305 18.9875 14.968C16.7671 15.1594 14.6617 15.5039 12.671 15.925C12.4414 15.0445 12.2882 14.2023 12.1351 13.3984V13.3984ZM2.67964 24.5C2.67964 22.7008 4.86167 20.7867 8.6898 19.3703C9.45542 19.0641 10.2976 18.7961 11.1398 18.5664C11.7523 20.4805 12.5179 22.5094 13.4367 24.5383C12.5179 26.5672 11.714 28.5578 11.1398 30.4719C5.85698 28.9406 2.67964 26.6437 2.67964 24.5ZM13.5898 43.3726C12.0203 42.4539 11.4843 39.6211 12.1351 35.6016C12.25 34.7976 12.4414 33.9555 12.671 33.075C14.6617 33.5344 16.7671 33.8406 18.9875 34.032C20.289 35.8695 21.6289 37.5156 22.9687 39.0086C20.1359 41.8031 17.2648 43.7172 14.9296 43.7172C14.432 43.7172 13.9726 43.6023 13.5898 43.3726ZM36.8648 35.6016C37.5156 39.6211 36.9796 42.4539 35.4101 43.3726C35.0273 43.6023 34.5679 43.7172 34.0703 43.7172C31.7734 43.7172 28.9023 41.8414 26.0312 39.0086C27.371 37.5539 28.7109 35.8695 30.0125 34.032C32.2328 33.8406 34.3382 33.4961 36.3289 33.075C36.5585 33.9555 36.7117 34.7976 36.8648 35.6016V35.6016ZM40.3101 29.6297C39.5445 29.9359 38.7023 30.2039 37.8601 30.4336C37.2476 28.5195 36.482 26.4906 35.5632 24.4617C36.482 22.4328 37.2859 20.4422 37.8601 18.5281C43.1429 20.0594 46.3203 22.3562 46.3203 24.5C46.3203 26.2992 44.1 28.2133 40.3101 29.6297Z" fill="#001434"/>
</svg>
